<svg width="28" height="28" viewBox="0 0 28 28" fill="none" xmlns="http://www.w3.org/2000/svg">
<path d="M16.7938 17.3464C16.8559 17.3015 16.9041 17.2401 16.9331 17.1691C16.9621 17.0982 16.9707 17.0206 16.9579 16.945L16.5067 14.3145L18.4175 12.4519C18.4722 12.3985 18.511 12.3308 18.5293 12.2566C18.5476 12.1823 18.5448 12.1044 18.5212 12.0317C18.4976 11.9589 18.4541 11.8942 18.3957 11.8449C18.3373 11.7955 18.2662 11.7635 18.1905 11.7524L15.5491 11.3696L14.3684 8.97649C14.3344 8.9079 14.282 8.85016 14.2169 8.8098C14.1519 8.76944 14.0769 8.74805 14.0004 8.74805C13.9238 8.74805 13.8488 8.76944 13.7838 8.8098C13.7187 8.85016 13.6663 8.9079 13.6323 8.97649L12.4516 11.3696L9.8102 11.7524C9.73453 11.7635 9.66345 11.7955 9.60502 11.8449C9.54658 11.8942 9.5031 11.9589 9.4795 12.0317C9.45589 12.1044 9.4531 12.1823 9.47143 12.2566C9.48977 12.3308 9.5285 12.3985 9.58325 12.4519L11.494 14.3145L11.0429 16.945C11.0299 17.0204 11.0383 17.098 11.0671 17.1689C11.0959 17.2398 11.144 17.3012 11.2059 17.3462C11.2678 17.3912 11.3411 17.418 11.4174 17.4236C11.4937 17.4291 11.5701 17.4132 11.6379 17.3776L13.9998 16.1356L16.3623 17.3776C16.4299 17.4134 16.5062 17.4294 16.5825 17.4239C16.6588 17.4184 16.732 17.3915 16.7938 17.3464ZM15.7788 13.8776C15.7313 13.9241 15.6958 13.9814 15.6753 14.0447C15.6549 14.1079 15.65 14.1752 15.6612 14.2407L16.0079 16.2641L14.1907 15.3088C14.1317 15.2777 14.066 15.2614 13.9993 15.2614C13.9326 15.2614 13.8669 15.2777 13.8079 15.3088L11.9906 16.2641L12.3373 14.2407C12.3485 14.1752 12.3437 14.1079 12.3232 14.0447C12.3027 13.9814 12.2672 13.9241 12.2197 13.8776L10.7492 12.4448L12.7814 12.1495C12.8472 12.1398 12.9096 12.1144 12.9634 12.0752C13.0171 12.036 13.0605 11.9844 13.0898 11.9247L13.9998 10.0834L14.9087 11.9247C14.938 11.9844 14.9814 12.036 15.0352 12.0752C15.0889 12.1144 15.1514 12.1398 15.2172 12.1495L17.2493 12.4448L15.7788 13.8776Z" fill="#E6A424"/>
<path d="M21.6711 18.8612C21.0986 19.0253 20.2542 19.2801 19.395 19.5437C19.4018 19.519 19.4117 19.4953 19.4246 19.4732L19.5208 19.3119C19.5593 19.2463 19.6219 19.1983 19.6953 19.1784C20.3329 19.0062 21.3261 18.8301 21.3359 18.8284L21.3589 18.8235C21.4854 18.7937 21.6044 18.7378 21.7081 18.6594C21.8118 18.5809 21.898 18.4817 21.9611 18.368C22.0242 18.2543 22.0629 18.1287 22.0746 17.9992C22.0864 17.8697 22.071 17.7392 22.0293 17.616L21.442 15.8726C21.435 15.8519 21.4341 15.8296 21.4393 15.8084C21.4445 15.7872 21.4557 15.7679 21.4715 15.7528L22.8108 14.4922C22.9054 14.403 22.9802 14.295 23.0307 14.1752C23.0812 14.0554 23.1061 13.9263 23.1039 13.7964C23.1016 13.6664 23.0723 13.5383 23.0178 13.4202C22.9633 13.3022 22.8848 13.1968 22.7873 13.1108L21.407 11.8946C21.3907 11.8802 21.3788 11.8614 21.3728 11.8405C21.3668 11.8195 21.3669 11.7973 21.3731 11.7765L21.9019 10.0139C21.9392 9.88934 21.95 9.75839 21.9338 9.62941C21.9176 9.50043 21.8747 9.37624 21.8078 9.26478C21.7409 9.15332 21.6515 9.05703 21.5453 8.98206C21.4391 8.90709 21.3184 8.85508 21.191 8.82936L19.3863 8.46678C19.3649 8.46238 19.3452 8.45197 19.3295 8.43676C19.3138 8.42155 19.3028 8.40218 19.2977 8.38092L18.8744 6.59045C18.8445 6.46391 18.7885 6.345 18.71 6.24134C18.6314 6.13768 18.5322 6.05154 18.4185 5.98844C18.3048 5.92534 18.1791 5.88665 18.0496 5.87487C17.9201 5.86308 17.7896 5.87844 17.6664 5.91998L15.924 6.50787C15.9034 6.51481 15.8812 6.51571 15.8601 6.51048C15.839 6.50525 15.8198 6.4941 15.8048 6.47834L14.5432 5.1374C14.4539 5.04287 14.3459 4.96799 14.2261 4.91753C14.1063 4.86708 13.9773 4.84216 13.8473 4.84437C13.7173 4.84659 13.5892 4.87588 13.4712 4.93038C13.3531 4.98489 13.2477 5.0634 13.1618 5.16092L11.9455 6.54123C11.9311 6.55765 11.9122 6.56957 11.8911 6.57558C11.8701 6.58159 11.8478 6.58144 11.8268 6.57514L10.0626 6.04686C9.93807 6.00945 9.80709 5.99846 9.67804 6.01459C9.549 6.03073 9.42475 6.07363 9.31324 6.14055C9.20174 6.20747 9.10544 6.29694 9.0305 6.40323C8.95557 6.50952 8.90366 6.63029 8.87809 6.75779L8.51551 8.56248C8.51112 8.58389 8.5007 8.60359 8.48549 8.61929C8.47028 8.63498 8.45091 8.64601 8.42966 8.65108L6.63919 9.07436C6.51297 9.10457 6.39442 9.16073 6.2911 9.23928C6.18778 9.31783 6.10195 9.41703 6.03909 9.53057C5.97622 9.64412 5.93769 9.76951 5.92595 9.89876C5.91421 10.028 5.92952 10.1583 5.97091 10.2813L6.55825 12.0247C6.56523 12.0455 6.56616 12.0677 6.56093 12.0889C6.5557 12.1101 6.54452 12.1294 6.52872 12.1445L5.18942 13.4056C5.0949 13.4948 5.02003 13.6027 4.96958 13.7225C4.91913 13.8423 4.89421 13.9713 4.89643 14.1012C4.89864 14.2312 4.92793 14.3592 4.98243 14.4772C5.03693 14.5952 5.11543 14.7005 5.21294 14.7865L6.59325 16.0027C6.60956 16.0173 6.6214 16.0361 6.6274 16.0571C6.6334 16.0781 6.63332 16.1004 6.62716 16.1214C6.62716 16.1296 6.62223 16.1378 6.62059 16.146L6.27223 17.6439C5.29605 17.8179 4.35125 18.1364 3.46895 18.5889C3.37715 18.6431 3.31004 18.7309 3.28185 18.8337C3.25366 18.9365 3.26661 19.0462 3.31794 19.1396C3.36928 19.2331 3.45497 19.3028 3.55686 19.3342C3.65875 19.3655 3.76884 19.3559 3.8638 19.3075C3.88567 19.296 6.0513 18.1257 8.36512 18.3636C9.59286 18.4899 10.2978 18.9438 10.9201 19.3447C11.3839 19.6433 11.8225 19.9255 12.3803 20.0097C14.92 20.3925 15.8218 20.655 15.8256 21.3769C15.829 21.4233 15.8202 21.4699 15.7999 21.5118C15.7797 21.5538 15.7487 21.5897 15.7102 21.6158C15.5494 21.7372 14.9801 21.9883 13.1612 21.7012C12.4812 21.5907 11.8075 21.4438 11.1432 21.2609C11.0389 21.2316 10.9272 21.2449 10.8325 21.2977C10.7379 21.3505 10.668 21.4387 10.6382 21.5429C10.6083 21.6471 10.6209 21.7589 10.6733 21.8538C10.7256 21.9487 10.8134 22.0191 10.9174 22.0495C11.611 22.2414 12.3146 22.3951 13.025 22.51C13.5475 22.5989 14.0761 22.6472 14.6061 22.6544C15.3372 22.6544 15.8639 22.5264 16.2046 22.2715C16.3448 22.1688 16.4582 22.0337 16.535 21.8778C16.6119 21.7218 16.6499 21.5496 16.6459 21.3758C16.6459 21.3358 16.6459 21.2981 16.641 21.2604C17.5608 20.9705 20.5238 20.0419 21.8981 19.6493C22.5888 19.4519 22.9508 19.6094 23.0257 19.763C23.0903 19.8954 23.0093 20.1458 22.679 20.3887C22.195 20.7403 20.2903 21.7969 18.2264 22.8086C15.8655 23.9652 14.121 24.657 13.5599 24.6587H13.5304C10.02 24.6587 3.8463 22.8501 3.78395 22.8321C3.6796 22.8013 3.5673 22.8133 3.47177 22.8654C3.37623 22.9174 3.30529 23.0053 3.27454 23.1096C3.24379 23.214 3.25576 23.3263 3.3078 23.4218C3.35985 23.5174 3.44772 23.5883 3.55208 23.619C3.56794 23.6234 5.1588 24.0915 7.17075 24.5487C9.86575 25.1651 12.0051 25.4784 13.5298 25.4784H13.5626C15.2339 25.4735 22.159 21.7805 23.1619 21.0487C23.7826 20.5976 24.0243 19.9347 23.7635 19.4005C23.5256 18.9219 22.8524 18.5233 21.6711 18.8612ZM12.5022 19.1981C12.1194 19.1407 11.7853 18.9247 11.3642 18.6551C10.6992 18.2269 9.87176 17.6937 8.4488 17.5476C8.01385 17.5042 7.57591 17.4995 7.14012 17.5334L7.41684 16.3429C7.46462 16.1733 7.46358 15.9937 7.41386 15.8247C7.36414 15.6557 7.26774 15.5042 7.13575 15.3875L5.75489 14.1712C5.74306 14.1606 5.7336 14.1475 5.72712 14.133C5.72064 14.1184 5.7173 14.1027 5.7173 14.0867C5.7173 14.0708 5.72064 14.0551 5.72712 14.0405C5.7336 14.0259 5.74306 14.0129 5.75489 14.0022L7.09091 12.7422C7.22069 12.6194 7.3127 12.4621 7.35611 12.2888C7.39951 12.1155 7.3925 11.9334 7.33591 11.7639L6.74801 10.0188C6.74286 10.0037 6.74093 9.98777 6.74234 9.97191C6.74375 9.95605 6.74847 9.94066 6.7562 9.92675C6.76394 9.91283 6.7745 9.90069 6.78722 9.89111C6.79994 9.88154 6.81453 9.87474 6.83005 9.87115L8.62051 9.44787C8.79437 9.40647 8.95276 9.3162 9.07699 9.18771C9.20121 9.05922 9.28609 8.89787 9.32161 8.72272L9.68419 6.91803C9.6874 6.90247 9.6938 6.88775 9.70299 6.8748C9.71218 6.86184 9.72395 6.85093 9.73757 6.84276C9.75119 6.83459 9.76636 6.82933 9.78211 6.82732C9.79787 6.82531 9.81387 6.82659 9.82911 6.83108L11.5939 7.361C11.7651 7.412 11.9474 7.413 12.1191 7.36387C12.2909 7.31475 12.4451 7.21755 12.5635 7.08373L13.7792 5.70287C13.7896 5.69073 13.8025 5.681 13.817 5.67439C13.8316 5.66778 13.8474 5.66443 13.8634 5.66459C13.8792 5.66423 13.895 5.6672 13.9096 5.67333C13.9242 5.67945 13.9373 5.68859 13.9482 5.70014L15.2098 7.03889C15.3325 7.16869 15.4897 7.26071 15.663 7.30412C15.8362 7.34753 16.0182 7.34051 16.1876 7.28389L17.9311 6.696C17.9461 6.69102 17.9621 6.68922 17.9779 6.69071C17.9937 6.69219 18.009 6.69694 18.0229 6.70465C18.0367 6.71236 18.0489 6.72286 18.0585 6.73549C18.0681 6.74812 18.075 6.7626 18.0787 6.77803L18.502 8.5685C18.5434 8.74236 18.6337 8.90075 18.7622 9.02497C18.8907 9.1492 19.052 9.23408 19.2272 9.26959L21.0318 9.63272C21.0477 9.63571 21.0626 9.64217 21.0757 9.65162C21.0887 9.66107 21.0995 9.67329 21.1073 9.6874C21.1157 9.70088 21.1211 9.71603 21.1231 9.7318C21.1251 9.74757 21.1236 9.76359 21.1188 9.77873L20.5872 11.5391C20.5362 11.7104 20.5352 11.8926 20.5844 12.0644C20.6335 12.2362 20.7307 12.3903 20.8645 12.5087L22.2454 13.7266C22.2574 13.7372 22.267 13.7501 22.2737 13.7646C22.2804 13.7791 22.284 13.7949 22.2842 13.8108C22.2847 13.8267 22.2817 13.8426 22.2755 13.8572C22.2693 13.8719 22.2599 13.885 22.2481 13.8956L20.9093 15.1572C20.7795 15.2801 20.6875 15.4375 20.6441 15.611C20.6007 15.7844 20.6077 15.9666 20.6643 16.1362L21.2522 17.8796C21.2574 17.8946 21.2593 17.9106 21.2579 17.9264C21.2565 17.9422 21.2518 17.9576 21.244 17.9715C21.2297 17.9977 21.2058 18.0173 21.1773 18.0262C21.0406 18.0508 20.1169 18.2176 19.482 18.3893C19.203 18.4646 18.9643 18.6459 18.817 18.8946L18.7213 19.0554C18.5982 19.2621 18.5447 19.5029 18.5687 19.7422C18.5687 19.7619 18.5725 19.7805 18.5747 19.7969C17.6308 20.0895 16.7733 20.3586 16.3648 20.4871C15.7693 19.6876 14.2801 19.4655 12.5022 19.1981Z" fill="#E6A424"/>
<path d="M13.8359 4.53902C13.9447 4.53902 14.049 4.49581 14.126 4.41889C14.2029 4.34197 14.2461 4.23765 14.2461 4.12887V2.93066C14.2461 2.82188 14.2029 2.71756 14.126 2.64064C14.049 2.56372 13.9447 2.52051 13.8359 2.52051C13.7272 2.52051 13.6228 2.56372 13.5459 2.64064C13.469 2.71756 13.4258 2.82188 13.4258 2.93066V4.12996C13.4261 4.23855 13.4694 4.3426 13.5463 4.41928C13.6232 4.49596 13.7273 4.53902 13.8359 4.53902Z" fill="#E6A424"/>
<path d="M11.2431 5.83253C11.2664 5.91976 11.3178 5.99686 11.3894 6.05185C11.461 6.10683 11.5488 6.13662 11.6391 6.13659C11.6749 6.1364 11.7106 6.13162 11.7452 6.12237C11.8503 6.09417 11.9399 6.0254 11.9943 5.93117C12.0488 5.83693 12.0636 5.72494 12.0356 5.61979L11.7566 4.58073C11.7427 4.5287 11.7186 4.47993 11.6858 4.4372C11.653 4.39448 11.6121 4.35863 11.5654 4.33172C11.4711 4.27736 11.3592 4.26268 11.2541 4.29089C11.149 4.3191 11.0594 4.38789 11.0051 4.48215C10.9507 4.5764 10.936 4.68838 10.9642 4.79346L11.2431 5.83253Z" fill="#E6A424"/>
<path d="M7.57606 8.29224C7.61423 8.33034 7.65953 8.36055 7.70937 8.38114C7.75922 8.40173 7.81263 8.4123 7.86656 8.41225C7.92049 8.4122 7.97388 8.40153 8.02369 8.38084C8.07349 8.36016 8.11874 8.32987 8.15684 8.2917C8.19494 8.25353 8.22514 8.20822 8.24574 8.15838C8.26633 8.10854 8.2769 8.05512 8.27685 8.00119C8.2768 7.94726 8.26612 7.89387 8.24544 7.84406C8.22475 7.79426 8.19446 7.74901 8.15629 7.71091L7.39449 6.95076C7.35664 6.9116 7.31137 6.88038 7.26132 6.85891C7.21126 6.83743 7.15744 6.82614 7.10298 6.8257C7.04852 6.82525 6.99451 6.83565 6.94412 6.8563C6.89372 6.87695 6.84794 6.90742 6.80945 6.94595C6.77096 6.98448 6.74052 7.03029 6.71992 7.08071C6.69932 7.13112 6.68897 7.18514 6.68947 7.2396C6.68997 7.29406 6.70131 7.34787 6.72283 7.3979C6.74435 7.44793 6.77561 7.49318 6.81481 7.53099L7.57606 8.29224Z" fill="#E6A424"/>
<path d="M4.3003 11.475C4.28625 11.5271 4.2826 11.5813 4.28957 11.6348C4.29654 11.6882 4.31399 11.7398 4.34091 11.7865C4.36784 11.8332 4.40371 11.8741 4.44648 11.9069C4.48925 11.9397 4.53807 11.9637 4.59015 11.9776L5.62921 12.2565C5.66385 12.2656 5.6995 12.2702 5.73531 12.2702C5.83465 12.2699 5.93053 12.2337 6.00515 12.1681C6.07976 12.1025 6.12803 12.012 6.14099 11.9135C6.15396 11.815 6.13073 11.7152 6.07563 11.6325C6.02053 11.5499 5.9373 11.49 5.8414 11.4641L4.80234 11.1852C4.75034 11.1712 4.6961 11.1676 4.64272 11.1746C4.58934 11.1816 4.53786 11.1991 4.49123 11.226C4.4446 11.2529 4.40374 11.2888 4.37098 11.3315C4.33822 11.3742 4.3142 11.423 4.3003 11.475Z" fill="#E6A424"/>
<path d="M4.21374 16.7923C4.23717 16.8794 4.28864 16.9564 4.36021 17.0114C4.43177 17.0663 4.51945 17.0962 4.60968 17.0963C4.6457 17.0964 4.68157 17.0916 4.71632 17.0821L5.86476 16.7742C5.96984 16.746 6.05941 16.6772 6.11377 16.583C6.16812 16.4887 6.18281 16.3767 6.1546 16.2716C6.12639 16.1666 6.05759 16.077 5.96334 16.0226C5.86909 15.9683 5.7571 15.9536 5.65202 15.9818L4.50359 16.2902C4.45157 16.3041 4.4028 16.3282 4.36008 16.3609C4.31735 16.3937 4.2815 16.4345 4.25458 16.4812C4.22766 16.5278 4.2102 16.5793 4.20319 16.6327C4.19618 16.686 4.19977 16.7403 4.21374 16.7923Z" fill="#E6A424"/>
<path d="M21.868 15.8447C21.8541 15.8967 21.8505 15.9509 21.8575 16.0043C21.8645 16.0577 21.882 16.1091 21.9089 16.1558C21.9358 16.2024 21.9716 16.2433 22.0144 16.276C22.0571 16.3088 22.1059 16.3328 22.1579 16.3467L23.1969 16.6256C23.2316 16.6347 23.2672 16.6393 23.303 16.6393C23.4024 16.639 23.4983 16.6028 23.5729 16.5372C23.6475 16.4716 23.6958 16.3811 23.7087 16.2826C23.7217 16.1842 23.6985 16.0843 23.6434 16.0016C23.5883 15.919 23.505 15.8591 23.4091 15.8332L22.3701 15.5543C22.318 15.5403 22.2638 15.5368 22.2104 15.5438C22.1569 15.5508 22.1054 15.5684 22.0588 15.5953C22.0122 15.6223 21.9713 15.6582 21.9386 15.701C21.9059 15.7438 21.8819 15.7926 21.868 15.8447Z" fill="#E6A424"/>
<path d="M23.1132 10.8697L22.0741 11.1486C21.9782 11.1746 21.895 11.2344 21.8399 11.3171C21.7848 11.3998 21.7615 11.4996 21.7745 11.5981C21.7875 11.6966 21.8357 11.787 21.9104 11.8526C21.985 11.9182 22.0808 11.9545 22.1802 11.9547C22.2162 11.9548 22.2521 11.95 22.2868 11.9405L23.3259 11.6622C23.431 11.634 23.5205 11.5652 23.5749 11.4709C23.6293 11.3767 23.6439 11.2647 23.6157 11.1596C23.5875 11.0545 23.5187 10.9649 23.4245 10.9106C23.3302 10.8562 23.2182 10.8415 23.1132 10.8697Z" fill="#E6A424"/>
<path d="M19.6129 8.06149C19.69 8.1382 19.7943 8.18127 19.903 8.18127C20.0118 8.18127 20.1161 8.1382 20.1931 8.06149L20.9544 7.2997C21.0291 7.2223 21.0704 7.11868 21.0694 7.01114C21.0684 6.9036 21.0252 6.80074 20.9491 6.72473C20.873 6.64872 20.7701 6.60563 20.6626 6.60475C20.5551 6.60387 20.4515 6.64526 20.3742 6.72001L19.6129 7.48126C19.5748 7.51935 19.5446 7.56458 19.5239 7.61435C19.5033 7.66413 19.4927 7.71749 19.4927 7.77138C19.4927 7.82526 19.5033 7.87862 19.5239 7.9284C19.5446 7.97818 19.5748 8.0234 19.6129 8.06149Z" fill="#E6A424"/>
<path d="M15.939 6.03755C15.9736 6.04707 16.0093 6.05186 16.0451 6.05177C16.1354 6.05162 16.223 6.02176 16.2946 5.9668C16.3662 5.91184 16.4176 5.83485 16.4411 5.74771L16.72 4.70865C16.7481 4.60357 16.7333 4.49161 16.6789 4.39741C16.6245 4.30321 16.5349 4.23448 16.4299 4.20634C16.3248 4.1782 16.2128 4.19296 16.1186 4.24737C16.0244 4.30178 15.9557 4.39138 15.9275 4.49646L15.6486 5.53552C15.6206 5.6406 15.6354 5.75252 15.6899 5.84667C15.7443 5.94081 15.834 6.00947 15.939 6.03755Z" fill="#E6A424"/>
<path d="M8.61552 5.72624C8.6515 5.78867 8.70331 5.8405 8.76572 5.87651C8.82813 5.91252 8.89894 5.93142 8.97099 5.93132C9.043 5.93169 9.1138 5.91281 9.17607 5.87663C9.27015 5.8222 9.33878 5.73264 9.36687 5.62764C9.39497 5.52264 9.38024 5.41078 9.32591 5.31663L8.72435 4.27757C8.69742 4.23089 8.66156 4.18997 8.61881 4.15715C8.57607 4.12433 8.52727 4.10025 8.47522 4.08628C8.42317 4.07232 8.36888 4.06874 8.31544 4.07576C8.26201 4.08278 8.21048 4.10025 8.1638 4.12718C8.11712 4.15411 8.0762 4.18997 8.04338 4.23272C8.01056 4.27546 7.98648 4.32426 7.97251 4.37631C7.95855 4.42836 7.95497 4.48265 7.96199 4.53609C7.96901 4.58952 7.98648 4.64105 8.01341 4.68773L8.61552 5.72624Z" fill="#E6A424"/>
<path d="M4.21117 8.91405L5.25023 9.51561C5.29691 9.54254 5.34844 9.56001 5.40187 9.56703C5.4553 9.57405 5.5096 9.57047 5.56165 9.55651C5.6137 9.54254 5.66249 9.51846 5.70524 9.48564C5.74798 9.45282 5.78384 9.4119 5.81077 9.36522C5.83771 9.31854 5.85518 9.26701 5.8622 9.21358C5.86921 9.16014 5.86564 9.10585 5.85167 9.0538C5.83771 9.00175 5.81363 8.95295 5.78081 8.91021C5.74798 8.86746 5.70706 8.8316 5.66038 8.80467L4.62132 8.20311C4.57464 8.17618 4.52311 8.1587 4.46968 8.15169C4.41625 8.14467 4.36195 8.14825 4.3099 8.16221C4.25785 8.17618 4.20906 8.20026 4.16631 8.23308C4.12357 8.2659 4.08771 8.30682 4.06077 8.3535C4.03384 8.40018 4.01637 8.45171 4.00935 8.50514C4.00234 8.55858 4.00591 8.61287 4.01988 8.66492C4.03384 8.71697 4.05792 8.76576 4.09074 8.80851C4.12357 8.85125 4.16448 8.88711 4.21117 8.91405Z" fill="#E6A424"/>
<path d="M4.63484 14.0688C4.63484 13.9601 4.59163 13.8557 4.51471 13.7788C4.43779 13.7019 4.33347 13.6587 4.22469 13.6587H3.02539C2.91661 13.6587 2.81229 13.7019 2.73537 13.7788C2.65845 13.8557 2.61523 13.9601 2.61523 14.0688C2.61523 14.1776 2.65845 14.282 2.73537 14.3589C2.81229 14.4358 2.91661 14.479 3.02539 14.479H4.22469C4.33347 14.479 4.43779 14.4358 4.51471 14.3589C4.59163 14.282 4.63484 14.1776 4.63484 14.0688Z" fill="#E6A424"/>
<path d="M24.9747 13.3318H23.7754C23.6666 13.3318 23.5623 13.375 23.4854 13.4519C23.4084 13.5288 23.3652 13.6332 23.3652 13.7419C23.3652 13.8507 23.4084 13.955 23.4854 14.032C23.5623 14.1089 23.6666 14.1521 23.7754 14.1521H24.9747C25.0835 14.1521 25.1878 14.1089 25.2647 14.032C25.3416 13.955 25.3848 13.8507 25.3848 13.7419C25.3848 13.6332 25.3416 13.5288 25.2647 13.4519C25.1878 13.375 25.0835 13.3318 24.9747 13.3318Z" fill="#E6A424"/>
<path d="M22.3848 9.2866C22.4566 9.28664 22.5271 9.26778 22.5893 9.23192L23.6284 8.63035C23.6751 8.60342 23.716 8.56756 23.7488 8.52482C23.7816 8.48207 23.8057 8.43328 23.8197 8.38123C23.8336 8.32918 23.8372 8.27488 23.8302 8.22145C23.8232 8.16802 23.8057 8.11649 23.7788 8.06981C23.7518 8.02313 23.716 7.98221 23.6732 7.94939C23.6305 7.91657 23.5817 7.89248 23.5297 7.87852C23.4776 7.86455 23.4233 7.86098 23.3699 7.868C23.3164 7.87501 23.2649 7.89249 23.2182 7.91942L22.1792 8.52098C22.1008 8.56609 22.0395 8.63583 22.0049 8.71936C21.9703 8.80288 21.9642 8.89551 21.9877 8.98284C22.0111 9.07016 22.0628 9.14729 22.1346 9.20223C22.2064 9.25716 22.2944 9.28683 22.3848 9.2866Z" fill="#E6A424"/>
<path d="M18.5393 5.71312C18.6335 5.7674 18.7454 5.78205 18.8504 5.75384C18.9554 5.72564 19.045 5.6569 19.0993 5.56273L19.7009 4.52367C19.7278 4.47698 19.7453 4.42546 19.7523 4.37202C19.7593 4.31859 19.7557 4.2643 19.7418 4.21225C19.7278 4.16019 19.7037 4.1114 19.6709 4.06866C19.6381 4.02591 19.5971 3.99005 19.5505 3.96312C19.5038 3.93619 19.4523 3.91871 19.3988 3.9117C19.3454 3.90468 19.2911 3.90826 19.239 3.92222C19.187 3.93619 19.1382 3.96027 19.0955 3.99309C19.0527 4.02591 19.0169 4.06683 18.9899 4.11351L18.3884 5.15257C18.3614 5.19928 18.344 5.25084 18.337 5.3043C18.33 5.35776 18.3336 5.41208 18.3476 5.46414C18.3616 5.5162 18.3858 5.56499 18.4187 5.60772C18.4516 5.65044 18.4925 5.68625 18.5393 5.71312Z" fill="#E6A424"/>
</svg>
