<svg width="28" height="28" viewBox="0 0 28 28" fill="none" xmlns="http://www.w3.org/2000/svg">
<path d="M14.0151 13.8594H13.6183V8.06487C13.6183 7.96335 13.578 7.86598 13.5062 7.79418C13.4344 7.72239 13.3371 7.68206 13.2355 7.68206H11.9148C11.8133 7.68206 11.7159 7.72239 11.6441 7.79418C11.5723 7.86598 11.532 7.96335 11.532 8.06487V13.8594H11.0327V10.5374C11.0327 10.4359 10.9923 10.3385 10.9205 10.2667C10.8487 10.1949 10.7514 10.1546 10.6498 10.1546H9.32745C9.22592 10.1546 9.12855 10.1949 9.05676 10.2667C8.98496 10.3385 8.94463 10.4359 8.94463 10.5374V13.8594H8.44539V9.48019C8.44539 9.37866 8.40506 9.28129 8.33327 9.2095C8.26148 9.1377 8.16411 9.09737 8.06258 9.09737H6.74018C6.63865 9.09737 6.54128 9.1377 6.46949 9.2095C6.3977 9.28129 6.35737 9.37866 6.35737 9.48019V13.8594H5.85813V11.7094C5.85813 11.6078 5.81779 11.5105 5.746 11.4387C5.67421 11.3669 5.57684 11.3265 5.47531 11.3265H4.15291C4.05139 11.3265 3.95402 11.3669 3.88222 11.4387C3.81043 11.5105 3.7701 11.6078 3.7701 11.7094V13.8594H3.37318C3.27165 13.8594 3.17428 13.8997 3.10249 13.9715C3.0307 14.0433 2.99037 14.1407 2.99037 14.2422C2.99037 14.3437 3.0307 14.4411 3.10249 14.5129C3.17428 14.5847 3.27165 14.625 3.37318 14.625H4.1224C4.13257 14.6258 4.14274 14.6266 4.15308 14.6266C4.16341 14.6266 4.17364 14.6258 4.18376 14.625H5.44452C5.4547 14.6258 5.46487 14.6266 5.4752 14.6266C5.48554 14.6266 5.49577 14.6258 5.50588 14.625H6.7095C6.71962 14.6258 6.72979 14.6266 6.74018 14.6266C6.75057 14.6266 6.76069 14.6258 6.77086 14.625H8.03179C8.04196 14.6258 8.05213 14.6266 8.06247 14.6266C8.0728 14.6266 8.08303 14.6258 8.09315 14.625H9.29688C9.30699 14.6258 9.31716 14.6266 9.32755 14.6266C9.33795 14.6266 9.34806 14.6258 9.35823 14.625H10.6192C10.6293 14.6258 10.6395 14.6266 10.6498 14.6266C10.6602 14.6266 10.6704 14.6258 10.6805 14.625H14.0153C14.1168 14.625 14.2142 14.5847 14.2859 14.5129C14.3577 14.4411 14.3981 14.3437 14.3981 14.2422C14.3981 14.1407 14.3577 14.0433 14.2859 13.9715C14.2142 13.8997 14.1168 13.8594 14.0153 13.8594H14.0151ZM5.09228 13.8594H4.53584V12.0923H5.09228V13.8594ZM7.67955 13.8594H7.12305V9.86311H7.67955V13.8594ZM10.2668 13.8594H9.71037V10.9203H10.2668V13.8594ZM12.8525 13.8594H12.2976V8.44779H12.8525V13.8594ZM2.99026 6.29458C2.99026 6.19306 3.03059 6.09569 3.10238 6.0239C3.17417 5.9521 3.27154 5.91177 3.37307 5.91177H7.84689C7.94842 5.91177 8.04579 5.9521 8.11758 6.0239C8.18937 6.09569 8.2297 6.19306 8.2297 6.29458C8.2297 6.39611 8.18937 6.49348 8.11758 6.56527C8.04579 6.63707 7.94842 6.6774 7.84689 6.6774H3.37318C3.3229 6.67741 3.27311 6.66752 3.22665 6.64829C3.18019 6.62906 3.13798 6.60086 3.10242 6.56531C3.06686 6.52976 3.03865 6.48756 3.01941 6.44111C3.00016 6.39465 2.99026 6.34487 2.99026 6.29458ZM2.99026 7.7688C2.99026 7.66727 3.03059 7.5699 3.10238 7.49811C3.17417 7.42632 3.27154 7.38598 3.37307 7.38598H9.91648C10.018 7.38598 10.1154 7.42632 10.1872 7.49811C10.259 7.5699 10.2993 7.66727 10.2993 7.7688C10.2993 7.87032 10.259 7.96769 10.1872 8.03948C10.1154 8.11128 10.018 8.15161 9.91648 8.15161H3.37318C3.3229 8.15162 3.27311 8.14173 3.22665 8.1225C3.18019 8.10327 3.13798 8.07507 3.10242 8.03952C3.06686 8.00397 3.03865 7.96177 3.01941 7.91532C3.00016 7.86886 2.99026 7.81908 2.99026 7.7688ZM20.8129 7.68512C21.0626 7.68544 21.3067 7.61169 21.5144 7.47322C21.7222 7.33475 21.8841 7.13778 21.9799 6.90722C22.0757 6.67667 22.1009 6.42289 22.0524 6.178C22.0038 5.9331 21.8838 5.7081 21.7074 5.53146C21.531 5.35482 21.3061 5.23448 21.0613 5.18566C20.8164 5.13684 20.5626 5.16174 20.332 5.2572C20.1013 5.35267 19.9041 5.51441 19.7654 5.72196C19.6266 5.92952 19.5526 6.17356 19.5526 6.42321C19.5529 6.75747 19.6858 7.07796 19.922 7.31448C20.1581 7.55101 20.4784 7.68428 20.8127 7.68512H20.8129ZM20.8129 5.92719C20.9111 5.92688 21.0072 5.95571 21.089 6.01003C21.1707 6.06435 21.2346 6.14172 21.2724 6.23234C21.3101 6.32296 21.3202 6.42275 21.3012 6.51909C21.2823 6.61542 21.2351 6.70396 21.1658 6.77349C21.0965 6.84303 21.0081 6.89043 20.9118 6.90969C20.8156 6.92895 20.7157 6.91922 20.625 6.88171C20.5343 6.8442 20.4567 6.78061 20.4021 6.69899C20.3475 6.61737 20.3184 6.52139 20.3184 6.42321C20.3186 6.29201 20.3706 6.16619 20.4632 6.07325C20.5559 5.98031 20.6815 5.9278 20.8127 5.92719H20.8129ZM27.8101 15.6958L25.1781 11.1378C25.836 10.5286 26.3591 9.78832 26.7137 8.96473C27.0683 8.14114 27.2466 7.25244 27.237 6.3558C27.2275 5.45917 27.0303 4.57447 26.6582 3.75862C26.2862 2.94277 25.7474 2.21384 25.0767 1.61874C24.406 1.02364 23.6181 0.575546 22.7637 0.303287C21.9094 0.0310279 21.0075 -0.0593639 20.1161 0.0379272C19.2247 0.135218 18.3635 0.418038 17.588 0.868188C16.8125 1.31834 16.1399 1.92585 15.6133 2.65163H1.36571C1.00342 2.65225 0.656166 2.79656 0.400135 3.05289C0.144104 3.30922 0.000202219 3.65664 0 4.01893L0 17.7721C0.000231172 18.1343 0.144145 18.4817 0.400173 18.738C0.656201 18.9943 1.00344 19.1386 1.36571 19.1393H9.30087V21.3467H7.98345C7.27568 21.3467 6.69982 21.8444 6.69982 22.4566V23.0786C6.69982 23.1801 6.74015 23.2775 6.81194 23.3493C6.88373 23.4211 6.9811 23.4614 7.08263 23.4614H17.0768C17.1783 23.4614 17.2757 23.4211 17.3475 23.3493C17.4193 23.2775 17.4596 23.1801 17.4596 23.0786V22.4567C17.4596 21.8447 16.8838 21.3468 16.176 21.3468H14.8586V19.1394H22.7937C23.156 19.1388 23.5033 18.9945 23.7593 18.7382C24.0153 18.4819 24.1592 18.1345 24.1595 17.7722V15.064L25.3459 17.1194C25.4713 17.3355 25.6514 17.5149 25.868 17.6396C26.0846 17.7642 26.3302 17.8297 26.5801 17.8295C26.8295 17.8287 27.0742 17.7624 27.2899 17.6372C27.5055 17.5121 27.6846 17.3326 27.8091 17.1166C27.9336 16.9006 27.9992 16.6556 27.9994 16.4063C27.9996 16.157 27.9343 15.912 27.8101 15.6958ZM17.9844 1.52294C18.628 1.14978 19.3388 0.907208 20.0763 0.809094C20.8137 0.71098 21.5633 0.759254 22.2821 0.951151C23.0008 1.14305 23.6747 1.4748 24.2651 1.92743C24.8555 2.38005 25.3509 2.94467 25.7229 3.58895C26.0948 4.23324 26.3361 4.94455 26.4328 5.68218C26.5296 6.41981 26.4799 7.16928 26.2867 7.88769C26.0934 8.60611 25.7604 9.27937 25.3067 9.86894C24.853 10.4585 24.2875 10.9528 23.6425 11.3236C23.1828 11.5896 22.688 11.7899 22.1727 11.9186H22.1715C20.8478 12.2456 19.4505 12.0837 18.2366 11.4627C17.0227 10.8416 16.0738 9.80327 15.5644 8.53848C15.055 7.27369 15.0193 5.86751 15.4639 4.57851C15.9085 3.28951 16.8035 2.20434 17.9844 1.52255V1.52294ZM15.2493 9.63594C15.6692 10.3681 16.2303 11.0096 16.8999 11.5234C17.5695 12.0373 18.3344 12.4131 19.1503 12.6293C19.6958 12.776 20.2582 12.8505 20.8231 12.8509C21.1728 12.8505 21.5219 12.8212 21.8668 12.7631V15.408H2.29272V4.94424H14.5646C14.1838 6.53813 14.4289 8.21734 15.2493 9.63594ZM16.1761 22.1126C16.4813 22.1126 16.6939 22.294 16.6939 22.4567V22.6955H7.46566V22.4567C7.46566 22.294 7.67829 22.1126 7.98345 22.1126H16.1761ZM10.0669 21.347V19.1394H14.0926V21.3468L10.0669 21.347ZM23.3938 17.7722C23.3938 17.9315 23.3306 18.0843 23.2182 18.197C23.1057 18.3098 22.9531 18.3734 22.7939 18.3738H1.36571C1.20646 18.3733 1.05389 18.3098 0.941437 18.197C0.828989 18.0842 0.765843 17.9315 0.765844 17.7722V4.01893C0.765843 3.85968 0.828989 3.70692 0.941437 3.59416C1.05389 3.48139 1.20646 3.41781 1.36571 3.41737H15.138C15.008 3.66343 14.8941 3.91764 14.7969 4.1784H1.9098C1.80827 4.1784 1.7109 4.21873 1.63911 4.29052C1.56732 4.36231 1.52698 4.45968 1.52698 4.56121V15.791C1.52698 15.8925 1.56732 15.9899 1.63911 16.0616C1.7109 16.1334 1.80827 16.1738 1.9098 16.1738H22.2497C22.3512 16.1738 22.4486 16.1334 22.5204 16.0616C22.5922 15.9899 22.6325 15.8925 22.6325 15.791V12.5857C22.6599 12.5775 22.6877 12.5702 22.7151 12.5616L23.3937 13.7374L23.3938 17.7722ZM27.211 16.5771C27.189 16.6606 27.1506 16.7388 27.0981 16.8073C27.0456 16.8758 26.9799 16.9331 26.905 16.976C26.7543 17.0627 26.5753 17.0862 26.4073 17.0412C26.2393 16.9962 26.096 16.8865 26.0088 16.736L23.4405 12.2865C23.8406 12.1063 24.2215 11.8863 24.5775 11.6297L27.1465 16.0781C27.1896 16.1529 27.2175 16.2355 27.2286 16.3211C27.2396 16.4067 27.2337 16.4937 27.211 16.577V16.5771ZM20.8135 8.78724C22.001 8.78724 23.1555 8.11721 24.446 6.67893C24.5091 6.60868 24.544 6.51761 24.544 6.42321C24.544 6.32881 24.5091 6.23774 24.446 6.16749C23.1554 4.72921 22.0011 4.05923 20.8134 4.05923C19.6258 4.05923 18.4715 4.72916 17.1809 6.16749C17.1178 6.23774 17.083 6.32881 17.083 6.42321C17.083 6.51761 17.1178 6.60868 17.1809 6.67893C18.4715 8.11732 19.6258 8.78724 20.8135 8.78724ZM20.8135 4.82502C21.6881 4.82502 22.615 5.34849 23.6398 6.42321C22.615 7.49793 21.6881 8.02145 20.8135 8.02145C19.9388 8.02145 19.0119 7.49793 17.9873 6.42321C19.0119 5.34855 19.9391 4.82502 20.8135 4.82502ZM16.4026 8.96924C16.9062 9.84171 17.6572 10.5452 18.5606 10.9909C19.464 11.4365 20.4793 11.6042 21.478 11.4728C22.4768 11.3414 23.4141 10.9168 24.1715 10.2526C24.9289 9.58847 25.4724 8.71462 25.7331 7.74159C25.9938 6.76857 25.9602 5.74008 25.6363 4.78619C25.3125 3.8323 24.7131 2.99587 23.9139 2.38267C23.1147 1.76947 22.1515 1.40705 21.1463 1.34125C20.1411 1.27545 19.139 1.50922 18.2667 2.01299C17.0985 2.68967 16.2464 3.8019 15.897 5.10586C15.5475 6.40983 15.7294 7.79914 16.4026 8.96924ZM18.6495 2.6763C19.3904 2.24867 20.2415 2.05035 21.0952 2.1064C21.9489 2.16246 22.7667 2.47038 23.4454 2.99123C24.1241 3.51207 24.6331 4.22246 24.908 5.03256C25.183 5.84267 25.2116 6.71611 24.9901 7.54246C24.7687 8.36881 24.3073 9.11095 23.6641 9.67505C23.0209 10.2391 22.2249 10.5999 21.3768 10.7116C20.5286 10.8234 19.6663 10.6811 18.899 10.3028C18.1317 9.92454 17.4938 9.32724 17.0659 8.58643C16.494 7.59229 16.3396 6.412 16.6364 5.30419C16.9332 4.19638 17.6571 3.25141 18.6494 2.67635L18.6495 2.6763Z" fill="#E6A424"/>
</svg>
