<svg width="28" height="28" viewBox="0 0 28 28" fill="none" xmlns="http://www.w3.org/2000/svg">
<path d="M26.6875 12.6876H25.7775C25.3838 6.88196 20.965 2.06509 15.365 1.39134L15.26 2.26634C20.4356 2.87884 24.5 7.32384 24.8938 12.6876H23.1875C23.1696 12.2143 23.114 11.7433 23.0213 11.2788L22.1463 11.4538C22.2327 11.8603 22.2882 12.2727 22.3125 12.6876H21.4375C21.3778 12.6872 21.3187 12.6991 21.2638 12.7224C21.2089 12.7457 21.1593 12.78 21.1181 12.8232C21.077 12.8669 21.0453 12.9185 21.025 12.975C21.0046 13.0314 20.9961 13.0915 21 13.1513V13.5495H16.1438C16.0456 13.0839 15.7983 12.6631 15.4394 12.3507L16.1306 11.1432C16.1616 11.0893 16.1808 11.0295 16.1868 10.9676C16.1928 10.9058 16.1856 10.8433 16.1656 10.7845L14.4156 5.53446C14.3869 5.44693 14.3312 5.37072 14.2566 5.31669C14.1819 5.26266 14.0921 5.23357 14 5.23357C13.9079 5.23357 13.8181 5.26266 13.7434 5.31669C13.6688 5.37072 13.6131 5.44693 13.5844 5.53446L11.8344 10.7845C11.8144 10.8433 11.8072 10.9058 11.8132 10.9676C11.8192 11.0295 11.8384 11.0893 11.8694 11.1432L12.5606 12.3507C12.1993 12.6665 11.9518 13.0923 11.8563 13.5626H7C7 13.4313 7 13.3045 7 13.1732C7.00386 13.1133 6.99537 13.0533 6.97505 12.9969C6.95472 12.9404 6.92301 12.8888 6.88188 12.8451C6.84266 12.7979 6.79396 12.7595 6.73894 12.7324C6.68392 12.7052 6.6238 12.69 6.5625 12.6876H5.6875C5.70605 12.2688 5.75577 11.8521 5.83625 11.4407L4.96125 11.2657C4.88143 11.7356 4.83901 12.211 4.83438 12.6876H3.08438C3.5 7.32821 7.56 2.87884 12.74 2.26196L12.635 1.38696C7.02187 2.06071 2.625 6.88634 2.21813 12.6876H1.3125C1.19647 12.6876 1.08519 12.7337 1.00314 12.8157C0.921094 12.8978 0.875 13.0091 0.875 13.1251V16.1876C0.875 16.3036 0.921094 16.4149 1.00314 16.4969C1.08519 16.579 1.19647 16.6251 1.3125 16.6251H2.28375C2.63631 16.6289 2.9795 16.7391 3.26835 16.9413C3.5572 17.1435 3.77823 17.4283 3.9025 17.7582C4.04293 18.0784 4.08422 18.4333 4.02106 18.7772C3.9579 19.1211 3.79317 19.4382 3.54813 19.6876L2.86125 20.3745C2.8207 20.4153 2.78862 20.4638 2.76685 20.5171C2.74508 20.5704 2.73404 20.6275 2.73438 20.6851C2.73599 20.8009 2.7813 20.9119 2.86125 20.9957L6.5625 24.7057C6.60317 24.7467 6.65156 24.7793 6.70487 24.8015C6.75819 24.8237 6.81537 24.8351 6.87313 24.8351C6.93088 24.8351 6.98806 24.8237 7.04138 24.8015C7.09469 24.7793 7.14308 24.7467 7.18375 24.7057L7.875 24.0188C8.12769 23.7715 8.44938 23.6065 8.7977 23.5456C9.14601 23.4846 9.50461 23.5307 9.82625 23.6776C10.1494 23.8042 10.4276 24.0241 10.6254 24.3092C10.8233 24.5943 10.9319 24.9318 10.9375 25.2788V26.2501C10.9375 26.3661 10.9836 26.4774 11.0656 26.5595C11.1477 26.6415 11.259 26.6876 11.375 26.6876H16.625C16.741 26.6876 16.8523 26.6415 16.9344 26.5595C17.0164 26.4774 17.0625 26.3661 17.0625 26.2501V25.2788C17.0738 24.9292 17.1859 24.5903 17.3853 24.3029C17.5847 24.0155 17.8629 23.7917 18.1864 23.6586C18.5099 23.5255 18.8649 23.4887 19.2088 23.5526C19.5528 23.6165 19.8709 23.7784 20.125 24.0188L20.8119 24.7057C20.8525 24.7467 20.9009 24.7793 20.9542 24.8015C21.0076 24.8237 21.0647 24.8351 21.1225 24.8351C21.1803 24.8351 21.2374 24.8237 21.2908 24.8015C21.3441 24.7793 21.3925 24.7467 21.4331 24.7057L25.1388 21.0001C25.2187 20.9163 25.264 20.8053 25.2656 20.6895C25.266 20.6319 25.2549 20.5748 25.2332 20.5215C25.2114 20.4682 25.1793 20.4197 25.1388 20.3788L24.4519 19.6876C24.2113 19.4332 24.0493 19.1147 23.9856 18.7704C23.9218 18.4261 23.959 18.0707 24.0926 17.747C24.2263 17.4234 24.4506 17.1453 24.7387 16.9462C25.0268 16.7471 25.3663 16.6356 25.7163 16.6251H26.6875C26.8035 16.6251 26.9148 16.579 26.9969 16.4969C27.0789 16.4149 27.125 16.3036 27.125 16.1876V13.1251C27.1253 13.0675 27.1143 13.0104 27.0925 12.9571C27.0708 12.9038 27.0387 12.8553 26.9981 12.8145C26.9572 12.7739 26.9088 12.7418 26.8555 12.7201C26.8022 12.6983 26.7451 12.6873 26.6875 12.6876ZM14 12.6876C14.2596 12.6876 14.5133 12.7646 14.7292 12.9088C14.945 13.053 15.1133 13.258 15.2126 13.4978C15.3119 13.7376 15.3379 14.0015 15.2873 14.2561C15.2366 14.5107 15.1116 14.7446 14.9281 14.9282C14.7445 15.1117 14.5107 15.2367 14.2561 15.2874C14.0015 15.338 13.7376 15.312 13.4977 15.2127C13.2579 15.1133 13.0529 14.9451 12.9087 14.7293C12.7645 14.5134 12.6875 14.2597 12.6875 14.0001C12.6875 13.652 12.8258 13.3182 13.0719 13.072C13.3181 12.8259 13.6519 12.6876 14 12.6876ZM14.6781 11.9307C14.5994 11.9013 14.5191 11.8765 14.4375 11.8563V8.37384L15.2731 10.8807L14.6781 11.9307ZM12.7269 10.8895L13.5625 8.37384V11.8476C13.4809 11.8677 13.4006 11.8926 13.3219 11.922L12.7269 10.8895ZM26.25 15.7501H25.7163C25.2008 15.7549 24.6981 15.9114 24.2709 16.2C23.8438 16.4887 23.5111 16.8967 23.3144 17.3732V17.4213C23.1089 17.8998 23.0503 18.4286 23.1461 18.9404C23.2419 19.4522 23.4878 19.924 23.8525 20.2957L24.2331 20.672L21.1356 23.7651L20.7594 23.3845C20.3917 23.0237 19.9261 22.7791 19.4204 22.6811C18.9148 22.5831 18.3914 22.636 17.9156 22.8332L17.8544 22.8595C17.3669 23.0505 16.9478 23.383 16.6508 23.8141C16.3537 24.2452 16.1924 24.7553 16.1875 25.2788V25.8126H11.8125V25.2788C11.8103 24.7633 11.6548 24.26 11.3657 23.8331C11.0767 23.4062 10.6672 23.0749 10.1894 22.8813H10.1369C9.65842 22.6758 9.12965 22.6173 8.61781 22.7131C8.10598 22.8089 7.63421 23.0548 7.2625 23.4195L6.88625 23.8001L3.78875 20.6851L4.16938 20.3088C4.53225 19.9434 4.77838 19.4785 4.87652 18.9729C4.97467 18.4674 4.92041 17.9441 4.72063 17.4695L4.69438 17.4038C4.50181 16.9202 4.16981 16.5048 3.74058 16.2103C3.31134 15.9159 2.80425 15.7557 2.28375 15.7501H1.75V13.5626H6.125C6.1164 15.3327 6.70707 17.0536 7.8009 18.4454C8.89474 19.8371 10.4274 20.8177 12.1494 21.2276L12.3506 20.3788C10.9674 20.0471 9.71876 19.3001 8.77246 18.238C7.82616 17.176 7.2275 15.8498 7.05688 14.4376H11.8694C11.9698 14.9321 12.2381 15.3767 12.6288 15.696C13.0195 16.0153 13.5085 16.1898 14.0131 16.1898C14.5177 16.1898 15.0068 16.0153 15.3975 15.696C15.7882 15.3767 16.0565 14.9321 16.1569 14.4376H20.9694C20.8004 15.8514 20.2025 17.1795 19.2561 18.2432C18.3097 19.307 17.0601 20.0553 15.6756 20.3876L15.8769 21.2363C17.5955 20.821 19.1233 19.8369 20.2121 18.4439C21.301 17.0508 21.887 15.3306 21.875 13.5626H26.25V15.7501Z" fill="#E6A424"/>
<path d="M13.1773 20.5232L13.0723 21.3982C13.6883 21.474 14.3113 21.474 14.9273 21.3982L14.8223 20.5232C14.2759 20.5888 13.7236 20.5888 13.1773 20.5232Z" fill="#E6A424"/>
<path d="M14.4375 1.3125H13.5625V2.1875H14.4375V1.3125Z" fill="#E6A424"/>
<path d="M9.43238 6.1818C9.69715 5.99949 9.97334 5.83436 10.2593 5.68742L9.86551 4.9043C9.54638 5.06332 9.23801 5.24308 8.94238 5.44242L9.43238 6.1818Z" fill="#E6A424"/>
<path d="M18.1345 4.91748L17.7407 5.68748C18.0263 5.83017 18.3025 5.99092 18.5676 6.16873L19.0576 5.44248C18.7616 5.24763 18.4532 5.07226 18.1345 4.91748Z" fill="#E6A424"/>
<path d="M5.25 10.3643L6.09 10.618C6.17397 10.3374 6.27627 10.0627 6.39625 9.79552L5.6 9.43677C5.46358 9.73811 5.34667 10.0479 5.25 10.3643Z" fill="#E6A424"/>
<path d="M8.59703 6.81197L8.02828 6.14697C7.23816 6.81998 6.5693 7.6235 6.05078 8.5226L6.80328 8.9601C7.2755 8.14783 7.88201 7.42149 8.59703 6.81197Z" fill="#E6A424"/>
<path d="M19.9721 6.14697L19.4033 6.81197C20.1183 7.42149 20.7249 8.14783 21.1971 8.9601L21.9496 8.5226C21.4311 7.6235 20.7622 6.81998 19.9721 6.14697Z" fill="#E6A424"/>
<path d="M22.7498 10.3643C22.6531 10.0479 22.5362 9.73811 22.3998 9.43677L21.6035 9.79552C21.7235 10.0627 21.8258 10.3374 21.9098 10.618L22.7498 10.3643Z" fill="#E6A424"/>
<path d="M11.0904 5.33321C12.9677 4.63766 15.032 4.63766 16.9092 5.33321L17.2154 4.51509C15.1408 3.74497 12.8588 3.74497 10.7842 4.51509L11.0904 5.33321Z" fill="#E6A424"/>
<path d="M13.5625 24.0625H14.4375V24.9375H13.5625V24.0625Z" fill="#E6A424"/>
<path d="M5.95605 21.4224L6.57477 20.8036L7.19349 21.4224L6.57477 22.0411L5.95605 21.4224Z" fill="#E6A424"/>
<path d="M20.8027 21.4243L21.4215 20.8056L22.0402 21.4243L21.4215 22.043L20.8027 21.4243Z" fill="#E6A424"/>
<path d="M13.5625 13.5537H14.4375V14.4287H13.5625V13.5537Z" fill="#E6A424"/>
</svg>
