<svg width="28" height="28" viewBox="0 0 28 28" fill="none" xmlns="http://www.w3.org/2000/svg">
<path d="M6.90906 23.5105C8.83273 25.1201 11.179 26.3305 13.8821 27.1079C13.9217 27.1192 13.9622 27.125 14.0031 27.125C14.0439 27.125 14.0847 27.1192 14.1242 27.1079C16.8239 26.3296 19.1678 25.1192 21.0915 23.5098C24.289 20.8218 26.1227 16.7745 26.1227 12.4057V3.40938C26.1227 3.2842 26.0691 3.16499 25.9756 3.08211C25.882 2.99922 25.7585 2.96034 25.6329 2.97508C18.0378 3.89088 14.3132 1.00035 14.2776 0.971726C14.1182 0.843552 13.8903 0.843552 13.7296 0.970871C13.6929 1.00014 9.96152 3.89046 2.36679 2.97508C2.24225 2.96013 2.11792 2.99922 2.02414 3.08211C1.93057 3.16499 1.87695 3.2842 1.87695 3.40938V12.4057C1.87695 16.7745 3.71069 20.8218 6.90906 23.5105ZM2.75195 3.89836C9.34052 4.57405 13.0076 2.51836 14.0028 1.851C14.997 2.51878 18.6609 4.57512 25.2477 3.89836V12.4057C25.2477 16.5156 23.5276 20.3187 20.5292 22.8392C18.729 24.3455 16.5336 25.4867 14.0028 26.2318C11.4686 25.4873 9.27151 24.3464 7.47131 22.8399C4.47205 20.3187 2.75195 16.5156 2.75195 12.4057V3.89836Z" fill="#E6A424"/>
<path d="M11.7637 14.146H15.1631L12.064 17.177C11.8912 17.346 11.8882 17.6229 12.0572 17.7957C12.1429 17.8833 12.2563 17.9273 12.3699 17.9273C12.4804 17.9273 12.5908 17.8858 12.6758 17.8025L16.542 14.0212C16.6691 13.8969 16.7084 13.708 16.6411 13.5433C16.574 13.3786 16.4138 13.271 16.2361 13.271H12.8367L15.9357 10.2399C16.1086 10.0709 16.1115 9.79402 15.9426 9.6212C15.7734 9.44838 15.4961 9.44518 15.3239 9.61437L11.4578 13.3957C11.3307 13.52 11.2914 13.7089 11.3586 13.8736C11.4257 14.0383 11.5859 14.146 11.7637 14.146Z" fill="#E6A424"/>
<path d="M14 20.6113C17.8061 20.6113 20.9028 17.5146 20.9028 13.7085C20.9028 9.90234 17.8061 6.80566 14 6.80566C10.1938 6.80566 7.09717 9.90234 7.09717 13.7085C7.09717 17.5146 10.1938 20.6113 14 20.6113ZM14 7.68066C17.3237 7.68066 20.0278 10.3847 20.0278 13.7085C20.0278 17.0322 17.3237 19.7363 14 19.7363C10.6762 19.7363 7.97217 17.0322 7.97217 13.7085C7.97217 10.3847 10.6762 7.68066 14 7.68066Z" fill="#E6A424"/>
</svg>
