<svg width="28" height="28" viewBox="0 0 28 28" fill="none" xmlns="http://www.w3.org/2000/svg">
<path d="M21.7606 2.7998H5.59993C4.31193 2.7998 3.2666 3.84514 3.2666 5.13314V14.4665C3.2666 14.7231 3.4766 14.9331 3.73327 14.9331H6.99993V24.2665C6.99993 24.7798 7.41993 25.1998 7.93327 25.1998H23.7999C24.3133 25.1998 24.7333 24.7798 24.7333 24.2665V5.77714C24.7333 4.13447 23.3986 2.7998 21.7606 2.7998ZM4.19993 13.9998V5.13314C4.19993 4.36314 4.82993 3.73314 5.59993 3.73314C6.36993 3.73314 6.99993 4.36314 6.99993 5.13314V6.78514V13.9998H4.19993ZM23.7999 24.2665H7.93327V14.4665V6.78514V5.13314C7.93327 4.6058 7.75127 4.12514 7.4526 3.73314H21.7559C22.8853 3.73314 23.7999 4.6478 23.7999 5.77714V24.2665Z" fill="#E6A424"/>
<path d="M21.4667 6.06689H11.2001C10.9434 6.06689 10.7334 6.27689 10.7334 6.53356C10.7334 6.79023 10.9434 7.00023 11.2001 7.00023H21.4667C21.7234 7.00023 21.9334 6.79023 21.9334 6.53356C21.9334 6.27689 21.7234 6.06689 21.4667 6.06689Z" fill="#E6A424"/>
<path d="M21.4667 8.3999H11.2001C10.9434 8.3999 10.7334 8.6099 10.7334 8.86657C10.7334 9.12324 10.9434 9.33324 11.2001 9.33324H21.4667C21.7234 9.33324 21.9334 9.12324 21.9334 8.86657C21.9334 8.6099 21.7234 8.3999 21.4667 8.3999Z" fill="#E6A424"/>
<path d="M17.2667 11.6667C17.5234 11.6667 17.7334 11.4567 17.7334 11.2001C17.7334 10.9434 17.5234 10.7334 17.2667 10.7334H11.2001C10.9434 10.7334 10.7334 10.9434 10.7334 11.2001C10.7334 11.4567 10.9434 11.6667 11.2001 11.6667H17.2667Z" fill="#E6A424"/>
<path d="M15.8669 13.0669C13.2955 13.0669 11.2002 15.1622 11.2002 17.7336C11.2002 20.3049 13.2955 22.4002 15.8669 22.4002C18.4382 22.4002 20.5335 20.3049 20.5335 17.7336C20.5335 15.1622 18.4382 13.0669 15.8669 13.0669ZM15.4002 14.0329V15.8669C15.4002 16.1236 15.6102 16.3336 15.8669 16.3336C16.6369 16.3336 17.2669 16.9636 17.2669 17.7336C17.2669 18.5036 16.6369 19.1336 15.8669 19.1336C15.4935 19.1336 15.1435 18.9889 14.8729 18.7229C14.8495 18.6996 14.8215 18.6902 14.7935 18.6716C14.7702 18.6576 14.7469 18.6342 14.7189 18.6249C14.6909 18.6109 14.6582 18.6109 14.6255 18.6062C14.5975 18.6016 14.5695 18.5922 14.5415 18.5922C14.5135 18.5922 14.4809 18.6016 14.4529 18.6109C14.4249 18.6156 14.3922 18.6156 14.3689 18.6296C14.3409 18.6436 14.3129 18.6669 14.2895 18.6809C14.2662 18.6996 14.2382 18.7089 14.2149 18.7276L12.9222 20.0202C12.4275 19.3856 12.1335 18.5969 12.1335 17.7336C12.1335 15.8342 13.5615 14.2616 15.4002 14.0329ZM15.8669 21.4669C15.0035 21.4669 14.2149 21.1729 13.5802 20.6782L14.5789 19.6796C14.9615 19.9316 15.4049 20.0669 15.8669 20.0669C17.1549 20.0669 18.2002 19.0216 18.2002 17.7336C18.2002 16.6089 17.3975 15.6662 16.3335 15.4469V14.0329C18.1722 14.2616 19.6002 15.8342 19.6002 17.7336C19.6002 19.7916 17.9249 21.4669 15.8669 21.4669Z" fill="#E6A424"/>
</svg>
