<svg width="28" height="28" viewBox="0 0 28 28" fill="none" xmlns="http://www.w3.org/2000/svg">
<g clip-path="url(#clip0_541_322)">
<path d="M25.7731 3.59899L14.3286 0.0508693C14.1066 -0.0163963 13.8911 -0.0163963 13.6691 0.0514162L2.22684 3.59899C1.75652 3.74501 1.44043 4.17376 1.44043 4.66595V6.61009C1.44043 10.9851 1.44043 15.9441 3.59402 20.1157C4.65004 22.1616 6.04074 23.7863 7.84652 25.0835C9.31434 26.1379 11.0944 27.0162 13.6204 27.9327C13.7462 27.9776 13.8725 28 13.9994 28C14.1268 28 14.2543 27.9776 14.3817 27.9322C16.905 27.0173 18.6839 26.1395 20.1507 25.0863C21.957 23.7896 23.3488 22.1638 24.4059 20.1163C26.56 15.9447 26.56 10.9856 26.56 6.61063V4.66595C26.5595 4.17321 26.2434 3.74446 25.7731 3.59899ZM25.6856 6.60954C25.6856 10.885 25.6856 15.7314 23.6293 19.7143C21.549 23.7437 18.4346 25.5314 14.0864 27.1086C14.0246 27.1305 13.9764 27.1305 13.9174 27.1097C9.56481 25.5309 6.45035 23.7431 4.37113 19.7149C2.31488 15.732 2.31488 10.8856 2.31488 6.61009V4.66595C2.31488 4.55384 2.37887 4.46743 2.48605 4.43407L13.9267 0.887588C13.9535 0.879385 13.977 0.875557 14 0.875557C14.0229 0.875557 14.0459 0.879385 14.0721 0.887588L25.5139 4.43462C25.6211 4.46798 25.685 4.55439 25.685 4.66649V6.60954H25.6856ZM23.9236 5.46384L14.1296 2.42813C14.0454 2.40189 13.9551 2.40189 13.8709 2.42813L4.07637 5.46384C3.89316 5.52071 3.76848 5.6897 3.76848 5.88165V6.77415C3.76793 10.8052 3.76793 15.3743 5.6634 19.0482C7.4741 22.5548 10.244 24.1768 13.8457 25.5336C13.8955 25.5522 13.9475 25.5615 14 25.5615C14.0519 25.5615 14.1044 25.5522 14.1542 25.5336C17.7548 24.1779 20.5242 22.5564 22.3365 19.0482C24.2325 15.3743 24.232 10.8057 24.2314 6.77415V5.88165C24.2314 5.6897 24.1068 5.52017 23.9236 5.46384ZM23.357 6.7736C23.3575 10.7051 23.3575 15.1616 21.5594 18.6463C19.8947 21.869 17.4289 23.3494 14 24.6564C10.57 23.3488 8.1041 21.8679 6.44051 18.6468C4.64238 15.1616 4.64238 10.7056 4.64293 6.77415V6.20376L14 3.30368L23.357 6.20376V6.7736ZM12.4375 6.79603C12.2691 6.95899 12.0586 7.01696 11.83 6.96392L11.0665 6.78563C10.2697 6.60134 9.4702 7.0722 9.24707 7.85696L9.05129 8.5422C8.9884 8.76642 8.83582 8.92118 8.61051 8.98954L7.86074 9.21704C7.07816 9.45384 6.62152 10.2616 6.82059 11.0545L6.99285 11.7447C7.05027 11.9711 6.99613 12.1811 6.83535 12.3523L6.29887 12.9259C5.74105 13.5226 5.74926 14.4495 6.31691 15.0369L6.81074 15.5466C6.97426 15.7161 7.03277 15.9261 6.98027 16.1542L6.80199 16.9165C6.61496 17.7138 7.08582 18.5139 7.87332 18.737L8.55637 18.9323C8.78223 18.9974 8.93699 19.1494 9.00426 19.3741L9.23231 20.1239C9.46965 20.907 10.2768 21.3637 11.0698 21.1641L11.76 20.9918C11.9886 20.9349 12.1986 20.9891 12.3686 21.1488L12.9412 21.6858C13.2365 21.9614 13.6122 22.0992 13.9879 22.0992C14.3724 22.0992 14.7563 21.9554 15.0538 21.6677L15.564 21.1728C15.7319 21.0093 15.9414 20.9513 16.1694 21.0044L16.9334 21.1827C17.7286 21.3692 18.5286 20.8988 18.7545 20.1108L18.9481 19.4294C19.0126 19.203 19.1652 19.0482 19.3894 18.9804L20.1392 18.7529C20.9234 18.5161 21.3811 17.7084 21.181 16.9149L21.0076 16.2258C20.9507 15.9983 21.0054 15.7877 21.1662 15.6166L21.7005 15.0451C22.26 14.449 22.2523 13.5209 21.683 12.932L21.1881 12.4217C21.0257 12.2544 20.9677 12.0455 21.0213 11.8163L21.1996 11.0513C21.3839 10.2567 20.913 9.45712 20.1271 9.23126L19.4446 9.03767C19.2193 8.97313 19.064 8.82056 18.9957 8.59634L18.7682 7.84657C18.5319 7.06509 17.7253 6.60735 16.9296 6.80478L16.2421 6.97814C16.0146 7.03501 15.8041 6.98032 15.6324 6.81899L15.0598 6.28524C14.4648 5.72524 13.5373 5.7329 12.9483 6.30274L12.4375 6.79603ZM13.5548 6.93001C13.8075 6.68556 14.205 6.68173 14.4593 6.92181C14.4599 6.92235 14.4604 6.9229 14.461 6.92345L15.0336 7.4572C15.4202 7.82032 15.9375 7.95485 16.4538 7.82579L17.1407 7.65243C17.4819 7.56767 17.8286 7.76345 17.9298 8.09923L18.1579 8.85009C18.3126 9.35759 18.6938 9.7322 19.204 9.87821L19.886 10.0713C20.2234 10.1681 20.4257 10.5115 20.347 10.8522L20.1687 11.6162C20.0479 12.1341 20.1906 12.6492 20.5597 13.0288L21.0536 13.5384C21.298 13.7911 21.3013 14.1898 21.0607 14.4457L20.5264 15.0172C20.1632 15.4038 20.0287 15.9212 20.1578 16.4369L20.3317 17.127C20.4175 17.4672 20.2212 17.8134 19.8843 17.9151L19.1351 18.1426C18.6271 18.2952 18.2519 18.6763 18.1059 19.1888L17.9123 19.8702C17.8155 20.2081 17.4726 20.4105 17.1314 20.3306L16.3674 20.1524C15.85 20.0315 15.3354 20.1748 14.9548 20.545L14.4451 21.0388C14.193 21.2827 13.7943 21.286 13.5379 21.0465L12.9658 20.5106C12.676 20.2382 12.3123 20.0949 11.9306 20.0949C11.8037 20.0949 11.6752 20.1108 11.5467 20.1431L10.856 20.3153C10.5158 20.4012 10.1696 20.2054 10.0679 19.8696L9.84043 19.1209C9.6884 18.6134 9.30777 18.2383 8.7959 18.0912L8.11121 17.8954C7.77324 17.7997 7.57145 17.4568 7.65184 17.115L7.83012 16.3516C7.94988 15.8353 7.80715 15.3202 7.43746 14.9374L6.94363 14.4277C6.70027 14.1756 6.69699 13.778 6.93598 13.522L7.47191 12.9489C7.83613 12.5612 7.96957 12.0433 7.83941 11.5298L7.66715 10.8407C7.58184 10.5006 7.77707 10.1544 8.11285 10.0527L8.86316 9.82462C9.37285 9.66985 9.74801 9.28814 9.89129 8.77899L10.0865 8.09485C10.1822 7.75798 10.5257 7.55618 10.8669 7.63493L11.6304 7.81321C12.1471 7.93353 12.6629 7.79134 13.0446 7.4222L13.5548 6.93001ZM9.24215 13.9842C9.24215 16.6075 11.3766 18.742 14 18.742C16.6233 18.742 18.7578 16.6075 18.7578 13.9842C18.7578 11.3608 16.6233 9.22634 14 9.22634C11.3766 9.22634 9.24215 11.3608 9.24215 13.9842ZM14 10.1008C16.141 10.1008 17.8833 11.8426 17.8833 13.9842C17.8833 16.1257 16.1415 17.8675 14 17.8675C11.8589 17.8675 10.1166 16.1257 10.1166 13.9842C10.1166 11.8426 11.8589 10.1008 14 10.1008ZM11.5811 13.8529C11.4105 13.6823 11.4105 13.4056 11.5811 13.2349C11.7518 13.0643 12.0285 13.0643 12.1991 13.2349L13.5904 14.6262L15.7986 12.4163C15.9693 12.2456 16.246 12.2456 16.4171 12.4163C16.5878 12.5869 16.5878 12.8636 16.4171 13.0348L13.8999 15.5537C13.8179 15.6357 13.7068 15.6817 13.5909 15.6817C13.475 15.6817 13.3639 15.6357 13.2819 15.5537L11.5811 13.8529Z" fill="#E6A424"/>
</g>
<defs>
<clipPath id="clip0_541_322">
<rect width="28" height="28" fill="white"/>
</clipPath>
</defs>
</svg>
