<svg width="28" height="28" viewBox="0 0 28 28" fill="none" xmlns="http://www.w3.org/2000/svg">
<g clip-path="url(#clip0_541_155)">
<path d="M5.6875 21.4375H4.8125V10.5H23.1875V18.375H22.3125V11.375H5.6875V21.4375Z" fill="#E6A424"/>
<path d="M23.1875 14.875H4.8125V10.5H23.1875V14.875ZM5.6875 14H22.3125V11.375H5.6875V14Z" fill="#E6A424"/>
<path d="M4.8125 12.25H23.1875V13.125H4.8125V12.25Z" fill="#E6A424"/>
<path d="M21.4375 9.625H6.5625V6.125H21.4375V9.625ZM7.4375 8.75H20.5625V7H7.4375V8.75Z" fill="#E6A424"/>
<path d="M0.4375 26.6875H27.5625V27.5625H0.4375V26.6875Z" fill="#E6A424"/>
<path d="M10.0625 27.5625H3.0625V20.5625H10.0625V27.5625ZM3.9375 26.6875H9.1875V21.4375H3.9375V26.6875Z" fill="#E6A424"/>
<path d="M7.875 25.375H8.3125V25.8125H7.875V25.375Z" fill="#E6A424"/>
<path d="M7 25.375H7.4375V25.8125H7V25.375Z" fill="#E6A424"/>
<path d="M24.5 27.5625C24.1539 27.5625 23.8155 27.4599 23.5278 27.2676C23.24 27.0753 23.0157 26.802 22.8832 26.4822C22.7508 26.1624 22.7161 25.8106 22.7836 25.4711C22.8512 25.1316 23.0178 24.8198 23.2626 24.5751C23.5073 24.3303 23.8191 24.1637 24.1586 24.0961C24.4981 24.0286 24.8499 24.0633 25.1697 24.1957C25.4895 24.3282 25.7628 24.5525 25.9551 24.8403C26.1474 25.128 26.25 25.4664 26.25 25.8125C26.25 26.2766 26.0656 26.7217 25.7374 27.0499C25.4092 27.3781 24.9641 27.5625 24.5 27.5625ZM24.5 24.9375C24.3269 24.9375 24.1578 24.9888 24.0139 25.085C23.87 25.1811 23.7578 25.3178 23.6916 25.4777C23.6254 25.6375 23.6081 25.8135 23.6418 25.9832C23.6756 26.1529 23.7589 26.3088 23.8813 26.4312C24.0037 26.5536 24.1596 26.6369 24.3293 26.6707C24.499 26.7045 24.675 26.6871 24.8348 26.6209C24.9947 26.5547 25.1314 26.4425 25.2275 26.2986C25.3237 26.1547 25.375 25.9856 25.375 25.8125C25.375 25.5804 25.2828 25.3579 25.1187 25.1938C24.9546 25.0297 24.7321 24.9375 24.5 24.9375Z" fill="#E6A424"/>
<path d="M16.1875 27.5625C15.8414 27.5625 15.503 27.4599 15.2153 27.2676C14.9275 27.0753 14.7032 26.802 14.5707 26.4822C14.4383 26.1624 14.4036 25.8106 14.4711 25.4711C14.5387 25.1316 14.7053 24.8198 14.9501 24.5751C15.1948 24.3303 15.5066 24.1637 15.8461 24.0961C16.1856 24.0286 16.5374 24.0633 16.8572 24.1957C17.177 24.3282 17.4503 24.5525 17.6426 24.8403C17.8349 25.128 17.9375 25.4664 17.9375 25.8125C17.9375 26.2766 17.7531 26.7217 17.4249 27.0499C17.0967 27.3781 16.6516 27.5625 16.1875 27.5625ZM16.1875 24.9375C16.0144 24.9375 15.8453 24.9888 15.7014 25.085C15.5575 25.1811 15.4453 25.3178 15.3791 25.4777C15.3129 25.6375 15.2956 25.8135 15.3293 25.9832C15.3631 26.1529 15.4464 26.3088 15.5688 26.4312C15.6912 26.5536 15.8471 26.6369 16.0168 26.6707C16.1865 26.7045 16.3625 26.6871 16.5223 26.6209C16.6822 26.5547 16.8189 26.4425 16.915 26.2986C17.0112 26.1547 17.0625 25.9856 17.0625 25.8125C17.0625 25.5804 16.9703 25.3579 16.8062 25.1938C16.6421 25.0297 16.4196 24.9375 16.1875 24.9375Z" fill="#E6A424"/>
<path d="M21.4375 23.1875H14.4375V16.1875H21.4375V23.1875ZM15.3125 22.3125H20.5625V17.0625H15.3125V22.3125Z" fill="#E6A424"/>
<path d="M19.25 21H19.6875V21.4375H19.25V21Z" fill="#E6A424"/>
<path d="M18.375 21H18.8125V21.4375H18.375V21Z" fill="#E6A424"/>
<path d="M7.875 23.625H5.25V20.5625H7.875V23.625ZM6.125 22.75H7V21.4375H6.125V22.75Z" fill="#E6A424"/>
<path d="M19.25 19.25H16.625V16.1875H19.25V19.25ZM17.5 18.375H18.375V17.0625H17.5V18.375Z" fill="#E6A424"/>
<path d="M26.5256 22.75H23.625C23.509 22.75 23.3977 22.7039 23.3156 22.6219C23.2336 22.5398 23.1875 22.4285 23.1875 22.3125V20.5625C23.1875 20.4465 23.2336 20.3352 23.3156 20.2531C23.3977 20.1711 23.509 20.125 23.625 20.125H25.8694C25.9584 20.1249 26.0454 20.152 26.1187 20.2027C26.1919 20.2533 26.248 20.3251 26.2793 20.4085L26.9356 22.1585C26.9605 22.2247 26.9689 22.296 26.9602 22.3662C26.9516 22.4365 26.926 22.5035 26.8856 22.5617C26.8453 22.6199 26.7915 22.6674 26.7288 22.7002C26.6661 22.733 26.5964 22.7501 26.5256 22.75ZM24.0625 21.875H25.8943L25.5662 21H24.0625V21.875Z" fill="#E6A424"/>
<path d="M27.125 26.25H25.8125V25.375H26.25V22.8296L25.0718 19.6875H22.75V23.1875H14V25.375H14.875V26.25H13.125V22.3125H21.875V18.8125H25.6782L27.125 22.6704V26.25Z" fill="#E6A424"/>
<path d="M17.5 25.375H23.1875V26.25H17.5V25.375Z" fill="#E6A424"/>
<path d="M16.1875 26.25C16.4291 26.25 16.625 26.0541 16.625 25.8125C16.625 25.5709 16.4291 25.375 16.1875 25.375C15.9459 25.375 15.75 25.5709 15.75 25.8125C15.75 26.0541 15.9459 26.25 16.1875 26.25Z" fill="#E6A424"/>
<path d="M24.5 26.25C24.7416 26.25 24.9375 26.0541 24.9375 25.8125C24.9375 25.5709 24.7416 25.375 24.5 25.375C24.2584 25.375 24.0625 25.5709 24.0625 25.8125C24.0625 26.0541 24.2584 26.25 24.5 26.25Z" fill="#E6A424"/>
<path d="M24.9375 18.375V6.83283L13.9965 1.36233L2.625 6.83721V27.125C2.625 27.241 2.57891 27.3523 2.49686 27.4343C2.41481 27.5164 2.30353 27.5625 2.1875 27.5625C2.07147 27.5625 1.96019 27.5164 1.87814 27.4343C1.79609 27.3523 1.75 27.241 1.75 27.125V6.56246C1.75008 6.48018 1.77335 6.39959 1.81715 6.32995C1.86095 6.2603 1.9235 6.20441 1.99762 6.16871L13.8101 0.481206C13.8703 0.45225 13.9364 0.437471 14.0032 0.438002C14.07 0.438533 14.1358 0.45436 14.1956 0.484268L25.5706 6.17177C25.6432 6.20804 25.7042 6.26379 25.747 6.33279C25.7897 6.40178 25.8124 6.4813 25.8125 6.56246V18.375H24.9375Z" fill="#E6A424"/>
</g>
<defs>
<clipPath id="clip0_541_155">
<rect width="28" height="28" fill="white"/>
</clipPath>
</defs>
</svg>
