<svg width="28" height="28" viewBox="0 0 28 28" fill="none" xmlns="http://www.w3.org/2000/svg">
<g clip-path="url(#clip0_541_324)">
<path d="M25.8125 15.3179H24.0625C23.7912 15.3182 23.5266 15.4025 23.3051 15.5592C23.0836 15.7158 22.916 15.9372 22.8253 16.1929H21.5917C21.5407 16.1929 21.4901 16.184 21.4421 16.1665L18.4882 15.0924C18.032 14.9269 17.5471 14.8554 17.0625 14.8822V14.8804H11.9545C11.8134 14.8803 11.6733 14.9031 11.5394 14.9477L7.87206 16.1702C7.82735 16.1857 7.7803 16.1933 7.73299 16.1926L5.17315 16.1882C5.08173 15.9336 4.91402 15.7134 4.69289 15.5577C4.47176 15.402 4.20797 15.3182 3.9375 15.3179H2.1875C1.83952 15.3183 1.50591 15.4567 1.25985 15.7027C1.01379 15.9488 0.875389 16.2824 0.875 16.6304V22.7554C0.875389 23.1034 1.01379 23.437 1.25985 23.683C1.50591 23.9291 1.83952 24.0675 2.1875 24.0679H3.9375C4.28548 24.0675 4.61909 23.9291 4.86515 23.683C5.11121 23.437 5.24961 23.1034 5.25 22.7554V22.7514L6.38898 22.7549C6.4151 22.7861 6.44255 22.8166 6.4719 22.846C6.71514 23.0895 7.04167 23.2318 7.38566 23.2441C7.39841 23.5882 7.54076 23.9147 7.78418 24.1583C8.0276 24.4018 8.35409 24.5443 8.69818 24.5572C8.70643 24.7706 8.76456 24.979 8.86791 25.1659C8.97126 25.3527 9.11695 25.5127 9.2933 25.6331C9.46966 25.7535 9.67176 25.8308 9.88341 25.859C10.0951 25.8872 10.3104 25.8654 10.5121 25.7953C10.5719 25.9825 10.6714 26.1546 10.8038 26.2998C10.9363 26.445 11.0985 26.5599 11.2794 26.6367C11.4603 26.7135 11.6556 26.7504 11.8521 26.7448C12.0485 26.7392 12.2414 26.6912 12.4176 26.6042L12.5969 26.7835C12.7536 26.9404 12.9462 27.0567 13.158 27.1224C13.3699 27.1882 13.5945 27.2013 13.8125 27.1607C14.0305 27.12 14.2354 27.0269 14.4093 26.8893C14.5832 26.7517 14.721 26.5738 14.8107 26.371C14.9785 26.53 15.1839 26.6439 15.4077 26.7019C15.6316 26.7598 15.8664 26.7601 16.0903 26.7025C16.3143 26.645 16.5199 26.5315 16.688 26.3728C16.8561 26.2141 16.9812 26.0153 17.0515 25.795C17.2939 25.8789 17.555 25.893 17.805 25.8357C18.055 25.7785 18.2839 25.6521 18.4656 25.471C18.62 25.3168 18.7349 25.1277 18.8006 24.9197C19.0422 25.004 19.3026 25.0187 19.5522 24.9621C19.8017 24.9055 20.0303 24.7799 20.2119 24.5997C20.3935 24.4194 20.5208 24.1917 20.5793 23.9426C20.6377 23.6935 20.625 23.433 20.5425 23.1908L21.3485 23.1888C21.7786 23.1882 22.1989 23.0603 22.5566 22.8214L22.75 22.6925V22.7554C22.7504 23.1034 22.8888 23.437 23.1349 23.683C23.3809 23.9291 23.7145 24.0675 24.0625 24.0679H25.8125C26.1605 24.0675 26.4941 23.9291 26.7401 23.683C26.9862 23.437 27.1246 23.1034 27.125 22.7554V16.6304C27.1246 16.2824 26.9862 15.9488 26.7401 15.7027C26.4941 15.4567 26.1605 15.3183 25.8125 15.3179ZM4.375 22.7554C4.37487 22.8714 4.32873 22.9826 4.24671 23.0646C4.16469 23.1466 4.05349 23.1927 3.9375 23.1929H2.1875C2.07151 23.1927 1.96031 23.1466 1.87829 23.0646C1.79627 22.9826 1.75013 22.8714 1.75 22.7554V16.6304C1.75013 16.5144 1.79627 16.4032 1.87829 16.3212C1.96031 16.2391 2.07151 16.193 2.1875 16.1929H3.9375C4.05349 16.193 4.16469 16.2391 4.24671 16.3212C4.32873 16.4032 4.37487 16.5144 4.375 16.6304V22.7554ZM7.4375 22.371C7.34047 22.371 7.24562 22.3422 7.16494 22.2883C7.08427 22.2344 7.02139 22.1578 6.98426 22.0681C6.94713 21.9785 6.93741 21.8798 6.95634 21.7847C6.97527 21.6895 7.02199 21.6021 7.0906 21.5335L7.9656 20.6585C8.05763 20.5666 8.18238 20.515 8.31243 20.515C8.44248 20.5151 8.5672 20.5668 8.65916 20.6587C8.75112 20.7507 8.8028 20.8754 8.80285 21.0054C8.80289 21.1355 8.7513 21.2602 8.6594 21.3523L7.7844 22.2273C7.73895 22.273 7.68489 22.3092 7.62534 22.3339C7.5658 22.3585 7.50195 22.3711 7.4375 22.371ZM8.75 23.6835C8.65297 23.6835 8.55812 23.6547 8.47744 23.6008C8.39677 23.5469 8.33389 23.4703 8.29676 23.3806C8.25963 23.291 8.24991 23.1923 8.26884 23.0972C8.28777 23.002 8.33449 22.9146 8.4031 22.846L9.2781 21.971L9.7156 21.5335C9.80763 21.4416 9.93238 21.39 10.0624 21.39C10.1925 21.3901 10.3172 21.4418 10.4092 21.5337C10.5011 21.6257 10.5528 21.7504 10.5528 21.8804C10.5529 22.0105 10.5013 22.1352 10.4094 22.2273L9.0969 23.5398C9.05145 23.5855 8.99739 23.6217 8.93784 23.6464C8.8783 23.671 8.81445 23.6836 8.75 23.6835ZM10.4094 24.8523C10.3174 24.9442 10.1926 24.9958 10.0626 24.9957C9.93252 24.9957 9.8078 24.944 9.71584 24.852C9.62388 24.7601 9.5722 24.6354 9.57215 24.5053C9.57211 24.3753 9.6237 24.2505 9.7156 24.1585L11.0281 22.846C11.1201 22.7541 11.2449 22.7025 11.3749 22.7025C11.505 22.7026 11.6297 22.7543 11.7217 22.8462C11.8136 22.9382 11.8653 23.0629 11.8653 23.1929C11.8654 23.323 11.8138 23.4477 11.7219 23.5398L10.8469 24.4148L10.4094 24.8523ZM12.1594 25.7273C12.0674 25.8192 11.9426 25.8708 11.8126 25.8707C11.6825 25.8707 11.5578 25.819 11.4658 25.727C11.3739 25.6351 11.3222 25.5104 11.3222 25.3803C11.3221 25.2503 11.3737 25.1255 11.4656 25.0335L12.3406 24.1585C12.4326 24.0666 12.5574 24.015 12.6874 24.015C12.8175 24.0151 12.9422 24.0668 13.0342 24.1587C13.1261 24.2507 13.1778 24.3754 13.1778 24.5054C13.1779 24.6355 13.1263 24.7602 13.0344 24.8523L12.1594 25.7273ZM13.9094 26.1648C13.8173 26.2566 13.6926 26.3082 13.5625 26.3082C13.4324 26.3082 13.3077 26.2566 13.2156 26.1648L13.0875 26.0366L13.6531 25.471C13.6959 25.428 13.7358 25.3823 13.7725 25.3341L13.9094 25.471C14.0013 25.5631 14.0529 25.6878 14.0529 25.8179C14.0529 25.9479 14.0013 26.0727 13.9094 26.1648ZM19.5969 23.9773C19.5048 24.0691 19.3801 24.1207 19.25 24.1207C19.1199 24.1207 18.9952 24.0691 18.9031 23.9773L18.4656 23.5398L15.6219 20.696L15.0031 21.3147L17.8469 24.1585C17.8925 24.204 17.9287 24.2581 17.9534 24.3176C17.9781 24.3772 17.9908 24.441 17.9908 24.5054C17.9909 24.5699 17.9782 24.6337 17.9535 24.6933C17.9289 24.7528 17.8927 24.8069 17.8471 24.8525C17.8016 24.8981 17.7475 24.9342 17.6879 24.9589C17.6283 24.9835 17.5645 24.9962 17.5001 24.9962C17.4356 24.9962 17.3718 24.9835 17.3123 24.9588C17.2527 24.9341 17.1986 24.8979 17.1531 24.8523L16.7156 24.4148L14.7469 22.446L14.1281 23.0647L16.0969 25.0335C16.1888 25.1255 16.2404 25.2503 16.2403 25.3803C16.2403 25.5104 16.1886 25.6351 16.0967 25.727C16.0047 25.819 15.88 25.8707 15.7499 25.8707C15.6199 25.8708 15.4951 25.8192 15.4031 25.7273L14.5281 24.8523L14.0457 24.3698C14.0134 24.0417 13.8632 23.7364 13.623 23.5106C13.3828 23.2847 13.0688 23.1537 12.7393 23.1417C12.7266 22.7976 12.5842 22.471 12.3408 22.2275C12.0974 21.984 11.7709 21.8415 11.4268 21.8285C11.4186 21.6152 11.3604 21.4067 11.2571 21.2199C11.1537 21.0331 11.008 20.873 10.8317 20.7527C10.6553 20.6323 10.4532 20.5549 10.2416 20.5267C10.0299 20.4986 9.81463 20.5204 9.61293 20.5904C9.54192 20.3672 9.41462 20.1659 9.2433 20.0061C9.07197 19.8463 8.86239 19.7333 8.63473 19.678C8.40707 19.6227 8.169 19.6269 7.94345 19.6903C7.71789 19.7536 7.51245 19.874 7.3469 20.0398L6.4719 20.9148C6.3452 21.0413 6.24471 21.1916 6.17619 21.357C6.10767 21.5225 6.07247 21.6998 6.0726 21.8789L5.25 21.8764V17.0633L7.73147 17.0676H7.73371C7.8748 17.0677 8.01496 17.0449 8.14878 17.0003L11.8161 15.7778C11.8607 15.763 11.9075 15.7554 11.9545 15.7554H14.8916L12.1316 18.0554C11.9625 18.1956 11.8227 18.3677 11.7202 18.562C11.6178 18.7563 11.5546 18.9689 11.5345 19.1876C11.5143 19.4064 11.5375 19.6269 11.6027 19.8367C11.6679 20.0464 11.7738 20.2413 11.9145 20.41C12.0551 20.5788 12.2276 20.7181 12.4222 20.8201C12.6167 20.922 12.8295 20.9846 13.0483 21.0042C13.2671 21.0238 13.4875 21 13.6971 20.9343C13.9067 20.8685 14.1013 20.7621 14.2696 20.621L15.7231 19.4097L19.5969 23.2835C19.6888 23.3756 19.7404 23.5003 19.7404 23.6304C19.7404 23.7604 19.6888 23.8852 19.5969 23.9773ZM22.75 21.6409L22.0712 22.0934C21.8567 22.2367 21.6045 22.3134 21.3464 22.3138L19.8683 22.3174L17.6155 20.0647C18.3734 20.0865 19.1144 19.8379 19.7058 19.3635L19.9608 19.1595L19.4142 18.4762L19.1592 18.6802C18.7122 19.0385 18.1485 19.2192 17.5764 19.1875C17.0044 19.1558 16.4641 18.914 16.0594 18.5085L15.7768 18.226L13.7095 19.9488C13.6293 20.0156 13.5367 20.066 13.4371 20.097C13.3374 20.1281 13.2326 20.1392 13.1287 20.1298C13.0247 20.1203 12.9237 20.0905 12.8312 20.042C12.7388 19.9935 12.6568 19.9272 12.59 19.847C12.5232 19.7669 12.4728 19.6743 12.4418 19.5746C12.4107 19.475 12.3996 19.3702 12.4091 19.2662C12.4185 19.1623 12.4483 19.0612 12.4968 18.9688C12.5453 18.8764 12.6116 18.7944 12.6918 18.7276L15.5043 16.3839C15.8721 16.0785 16.3134 15.8745 16.7843 15.7923C17.2553 15.71 17.7396 15.7522 18.1892 15.9147L21.143 16.9888C21.2868 17.0412 21.4386 17.068 21.5917 17.0679H22.75V21.6409ZM26.25 22.7554C26.2499 22.8714 26.2037 22.9826 26.1217 23.0646C26.0397 23.1466 25.9285 23.1927 25.8125 23.1929H24.0625C23.9465 23.1927 23.8353 23.1466 23.7533 23.0646C23.6713 22.9826 23.6251 22.8714 23.625 22.7554V16.6304C23.6251 16.5144 23.6713 16.4032 23.7533 16.3212C23.8353 16.2391 23.9465 16.193 24.0625 16.1929H25.8125C25.9285 16.193 26.0397 16.2391 26.1217 16.3212C26.2037 16.4032 26.2499 16.5144 26.25 16.6304V22.7554Z" fill="#E6A424"/>
<path d="M7.43744 13.125H6.99994V14H20.9999V13.125H20.5624V8.41578L21.1664 7.20788L16.1874 5.2163V3.9375C16.1868 3.43344 16.0124 2.94503 15.6936 2.55457C15.3748 2.16412 14.9312 1.89551 14.4374 1.79402V0.875H13.5624V1.79402C13.0687 1.89551 12.6251 2.16412 12.3063 2.55457C11.9875 2.94503 11.8131 3.43344 11.8124 3.9375V5.2163L6.8335 7.20788L7.43744 8.41578V13.125ZM9.18744 13.125H8.31244V8.75H9.18744V13.125ZM10.9374 13.125H10.0624V8.75H10.9374V13.125ZM12.6874 13.125H11.8124V8.75H12.6874V13.125ZM14.4374 13.125H13.5624V8.75H14.4374V13.125ZM16.1874 13.125H15.3124V8.75H16.1874V13.125ZM17.9374 13.125H17.0624V8.75H17.9374V13.125ZM19.6874 13.125H18.8124V8.75H19.6874V13.125ZM12.6874 3.9375C12.6874 3.5894 12.8257 3.25556 13.0719 3.00942C13.318 2.76328 13.6518 2.625 13.9999 2.625C14.348 2.625 14.6819 2.76328 14.928 3.00942C15.1742 3.25556 15.3124 3.5894 15.3124 3.9375V4.8663L13.9999 4.3413L12.6874 4.8663V3.9375ZM13.9999 5.2837L19.9585 7.66712L19.8545 7.875H8.14533L8.04137 7.66712L13.9999 5.2837Z" fill="#E6A424"/>
</g>
<defs>
<clipPath id="clip0_541_324">
<rect width="28" height="28" fill="white"/>
</clipPath>
</defs>
</svg>
