<svg width="28" height="28" viewBox="0 0 28 28" fill="none" xmlns="http://www.w3.org/2000/svg">
<path fill-rule="evenodd" clip-rule="evenodd" d="M4.08317 1.75C3.43917 1.75 2.9165 2.27267 2.9165 2.91667V4.08333C2.9165 4.72733 3.43917 5.25 4.08317 5.25H4.6665V6.4155C3.7005 6.4155 2.9165 7.20008 2.9165 8.16783V22.1655C2.9165 23.1332 3.7005 23.9178 4.6665 23.9178V25.6667C4.6665 25.9887 4.92784 26.25 5.24984 26.25C5.57184 26.25 5.83317 25.9887 5.83317 25.6667V23.9178H22.1665V25.6667C22.1665 25.9887 22.4278 26.25 22.7498 26.25C23.0718 26.25 23.3332 25.9887 23.3332 25.6667V23.9178C24.2992 23.9178 25.0832 23.1332 25.0832 22.1655V8.16783C25.0832 7.20008 24.2992 6.4155 23.3332 6.4155V5.25H23.9165C24.5605 5.25 25.0832 4.72733 25.0832 4.08333V2.91667C25.0832 2.27267 24.5605 1.75 23.9165 1.75H4.08317ZM4.08317 2.91667H23.9165V4.08333H4.08317V2.91667ZM5.83317 5.25H22.1665V6.4155H5.83317V5.25ZM4.6665 7.5845H23.3332C23.6552 7.5845 23.9165 7.84525 23.9165 8.16783V22.1655C23.9165 22.4881 23.6552 22.7488 23.3332 22.7488H4.6665C4.3445 22.7488 4.08317 22.4881 4.08317 22.1655V8.16783C4.08317 7.84525 4.3445 7.5845 4.6665 7.5845ZM12.8332 9.33333C12.6838 9.33333 12.5345 9.3905 12.4208 9.50425C12.1933 9.73175 12.1933 10.1016 12.4208 10.3291L13.4165 11.3248V13.7585L11.6963 12.0382V10.6301C11.6963 10.3081 11.4343 10.0467 11.1129 10.0467C10.7909 10.0467 10.5296 10.3081 10.5296 10.6301V11.6964H9.46325C9.14125 11.6964 8.87992 11.9578 8.87992 12.2797C8.87992 12.6012 9.14125 12.8631 9.46325 12.8631H10.8714L12.5917 14.5833H10.158L9.16225 13.5876C8.93475 13.3601 8.56492 13.3601 8.33742 13.5876C8.10992 13.8151 8.10992 14.1849 8.33742 14.4124L9.09167 15.1667L8.33742 15.9209C8.10992 16.1484 8.10992 16.5182 8.33742 16.7457C8.56492 16.9732 8.93475 16.9732 9.16225 16.7457L10.158 15.75H12.5917L10.8714 17.4702H9.46325C9.14125 17.4702 8.87992 17.7322 8.87992 18.0536C8.87992 18.3756 9.14125 18.6369 9.46325 18.6369H10.5296V19.7032C10.5296 20.0252 10.7909 20.2866 11.1129 20.2866C11.4343 20.2866 11.6963 20.0252 11.6963 19.7032V18.2951L13.4165 16.5748V19.0085L12.4208 20.0042C12.1933 20.2317 12.1933 20.6016 12.4208 20.8291C12.6483 21.0566 13.0181 21.0566 13.2456 20.8291L13.9998 20.0748L14.7541 20.8291C14.9816 21.0566 15.3514 21.0566 15.5789 20.8291C15.8064 20.6016 15.8064 20.2317 15.5789 20.0042L14.5832 19.0085V16.5748L16.3034 18.2951V19.7032C16.3034 20.0252 16.5653 20.2866 16.8868 20.2866C17.2088 20.2866 17.4701 20.0252 17.4701 19.7032V18.6369H18.5364C18.8584 18.6369 19.1198 18.3756 19.1198 18.0536C19.1198 17.7322 18.8584 17.4702 18.5364 17.4702H17.1283L15.408 15.75H17.8417L18.8374 16.7457C19.0649 16.9732 19.4348 16.9732 19.6623 16.7457C19.8898 16.5182 19.8898 16.1484 19.6623 15.9209L18.908 15.1667L19.6623 14.4124C19.8898 14.1849 19.8898 13.8151 19.6623 13.5876C19.4348 13.3601 19.0649 13.3601 18.8374 13.5876L17.8417 14.5833H15.408L17.1283 12.8631H18.5364C18.8584 12.8631 19.1198 12.6012 19.1198 12.2797C19.1198 11.9578 18.8584 11.6964 18.5364 11.6964H17.4701V10.6301C17.4701 10.3081 17.2088 10.0467 16.8868 10.0467C16.5653 10.0467 16.3034 10.3081 16.3034 10.6301V12.0382L14.5832 13.7585V11.3248L15.5789 10.3291C15.8064 10.1016 15.8064 9.73175 15.5789 9.50425C15.3514 9.27675 14.9816 9.27675 14.7541 9.50425L13.9998 10.2585L13.2456 9.50425C13.1318 9.3905 12.9825 9.33333 12.8332 9.33333Z" fill="#E6A424"/>
</svg>
