<svg width="28" height="28" viewBox="0 0 28 28" fill="none" xmlns="http://www.w3.org/2000/svg">
<path d="M22.0751 14.8551C22.9807 14.8262 23.5586 13.8801 23.1755 13.0622C22.2986 11.1885 20.508 10.1248 19.1088 9.74732C19.0531 9.58324 18.9663 9.43484 18.8529 9.30884C19.3849 8.71888 19.2488 7.82232 18.5908 7.40596C19.1939 6.9532 19.5915 6.424 20.4223 4.33324C20.5144 4.10056 20.4999 3.84016 20.3825 3.61896C20.1818 3.24124 19.9569 3.1158 17.58 2.79016C17.589 2.59892 17.4669 2.4214 17.2773 2.36708C15.067 1.73176 12.883 1.7326 10.7858 2.36876C10.6002 2.42504 10.4812 2.59976 10.489 2.7882C8.15325 3.1144 7.93205 3.25608 7.73549 3.59824C7.61677 3.8046 7.58961 4.05296 7.66017 4.2806C8.01549 5.4202 8.52677 6.74936 9.40485 7.40904C8.75861 7.82232 8.61217 8.71468 9.14809 9.30912C8.67769 9.83076 8.72585 10.5949 9.21389 11.0597C8.04209 11.6348 6.84481 12.6299 6.31533 14.0537C5.05113 17.4543 4.35113 20.2216 4.23493 22.2784C4.11677 24.3748 5.77941 26.1091 7.89649 26.1091H20.1028C22.0662 26.1091 23.7098 24.5249 23.7666 22.5775C23.8419 20.0202 22.9692 17.1214 22.0751 14.8551ZM22.0667 14.0154C21.8954 14.0299 21.7274 13.9322 21.6535 13.7743C21.6336 13.7317 21.6061 13.6959 21.5756 13.6637C20.9966 12.4308 19.89 11.5589 18.8095 11.0406C18.9299 10.9208 19.0243 10.7758 19.0884 10.6156C21.5574 11.3895 23.18 13.93 22.0667 14.0154ZM10.0805 10.5688C9.52553 10.5688 9.52525 9.72884 10.0805 9.72884H17.9205C18.4755 9.72884 18.4757 10.5688 17.9205 10.5688H10.0805ZM16.2719 7.20884C16.8719 6.54972 16.8641 6.14708 17.4089 3.61476C18.1465 3.71444 18.8941 3.84632 19.6414 4.02328C18.5687 6.72108 18.0667 7.20884 16.2719 7.20884ZM16.6664 3.07212L16.0677 5.85308C15.8818 6.63904 15.2034 7.19344 14.418 7.20128C11.8952 7.2262 12.1329 6.58108 11.3987 3.0682C13.1062 2.61824 14.8744 2.61964 16.6664 3.07212ZM8.46853 4.01236C9.19093 3.84632 9.92453 3.7136 10.6548 3.61308C11.1848 6.14848 11.1756 6.55112 11.7664 7.20884C10.3146 7.20884 9.33317 7.00696 8.46853 4.01236ZM17.9205 8.04884C18.4755 8.04884 18.4757 8.88884 17.9205 8.88884H10.0805C9.52553 8.88884 9.52525 8.04884 10.0805 8.04884H17.9205ZM22.9272 22.5526C22.8832 24.0464 21.6227 25.2618 20.1146 25.2683C20.7642 24.6083 21.2032 23.6272 21.2245 22.5736C21.2357 22.0178 20.3957 22.0021 20.3845 22.5565C20.3537 24.0842 19.2334 25.2688 18.2904 25.2688H9.70949C8.68945 25.2688 7.55181 23.9635 7.61593 22.3179C7.63777 21.7596 6.79805 21.735 6.77649 22.2854C6.73365 23.3811 7.11473 24.4826 7.89229 25.2686C6.25933 25.2663 4.98253 23.9366 5.07381 22.3255C5.18497 20.3526 5.86761 17.668 7.10269 14.3463C7.56105 13.1132 8.81881 12.0072 10.3168 11.5119C9.53617 12.0332 8.74993 12.7783 8.48449 13.8157C8.34673 14.355 9.16069 14.5605 9.29817 14.024C9.72041 12.3748 11.9694 11.6454 12.2494 11.4088H15.7673C16.0473 11.6116 18.2288 12.2847 18.6776 13.7956C18.7317 13.9778 18.8988 14.096 19.08 14.096C19.9289 14.096 19.4126 12.5963 17.8138 11.5368C19.2001 12.0128 20.3848 13.0102 20.8644 14.1223C21.8514 16.4094 23.0101 19.7285 22.9272 22.5526Z" fill="#E6A424"/>
<path d="M14.6477 17.1562V16.8428C14.8776 16.9086 15.1008 17.043 15.1008 17.3197C15.1008 17.5518 15.2889 17.7397 15.5208 17.7397C16.2353 17.7397 16.1141 16.2445 14.6477 15.9821C14.6477 15.3891 13.8077 15.4137 13.8077 15.965C11.7402 16.2464 12.0185 18.8908 14.1779 18.8908C14.9891 18.8908 15.1008 19.2422 15.1008 19.6218C15.1008 19.8985 14.8776 20.0329 14.6477 20.0987V19.9416C14.6477 19.3869 13.8077 19.3858 13.8077 19.9416V20.1233C13.5473 20.0693 13.255 19.9382 13.255 19.6218C13.255 19.3897 13.0669 19.2018 12.835 19.2018C12.1051 19.2018 12.2462 20.764 13.8077 20.9765V21.1352C13.8077 21.6899 14.6477 21.691 14.6477 21.1352V20.9594C15.4368 20.8183 15.9408 20.3168 15.9408 19.6218C15.9408 18.6234 15.2982 18.0508 14.1779 18.0508C13.255 18.0508 13.255 17.5196 13.255 17.3197C13.255 17.003 13.5473 16.8722 13.8077 16.8182V17.1564C13.8077 17.7111 14.6477 17.712 14.6477 17.1562Z" fill="#E6A424"/>
<path d="M14.2273 14.3489C11.9115 14.3489 10.0273 16.233 10.0273 18.5489C10.0273 20.8648 11.9115 22.7489 14.2273 22.7489C16.5432 22.7489 18.4273 20.8648 18.4273 18.5489C18.4273 16.233 16.5435 14.3489 14.2273 14.3489ZM14.2273 21.9089C12.3746 21.9089 10.8673 20.4016 10.8673 18.5489C10.8673 16.6961 12.3746 15.1889 14.2273 15.1889C16.0801 15.1889 17.5873 16.6961 17.5873 18.5489C17.5873 20.4016 16.0801 21.9089 14.2273 21.9089Z" fill="#E6A424"/>
</svg>
