<svg width="28" height="28" viewBox="0 0 28 28" fill="none" xmlns="http://www.w3.org/2000/svg">
<path d="M14.2917 17.4999V16.6249H15.1667C15.9717 16.6249 16.625 15.9716 16.625 15.1666C16.625 14.3616 15.9717 13.7083 15.1667 13.7083H12.8333C12.3506 13.7083 11.9583 13.316 11.9583 12.8333C11.9583 12.3505 12.3506 11.9583 12.8333 11.9583H16.3333C16.4952 11.9583 16.625 11.8285 16.625 11.6666C16.625 11.5047 16.4952 11.3749 16.3333 11.3749H14.2917V10.4999C14.2917 10.338 14.1619 10.2083 14 10.2083C13.8381 10.2083 13.7083 10.338 13.7083 10.4999V11.3749H12.8333C12.0283 11.3749 11.375 12.0283 11.375 12.8333C11.375 13.6383 12.0283 14.2916 12.8333 14.2916H15.1667C15.6494 14.2916 16.0417 14.6839 16.0417 15.1666C16.0417 15.6493 15.6494 16.0416 15.1667 16.0416H11.6667C11.5048 16.0416 11.375 16.1714 11.375 16.3333C11.375 16.4951 11.5048 16.6249 11.6667 16.6249H13.7083V17.4999C13.7083 17.6618 13.8381 17.7916 14 17.7916C14.1619 17.7916 14.2917 17.6618 14.2917 17.4999Z" fill="#E6A424"/>
<path d="M20.125 14C20.125 10.6225 17.3775 7.875 14 7.875C10.6225 7.875 7.875 10.6225 7.875 14C7.875 17.3775 10.6225 20.125 14 20.125C17.3775 20.125 20.125 17.3775 20.125 14ZM8.45833 14C8.45833 10.9448 10.9448 8.45833 14 8.45833C17.0552 8.45833 19.5417 10.9448 19.5417 14C19.5417 17.0552 17.0552 19.5417 14 19.5417C10.9448 19.5417 8.45833 17.0552 8.45833 14Z" fill="#E6A424"/>
<path d="M3.20833 14.1473V16.3333C3.20833 16.4515 3.27979 16.5579 3.38771 16.6031C3.42417 16.6177 3.46208 16.625 3.5 16.625C3.57583 16.625 3.65021 16.5958 3.70562 16.539L6.03896 14.2056C6.12208 14.1225 6.14687 13.9971 6.10167 13.8877C6.05646 13.7783 5.95146 13.7083 5.83333 13.7083H3.83542C3.99146 8.23375 8.48896 3.82812 14 3.82812C19.6087 3.82812 24.1719 8.39125 24.1719 14C24.1719 19.511 19.7662 24.0085 14.2917 24.1646V22.1667C14.2917 22.0048 14.1619 21.875 14 21.875C13.8381 21.875 13.7083 22.0048 13.7083 22.1667V24.3527C13.6865 24.3979 13.6719 24.4475 13.6719 24.5C13.6719 24.6808 13.8192 24.8281 14 24.8281C19.9704 24.8281 24.8281 19.9704 24.8281 14C24.8281 8.02958 19.9704 3.17188 14 3.17188C8.02958 3.17188 3.17188 8.02958 3.17188 14C3.17188 14.054 3.18646 14.1035 3.20833 14.1473ZM3.79167 15.629V14.2917H5.12896L3.79167 15.629Z" fill="#E6A424"/>
<path d="M3.50016 20.1251H5.8335C5.99537 20.1251 6.12516 19.9953 6.12516 19.8334C6.12516 19.6715 5.99537 19.5417 5.8335 19.5417H3.50016C3.33829 19.5417 3.2085 19.6715 3.2085 19.8334C3.2085 19.9953 3.33829 20.1251 3.50016 20.1251Z" fill="#E6A424"/>
<path d="M8.4585 22.1667C8.4585 22.0048 8.3287 21.875 8.16683 21.875H3.50016C3.33829 21.875 3.2085 22.0048 3.2085 22.1667C3.2085 22.3285 3.33829 22.4583 3.50016 22.4583H8.16683C8.3287 22.4583 8.4585 22.3285 8.4585 22.1667Z" fill="#E6A424"/>
<path d="M3.50016 24.2083C3.33829 24.2083 3.2085 24.338 3.2085 24.4999C3.2085 24.6618 3.33829 24.7916 3.50016 24.7916H5.8335C5.99537 24.7916 6.12516 24.6618 6.12516 24.4999C6.12516 24.338 5.99537 24.2083 5.8335 24.2083H3.50016Z" fill="#E6A424"/>
<path d="M10.7917 24.4999C10.7917 24.338 10.6619 24.2083 10.5 24.2083H8.16667C8.00479 24.2083 7.875 24.338 7.875 24.4999C7.875 24.6618 8.00479 24.7916 8.16667 24.7916H10.5C10.6619 24.7916 10.7917 24.6618 10.7917 24.4999Z" fill="#E6A424"/>
</svg>
