<svg width="28" height="28" viewBox="0 0 28 28" fill="none" xmlns="http://www.w3.org/2000/svg">
<path fill-rule="evenodd" clip-rule="evenodd" d="M25.2978 11.1798L25.2335 11.0689C25.0213 10.7003 24.7111 10.4646 24.3121 10.3686C23.9214 10.2742 23.5641 10.3433 23.2497 10.5736C21.6481 11.7473 20.0464 12.9208 18.4448 14.0945C18.4495 14.7232 18.7213 15.1899 19.2887 15.5427C21.104 14.7437 22.9194 13.9445 24.7346 13.1451C25.091 12.988 25.3294 12.713 25.4432 12.328C25.5595 11.9343 25.5106 11.5478 25.2978 11.1798ZM20.796 15.6903C21.0276 16.6197 21.0472 17.9286 20.2354 18.3973C19.789 18.6551 19.173 18.5869 18.5002 18.2054C17.7653 17.7882 17.0725 17.0605 16.5501 16.1558C15.5247 14.38 15.4797 12.4052 16.4518 11.8441V11.8437C16.8979 11.586 17.5144 11.6542 18.187 12.0356C18.4942 12.21 18.7934 12.4388 19.0762 12.7115L17.8598 13.6031C17.7713 13.6681 17.7159 13.7691 17.709 13.8788C17.6422 14.9298 18.1196 15.7615 19.0899 16.2851C19.1906 16.3396 19.3115 16.3439 19.4159 16.2982L20.796 15.6903ZM18.884 19.1778L18.4996 19.3995C17.5272 19.9606 15.8396 18.9343 14.8142 17.1582C13.7885 15.3819 13.7435 13.4073 14.7159 12.8462L15.0982 12.625C14.8425 13.699 15.1072 15.1411 15.9073 16.5271C16.5998 17.726 17.6811 18.8134 18.884 19.1778ZM17.4116 23.7872V20.2479C16.278 20.023 15.039 19.0318 14.1715 17.5296C12.9023 15.3316 12.9785 12.9922 14.3446 12.2035L16.0804 11.201C16.4708 10.9757 16.9247 10.9015 17.4116 10.9748V7.58627H14.7803C13.97 7.58627 13.3106 6.92737 13.3106 6.11683V3.4855H3.22335C2.82255 3.4855 2.49596 3.81181 2.49596 4.2126V23.7872C2.49596 24.188 2.82255 24.5146 3.22335 24.5146H16.6842C17.0856 24.5146 17.4116 24.188 17.4116 23.7872ZM14.0528 6.11683V4.01028L16.8865 6.84421H14.7803C14.3795 6.84421 14.0528 6.51762 14.0528 6.11683ZM26.1549 12.5378C25.9791 13.1341 25.5914 13.579 25.0336 13.8246L21.4832 15.3879C21.8401 16.7025 21.7852 18.3594 20.6065 19.0401L18.8709 20.042C18.648 20.1708 18.4072 20.2491 18.1536 20.2807V23.7872C18.1536 24.5975 17.4948 25.257 16.6842 25.257H3.22335C2.41336 25.257 1.75391 24.5975 1.75391 23.7872V4.2126C1.75391 3.40234 2.41336 2.74316 3.22335 2.74316H13.6816C13.7802 2.74316 13.8747 2.7822 13.9444 2.85192L18.0448 6.95235C18.1145 7.02207 18.1536 7.11682 18.1536 7.21516V11.1926C18.714 11.4311 19.2285 11.8112 19.6823 12.2677L22.8107 9.97461C23.8303 9.22791 25.2435 9.59936 25.8768 10.6976L25.9406 10.8085C26.2544 11.3518 26.3283 11.9501 26.1549 12.5378ZM11.1837 18.684C11.3357 18.5464 11.5703 18.5577 11.7079 18.7097C11.8459 18.8616 11.8346 19.0962 11.6826 19.2335L9.39757 21.3058C9.22694 21.4604 8.95808 21.4257 8.83466 21.2287L7.9311 19.7944C7.82173 19.6206 7.87359 19.3915 8.0473 19.2827C8.22107 19.1733 8.44988 19.2252 8.55897 19.3989L9.22677 20.4592L11.1837 18.684ZM13.3243 19.7428C13.3243 21.6014 11.8122 23.1134 9.95393 23.1134C8.09535 23.1134 6.58357 21.6014 6.58357 19.7428C6.58357 17.8842 8.09529 16.3727 9.95393 16.3727C11.8122 16.3727 13.3243 17.8842 13.3243 19.7428ZM14.0666 19.7428C14.0666 17.475 12.2214 15.6304 9.95387 15.6304C7.6861 15.6304 5.84151 17.4751 5.84151 19.7428C5.84151 22.0105 7.68615 23.8558 9.95387 23.8558C12.2214 23.8558 14.0666 22.0105 14.0666 19.7428ZM11.8024 14.0001C11.8024 14.2048 11.6367 14.3711 11.4314 14.3711H4.63763C4.43261 14.3711 4.26629 14.2048 4.26629 14.0001C4.26629 13.795 4.43255 13.6291 4.63763 13.6291H11.4314C11.6367 13.6291 11.8024 13.795 11.8024 14.0001ZM4.63763 10.7427C4.43261 10.7427 4.26629 10.5764 4.26629 10.3717C4.26629 10.1664 4.43255 10.0007 4.63763 10.0007H13.8598C14.0645 10.0007 14.2308 10.1664 14.2308 10.3717C14.2308 10.5764 14.0645 10.7427 13.8598 10.7427H4.63763ZM4.26635 6.74263C4.26635 6.53789 4.43261 6.37163 4.63768 6.37163H11.4314C11.6368 6.37163 11.8024 6.53789 11.8024 6.74263C11.8024 6.94798 11.6367 7.11363 11.4314 7.11363H4.63763C4.43261 7.11363 4.26635 6.94792 4.26635 6.74263Z" fill="#E6A424"/>
</svg>
