<svg width="28" height="28" viewBox="0 0 28 28" fill="none" xmlns="http://www.w3.org/2000/svg">
<path fill-rule="evenodd" clip-rule="evenodd" d="M25.5581 23.3632C25.836 23.4197 26.0944 23.5568 26.2975 23.7604C26.5709 24.034 26.7251 24.405 26.7251 24.7917V25.3751C26.7251 25.7618 26.5709 26.1328 26.2975 26.4064C26.024 26.68 25.6535 26.8334 25.2669 26.8334H2.52068C2.13409 26.8334 1.76356 26.68 1.4901 26.4064C1.21664 26.1328 1.0625 25.7618 1.0625 25.3751V24.7917C1.0625 24.405 1.21664 24.034 1.4901 23.7604C1.69319 23.5568 1.95152 23.4197 2.22943 23.3632V5.83341C2.22943 4.86683 3.01239 4.08341 3.97886 4.08341H5.14574V2.91675C5.14574 1.95016 5.9287 1.16675 6.89516 1.16675H11.5609C12.5274 1.16675 13.3103 1.95016 13.3103 2.91675V4.08341H14.4772C15.4437 4.08341 16.2267 4.86683 16.2267 5.83341V7.00008H23.8087C24.7752 7.00008 25.5581 7.7835 25.5581 8.75008V23.3632ZM25.2669 24.5001H2.52068C2.44318 24.5001 2.36924 24.531 2.3149 24.5852C2.25967 24.6401 2.22943 24.7142 2.22943 24.7917V25.3751C2.22943 25.4527 2.25967 25.5267 2.3149 25.5816C2.36924 25.6358 2.44318 25.6667 2.52068 25.6667H25.2669C25.3444 25.6667 25.4183 25.6358 25.4727 25.5816C25.5279 25.5267 25.5581 25.4527 25.5581 25.3751V24.7917C25.5581 24.7142 25.5279 24.6401 25.4727 24.5852C25.4183 24.531 25.3444 24.5001 25.2669 24.5001ZM5.14574 5.25008H3.97886C3.65641 5.25008 3.39539 5.51141 3.39539 5.83341V23.3334H4.56227V20.1251C4.56227 19.7383 4.71548 19.3673 4.98894 19.0937C5.2624 18.8202 5.63386 18.6667 6.02045 18.6667H12.4356C12.8222 18.6667 13.1936 18.8202 13.4671 19.0937C13.7406 19.3673 13.8938 19.7383 13.8938 20.1251V23.3334H15.0607V5.83341C15.0607 5.51141 14.7988 5.25008 14.4772 5.25008H13.3103V6.41675C13.3103 7.38333 12.5274 8.16675 11.5609 8.16675H6.89516C5.9287 8.16675 5.14574 7.38333 5.14574 6.41675V5.25008ZM12.1444 6.41675V2.91675C12.1444 2.59475 11.8833 2.33341 11.5609 2.33341H6.89516C6.57271 2.33341 6.31169 2.59475 6.31169 2.91675V6.41675C6.31169 6.73875 6.57271 7.00008 6.89516 7.00008H11.5609C11.8833 7.00008 12.1444 6.73875 12.1444 6.41675ZM24.3922 23.3334V8.75008C24.3922 8.42808 24.1312 8.16675 23.8087 8.16675H16.2267V23.3334H17.3936V20.1251C17.3936 19.7383 17.5468 19.3673 17.8202 19.0937C18.0937 18.8202 18.4642 18.6667 18.8508 18.6667H21.7671C22.1537 18.6667 22.5252 18.8202 22.7986 19.0937C23.0721 19.3673 23.2253 19.7383 23.2253 20.1251V23.3334H24.3922ZM5.72828 23.3334H8.64459V19.8334H6.02045C5.94296 19.8334 5.86903 19.8643 5.8138 19.9186C5.75947 19.9734 5.72828 20.0475 5.72828 20.1251V23.3334ZM18.5595 23.3334H22.0593V20.1251C22.0593 20.0475 22.0281 19.9734 21.9738 19.9186C21.9185 19.8643 21.8446 19.8334 21.7671 19.8334H18.8508C18.7742 19.8334 18.6994 19.8643 18.645 19.9186C18.5907 19.9734 18.5595 20.0475 18.5595 20.1251V23.3334ZM9.81147 23.3334H12.7269V20.1251C12.7269 20.0475 12.6966 19.9734 12.6423 19.9186C12.587 19.8643 12.5131 19.8334 12.4356 19.8334H9.81147V23.3334ZM8.64459 5.25008H8.06117C7.73961 5.25008 7.47857 4.98875 7.47857 4.66675C7.47857 4.34475 7.73961 4.08341 8.06117 4.08341H8.64459V3.50008C8.64459 3.17808 8.90649 2.91675 9.22805 2.91675C9.54961 2.91675 9.81147 3.17808 9.81147 3.50008V4.08341H10.394C10.7165 4.08341 10.9775 4.34475 10.9775 4.66675C10.9775 4.98875 10.7165 5.25008 10.394 5.25008H9.81147V5.83341C9.81147 6.15541 9.54961 6.41675 9.22805 6.41675C8.90649 6.41675 8.64459 6.15541 8.64459 5.83341V5.25008ZM17.3936 11.3751V10.7917C17.3936 10.405 17.5468 10.034 17.8202 9.76041C18.0937 9.48683 18.4642 9.33341 18.8508 9.33341H21.7671C22.1537 9.33341 22.5252 9.48683 22.7986 9.76041C23.0721 10.034 23.2253 10.405 23.2253 10.7917V11.3751C23.2253 11.7618 23.0721 12.1328 22.7986 12.4064C22.5252 12.68 22.1537 12.8334 21.7671 12.8334H18.8508C18.4642 12.8334 18.0937 12.68 17.8202 12.4064C17.5468 12.1328 17.3936 11.7618 17.3936 11.3751ZM18.5595 11.3751C18.5595 11.4527 18.5907 11.5267 18.645 11.5816C18.6994 11.6358 18.7742 11.6667 18.8508 11.6667H21.7671C21.8446 11.6667 21.9185 11.6358 21.9738 11.5816C22.0281 11.5267 22.0593 11.4527 22.0593 11.3751V10.7917C22.0593 10.7142 22.0281 10.6401 21.9738 10.5852C21.9185 10.531 21.8446 10.5001 21.7671 10.5001H18.8508C18.7742 10.5001 18.6994 10.531 18.645 10.5852C18.5907 10.6401 18.5595 10.7142 18.5595 10.7917V11.3751ZM17.3936 16.0417V15.4584C17.3936 15.0717 17.5468 14.7007 17.8202 14.4271C18.0937 14.1535 18.4642 14.0001 18.8508 14.0001H21.7671C22.1537 14.0001 22.5252 14.1535 22.7986 14.4271C23.0721 14.7007 23.2253 15.0717 23.2253 15.4584V16.0417C23.2253 16.4285 23.0721 16.7995 22.7986 17.0731C22.5252 17.3467 22.1537 17.5001 21.7671 17.5001H18.8508C18.4642 17.5001 18.0937 17.3467 17.8202 17.0731C17.5468 16.7995 17.3936 16.4285 17.3936 16.0417ZM18.5595 16.0417C18.5595 16.1193 18.5907 16.1934 18.645 16.2483C18.6994 16.3025 18.7742 16.3334 18.8508 16.3334H21.7671C21.8446 16.3334 21.9185 16.3025 21.9738 16.2483C22.0281 16.1934 22.0593 16.1193 22.0593 16.0417V15.4584C22.0593 15.3808 22.0281 15.3067 21.9738 15.2519C21.9185 15.1977 21.8446 15.1667 21.7671 15.1667H18.8508C18.7742 15.1667 18.6994 15.1977 18.645 15.2519C18.5907 15.3067 18.5595 15.3808 18.5595 15.4584V16.0417ZM9.81147 11.3751V10.7917C9.81147 10.405 9.96468 10.034 10.2381 9.76041C10.5116 9.48683 10.8822 9.33341 11.2696 9.33341H12.4356C12.8222 9.33341 13.1936 9.48683 13.4671 9.76041C13.7406 10.034 13.8938 10.405 13.8938 10.7917V11.3751C13.8938 11.7618 13.7406 12.1328 13.4671 12.4064C13.1936 12.68 12.8222 12.8334 12.4356 12.8334H11.2696C10.8822 12.8334 10.5116 12.68 10.2381 12.4064C9.96468 12.1328 9.81147 11.7618 9.81147 11.3751ZM10.9775 11.3751C10.9775 11.4527 11.0087 11.5267 11.063 11.5816C11.1173 11.6358 11.1921 11.6667 11.2696 11.6667H12.4356C12.5131 11.6667 12.587 11.6358 12.6423 11.5816C12.6966 11.5267 12.7269 11.4527 12.7269 11.3751V10.7917C12.7269 10.7142 12.6966 10.6401 12.6423 10.5852C12.587 10.531 12.5131 10.5001 12.4356 10.5001H11.2696C11.1921 10.5001 11.1173 10.531 11.063 10.5852C11.0087 10.6401 10.9775 10.7142 10.9775 10.7917V11.3751ZM4.56227 11.3751V10.7917C4.56227 10.405 4.71548 10.034 4.98894 9.76041C5.2624 9.48683 5.63386 9.33341 6.02045 9.33341H7.18641C7.57299 9.33341 7.94445 9.48683 8.21791 9.76041C8.49137 10.034 8.64459 10.405 8.64459 10.7917V11.3751C8.64459 11.7618 8.49137 12.1328 8.21791 12.4064C7.94445 12.68 7.57299 12.8334 7.18641 12.8334H6.02045C5.63386 12.8334 5.2624 12.68 4.98894 12.4064C4.71548 12.1328 4.56227 11.7618 4.56227 11.3751ZM5.72828 11.3751C5.72828 11.4527 5.75947 11.5267 5.8138 11.5816C5.86903 11.6358 5.94296 11.6667 6.02045 11.6667H7.18641C7.2639 11.6667 7.33788 11.6358 7.39311 11.5816C7.44745 11.5267 7.47857 11.4527 7.47857 11.3751V10.7917C7.47857 10.7142 7.44745 10.6401 7.39311 10.5852C7.33788 10.531 7.2639 10.5001 7.18641 10.5001H6.02045C5.94296 10.5001 5.86903 10.531 5.8138 10.5852C5.75947 10.6401 5.72828 10.7142 5.72828 10.7917V11.3751ZM9.81147 16.0417V15.4584C9.81147 15.0717 9.96468 14.7007 10.2381 14.4271C10.5116 14.1535 10.8822 14.0001 11.2696 14.0001H12.4356C12.8222 14.0001 13.1936 14.1535 13.4671 14.4271C13.7406 14.7007 13.8938 15.0717 13.8938 15.4584V16.0417C13.8938 16.4285 13.7406 16.7995 13.4671 17.0731C13.1936 17.3467 12.8222 17.5001 12.4356 17.5001H11.2696C10.8822 17.5001 10.5116 17.3467 10.2381 17.0731C9.96468 16.7995 9.81147 16.4285 9.81147 16.0417ZM10.9775 16.0417C10.9775 16.1193 11.0087 16.1934 11.063 16.2483C11.1173 16.3025 11.1921 16.3334 11.2696 16.3334H12.4356C12.5131 16.3334 12.587 16.3025 12.6423 16.2483C12.6966 16.1934 12.7269 16.1193 12.7269 16.0417V15.4584C12.7269 15.3808 12.6966 15.3067 12.6423 15.2519C12.587 15.1977 12.5131 15.1667 12.4356 15.1667H11.2696C11.1921 15.1667 11.1173 15.1977 11.063 15.2519C11.0087 15.3067 10.9775 15.3808 10.9775 15.4584V16.0417ZM4.56227 16.0417V15.4584C4.56227 15.0717 4.71548 14.7007 4.98894 14.4271C5.2624 14.1535 5.63386 14.0001 6.02045 14.0001H7.18641C7.57299 14.0001 7.94445 14.1535 8.21791 14.4271C8.49137 14.7007 8.64459 15.0717 8.64459 15.4584V16.0417C8.64459 16.4285 8.49137 16.7995 8.21791 17.0731C7.94445 17.3467 7.57299 17.5001 7.18641 17.5001H6.02045C5.63386 17.5001 5.2624 17.3467 4.98894 17.0731C4.71548 16.7995 4.56227 16.4285 4.56227 16.0417ZM5.72828 16.0417C5.72828 16.1193 5.75947 16.1934 5.8138 16.2483C5.86903 16.3025 5.94296 16.3334 6.02045 16.3334H7.18641C7.2639 16.3334 7.33788 16.3025 7.39311 16.2483C7.44745 16.1934 7.47857 16.1193 7.47857 16.0417V15.4584C7.47857 15.3808 7.44745 15.3067 7.39311 15.2519C7.33788 15.1977 7.2639 15.1667 7.18641 15.1667H6.02045C5.94296 15.1667 5.86903 15.1977 5.8138 15.2519C5.75947 15.3067 5.72828 15.3808 5.72828 15.4584V16.0417Z" fill="#E6A424"/>
</svg>
