<svg width="28" height="28" viewBox="0 0 28 28" fill="none" xmlns="http://www.w3.org/2000/svg">
<path d="M8.16508 19.8865C7.10305 18.5598 6.51406 16.9132 6.51406 15.1768C6.51406 12.3987 8.61461 10.1636 10.568 8.04451C9.6132 7.62615 9.36219 6.37326 10.1109 5.62294C10.3591 5.37466 10.6938 5.21388 11.0657 5.18872L9.94953 4.01404C9.4907 3.53169 9.28617 2.92576 9.77125 2.47951C10.2842 2.0081 11.3413 2.05787 12.0998 2.22849C12.6101 0.791303 14.3355 0.306225 15.4467 1.34802C15.6977 1.58537 15.8963 1.88615 16.0188 2.22849C16.7767 2.05787 17.8338 2.00865 18.3473 2.47951C18.8324 2.92576 18.6279 3.53224 18.1691 4.01404L17.4423 4.77966H25.5748V4.77638C26.0911 4.77638 26.5095 5.19638 26.5095 5.71263H26.5078V11.4652H26.5095C26.5095 11.9815 26.0911 12.4015 25.5748 12.4015H20.9073C21.3366 13.2726 21.6051 14.1952 21.6051 15.1763C21.6051 17.4223 20.6163 19.489 18.9757 20.8999L21.1895 19.8641C21.977 19.4966 22.9613 19.5508 23.3873 20.1228C23.5142 20.2918 23.5782 20.4886 23.5607 20.7041C23.5377 21.0218 23.3392 21.3554 22.9017 21.6453C21.0134 22.8993 17.3471 25.55 16.0248 25.9115C15.6649 26.0104 9.9993 25.8929 8.54516 25.8896C8.39313 26.1286 8.12516 26.274 7.83039 26.2724C7.2693 26.2675 6.69563 26.274 6.13617 26.2582C5.74844 26.2505 5.4307 25.9727 5.34266 25.6101H1.51672C1.275 25.6101 1.07812 25.4149 1.07812 25.1732V20.9343C1.07812 20.6926 1.275 20.4974 1.51672 20.4974H5.41539C5.49305 20.1069 5.84031 19.834 6.24172 19.8368C6.80445 19.8401 7.37648 19.8335 7.93758 19.8493C8.01633 19.851 8.09398 19.863 8.16508 19.8865ZM5.33008 24.7368C5.35031 23.6146 5.36891 22.4935 5.3875 21.3713H1.95367V24.7368H5.33008ZM6.26633 20.9032L6.19031 25.3881L7.8025 25.4007L7.8818 20.7205L6.26961 20.7079L6.26633 20.9032ZM8.68133 25.019C10.078 25.0266 15.5145 25.1196 15.8306 25.0611C16.7964 24.7679 19.5401 22.8861 21.3092 21.6721C21.7527 21.3697 22.1339 21.1061 22.4194 20.9174C22.6037 20.7949 22.6846 20.7052 22.689 20.6445L22.6857 20.6461C22.6671 20.6199 22.6299 20.5947 22.5785 20.5718C22.3428 20.4646 21.9633 20.4646 21.557 20.6554L18.075 22.2818C17.4302 22.5826 14.4705 22.2879 13.7252 22.2108C12.4646 22.0822 11.3982 21.8509 11.302 21.6447C11.122 21.2603 11.5606 20.8742 12.142 20.5116C12.5762 20.2387 13.1559 19.9177 13.782 19.589C13.7946 19.5814 13.8066 19.5748 13.8192 19.5688C14.5323 19.2461 14.7292 18.6183 14.3448 18.3766C14.0938 18.2186 13.6377 18.2186 12.9809 18.5314C12.1545 18.9268 11.5563 19.5825 10.8398 19.7979C10.0819 20.0243 9.41031 20.7451 8.74258 21.3248C8.7218 22.5558 8.70156 23.7885 8.68133 25.019ZM16.1287 21.5201C18.851 20.6336 20.7279 18.0879 20.7279 15.1768C20.7279 14.1815 20.4041 13.2639 19.9185 12.402H16.2353C15.9734 12.402 15.73 12.2948 15.5517 12.1029L13.2264 9.60255C12.8638 9.21208 12.7523 8.66029 12.918 8.17029H11.6377C9.71383 10.2845 7.39016 12.5387 7.39016 15.1774C7.39016 16.9011 8.04586 18.5243 9.20524 19.7536C9.64383 19.3954 10.0824 19.1116 10.591 18.9601C10.8579 18.8808 11.1384 18.6812 11.4562 18.4565C11.7816 18.224 12.143 17.9681 12.6062 17.7466C13.5737 17.2845 14.3316 17.3376 14.8107 17.6383C15.2356 17.9063 15.4527 18.3733 15.403 18.8677C15.3472 19.4195 14.9578 20.0101 14.1889 20.3623C13.5627 20.6926 12.9984 21.0027 12.603 21.2504C12.5734 21.269 12.5455 21.2843 12.5177 21.3002C12.8245 21.2942 13.2773 21.2893 13.8138 21.3434C14.5646 21.4194 15.4046 21.4878 16.1287 21.5201ZM22.689 20.6445C22.689 20.6412 22.689 20.6445 22.6873 20.6461L22.689 20.6445ZM18.3457 13.2513C18.5038 13.0686 18.7799 13.0495 18.9609 13.2065C19.1436 13.3645 19.1627 13.6407 19.0058 13.8217L17.9673 15.0183L19.0058 16.2132C19.1622 16.3964 19.1436 16.6704 18.9609 16.8284C18.7794 16.9865 18.5038 16.9662 18.3457 16.7836L17.3909 15.6827L16.436 16.7836C16.278 16.9662 16.0018 16.9865 15.8208 16.8284C15.6381 16.6704 15.619 16.3958 15.7759 16.2132L16.8145 15.0183L15.7759 13.8217C15.6195 13.6401 15.6381 13.3645 15.8208 13.2065C16.0023 13.0501 16.278 13.0686 16.436 13.2513L17.3909 14.3522L18.3457 13.2513ZM12.5898 16.6775C12.492 16.8979 12.2349 16.9952 12.0145 16.8979C11.7941 16.8 11.6952 16.5413 11.7941 16.3226L13.1241 13.3585C13.2822 13.0079 13.7705 13.0238 13.9209 13.3585L15.2526 16.3226C15.3505 16.5413 15.2509 16.8 15.0311 16.8979C14.8123 16.9958 14.5537 16.8979 14.4558 16.6775L14.1331 15.9611H12.912L12.5898 16.6775ZM13.5228 14.6004L13.3041 15.0872H13.741L13.5228 14.6004ZM9.44258 13.9737C9.20086 13.9737 9.00563 13.7785 9.00563 13.5368C9.00563 13.2951 9.20086 13.0998 9.44258 13.0998H11.8674C12.1091 13.0998 12.306 13.2951 12.306 13.5368C12.306 13.7785 12.1091 13.9737 11.8674 13.9737H11.0925V16.4992C11.0925 16.7409 10.8973 16.9361 10.6555 16.9361C10.4138 16.9361 10.2186 16.7409 10.2186 16.4992V13.9737H9.44258ZM24.3958 7.12357C24.6036 7.00435 24.8699 7.07544 24.9897 7.2849C25.1105 7.49271 25.0378 7.75904 24.83 7.8788L21.1791 9.98701C20.9696 10.1062 20.7049 10.0351 20.5841 9.82568C20.4648 9.61786 20.5359 9.35154 20.7454 9.23177L24.3958 7.12357ZM23.1199 6.43068C23.1385 6.45529 23.1527 6.48318 23.1648 6.51107C23.2873 6.75005 23.3102 7.01638 23.2452 7.2581C23.0204 8.09537 21.884 8.3524 21.3464 7.54466C21.0177 7.05029 21.213 6.3213 21.7462 6.05935C22.2564 5.81052 22.8301 5.96693 23.1199 6.43068ZM22.3855 6.90044C22.2706 6.70193 21.9698 6.87583 22.083 7.0738C22.1963 7.27232 22.4987 7.1006 22.3855 6.90044ZM18.3534 6.95021C17.4713 6.95021 16.9506 8.65372 17.6758 9.64466C18.3561 10.5733 19.3716 9.77154 19.3716 8.49896C19.3716 8.04615 19.2415 7.64146 19.0293 7.35326C18.8477 7.10333 18.6077 6.95021 18.3534 6.95021ZM16.972 6.83701C17.7163 5.82146 18.9905 5.82146 19.7326 6.83701C20.4129 7.76396 20.4129 9.23341 19.7326 10.1604C18.9899 11.1759 17.7157 11.1759 16.972 10.1604C16.2927 9.23341 16.2927 7.76396 16.972 6.83701ZM23.4672 10.0909C23.3414 9.91099 23.0609 10.0876 23.1713 10.2801C23.2178 10.3605 23.3277 10.3901 23.4103 10.3436V10.3419C23.4984 10.2905 23.5213 10.1883 23.4672 10.0909ZM23.5946 9.17927C24.4346 9.40404 24.6873 10.5421 23.8801 11.078C23.6411 11.2361 23.3173 11.2733 23.0521 11.2038C22.1623 10.9648 21.9857 9.75458 22.8011 9.28482C23.0521 9.14044 23.3354 9.10927 23.5946 9.17927ZM16.4497 5.65083C16.3398 5.65576 16.2309 5.62896 16.1938 5.67107L14.0932 7.9931C13.9226 8.20091 13.7137 8.33107 13.7148 8.63185C13.7164 8.76529 13.7662 8.89982 13.8652 9.00701L16.2107 11.5243L25.5738 11.5259C25.6066 11.5259 25.6345 11.498 25.6345 11.4652H25.6361V5.71318H25.6345C25.6345 5.68037 25.6066 5.65247 25.5738 5.65247V5.65083H16.4497ZM16.2386 4.77966L17.5363 3.41247C17.6632 3.27904 17.7288 3.18005 17.7458 3.11333C17.7009 3.07779 17.6233 3.04826 17.5194 3.02365C17.1021 2.9274 16.4623 2.98044 15.8345 3.18169C15.5769 3.26372 15.3029 3.09037 15.2684 2.82076C15.1366 1.7806 14.0019 1.29826 13.2702 1.98349C13.0498 2.18966 12.8983 2.47787 12.8518 2.8049C12.819 3.09802 12.5434 3.26537 12.2841 3.18169C11.6563 2.9799 11.0159 2.9274 10.5992 3.02365C10.4953 3.04826 10.4177 3.07779 10.3728 3.11333C10.3881 3.18005 10.4548 3.27904 10.5823 3.41247L12.2655 5.18599H15.4577C15.5878 5.04162 15.6715 4.94263 15.8607 4.85732C15.9783 4.80591 16.1052 4.77966 16.2386 4.77966ZM14.6669 6.06044H11.1652C10.626 6.06044 10.3356 6.72107 10.7294 7.11318C10.8409 7.22638 10.9963 7.29474 11.1652 7.29474H13.5513L14.6669 6.06044Z" fill="#E6A424"/>
</svg>
