<svg width="28" height="28" viewBox="0 0 28 28" fill="none" xmlns="http://www.w3.org/2000/svg">
<path d="M12.63 27.1249H20.4779C21.849 27.1249 22.965 26.0093 22.965 24.6377V16.7898C22.965 16.5483 22.769 16.3523 22.5275 16.3523H18.58C18.3849 16.3523 18.2134 16.4814 18.1595 16.6691C18.1053 16.8563 18.1823 17.0572 18.3477 17.1608C18.7117 17.3888 18.9291 17.7812 18.9291 18.2104C18.9291 18.5858 18.7607 18.9367 18.4662 19.1729C18.1661 19.414 17.7872 19.4993 17.4009 19.4144C16.9175 19.3077 16.5307 18.889 16.4607 18.3963C16.3894 17.8976 16.6073 17.4242 17.0286 17.1604C17.194 17.0567 17.271 16.8563 17.2167 16.6687C17.1629 16.481 16.9914 16.3519 16.7963 16.3519H13.067V13.5913C13.4573 13.7868 13.9075 13.8586 14.3655 13.7851C15.2108 13.6486 15.899 12.9954 16.0784 12.1598C16.2153 11.5206 16.0617 10.867 15.6575 10.3669C15.2541 9.86816 14.656 9.58203 14.0169 9.58203C13.6813 9.58203 13.3571 9.66078 13.067 9.80647V6.89185C13.067 6.65035 12.871 6.45435 12.6295 6.45435H4.78211C3.41098 6.45435 2.29492 7.56997 2.29492 8.94153V24.6377C2.29492 26.0088 3.41055 27.1249 4.78211 27.1249H12.63ZM15.5949 18.5206C15.7174 19.3798 16.3675 20.0829 17.2128 20.2697C17.8559 20.4115 18.5113 20.2605 19.0149 19.8554C19.5167 19.4525 19.8045 18.8527 19.8045 18.2108C19.8045 17.8608 19.7201 17.5253 19.5639 17.2278H22.0905V24.6382C22.0905 25.5272 21.3673 26.2503 20.4783 26.2503H13.0675V22.7215C13.0675 22.672 13.0592 22.6239 13.0439 22.5793C12.9975 22.4445 12.8872 22.3378 12.7437 22.2988C12.7157 22.2914 12.6877 22.2927 12.6597 22.2905C12.4957 22.2787 12.336 22.3557 12.2515 22.5014C11.986 22.9582 11.4737 23.1948 10.9456 23.1025C10.827 23.082 10.7137 23.0435 10.6092 22.9897C10.5042 22.9358 10.4079 22.8672 10.3226 22.7862C10.1524 22.6243 10.0282 22.4143 9.97436 22.1798C9.90786 21.888 9.93848 21.601 10.0597 21.3482C10.0999 21.2637 10.1507 21.1832 10.211 21.1075C10.4477 20.8109 10.7995 20.6412 11.1766 20.6412C11.6242 20.6412 12.0262 20.8735 12.2524 21.2624C12.3522 21.4335 12.5543 21.5162 12.7446 21.465C12.9358 21.4133 13.0684 21.2401 13.0684 21.0423V17.2273H15.818C15.6146 17.6158 15.531 18.0665 15.5958 18.5202L15.5949 18.5206ZM3.16992 8.94197C3.16992 8.05297 3.89311 7.32978 4.78211 7.32978H12.1925V10.7541C12.1925 10.9462 12.318 11.1159 12.5018 11.1723C12.686 11.2288 12.8846 11.1588 12.9922 10.9995C13.2224 10.66 13.6056 10.4575 14.0173 10.4575C14.3914 10.4575 14.7414 10.625 14.9776 10.9173C15.2187 11.2152 15.3057 11.5919 15.2235 11.9769C15.1211 12.4551 14.7112 12.8436 14.2269 12.9219C13.739 13.0002 13.2652 12.7994 12.9927 12.3965C12.8846 12.2372 12.686 12.1672 12.5018 12.2237C12.318 12.2801 12.1925 12.4498 12.1925 12.6419V16.3523H9.3798C9.43055 16.2561 9.47036 16.1546 9.50536 16.0509C9.50536 16.05 9.50536 16.0496 9.50624 16.0487C9.53861 15.9525 9.56355 15.854 9.58192 15.753C9.58455 15.739 9.58717 15.7254 9.58936 15.7114C9.60467 15.6165 9.61473 15.5202 9.61692 15.4222C9.61692 15.4117 9.61867 15.4017 9.61867 15.3912C9.61867 15.3837 9.61998 15.3763 9.61998 15.3688C9.61998 15.2752 9.61211 15.1825 9.59986 15.091C9.59855 15.0805 9.59942 15.07 9.59767 15.0591C9.59461 15.0372 9.58717 15.0167 9.58323 14.9948C9.5723 14.9348 9.55961 14.8758 9.54386 14.8172C9.53336 14.7773 9.52286 14.738 9.51017 14.6995C9.49223 14.6461 9.4708 14.5945 9.44892 14.5433C9.41874 14.4715 9.38417 14.4028 9.34655 14.3355C9.3273 14.3018 9.30936 14.2677 9.28836 14.2348C9.2573 14.1858 9.22361 14.1399 9.18861 14.094C9.17155 14.0717 9.15448 14.0502 9.13655 14.0288C8.95061 13.8026 8.71961 13.6171 8.45536 13.485C8.43523 13.4749 8.41511 13.4648 8.39455 13.4557C8.33811 13.4294 8.28123 13.4049 8.22217 13.3839C8.18236 13.3695 8.14167 13.359 8.10098 13.3472C8.0603 13.3358 8.0218 13.3196 7.98067 13.3104C7.90411 13.2938 7.82755 13.2815 7.75098 13.2728C7.74967 13.2728 7.74836 13.2723 7.74705 13.2723C7.70417 13.2675 7.66174 13.2671 7.6193 13.2649C7.58036 13.2627 7.54186 13.2588 7.50248 13.2588C7.48192 13.2588 7.46136 13.2614 7.4408 13.2618C7.30342 13.2658 7.16561 13.2798 7.02823 13.3104C6.98667 13.3196 6.94817 13.3353 6.90792 13.3472C6.86723 13.359 6.82611 13.3699 6.78586 13.3843C6.72723 13.4053 6.6708 13.4298 6.61436 13.4557C6.59336 13.4653 6.57236 13.4753 6.5518 13.4858C6.28755 13.618 6.05698 13.8035 5.87148 14.0292C5.85398 14.0507 5.83692 14.0721 5.8203 14.094C5.7853 14.1403 5.75117 14.1867 5.72011 14.2357C5.69955 14.2677 5.68161 14.3013 5.66323 14.3346C5.62517 14.4024 5.59061 14.4715 5.55998 14.5433C5.53811 14.5949 5.51623 14.647 5.4983 14.7003C5.48561 14.7384 5.47555 14.7773 5.46505 14.8163C5.44886 14.8762 5.4353 14.937 5.42436 14.9987C5.42086 15.0193 5.41386 15.0385 5.4108 15.0595C5.40948 15.0696 5.41036 15.0797 5.40905 15.0893C5.3968 15.1816 5.38848 15.2743 5.38848 15.3688C5.38848 15.3767 5.3898 15.3842 5.3898 15.3916C5.3898 15.4012 5.39111 15.4104 5.39155 15.4196C5.39373 15.5185 5.4038 15.6156 5.41955 15.7114C5.42173 15.725 5.42436 15.7385 5.42698 15.7517C5.44536 15.8527 5.4703 15.952 5.50311 16.0483C5.50311 16.0487 5.50311 16.0496 5.50355 16.05C5.53855 16.1537 5.5788 16.2552 5.62955 16.3515H3.16992V8.94197ZM3.16992 24.6377V17.2273H6.61305C6.80817 17.2273 6.97967 17.0983 7.03348 16.9106C7.08773 16.7229 7.01073 16.5225 6.84536 16.4188C6.76092 16.3659 6.68655 16.3025 6.61873 16.2333C6.61042 16.225 6.60123 16.2172 6.59336 16.2084C6.52992 16.1402 6.47567 16.0649 6.42973 15.9848C6.42317 15.9735 6.41661 15.9617 6.41048 15.9498C6.36717 15.8685 6.33261 15.7827 6.30811 15.6935C6.30505 15.6817 6.3033 15.6698 6.30023 15.658C6.27836 15.5653 6.26436 15.4699 6.26392 15.3719C6.26392 15.3702 6.26392 15.3684 6.26392 15.3667C6.26392 15.2813 6.27486 15.1978 6.29192 15.116C6.29498 15.1011 6.29805 15.0867 6.30198 15.0722C6.34267 14.9073 6.41705 14.7528 6.52073 14.6181C6.52773 14.6089 6.53517 14.5997 6.54261 14.5905C6.5973 14.524 6.65767 14.4615 6.72636 14.4059C6.79898 14.3477 6.87642 14.2996 6.95692 14.2593C6.96261 14.2567 6.96786 14.2541 6.97355 14.2515C7.05361 14.2134 7.13717 14.1837 7.22292 14.164C7.34061 14.1386 7.45655 14.1338 7.57073 14.1399C7.64161 14.1438 7.71248 14.1482 7.78423 14.164C7.87086 14.1837 7.95442 14.2134 8.03492 14.2519C8.04017 14.2545 8.04586 14.2572 8.05111 14.2598C8.13161 14.2996 8.20948 14.3477 8.28167 14.4063C8.35036 14.4615 8.41073 14.524 8.46498 14.5905C8.47242 14.5997 8.4803 14.6093 8.4873 14.6185C8.59098 14.7533 8.66536 14.9073 8.70605 15.0722C8.70955 15.0871 8.71305 15.1015 8.71611 15.1164C8.73317 15.1978 8.74411 15.2809 8.74411 15.3658V15.3723C8.74411 15.4703 8.73011 15.5657 8.7078 15.6585C8.70517 15.6703 8.70342 15.6821 8.69992 15.6939C8.67586 15.7836 8.64086 15.8693 8.59755 15.9507C8.59142 15.9625 8.58486 15.9739 8.5783 15.9853C8.53236 16.0653 8.47811 16.1406 8.41467 16.2088C8.4068 16.2176 8.39761 16.2255 8.3893 16.2338C8.32148 16.3029 8.24711 16.3663 8.16267 16.4188C7.9973 16.5225 7.9203 16.7229 7.97455 16.9106C8.02836 17.0983 8.19986 17.2273 8.39498 17.2273H12.1912V20.0273C11.8836 19.8589 11.5349 19.7657 11.1744 19.7657C10.5295 19.7657 9.92799 20.0558 9.52461 20.5615C9.47386 20.625 9.42748 20.691 9.38505 20.7588C9.08755 21.2344 8.99042 21.8106 9.11948 22.3741C9.30411 23.183 9.97698 23.8218 10.7938 23.964C11.2886 24.0493 11.7769 23.9644 12.1907 23.7387V26.2495H4.78211C3.89311 26.2495 3.16992 25.5267 3.16992 24.6377Z" fill="#E6A424"/>
<path d="M21.7112 1.03815C21.6268 1.0154 21.5459 0.996155 21.4627 0.979967C21.2904 0.94628 21.1154 0.918717 20.9259 0.89903L20.8555 0.893342C20.7916 0.888092 20.7269 0.88328 20.6801 0.881967C20.5164 0.870592 20.3511 0.871467 20.1743 0.878467C20.0938 0.881967 20.0199 0.885905 19.956 0.894217C17.3262 1.12303 15.196 3.35647 15.1072 5.9714C15.098 6.1499 15.1002 6.3354 15.1129 6.51959C15.2122 8.09984 16.0146 9.54403 17.3135 10.4825C17.5546 10.6562 17.7344 10.9112 17.8341 11.2197C17.8823 11.3684 17.9089 11.5189 17.9159 11.6747L17.9181 11.7355C17.9181 11.7398 17.9159 11.7433 17.9159 11.7473V13.9304C17.9159 14.4033 18.2791 14.7879 18.7253 14.7879H19.0145C19.0985 15.4179 19.5202 15.8847 20.0466 15.8847H20.7597C21.2864 15.8847 21.7082 15.4179 21.7918 14.7879H22.0761C22.5224 14.7879 22.8855 14.4033 22.8855 13.9304V11.7473C22.8855 11.7473 22.8851 11.7451 22.8851 11.7442C22.8921 11.5635 22.9258 11.3855 22.9857 11.2144C23.0946 10.9016 23.2849 10.6369 23.5312 10.4527C24.8088 9.52172 25.5971 8.08803 25.6925 6.52878C25.7021 6.41459 25.7052 6.2969 25.7052 6.17615C25.7052 3.74628 24.0606 1.63272 21.7117 1.03859L21.7112 1.03815ZM20.7593 15.0093H20.0483C20.019 15.0023 19.9464 14.9266 19.9035 14.7875H20.9019C20.8594 14.9262 20.7873 15.0023 20.7593 15.0093ZM22.0092 13.9125H18.7905V12.1843H22.0101L22.0092 13.9125ZM24.8197 6.46534C24.7392 7.77303 24.0821 8.96828 23.0115 9.74834C22.6204 10.0406 22.3259 10.4479 22.1597 10.9248C22.1159 11.0486 22.0818 11.1755 22.0569 11.3076H18.7546C18.7336 11.186 18.7043 11.0661 18.6667 10.9497C18.5096 10.4628 18.2187 10.0559 17.8258 9.7724C16.7395 8.98797 16.0693 7.78222 15.9861 6.4614C15.9756 6.30872 15.9739 6.15865 15.9813 6.00815C16.0557 3.82022 17.835 1.95647 20.0483 1.76353C20.1048 1.75653 20.1564 1.75478 20.2115 1.75215C20.2736 1.74953 20.3375 1.7504 20.4044 1.74997C20.4775 1.75084 20.5466 1.74997 20.6341 1.75565C20.6827 1.7574 20.7343 1.76178 20.7846 1.76572L20.8485 1.77053C20.9981 1.78628 21.1477 1.8099 21.2956 1.83878C21.3595 1.85103 21.4208 1.8659 21.4908 1.88428C23.4569 2.38172 24.8298 4.14615 24.8298 6.17528C24.8298 6.27109 24.8276 6.36472 24.8193 6.4649L24.8197 6.46534Z" fill="#E6A424"/>
<path d="M20.6294 2.37425C20.3914 2.36331 20.1827 2.544 20.1683 2.78463C20.1538 3.02525 20.3372 3.23219 20.5778 3.24794C20.6872 3.25494 23.2518 3.45225 23.2986 6.26231C23.3025 6.50119 23.4977 6.69238 23.7361 6.69238H23.7435C23.985 6.68844 24.1775 6.48938 24.1736 6.24744C24.1255 3.34156 21.8343 2.44338 20.6294 2.37425Z" fill="#E6A424"/>
</svg>
