<svg width="28" height="28" viewBox="0 0 28 28" fill="none" xmlns="http://www.w3.org/2000/svg">
<g clip-path="url(#clip0_541_320)">
<path fill-rule="evenodd" clip-rule="evenodd" d="M0.710155 16.4079H0.70752C0.70752 10.1165 5.70799 5.02086 11.8677 5.02086C18.0274 5.02086 23.0279 10.1165 23.0279 16.4079H23.0252C23.027 16.424 23.0279 16.4403 23.0279 16.4568V17.9087C23.0279 18.0904 22.916 18.2533 22.7464 18.3186C22.7464 18.3186 21.1831 18.9203 21.1831 18.9202C20.9629 19.7546 20.6296 20.5544 20.1961 21.3009L20.8753 22.8342C20.9488 23.0002 20.9127 23.1943 20.7843 23.3227L18.7335 25.3734C18.6052 25.5018 18.4111 25.5379 18.2451 25.4644L16.7126 24.7856C15.9679 25.2209 15.166 25.5523 14.3311 25.7723L13.7294 27.3355C13.6642 27.5051 13.5013 27.617 13.3195 27.617H10.4187C10.2371 27.617 10.0741 27.5051 10.0088 27.3355C10.0088 27.3355 9.40723 25.7724 9.40728 25.7724C8.57041 25.5522 7.77027 25.2188 7.02361 24.7852L5.4903 25.4644C5.32434 25.5379 5.1302 25.5018 5.00184 25.3734L2.95114 23.3227C2.82262 23.1941 2.78649 22.9997 2.86034 22.8336C2.86034 22.8336 3.54161 21.3014 3.54167 21.3014C3.10646 20.5569 2.77491 19.7552 2.55294 18.9205L0.988947 18.3186C0.819355 18.2533 0.70752 18.0904 0.70752 17.9087V16.4568C0.70752 16.4403 0.708398 16.424 0.710155 16.4079ZM22.1425 16.0176C22.0849 14.4071 21.6726 12.8889 20.983 11.5422L19.2903 12.5417C19.8172 13.5924 20.1361 14.7697 20.1913 16.0176H22.1425ZM20.5504 10.7775C19.7402 9.47533 18.6574 8.36758 17.384 7.53839L16.4021 9.27505C17.3816 9.92454 18.2193 10.7785 18.8566 11.7777L20.5504 10.7775ZM16.6278 7.09105C15.3266 6.39506 13.8614 5.9755 12.3069 5.90868V7.91848C13.5036 7.98194 14.6339 8.30318 15.6452 8.82897L16.6278 7.09105ZM11.4285 5.90868C9.87395 5.9755 8.40878 6.39506 7.10761 7.09105L8.09019 8.82897C9.10148 8.30318 10.2318 7.98194 11.4285 7.91848V5.90868ZM6.35144 7.53839C5.07799 8.36758 3.99516 9.47533 3.18508 10.7775L4.87875 11.7777C5.51611 10.7785 6.35375 9.92454 7.33331 9.27505L6.35144 7.53839ZM2.7524 11.5422C2.06277 12.8889 1.65046 14.4071 1.59287 16.0176H3.54408C3.59937 14.7697 3.91819 13.5924 4.44508 12.5417L2.7524 11.5422ZM4.4235 16.0176H10.2913C10.3248 15.879 10.3767 15.7427 10.448 15.6119C10.6678 15.209 11.0285 14.9365 11.4327 14.8226L14.7662 10.5504C14.9013 10.3772 15.1436 10.3305 15.3333 10.4409C15.5232 10.5514 15.6023 10.7851 15.5185 10.9881L13.4434 16.0176H19.3119C19.1132 11.9909 15.8577 8.78533 11.8677 8.78533C7.87766 8.78533 4.62219 11.9909 4.4235 16.0176ZM10.3173 16.896H7.24651C7.46809 19.2493 9.45159 21.0932 11.8624 21.0932C14.2732 21.0932 16.2567 19.2493 16.4783 16.896H13.4083C13.3755 17.0014 13.3316 17.105 13.2761 17.2053C12.8406 18.0019 11.854 18.2876 11.0713 17.8456C11.0704 17.8451 11.0696 17.8446 11.0687 17.844C10.6934 17.6286 10.4351 17.2839 10.3173 16.896ZM6.36478 16.896H1.58595V17.6071L3.0806 18.1823C3.21539 18.2342 3.31602 18.349 3.34984 18.4894C3.56681 19.3906 3.92263 20.2529 4.40939 21.04C4.48576 21.1635 4.49614 21.3168 4.43717 21.4494L3.7856 22.9148L5.40998 24.5392L6.87559 23.89C7.00757 23.8315 7.15987 23.8417 7.28291 23.9171C8.07295 24.4011 8.93238 24.7601 9.83645 24.9743C9.9775 25.0077 10.093 25.1086 10.1451 25.2439L10.7203 26.7386H13.018L13.5932 25.2439C13.6453 25.1087 13.7606 25.0079 13.9016 24.9744C14.8023 24.7603 15.6642 24.4045 16.4509 23.918C16.5742 23.8418 16.7273 23.8313 16.8598 23.89C16.8598 23.89 18.3254 24.5392 18.3254 24.5392L19.9501 22.9145L19.3009 21.4489C19.2424 21.3169 19.2526 21.1647 19.328 21.0416C19.812 20.2515 20.171 19.392 20.3853 18.4907C20.4188 18.3497 20.5196 18.2344 20.6548 18.1823L22.1495 17.6071V16.896H17.3601C17.1359 19.7348 14.7584 21.9717 11.8624 21.9717C8.96648 21.9717 6.58889 19.7348 6.36478 16.896ZM12.4934 14.8911C12.5476 14.9143 12.601 14.9406 12.6535 14.9703C12.6544 14.9708 12.6553 14.9713 12.6562 14.9718C12.7306 15.0146 12.8006 15.0624 12.8657 15.1146L13.4791 13.6278L12.4934 14.8911ZM12.2202 15.7344L12.2193 15.7339C11.8632 15.5344 11.4168 15.6703 11.2192 16.0326C11.0171 16.4031 11.1415 16.872 11.5056 17.082C11.8617 17.2815 12.308 17.1456 12.5057 16.7833C12.5062 16.7823 12.5067 16.7815 12.5072 16.7806C12.7122 16.4108 12.5826 15.9434 12.2202 15.7344ZM20.5053 4.29918L18.17 1.33562L15.8346 4.29918H16.6722C16.9158 4.29918 17.1132 4.4966 17.1132 4.74009V5.26018C17.1132 5.5035 16.9156 5.7011 16.6722 5.7011C16.4289 5.7011 16.2313 5.5035 16.2313 5.26018L16.2313 5.18107H15.6098C14.9607 5.18107 14.6041 4.43616 15.0011 3.93205L15.0012 3.93194L17.5636 0.680312C17.8736 0.283646 18.4663 0.283646 18.7764 0.680312L21.3388 3.93205C21.7358 4.43616 21.3792 5.18107 20.7301 5.18107H20.1086V7.18965C20.1086 7.43303 19.911 7.63057 19.6676 7.63057C19.4243 7.63057 19.2267 7.43303 19.2267 7.18965V4.74009C19.2267 4.4966 19.4241 4.29918 19.6676 4.29918H20.5053ZM26.2925 7.67466L23.9572 4.71116L21.6218 7.67466H22.4595C22.703 7.67466 22.9004 7.87209 22.9004 8.11563V10.7049C22.9004 10.9483 22.7028 11.1458 22.4595 11.1458C22.2161 11.1458 22.0185 10.9483 22.0185 10.7049V8.55655H21.397C20.7479 8.55655 20.3914 7.81169 20.7884 7.30753L20.7885 7.30742L23.3508 4.05585C23.6608 3.65913 24.2535 3.65913 24.5636 4.05585L27.126 7.30753C27.523 7.81169 27.1664 8.55655 26.5173 8.55655H25.8958V15.1878C25.8958 15.4312 25.6982 15.6288 25.4549 15.6288C25.2115 15.6288 25.0139 15.4312 25.0139 15.1878V8.11563C25.0139 7.87209 25.2114 7.67466 25.4549 7.67466H26.2925Z" fill="#E6A424"/>
</g>
<defs>
<clipPath id="clip0_541_320">
<rect width="28" height="28" fill="white"/>
</clipPath>
</defs>
</svg>
