<svg width="28" height="28" viewBox="0 0 28 28" fill="none" xmlns="http://www.w3.org/2000/svg">
<path d="M14.0283 13.9316C12.2307 13.9316 10.7684 15.394 10.7684 17.1915C10.7684 18.9891 12.2307 20.4515 14.0283 20.4515C15.8259 20.4515 17.2882 18.9891 17.2882 17.1915C17.2882 15.394 15.8259 13.9316 14.0283 13.9316ZM14.0283 19.5775C12.7131 19.5775 11.6428 18.5073 11.6428 17.1921C11.6428 15.8768 12.7131 14.8066 14.0283 14.8066C15.3435 14.8066 16.4138 15.8768 16.4138 17.1921C16.4138 18.5073 15.3435 19.5775 14.0283 19.5775ZM15.4026 16.1804C15.5732 16.351 15.5732 16.6277 15.4026 16.7983L13.9999 18.2011C13.9146 18.2864 13.8024 18.329 13.6909 18.329C13.5793 18.329 13.4672 18.2864 13.3819 18.2011L12.6551 17.4754C12.4845 17.3047 12.4839 17.028 12.6546 16.8574C12.8252 16.6868 13.1019 16.6862 13.2725 16.8568L13.6903 17.2736L14.7846 16.1793C14.9553 16.0086 15.232 16.0086 15.4026 16.1793V16.1804ZM27.5536 24.6695C27.5492 24.6471 27.5432 24.6252 27.5356 24.6033C27.5257 24.5765 27.5137 24.5503 27.4989 24.5257L26.654 23.0639L25.8063 21.5928C25.6855 21.3839 25.4186 21.3117 25.2092 21.4325C25.0003 21.5534 24.9281 21.8203 25.0489 22.0297L25.8971 23.5014L25.9294 23.5572L22.0346 21.3084V12.8225C22.0346 12.8187 22.034 12.8149 22.034 12.8111C22.034 12.7958 22.0329 12.7799 22.0307 12.7646C22.0307 12.7613 22.0291 12.758 22.0285 12.7542C22.0263 12.7389 22.0231 12.723 22.0192 12.7083C22.0181 12.705 22.0171 12.7017 22.016 12.6984C22.0116 12.6836 22.0067 12.6689 22.0006 12.6541C21.999 12.6497 21.9963 12.6454 21.9941 12.6415C21.9881 12.629 21.9826 12.6158 21.9755 12.6038C21.9717 12.5967 21.9667 12.5907 21.9624 12.5841C21.9563 12.5748 21.9509 12.5655 21.9443 12.5568C21.9361 12.5464 21.9274 12.5365 21.9181 12.5267C21.9142 12.5223 21.911 12.5179 21.9066 12.5141C21.8946 12.5021 21.882 12.4911 21.8683 12.4808C21.8667 12.4797 21.865 12.478 21.8634 12.4764C21.8481 12.4649 21.8322 12.454 21.8158 12.4447L21.7917 12.4304L18.0325 10.2604L14.4669 8.20091V3.70231L15.3485 5.23028C15.4693 5.43919 15.7362 5.51083 15.9456 5.39052C16.1546 5.26966 16.2262 5.00278 16.1059 4.79333L14.4128 1.85989C14.3991 1.83528 14.3832 1.81177 14.3652 1.79044C14.3488 1.7713 14.3313 1.75325 14.3121 1.73739C14.2367 1.67341 14.1388 1.63458 14.0321 1.63403H14.0316C14.0316 1.63403 14.031 1.63403 14.0305 1.63403C14.0299 1.63403 14.0305 1.63403 14.0299 1.63403C14.0299 1.63403 14.0294 1.63403 14.0288 1.63403C13.9206 1.63403 13.8216 1.6745 13.745 1.74013C13.7275 1.75544 13.7111 1.77185 13.6963 1.78935C13.6783 1.81122 13.6619 1.83474 13.6482 1.85989L12.8049 3.32333L11.9556 4.79278C11.8348 5.00169 11.9064 5.26911 12.1153 5.38997C12.3248 5.51083 12.5917 5.43919 12.7125 5.23028L13.5624 3.76028L13.5946 3.7045V8.20036L10.029 10.2599L6.24736 12.4425L6.24518 12.4436C6.23697 12.4485 6.22932 12.454 6.22166 12.4594C6.214 12.4649 6.20526 12.4698 6.19815 12.4753C6.18994 12.4813 6.18283 12.4884 6.17518 12.4955C6.16861 12.5015 6.16151 12.507 6.15494 12.5136C6.14729 12.5212 6.14072 12.5294 6.13362 12.5376C6.12815 12.5436 6.12213 12.5497 6.11721 12.5562C6.1101 12.5655 6.10463 12.5748 6.09807 12.5847C6.09369 12.5912 6.08932 12.5967 6.08549 12.6033C6.07947 12.6136 6.07455 12.6251 6.06908 12.6361C6.06635 12.6421 6.06252 12.6481 6.05979 12.6541C6.05486 12.6661 6.05104 12.6782 6.04721 12.6902C6.04557 12.6962 6.04283 12.7017 6.04119 12.7077C6.03736 12.7214 6.03518 12.7356 6.03299 12.7498C6.03244 12.7547 6.0308 12.7591 6.03026 12.764C6.02807 12.7793 6.02752 12.7947 6.02697 12.8105C6.02697 12.8143 6.02643 12.8182 6.02643 12.822V21.1717L2.07088 23.456L2.95408 21.9275C3.07494 21.7186 3.0033 21.4511 2.7944 21.3303C2.58494 21.2094 2.31807 21.2811 2.19721 21.49L1.34736 22.96L0.503537 24.424C0.488771 24.4486 0.47674 24.4743 0.466896 24.5011C0.458693 24.5229 0.452677 24.5454 0.448302 24.5683C0.429162 24.6679 0.444474 24.774 0.499162 24.8686C0.553849 24.9632 0.638615 25.0299 0.734865 25.0632C0.75674 25.0709 0.779162 25.0769 0.802131 25.0807C0.827287 25.0851 0.852443 25.0873 0.878146 25.0873H0.885802H4.2726C4.51432 25.0873 4.70955 24.8915 4.70955 24.6504C4.70955 24.4092 4.51377 24.2134 4.2726 24.2134H2.50893L6.34526 21.9975L10.029 24.1254L13.8128 26.3096C13.8806 26.3484 13.9561 26.3681 14.0316 26.3681C14.1071 26.3681 14.1825 26.3484 14.2503 26.3096L18.0342 24.1254L21.5998 22.0658L25.4963 24.3157H23.7326C23.4909 24.3157 23.2956 24.5115 23.2956 24.7526C23.2956 24.9938 23.4914 25.1896 23.7326 25.1896H27.1194C27.1194 25.1896 27.1249 25.1896 27.1271 25.1896C27.1522 25.1896 27.1774 25.1874 27.202 25.183C27.226 25.1786 27.2501 25.1726 27.2731 25.1644C27.366 25.1316 27.4486 25.0671 27.5028 24.9757C27.5569 24.8844 27.5028 24.9757 27.5028 24.9752C27.5033 24.9741 27.5038 24.973 27.5049 24.9719C27.5049 24.9708 27.506 24.9703 27.5066 24.9692C27.5596 24.8757 27.5738 24.7701 27.5547 24.6722L27.5536 24.6695ZM17.7788 20.3328L18.1348 20.6899C17.9478 20.9092 17.7449 21.1126 17.5272 21.298L17.1717 20.9415C17.0219 20.7911 16.7851 20.7703 16.6112 20.8922C16.072 21.2707 15.4693 21.5206 14.8207 21.6349C14.6118 21.6715 14.4592 21.8531 14.4592 22.0653V22.5679C14.316 22.5788 14.1721 22.5848 14.0283 22.5848C13.885 22.5848 13.7417 22.5793 13.599 22.5679V22.0653C13.599 21.8531 13.4464 21.6715 13.2375 21.6349C12.5895 21.5206 11.9863 21.2707 11.4449 20.8917C11.271 20.7703 11.0347 20.7911 10.8849 20.9409L10.5294 21.2969C10.3112 21.1104 10.1078 20.9075 9.92127 20.6888L10.2773 20.3322C10.4271 20.1824 10.4474 19.9467 10.326 19.7733C9.94807 19.2325 9.69869 18.6298 9.5844 17.9823C9.54775 17.7734 9.36619 17.6208 9.15401 17.6208H8.65088C8.63885 17.4759 8.63338 17.3321 8.63338 17.1915C8.63338 17.051 8.6394 16.9061 8.65088 16.7606H9.15401C9.36619 16.7606 9.54775 16.608 9.5844 16.3991C9.69869 15.7505 9.94861 15.1479 10.3271 14.6086C10.449 14.4347 10.4282 14.1979 10.2778 14.0481L9.92127 13.6926C10.1067 13.475 10.3101 13.2721 10.5288 13.085L10.8843 13.4405C11.0342 13.5904 11.2704 13.6111 11.4443 13.4897C11.9857 13.1108 12.5889 12.8608 13.237 12.7465C13.4459 12.7099 13.5985 12.5283 13.5985 12.3161V11.8136C13.8839 11.7911 14.1721 11.7911 14.4587 11.8136V12.3161C14.4587 12.5283 14.6113 12.7099 14.8202 12.7465C15.4688 12.8608 16.0714 13.1108 16.6106 13.4892C16.7846 13.6111 17.0208 13.5904 17.1706 13.4405L17.5261 13.085C17.7449 13.271 17.9478 13.4744 18.1342 13.6932L17.7788 14.0486C17.6289 14.1985 17.6081 14.4342 17.7296 14.6081C18.1036 15.1429 18.3606 15.7625 18.4728 16.3991C18.5094 16.608 18.691 16.7606 18.9031 16.7606H19.4057C19.4172 16.9039 19.4227 17.0477 19.4227 17.1915C19.4227 17.3354 19.4172 17.4781 19.4057 17.6208H18.9031C18.691 17.6208 18.5094 17.7734 18.4728 17.9823C18.3585 18.6309 18.1085 19.2336 17.7301 19.7728C17.6081 19.9461 17.6289 20.1824 17.7782 20.3328H17.7788ZM14.0283 8.95669L17.5939 11.0162L20.5821 12.7411L19.1399 13.6079C19.1257 13.5586 19.1033 13.5111 19.071 13.4673C18.6997 12.9642 18.2562 12.5207 17.7531 12.1493C17.5792 12.0208 17.3374 12.0389 17.1843 12.192L16.8042 12.5721C16.346 12.2948 15.8538 12.0908 15.3342 11.9623V11.4236C15.3342 11.2071 15.1751 11.0228 14.9607 10.9911C14.346 10.9003 13.7089 10.9008 13.0981 10.9911C12.8837 11.0228 12.7251 11.2071 12.7251 11.4236V11.9623C12.2056 12.0908 11.7128 12.2948 11.254 12.5721L10.8734 12.1915C10.7203 12.0383 10.478 12.0203 10.3041 12.1493C9.79932 12.5234 9.3558 12.9669 8.98666 13.4673C8.95494 13.5105 8.93197 13.5581 8.91776 13.6073L7.47619 12.7405L10.4638 11.0162L14.0294 8.95669H14.0283ZM6.8976 21.3079V13.5789L9.15893 14.8848C9.00635 15.2053 8.88658 15.5394 8.80072 15.8861H8.26205C8.04549 15.8861 7.86119 16.0453 7.82947 16.2597C7.78299 16.5736 7.75947 16.8869 7.75947 17.1915C7.75947 17.4961 7.78299 17.8084 7.82947 18.1218C7.86119 18.3361 8.04494 18.4953 8.26205 18.4953H8.80072C8.92924 19.0143 9.13322 19.5065 9.4094 19.9653L9.02822 20.3475C8.87565 20.5007 8.8576 20.7424 8.98666 20.9163C9.35854 21.4183 9.80205 21.8613 10.3041 22.2337C10.4785 22.3628 10.7208 22.3447 10.8739 22.1911L11.2546 21.8093C11.7139 22.0866 12.2061 22.2906 12.7256 22.4191V22.9578C12.7256 23.1743 12.8842 23.3586 13.0986 23.3904C13.2616 23.4144 13.4262 23.4319 13.5924 23.4434V25.1726L10.4643 23.3668L6.89869 21.3073L6.8976 21.3079ZM17.5939 23.3674L14.4658 25.1732V23.444C14.6315 23.4325 14.7972 23.4155 14.9607 23.3909C15.1751 23.3592 15.3342 23.1754 15.3342 22.9583V22.4197C15.8538 22.2911 16.346 22.0872 16.8037 21.8099L17.1838 22.1911C17.3369 22.3442 17.5786 22.3622 17.7531 22.2343C18.2535 21.8646 18.697 21.4216 19.071 20.9168C19.2001 20.7429 19.1821 20.5012 19.0295 20.3481L18.6488 19.9664C18.9261 19.5081 19.1301 19.0159 19.2586 18.4958H19.7973C20.0138 18.4958 20.1981 18.3367 20.2299 18.1223C20.2753 17.8155 20.2982 17.5027 20.2982 17.1921C20.2982 16.8815 20.2753 16.567 20.2299 16.2602C20.1981 16.0458 20.0144 15.8867 19.7973 15.8867H19.2581C19.1722 15.5433 19.0508 15.2075 18.8982 14.8854L21.1601 13.5789V21.3079L17.5945 23.3674H17.5939Z" fill="#E6A424"/>
</svg>
