<svg width="28" height="28" viewBox="0 0 28 28" fill="none" xmlns="http://www.w3.org/2000/svg">
<path fill-rule="evenodd" clip-rule="evenodd" d="M11.6327 9.35562C12.4871 9.35562 13.3233 9.62108 14.0001 10.1104C14.7082 9.59886 15.5906 9.33056 16.4861 9.35733V5.64254C15.6413 5.61405 14.8102 5.88637 14.1733 6.40533C14.0725 6.4868 13.9283 6.4868 13.8275 6.40533C13.1906 5.88635 12.3595 5.6135 11.5147 5.64255L11.5148 9.35732C11.554 9.35617 11.5933 9.35562 11.6327 9.35562ZM14.0002 10.7285C13.9392 10.7285 13.8782 10.708 13.8275 10.667C13.1291 10.0979 12.1965 9.82559 11.2691 9.9213C11.1923 9.92926 11.1153 9.9042 11.0578 9.85236C11.0003 9.80051 10.9678 9.72647 10.9678 9.649L10.9678 5.38735C10.9678 5.24661 11.0737 5.12929 11.2133 5.11505C12.2097 5.01251 13.2128 5.27911 14.0001 5.84878C14.7879 5.27911 15.7911 5.01307 16.7875 5.11505C16.927 5.12927 17.033 5.24664 17.033 5.38735L17.033 9.64898C17.033 9.72646 17.0005 9.80053 16.943 9.85236C16.8855 9.9042 16.8085 9.92869 16.7316 9.9213C15.8042 9.82557 14.8717 10.0979 14.1733 10.667C14.1226 10.708 14.0616 10.7285 14.0002 10.7285Z" fill="#E6A424"/>
<path fill-rule="evenodd" clip-rule="evenodd" d="M14 10.7285C13.849 10.7285 13.7271 10.6061 13.7271 10.4551L13.7271 6.19285C13.7271 6.0419 13.849 5.91943 13.9999 5.91943C14.1515 5.91942 14.2734 6.04192 14.2734 6.19288L14.2734 10.4551C14.2734 10.606 14.1515 10.7285 14 10.7285Z" fill="#E6A424"/>
<path fill-rule="evenodd" clip-rule="evenodd" d="M13.1642 7.68034C13.0976 7.68034 13.0308 7.65586 12.9779 7.60686C12.7198 7.36702 12.4173 7.23943 12.1029 7.2383C11.952 7.23829 11.83 7.11524 11.8306 6.96429C11.8312 6.81331 11.953 6.69141 12.104 6.69141H12.1046C12.553 6.6931 12.9949 6.87599 13.3504 7.2064C13.4609 7.3095 13.4672 7.48267 13.3641 7.5932C13.3106 7.65072 13.2376 7.68035 13.1642 7.68034Z" fill="#E6A424"/>
<path fill-rule="evenodd" clip-rule="evenodd" d="M13.1642 8.90266C13.0976 8.90266 13.0308 8.87818 12.9779 8.82918C12.7198 8.58935 12.4173 8.46175 12.1029 8.46119C11.952 8.46061 11.83 8.33756 11.8306 8.18661C11.8312 8.03564 11.953 7.91431 12.104 7.91431H12.1046C12.553 7.91542 12.9949 8.09831 13.3504 8.42928C13.4609 8.5318 13.4672 8.70501 13.3641 8.81551C13.3106 8.87362 13.2376 8.90267 13.1642 8.90266Z" fill="#E6A424"/>
<path fill-rule="evenodd" clip-rule="evenodd" d="M14.8364 7.68034C14.7629 7.68034 14.69 7.65074 14.6364 7.5932C14.5334 7.48265 14.5396 7.3095 14.6501 7.2064C15.0056 6.87598 15.4476 6.69312 15.8959 6.69141H15.8965C16.0475 6.69141 16.1694 6.81332 16.1699 6.96429C16.1705 7.11524 16.0486 7.2383 15.8971 7.2383C15.5832 7.23942 15.2807 7.36704 15.0227 7.60686C14.9697 7.65586 14.903 7.68035 14.8364 7.68034Z" fill="#E6A424"/>
<path fill-rule="evenodd" clip-rule="evenodd" d="M14.8364 8.90266C14.7629 8.90266 14.69 8.87362 14.6364 8.81551C14.5334 8.70497 14.5396 8.53182 14.6501 8.42928C15.0056 8.0983 15.4476 7.91545 15.8959 7.91431H15.8965C16.0475 7.91431 16.1694 8.03564 16.1699 8.18661C16.1705 8.33756 16.0486 8.46061 15.8976 8.46119C15.5832 8.46174 15.2807 8.58935 15.0227 8.82918C14.9697 8.87818 14.903 8.90267 14.8364 8.90266Z" fill="#E6A424"/>
<path fill-rule="evenodd" clip-rule="evenodd" d="M2.32476 25.9774H25.6758V24.1106H2.32476V25.9774ZM25.9487 26.5242H2.05138C1.90038 26.5242 1.77783 26.4018 1.77783 26.2508L1.77785 23.8371C1.77785 23.6856 1.9003 23.5638 2.05128 23.5638L25.9487 23.5637C26.1002 23.5637 26.2221 23.6857 26.2221 23.8372L26.2221 26.2508C26.2221 26.4018 26.1002 26.5243 25.9487 26.5242Z" fill="#E6A424"/>
<path fill-rule="evenodd" clip-rule="evenodd" d="M24.7679 24.1105C24.6169 24.1105 24.4944 23.9881 24.4944 23.8371V21.6963H3.50643V23.8371C3.50643 23.9881 3.38387 24.1105 3.23291 24.1105C3.08205 24.1105 2.95947 23.9881 2.95947 23.8371L2.95952 21.4228C2.95952 21.2719 3.08194 21.1494 3.23291 21.1494L24.7679 21.1494C24.9189 21.1494 25.0413 21.2719 25.0413 21.4229L25.0413 23.8371C25.0413 23.9881 24.9188 24.1105 24.7679 24.1105Z" fill="#E6A424"/>
<path fill-rule="evenodd" clip-rule="evenodd" d="M18.1193 21.6962C17.9677 21.6962 17.8458 21.5737 17.8458 21.4228L17.8458 5.00904L14.0001 2.09238L10.1549 5.00904V21.4228C10.1549 21.5737 10.0323 21.6962 9.88134 21.6962C9.73047 21.6962 9.60791 21.5737 9.60791 21.4228L9.60794 4.87342C9.60794 4.78741 9.64834 4.70709 9.71613 4.65526L13.8349 1.5318C13.9328 1.45717 14.0678 1.45718 14.1658 1.5318L18.2846 4.65524C18.3522 4.70708 18.3927 4.78743 18.3927 4.87343L18.3927 21.4226C18.3927 21.5736 18.2702 21.6962 18.1193 21.6962Z" fill="#E6A424"/>
<path fill-rule="evenodd" clip-rule="evenodd" d="M4.12698 21.6962C3.976 21.6962 3.85352 21.5738 3.85352 21.4228L3.8536 7.88649C3.8536 7.73554 3.97598 7.61305 4.12695 7.61305L9.88123 7.61304C10.0321 7.61304 10.1545 7.73554 10.1545 7.8865C10.1546 8.03745 10.0321 8.15994 9.88111 8.15994L4.40051 8.15992V21.4228C4.40051 21.5737 4.27792 21.6963 4.12698 21.6962Z" fill="#E6A424"/>
<path fill-rule="evenodd" clip-rule="evenodd" d="M23.8734 21.6962C23.7224 21.6962 23.5999 21.5738 23.5999 21.4228L23.6 8.15992H18.1192C17.9676 8.15992 17.8457 8.03745 17.8457 7.8865C17.8457 7.73554 17.9676 7.61305 18.1191 7.61305L23.8734 7.61304C24.0243 7.61304 24.1467 7.73554 24.1467 7.8865L24.1467 21.4228C24.1467 21.5737 24.0243 21.6963 23.8734 21.6962Z" fill="#E6A424"/>
<path fill-rule="evenodd" clip-rule="evenodd" d="M6.27697 11.7277H7.73189V10.2722H6.27697V11.7277ZM8.00527 12.2746H6.00345C5.85195 12.2746 5.72998 12.1521 5.72998 12.0012L5.73006 9.99879C5.73006 9.84784 5.85188 9.72536 6.00341 9.72536L8.00527 9.72534C8.15627 9.72534 8.27864 9.84784 8.27864 9.99879L8.27867 12.0012C8.27867 12.1521 8.15617 12.2746 8.00527 12.2746Z" fill="#E6A424"/>
<path fill-rule="evenodd" clip-rule="evenodd" d="M6.27697 15.3822H7.73189V13.9272H6.27697V15.3822ZM8.00527 15.9291H6.00345C5.85195 15.9291 5.72998 15.8066 5.72998 15.6556L5.73006 13.6538C5.73006 13.5029 5.85188 13.3804 6.00341 13.3804H8.00527C8.15627 13.3804 8.27864 13.5029 8.27864 13.6538L8.27867 15.6556C8.27867 15.8065 8.15617 15.9291 8.00527 15.9291Z" fill="#E6A424"/>
<path fill-rule="evenodd" clip-rule="evenodd" d="M6.27697 19.0365H7.73189V17.5816H6.27697V19.0365ZM8.00527 19.5834H6.00345C5.85195 19.5834 5.72998 19.4609 5.72998 19.3099L5.73006 17.3081C5.73006 17.1571 5.85188 17.0347 6.00341 17.0347L8.00527 17.0347C8.15627 17.0347 8.27864 17.1572 8.27864 17.3081L8.27867 19.3099C8.27867 19.4609 8.15617 19.5834 8.00527 19.5834Z" fill="#E6A424"/>
<path fill-rule="evenodd" clip-rule="evenodd" d="M20.2686 11.7277H21.7236V10.2722H20.2686V11.7277ZM21.997 12.2746H19.9952C19.8442 12.2746 19.7217 12.1521 19.7217 12.0012L19.7218 9.99879C19.7218 9.84784 19.8441 9.72536 19.9951 9.72536L21.997 9.72534C22.148 9.72534 22.2704 9.84784 22.2704 9.99879L22.2704 12.0012C22.2704 12.1521 22.1479 12.2746 21.997 12.2746Z" fill="#E6A424"/>
<path fill-rule="evenodd" clip-rule="evenodd" d="M20.2686 15.3822H21.7236V13.9272H20.2686V15.3822ZM21.997 15.9291H19.9952C19.8442 15.9291 19.7217 15.8066 19.7217 15.6556L19.7218 13.6538C19.7218 13.5029 19.8441 13.3804 19.9951 13.3804H21.997C22.148 13.3804 22.2704 13.5029 22.2704 13.6538L22.2704 15.6556C22.2704 15.8065 22.1479 15.9291 21.997 15.9291Z" fill="#E6A424"/>
<path fill-rule="evenodd" clip-rule="evenodd" d="M20.2686 19.0365H21.7236V17.5816H20.2686V19.0365ZM21.997 19.5834H19.9952C19.8442 19.5834 19.7217 19.4609 19.7217 19.3099L19.7218 17.3081C19.7218 17.1571 19.8441 17.0347 19.9951 17.0347L21.997 17.0347C22.148 17.0347 22.2704 17.1572 22.2704 17.3081L22.2704 19.3099C22.2704 19.4609 22.1479 19.5834 21.997 19.5834Z" fill="#E6A424"/>
<path fill-rule="evenodd" clip-rule="evenodd" d="M18.1193 14.1703H9.88146C9.73047 14.1703 9.60791 14.0484 9.60791 13.8975C9.60794 13.7459 9.73038 13.624 9.88134 13.624H18.1193C18.2702 13.624 18.3927 13.7459 18.3927 13.8975C18.3927 14.0484 18.2702 14.1703 18.1193 14.1703Z" fill="#E6A424"/>
<path fill-rule="evenodd" clip-rule="evenodd" d="M12.462 21.6962C12.311 21.6962 12.1885 21.5737 12.1885 21.4228L12.1886 17.0671C12.1886 16.9162 12.311 16.7937 12.4619 16.7937C12.613 16.7937 12.7353 16.9162 12.7353 17.0671L12.7354 21.4228C12.7354 21.5737 12.6129 21.6962 12.462 21.6962ZM15.5387 21.6962C15.3877 21.6962 15.2652 21.5737 15.2652 21.4228L15.2653 17.0671C15.2653 16.9162 15.3877 16.7937 15.5387 16.7937C15.6897 16.7937 15.8121 16.9162 15.8121 17.0671L15.8122 21.4228C15.8122 21.5737 15.6896 21.6962 15.5387 21.6962Z" fill="#E6A424"/>
<path fill-rule="evenodd" clip-rule="evenodd" d="M12.0664 16.7936H15.9339V15.7859H12.0664V16.7936ZM16.2073 17.3405H11.793C11.642 17.3405 11.5195 17.2186 11.5195 17.0671L11.5196 15.5125C11.5196 15.3615 11.642 15.239 11.793 15.239L16.2073 15.239C16.3583 15.239 16.4807 15.3615 16.4807 15.5125L16.4807 17.0671C16.4807 17.2186 16.3582 17.3405 16.2073 17.3405Z" fill="#E6A424"/>
<path fill-rule="evenodd" clip-rule="evenodd" d="M18.1193 12.1115H9.88146C9.73047 12.1115 9.60791 11.9891 9.60791 11.8381C9.60794 11.6872 9.73038 11.5647 9.88134 11.5647H18.1193C18.2702 11.5647 18.3927 11.6872 18.3927 11.8381C18.3927 11.9891 18.2702 12.1116 18.1193 12.1115Z" fill="#E6A424"/>
<path fill-rule="evenodd" clip-rule="evenodd" d="M4.12722 8.15992H3.11376C2.96289 8.15992 2.84033 8.03746 2.84033 7.88651L2.84036 5.57936C2.84036 5.42841 2.96281 5.30592 3.11376 5.30592L9.88147 5.30591C10.0323 5.30591 10.1548 5.42841 10.1548 5.57937C10.1549 5.73032 10.0323 5.85281 9.88136 5.85281L3.38728 5.85279V7.61304H4.12722C4.27822 7.61304 4.40064 7.73554 4.40064 7.88651C4.40075 8.03746 4.27816 8.15994 4.12722 8.15992Z" fill="#E6A424"/>
<path fill-rule="evenodd" clip-rule="evenodd" d="M24.8868 8.15992H23.8734C23.7224 8.15992 23.5999 8.03746 23.5999 7.88651C23.6 7.73554 23.7223 7.61306 23.8733 7.61306L24.6133 7.61304V5.85279H18.1192C17.9676 5.85279 17.8457 5.73032 17.8457 5.57937C17.8457 5.42841 17.9676 5.30592 18.1191 5.30592L24.8868 5.30591C25.0377 5.30591 25.1602 5.42841 25.1602 5.57937L25.1602 7.88649C25.1602 8.03746 25.0377 8.15994 24.8868 8.15992Z" fill="#E6A424"/>
</svg>
