<svg width="28" height="28" viewBox="0 0 28 28" fill="none" xmlns="http://www.w3.org/2000/svg">
<path d="M27.2802 13.0176L22.0743 7.6954C21.9505 7.56885 21.8001 7.47852 21.6356 7.42901C21.3732 3.33794 17.6649 -0.0745823 13.5618 0.00123967C4.72228 0.141673 2.39335 12.0236 10.3687 15.5506H6.80814L5.1329 13.838C4.93717 13.6379 4.67516 13.5276 4.39521 13.5276C4.11531 13.5276 3.8533 13.6379 3.65757 13.838L0.295409 17.2753C-0.345212 17.9147 0.126883 19.0395 1.03312 19.0287L1.21922 19.0287V23.6926C1.21922 24.2615 1.68214 24.7245 2.25113 24.7245H4.63759C4.60108 24.8273 4.58015 24.9374 4.58015 25.0526V26.5793C4.58015 27.1221 5.02177 27.5637 5.56453 27.5637H19.8014C20.3442 27.5637 20.7858 27.1221 20.7858 26.5793V25.0526C20.7858 24.9356 20.7642 24.8239 20.7266 24.7197C21.2518 24.6721 21.6647 24.2299 21.6647 23.6926V22.5525H24.5235C25.0925 22.5525 25.5554 22.0896 25.5554 21.5206V14.7711H26.5425C27.4484 14.7816 27.9211 13.6577 27.2802 13.0176ZM6.11525 8.10406C6.11525 3.99796 9.45578 0.657429 13.5619 0.657429C17.3209 0.588222 20.7196 3.7042 20.9794 7.44949C20.8377 7.50167 20.7078 7.58402 20.5989 7.6954L15.393 13.0176C14.7523 13.6572 15.2245 14.7818 16.1307 14.7711L16.8808 14.7711C12.0372 17.2582 6.04943 13.5549 6.11525 8.10406ZM7.57125 19.046H17.1177V21.2291H7.57125V19.046ZM17.1177 15.5506H16.7569C16.8784 15.4986 16.9989 15.4441 17.1177 15.386V15.5506ZM17.1177 16.2069V18.3898H8.71129C8.87128 18.002 8.78891 17.5756 8.49506 17.2753L7.45003 16.2069H17.1177ZM1.87547 23.6926V18.7006C1.87547 18.5194 1.72855 18.3725 1.54735 18.3725H1.0331C0.801589 18.3725 0.709518 18.1965 0.68682 18.1425C0.664123 18.0886 0.602653 17.8996 0.764526 17.7341L4.12669 14.2968C4.26697 14.1475 4.52357 14.147 4.66379 14.2968L8.02595 17.7342C8.25968 17.9743 8.09159 18.3716 7.75743 18.3725L7.24313 18.3724C7.05521 18.3719 6.90606 18.5309 6.915 18.7179C6.91185 19.9357 6.91727 22.4892 6.91499 23.6926C6.915 23.8997 6.74651 24.0682 6.53934 24.0682C5.88828 24.0674 2.95958 24.0688 2.25113 24.0682C2.04397 24.0682 1.87547 23.8997 1.87547 23.6926ZM20.1296 26.5793C20.1296 26.7602 19.9824 26.9074 19.8014 26.9074H5.56453C5.38359 26.9074 5.2364 26.7602 5.2364 26.5793V25.0526C5.2364 24.8717 5.38359 24.7245 5.56453 24.7245H19.8014C19.9824 24.7245 20.1296 24.8717 20.1296 25.0526V26.5793ZM21.0085 23.6926C21.0085 23.8997 20.84 24.0682 20.6328 24.0682H7.49942C7.54521 23.9516 7.57125 23.8252 7.57125 23.6926V21.8853H17.1177V22.2244C17.1177 22.4056 17.2647 22.5525 17.4459 22.5525C17.8995 22.5525 20.4979 22.5525 21.0085 22.5525V23.6926ZM26.8888 13.8849C26.8661 13.9388 26.774 14.1148 26.5425 14.1148H25.2273C25.0461 14.1148 24.8992 14.2617 24.8992 14.443V21.5206C24.8992 21.7278 24.7307 21.8963 24.5235 21.8963H18.1497C17.9425 21.8963 17.774 21.7278 17.774 21.5206C17.7764 19.4606 17.7723 16.493 17.774 14.443C17.774 14.2617 17.6271 14.1148 17.4459 14.1148H16.1307C15.8992 14.1148 15.8072 13.9388 15.7845 13.8849C15.7617 13.8309 15.7002 13.642 15.8621 13.4765L21.068 8.15426C21.1393 8.08142 21.2347 8.04131 21.3366 8.04131C21.4385 8.04131 21.5339 8.08142 21.6052 8.15426L26.8111 13.4765C26.9729 13.642 26.9115 13.8309 26.8888 13.8849Z" fill="#E6A424"/>
</svg>
