<svg width="28" height="28" viewBox="0 0 28 28" fill="none" xmlns="http://www.w3.org/2000/svg">
<path d="M18.5449 13.5674H23.2822C23.3433 13.5674 23.4037 13.5545 23.4595 13.5297C23.5154 13.5049 23.5654 13.4686 23.6063 13.4233C23.6473 13.3779 23.6783 13.3245 23.6974 13.2665C23.7165 13.2084 23.7232 13.147 23.7171 13.0862L23.2839 8.85907C23.2731 8.75115 23.2225 8.65111 23.1421 8.57836C23.0617 8.5056 22.9571 8.46532 22.8486 8.46532H22.5222V8.408C22.5222 7.98135 22.3528 7.57218 22.0511 7.27049C21.7494 6.9688 21.3402 6.79932 20.9136 6.79932C20.4869 6.79932 20.0777 6.9688 19.776 7.27049C19.4744 7.57218 19.3049 7.98135 19.3049 8.408V8.46532H18.9781C18.8696 8.46532 18.765 8.5056 18.6846 8.57836C18.6041 8.65111 18.5536 8.75115 18.5427 8.85907L18.1096 13.0862C18.1035 13.147 18.1102 13.2085 18.1293 13.2666C18.1484 13.3246 18.1794 13.3781 18.2205 13.4234C18.2615 13.4688 18.3115 13.505 18.3674 13.5298C18.4233 13.5546 18.4838 13.5674 18.5449 13.5674ZM20.1799 8.408C20.1799 8.21342 20.2572 8.0268 20.3948 7.88921C20.5323 7.75162 20.719 7.67432 20.9136 7.67432C21.1081 7.67432 21.2948 7.75162 21.4323 7.88921C21.5699 8.0268 21.6472 8.21342 21.6472 8.408V8.46532H20.1799V8.408ZM19.3582 9.4825C19.3992 9.56557 19.466 9.63312 19.5486 9.67501C19.6312 9.71691 19.7252 9.7309 19.8164 9.71488C19.9077 9.69886 19.9912 9.6537 20.0546 9.58617C20.118 9.51864 20.1578 9.43238 20.1681 9.34032H21.6586C21.6688 9.43238 21.7086 9.51864 21.772 9.58617C21.8354 9.6537 21.919 9.69886 22.0102 9.71488C22.1015 9.7309 22.1954 9.71691 22.278 9.67501C22.3606 9.63312 22.4274 9.56557 22.4684 9.4825L22.7974 12.6924H19.0314L19.3582 9.4825Z" fill="#E6A424"/>
<path d="M17.5726 2.08818L15.5715 1.44374C13.2521 0.690685 10.755 0.683036 8.43106 1.42186L6.33106 2.0873C6.24225 2.11523 6.16466 2.17077 6.10958 2.24583C6.0545 2.3209 6.02481 2.41157 6.02481 2.50468V5.80824L4.17025 6.3153C4.07804 6.34095 3.99678 6.39614 3.93893 6.47239C3.88109 6.54865 3.84985 6.64177 3.85 6.73749V14.4738L2.996 14.6672C2.89933 14.6892 2.81299 14.7434 2.75115 14.8209C2.68931 14.8984 2.65563 14.9946 2.65563 15.0937V24.0432H2.13281C2.01678 24.0432 1.9055 24.0893 1.82345 24.1714C1.74141 24.2534 1.69531 24.3647 1.69531 24.4807V26.6875C1.69531 26.8035 1.74141 26.9148 1.82345 26.9968C1.9055 27.0789 2.01678 27.125 2.13281 27.125H21.875C21.991 27.125 22.1023 27.0789 22.1844 26.9968C22.2664 26.9148 22.3125 26.8035 22.3125 26.6875V24.4807C22.3125 24.3647 22.2664 24.2534 22.1844 24.1714C22.1023 24.0893 21.991 24.0432 21.875 24.0432H21.3522V15.5527C22.1751 15.486 22.9716 15.2311 23.6804 14.8078C24.3891 14.3844 24.9912 13.8039 25.44 13.111C25.8889 12.4181 26.1726 11.6314 26.2692 10.8115C26.3658 9.99157 26.2728 9.16044 25.9973 8.38219C25.7218 7.60395 25.2711 6.89939 24.6802 6.32289C24.0893 5.74639 23.3738 5.31336 22.589 5.05719C21.8041 4.80103 20.9709 4.72859 20.1537 4.84545C19.3364 4.96232 18.5569 5.26538 17.8754 5.73124V2.50468C17.8754 2.41216 17.8462 2.32201 17.7918 2.24717C17.7374 2.17234 17.6606 2.11667 17.5726 2.08818ZM6.36344 12.2627V7.95768C7.04244 7.84174 7.71969 7.75205 8.393 7.67855V11.5062L6.36344 12.2627ZM9.268 7.59105C10.0503 7.52368 10.843 7.48255 11.6449 7.47074V10.4156C11.1304 10.5268 10.6243 10.6739 10.1303 10.8557L9.268 11.1781V7.59105ZM12.5199 7.46986C13.3131 7.47818 14.1076 7.51143 14.8964 7.57443V10.1237H14.1859C13.6284 10.1235 13.0716 10.1637 12.5199 10.2441V7.46986ZM15.7714 8.56361V7.65624C15.8926 7.66936 16.0125 7.68511 16.1332 7.69999C15.9877 7.97632 15.8666 8.26486 15.7714 8.5623V8.56361ZM6.90156 2.82493L8.69531 2.25618C10.8452 1.57213 13.1554 1.57841 15.3016 2.27411L16.9991 2.82274V5.57899L16.5926 5.4683C13.5424 4.63404 10.3241 4.63404 7.27387 5.4683L6.89937 5.57068L6.90156 2.82493ZM4.725 7.07174L7.50925 6.31049C10.4081 5.51845 13.4663 5.51845 16.3651 6.31049L17.003 6.48549C16.8831 6.61207 16.7697 6.7442 16.6626 6.88186C14.0522 6.5445 11.4121 6.5015 8.792 6.75368C7.82381 6.84511 6.83419 6.98249 5.84981 7.16099C5.74901 7.17933 5.65784 7.23247 5.5922 7.31114C5.52656 7.38981 5.49061 7.48903 5.49063 7.59149V12.8931C5.49061 12.9638 5.5077 13.0334 5.54045 13.096C5.5732 13.1586 5.62062 13.2123 5.67867 13.2526C5.73671 13.2929 5.80365 13.3186 5.87376 13.3273C5.94387 13.3361 6.01506 13.3278 6.08125 13.3031L8.99325 12.2154L9.00813 12.2097L10.4383 11.6756C10.9999 11.4648 11.5787 11.303 12.1682 11.1921C12.8337 11.0627 13.5102 10.9979 14.1881 10.9987H15.5925C15.6313 11.2629 15.6898 11.5238 15.7675 11.7792L4.725 14.2761V7.07174ZM18.5408 24.0432H7.47644L18.0556 20.2628H18.5408V24.0432ZM5.38912 23.8599V20.2628H15.4551L5.38912 23.8599ZM21.4375 26.25H2.57031V24.9182H3.08263H3.09094H20.9147H20.9234H21.4375V26.25ZM19.4176 24.0432V19.8253C19.4176 19.7093 19.3715 19.598 19.2894 19.5159C19.2074 19.4339 19.0961 19.3878 18.9801 19.3878H4.95162C4.83559 19.3878 4.72431 19.4339 4.64227 19.5159C4.56022 19.598 4.51412 19.7093 4.51412 19.8253V24.0432H3.52844V15.4437L16.1 12.6C16.5153 13.4256 17.1357 14.1308 17.9018 14.6477C18.6679 15.1647 19.5539 15.4761 20.475 15.5522V24.0432H19.4176ZM25.4314 10.1832C25.4314 11.0765 25.1666 11.9497 24.6704 12.6924C24.1742 13.4351 23.4689 14.014 22.6437 14.356C21.8185 14.6979 20.9104 14.7875 20.0343 14.6134C19.1582 14.4393 18.3534 14.0093 17.7216 13.3778C17.0899 12.7464 16.6595 11.9418 16.485 11.0658C16.3105 10.1897 16.3996 9.28164 16.7411 8.45627C17.0827 7.6309 17.6612 6.92533 18.4037 6.42876C19.1462 5.93219 20.0193 5.66692 20.9125 5.66649C22.1101 5.66776 23.2582 6.14403 24.1051 6.9908C24.9519 7.83756 25.4283 8.98567 25.4297 10.1832H25.4314Z" fill="#E6A424"/>
<path d="M19.0843 15.5786H5.05762C4.94158 15.5786 4.8303 15.6247 4.74826 15.7068C4.66621 15.7888 4.62012 15.9001 4.62012 16.0161V18.3139C4.62012 18.4299 4.66621 18.5412 4.74826 18.6232C4.8303 18.7053 4.94158 18.7514 5.05762 18.7514H19.0843C19.2003 18.7514 19.3116 18.7053 19.3937 18.6232C19.4757 18.5412 19.5218 18.4299 19.5218 18.3139V16.0161C19.5218 15.9001 19.4757 15.7888 19.3937 15.7068C19.3116 15.6247 19.2003 15.5786 19.0843 15.5786ZM10.0281 16.4536H11.6332V17.8764H10.0294L10.0281 16.4536ZM9.15305 17.8764H7.55049V16.4536H9.15437L9.15305 17.8764ZM12.5069 16.4536H14.1112V17.8764H12.5082L12.5069 16.4536ZM14.9862 16.4536H16.5901V17.8764H14.9876L14.9862 16.4536ZM5.49249 16.4536H6.67374V17.8764H5.49249V16.4536ZM18.6468 17.8764H17.4656V16.4536H18.6468V17.8764Z" fill="#E6A424"/>
</svg>
