<svg width="28" height="28" viewBox="0 0 28 28" fill="none" xmlns="http://www.w3.org/2000/svg">
<mask id="mask0_541_287" style="mask-type:luminance" maskUnits="userSpaceOnUse" x="0" y="0" width="28" height="28">
<path d="M27.5 27.5V0.5H0.5V27.5H27.5Z" fill="white" stroke="white"/>
</mask>
<g mask="url(#mask0_541_287)">
<path d="M18.377 24.0618C17.7042 24.3889 16.9942 24.6509 16.2563 24.84V26.0368C16.2563 26.6073 15.7882 27.074 15.2177 27.074H11.7499C11.1778 27.074 10.7113 26.6073 10.7113 26.0368V24.84C9.66798 24.5734 8.68361 24.161 7.77984 23.6247L6.93344 24.4711C6.52881 24.8757 5.8684 24.8757 5.46536 24.4711L3.01295 22.0186C2.60837 21.6156 2.60837 20.9536 3.01295 20.5505L3.85941 19.7041C3.32303 18.8003 2.91069 17.8159 2.64403 16.7726H1.44725C0.876804 16.7726 0.410156 16.3044 0.410156 15.7339V12.266C0.410156 11.694 0.876804 11.2274 1.44725 11.2274H2.64403C2.91069 10.1841 3.32303 9.19964 3.85941 8.29588L3.01295 7.44943C2.60837 7.04485 2.60837 6.38439 3.01295 5.98134L5.46536 3.52888C5.8684 3.12425 6.52881 3.12425 6.93344 3.52888L7.77984 4.37533C8.68361 3.8389 9.66798 3.42656 10.7113 3.1599V1.96312C10.7113 1.39262 11.1778 0.926028 11.7499 0.926028H15.2177C15.7882 0.926028 16.2563 1.39262 16.2563 1.96312V3.1599C17.2996 3.42656 18.284 3.8389 19.1878 4.37533L20.0342 3.52888C20.4372 3.12425 21.0991 3.12425 21.5022 3.52888L23.9547 5.98134C24.3592 6.38439 24.3592 7.04485 23.9547 7.44943L23.1083 8.29588C23.6446 9.19964 24.057 10.1841 24.3236 11.2274H25.5204C26.0908 11.2274 26.5574 11.694 26.5574 12.266V15.7339C26.5574 16.1959 26.252 16.5897 25.8335 16.723" stroke="#E6A424" stroke-miterlimit="10" stroke-linecap="round" stroke-linejoin="round"/>
<path d="M8.36109 8.06483C6.69618 9.50191 5.64355 11.6273 5.64355 13.9992C5.64355 18.3305 9.15323 21.8403 13.483 21.8403C14.7944 21.8403 16.0284 21.5194 17.1135 20.9505M21.175 15.5277C21.2727 15.0332 21.3239 14.5231 21.3239 13.9992C21.3239 9.66936 17.8142 6.15957 13.483 6.15957C12.1528 6.15957 10.9003 6.49136 9.80276 7.0758" stroke="#E6A424" stroke-miterlimit="10" stroke-linecap="round" stroke-linejoin="round"/>
<path d="M11.8584 21.6714V16.6796C10.2214 16.0735 9.04785 14.4938 9.04785 12.6536C9.04785 11.184 9.7951 9.88022 10.9299 9.10666C12.1204 8.29275 11.8894 9.57791 11.8894 9.79343V12.3715C11.8894 13.2737 12.5963 14.0178 13.483 14.0783C14.3697 14.0178 15.0766 13.2737 15.0766 12.3715V9.79343C15.0766 9.57791 14.8472 8.29275 16.0377 9.10666C17.1725 9.88022 17.9197 11.184 17.9197 12.6536C17.9197 14.4938 16.7462 16.0735 15.1091 16.6796V21.6714" stroke="#E6A424" stroke-miterlimit="10" stroke-linecap="round" stroke-linejoin="round"/>
<path d="M24.8136 25.2664C24.0788 25.6586 23.2386 25.8818 22.3472 25.8818C19.4515 25.8818 17.1045 23.5348 17.1045 20.6389C17.1045 17.7431 19.4515 15.396 22.3472 15.396C25.243 15.396 27.5901 17.7431 27.5901 20.6389C27.5901 21.9768 27.0877 23.1968 26.2631 24.1239" stroke="#E6A424" stroke-miterlimit="10" stroke-linecap="round" stroke-linejoin="round"/>
<path d="M21.7505 20.583L23.4433 18.5646C23.7953 18.1445 24.4246 18.0887 24.8463 18.4406C25.2664 18.7925 25.3222 19.4219 24.9687 19.8436L22.6341 22.6293C22.4574 22.8417 22.2296 22.9596 21.9552 22.9828C21.6808 23.0061 21.4374 22.9285 21.2265 22.7502L19.9135 21.6357C19.495 21.2806 19.4438 20.6512 19.7973 20.2327C20.1522 19.8141 20.7832 19.7629 21.2002 20.1164L21.7505 20.583Z" stroke="#E6A424" stroke-miterlimit="10" stroke-linecap="round" stroke-linejoin="round"/>
</g>
</svg>
