<svg width="28" height="28" viewBox="0 0 28 28" fill="none" xmlns="http://www.w3.org/2000/svg">
<g clip-path="url(#clip0_551_961)">
<path d="M18.9082 22.7501C19.2148 22.7499 19.5179 22.6853 19.7979 22.5606C20.078 22.4359 20.3287 22.2537 20.534 22.026L23.6402 18.5737C23.9119 18.2725 24.0623 17.8812 24.0624 17.4756V17.3911C24.0623 17.0603 23.9623 16.7371 23.7753 16.4641C23.5884 16.1911 23.3233 15.9809 23.0149 15.8612C22.7064 15.7415 22.3689 15.7178 22.0468 15.7932C21.7246 15.8686 21.4327 16.0396 21.2095 16.2838L19.0434 18.1126C18.9257 17.9255 18.7626 17.7712 18.5692 17.6641C18.3758 17.557 18.1585 17.5005 17.9374 17.5001H15.1238C14.9389 17.2293 14.6905 17.008 14.4003 16.8555C14.1101 16.703 13.787 16.6239 13.4592 16.6251C12.7406 16.623 12.0289 16.7636 11.3651 17.0386C10.7013 17.3136 10.0986 17.7176 9.59209 18.2272L7.43741 20.3815L6.87172 19.8158C6.78968 19.7337 6.67842 19.6877 6.56241 19.6877C6.4464 19.6877 6.33514 19.7337 6.25309 19.8158L4.06559 22.0033C3.98358 22.0853 3.9375 22.1966 3.9375 22.3126C3.9375 22.4286 3.98358 22.5398 4.06559 22.6219L8.87809 27.4344C8.96014 27.5164 9.0714 27.5625 9.18741 27.5625C9.30342 27.5625 9.41468 27.5164 9.49672 27.4344L11.6842 25.2469C11.7662 25.1648 11.8123 25.0536 11.8123 24.9376C11.8123 24.8216 11.7662 24.7103 11.6842 24.6283L11.1185 24.0626L12.431 22.7501H18.9082ZM9.18741 26.5065L4.99353 22.3126L6.56241 20.7437L10.7563 24.9376L9.18741 26.5065ZM11.9406 22.0033L10.4999 23.444L8.05603 21.0001L10.2107 18.8458C10.6362 18.4178 11.1425 18.0784 11.7001 17.8474C12.2577 17.6164 12.8556 17.4984 13.4592 17.5001C13.6716 17.4996 13.88 17.5587 14.0606 17.6706C14.2413 17.7825 14.3869 17.9427 14.4812 18.1331C14.5177 18.2062 14.5739 18.2676 14.6435 18.3103C14.7131 18.3531 14.7932 18.3755 14.8749 18.3751H17.9374C18.0534 18.3751 18.1647 18.4212 18.2468 18.5032C18.3288 18.5853 18.3749 18.6965 18.3749 18.8126C18.3749 18.9286 18.3288 19.0399 18.2468 19.1219C18.1647 19.204 18.0534 19.2501 17.9374 19.2501H14.8749V20.1251H17.9374C18.2323 20.1244 18.5184 20.0244 18.7496 19.8412C18.9807 19.658 19.1434 19.4023 19.2114 19.1153L21.797 16.9331C21.814 16.9187 21.8299 16.9032 21.8447 16.8867C21.9473 16.7694 22.0833 16.6861 22.2345 16.6481C22.3857 16.6101 22.5448 16.6191 22.6908 16.6739C22.8367 16.7287 22.9624 16.8268 23.0512 16.9549C23.1399 17.0831 23.1874 17.2353 23.1874 17.3911V17.4756C23.1875 17.6649 23.1176 17.8476 22.991 17.9883L19.8847 21.4406C19.7615 21.5775 19.6109 21.6869 19.4427 21.7618C19.2745 21.8366 19.0924 21.8752 18.9082 21.8751H12.2499C12.1339 21.8751 12.0226 21.9212 11.9406 22.0033Z" fill="#E6A424"/>
<path d="M8.17052 6.46599L6.28927 7.97099C6.23801 8.01197 6.19664 8.06397 6.1682 8.12311C6.13976 8.18226 6.125 8.24705 6.125 8.31267C6.125 8.3783 6.13976 8.44309 6.1682 8.50224C6.19664 8.56138 6.23801 8.61338 6.28927 8.65436L8.17052 10.1594C8.31378 10.2741 8.42571 10.4232 8.49593 10.5927C8.56615 10.7623 8.59236 10.9469 8.57214 11.1293L8.30614 13.5237C8.2992 13.5888 8.30694 13.6546 8.32881 13.7163C8.35068 13.778 8.38612 13.8341 8.43251 13.8802C8.47891 13.9264 8.53507 13.9616 8.59687 13.9832C8.65867 14.0048 8.72452 14.0122 8.78958 14.005L11.1836 13.7386C11.366 13.7184 11.5506 13.7447 11.7202 13.815C11.8898 13.8853 12.0388 13.9973 12.1535 14.1406L13.6585 16.0219C13.6995 16.0731 13.7515 16.1145 13.8106 16.1429C13.8698 16.1714 13.9346 16.1861 14.0002 16.1861C14.0658 16.1861 14.1306 16.1714 14.1898 16.1429C14.2489 16.1145 14.3009 16.0731 14.3419 16.0219L15.8465 14.1406C15.9612 13.9972 16.1104 13.8851 16.28 13.8147C16.4498 13.745 16.6343 13.7186 16.8168 13.7381L19.2108 14.0045C19.2759 14.0118 19.3417 14.0043 19.4035 13.9828C19.4653 13.9612 19.5215 13.926 19.5679 13.8798C19.6143 13.8336 19.6497 13.7776 19.6716 13.7159C19.6935 13.6542 19.7012 13.5884 19.6943 13.5233L19.4283 11.1284C19.4079 10.9461 19.434 10.7615 19.5042 10.592C19.5745 10.4224 19.6865 10.2734 19.8299 10.1589L21.7111 8.65393C21.7624 8.61294 21.8038 8.56095 21.8322 8.5018C21.8606 8.44265 21.8754 8.37787 21.8754 8.31224C21.8754 8.24661 21.8606 8.18182 21.8322 8.12268C21.8038 8.06353 21.7624 8.01154 21.7111 7.97055L19.8299 6.46555C19.6867 6.35089 19.5747 6.20189 19.5045 6.0324C19.4343 5.8629 19.4081 5.6784 19.4283 5.49605L19.6943 3.10161C19.7015 3.03643 19.6939 2.97047 19.6722 2.9086C19.6504 2.84673 19.6151 2.79054 19.5687 2.74418C19.5224 2.69752 19.4662 2.66198 19.4042 2.64023C19.3422 2.61848 19.2761 2.61109 19.2108 2.61861L16.8168 2.88505C16.6344 2.90518 16.4498 2.87888 16.2802 2.80859C16.1107 2.73829 15.9616 2.6263 15.8469 2.48299L14.3419 0.601738C14.2993 0.552924 14.2468 0.513792 14.1879 0.486978C14.129 0.460163 14.065 0.446289 14.0002 0.446289C13.9355 0.446289 13.8715 0.460163 13.8125 0.486978C13.7536 0.513792 13.7011 0.552924 13.6585 0.601738L12.154 2.48299C12.0392 2.62641 11.8901 2.73851 11.7205 2.80888C11.5508 2.87925 11.3661 2.9056 11.1836 2.88549L8.78958 2.61861C8.72431 2.61106 8.65818 2.61844 8.59618 2.64019C8.53419 2.66194 8.47794 2.6975 8.43171 2.74418C8.38533 2.79054 8.34996 2.84673 8.32823 2.9086C8.30649 2.97047 8.29895 3.03643 8.30614 3.10161L8.57214 5.49649C8.59253 5.67886 8.56639 5.86342 8.49616 6.03295C8.42593 6.20248 8.3139 6.35146 8.17052 6.46599ZM8.71739 7.14936C8.97599 6.94248 9.17804 6.67353 9.30472 6.36754C9.43139 6.06156 9.47858 5.72849 9.44189 5.39936L9.23627 3.5483L11.0873 3.75393C11.4165 3.79057 11.7496 3.74331 12.0556 3.61655C12.3616 3.4898 12.6305 3.28767 12.8373 3.02899L14.0002 1.57518L15.1635 3.02943C15.3704 3.28803 15.6394 3.49007 15.9453 3.61675C16.2513 3.74343 16.5844 3.79062 16.9135 3.75393L18.7646 3.5483L18.559 5.39893C18.5225 5.72804 18.5698 6.06102 18.6965 6.36696C18.8231 6.67291 19.025 6.94188 19.2835 7.14893L20.7377 8.31267L19.2835 9.47599C19.0249 9.68287 18.8228 9.95182 18.6961 10.2578C18.5695 10.5638 18.5223 10.8969 18.559 11.226L18.7646 13.077L16.9135 12.8714C16.5843 12.8348 16.2513 12.882 15.9453 13.0088C15.6393 13.1356 15.3704 13.3377 15.1635 13.5964L14.0002 15.0502L12.8369 13.5959C12.6529 13.3659 12.4195 13.1802 12.154 13.0528C11.8884 12.9253 11.5976 12.8593 11.303 12.8596C11.231 12.8594 11.1589 12.8633 11.0873 12.8714L9.23627 13.077L9.44189 11.2264C9.47834 10.8973 9.43103 10.5643 9.30437 10.2584C9.17771 9.95245 8.9758 9.68347 8.71739 9.47643L7.26271 8.31267L8.71739 7.14936Z" fill="#E6A424"/>
<path d="M16.3156 5.81529L11.0654 11.0654L11.6841 11.6841L16.9343 6.43401L16.3156 5.81529Z" fill="#E6A424"/>
<path d="M12.25 8.3125C12.5096 8.3125 12.7633 8.23552 12.9792 8.0913C13.195 7.94709 13.3633 7.7421 13.4626 7.50227C13.5619 7.26244 13.5879 6.99854 13.5373 6.74394C13.4866 6.48934 13.3616 6.25548 13.1781 6.07192C12.9945 5.88837 12.7607 5.76336 12.5061 5.71272C12.2515 5.66208 11.9876 5.68807 11.7477 5.78741C11.5079 5.88675 11.3029 6.05498 11.1587 6.27081C11.0145 6.48665 10.9375 6.74041 10.9375 7C10.9375 7.3481 11.0758 7.68194 11.3219 7.92808C11.5681 8.17422 11.9019 8.3125 12.25 8.3125ZM12.25 6.5625C12.3365 6.5625 12.4211 6.58816 12.4931 6.63623C12.565 6.68431 12.6211 6.75263 12.6542 6.83258C12.6873 6.91252 12.696 7.00049 12.6791 7.08535C12.6622 7.17022 12.6205 7.24817 12.5594 7.30936C12.4982 7.37055 12.4202 7.41221 12.3354 7.42909C12.2505 7.44598 12.1625 7.43731 12.0826 7.4042C12.0026 7.37108 11.9343 7.31501 11.8862 7.24306C11.8382 7.17112 11.8125 7.08653 11.8125 7C11.8125 6.88397 11.8586 6.77269 11.9406 6.69064C12.0227 6.60859 12.134 6.5625 12.25 6.5625Z" fill="#E6A424"/>
<path d="M15.75 9.1875C15.4904 9.1875 15.2367 9.26448 15.0208 9.4087C14.805 9.55292 14.6367 9.7579 14.5374 9.99773C14.4381 10.2376 14.4121 10.5015 14.4627 10.7561C14.5134 11.0107 14.6384 11.2445 14.8219 11.4281C15.0055 11.6116 15.2393 11.7366 15.4939 11.7873C15.7485 11.8379 16.0124 11.8119 16.2523 11.7126C16.4921 11.6133 16.6971 11.445 16.8413 11.2292C16.9855 11.0133 17.0625 10.7596 17.0625 10.5C17.0625 10.1519 16.9242 9.81806 16.6781 9.57192C16.4319 9.32578 16.0981 9.1875 15.75 9.1875ZM15.75 10.9375C15.6635 10.9375 15.5789 10.9118 15.5069 10.8638C15.435 10.8157 15.3789 10.7474 15.3458 10.6674C15.3127 10.5875 15.304 10.4995 15.3209 10.4146C15.3378 10.3298 15.3795 10.2518 15.4406 10.1906C15.5018 10.1295 15.5798 10.0878 15.6646 10.0709C15.7495 10.054 15.8375 10.0627 15.9174 10.0958C15.9974 10.1289 16.0657 10.185 16.1138 10.2569C16.1618 10.3289 16.1875 10.4135 16.1875 10.5C16.1875 10.616 16.1414 10.7273 16.0594 10.8094C15.9773 10.8914 15.866 10.9375 15.75 10.9375Z" fill="#E6A424"/>
<path d="M21.0739 3.93771H21V4.81271H21.0739C21.927 4.81031 22.7651 4.58826 23.5075 4.16796C24.2498 3.74766 24.8714 3.14328 25.3124 2.41303L24.5626 1.9624C24.1996 2.56346 23.6879 3.06093 23.0769 3.4069C22.4659 3.75287 21.7761 3.93567 21.0739 3.93771Z" fill="#E6A424"/>
<path d="M25.3124 14.2122C24.8714 13.4819 24.2498 12.8776 23.5075 12.4573C22.7651 12.037 21.927 11.8149 21.0739 11.8125H21V12.6875H21.0739C21.7761 12.6895 22.4659 12.8723 23.0769 13.2183C23.6879 13.5643 24.1996 14.0618 24.5626 14.6628L25.3124 14.2122Z" fill="#E6A424"/>
<path d="M23.625 6.56273V7.43773H23.9566C24.6028 7.43957 25.2429 7.31318 25.8398 7.06588C26.4368 6.81858 26.9788 6.45528 27.4343 5.99704L26.8157 5.37842C26.4411 5.75509 25.9956 6.05371 25.5048 6.257C25.014 6.46029 24.4878 6.56421 23.9566 6.56273H23.625Z" fill="#E6A424"/>
<path d="M27.4343 10.6282C26.9788 10.17 26.4368 9.80668 25.8398 9.55937C25.2429 9.31207 24.6028 9.18568 23.9566 9.18752H23.625V10.0625H23.9566C24.4878 10.061 25.014 10.165 25.5048 10.3682C25.9956 10.5715 26.4411 10.8702 26.8157 11.2468L27.4343 10.6282Z" fill="#E6A424"/>
<path d="M6.926 4.81271H6.99994V3.93771H6.926C6.22384 3.93567 5.53403 3.75287 4.92302 3.4069C4.312 3.06093 3.80036 2.56346 3.43737 1.9624L2.6875 2.41303C3.1285 3.14328 3.75012 3.74766 4.49248 4.16796C5.23484 4.58826 6.07292 4.81031 6.926 4.81271Z" fill="#E6A424"/>
<path d="M2.6875 14.2122L3.43737 14.6628C3.80036 14.0618 4.312 13.5643 4.92302 13.2183C5.53403 12.8723 6.22384 12.6895 6.926 12.6875H6.99994V11.8125H6.926C6.07292 11.8149 5.23484 12.037 4.49248 12.4573C3.75012 12.8776 3.1285 13.4819 2.6875 14.2122Z" fill="#E6A424"/>
<path d="M4.37523 7.43773V6.56273H4.04361C3.51241 6.56421 2.98619 6.46029 2.49543 6.257C2.00466 6.05371 1.5591 5.75509 1.18454 5.37842L0.565918 5.99704C1.02148 6.45528 1.56343 6.81858 2.16039 7.06588C2.75735 7.31318 3.39745 7.43957 4.04361 7.43773H4.37523Z" fill="#E6A424"/>
<path d="M4.04361 10.0625H4.37523V9.18752H4.04361C3.39745 9.18568 2.75735 9.31207 2.16039 9.55937C1.56343 9.80668 1.02148 10.17 0.565918 10.6282L1.18454 11.2468C1.5591 10.8702 2.00466 10.5715 2.49543 10.3682C2.98619 10.165 3.51241 10.061 4.04361 10.0625Z" fill="#E6A424"/>
</g>
<defs>
<clipPath id="clip0_551_961">
<rect width="28" height="28" fill="white"/>
</clipPath>
</defs>
</svg>
