<svg width="28" height="28" viewBox="0 0 28 28" fill="none" xmlns="http://www.w3.org/2000/svg">
<path d="M21.2309 9.55615H21.8736C22.1368 9.55615 22.364 9.40565 22.4664 9.16339C22.5689 8.92112 22.5187 8.65332 22.3354 8.46443L20.1416 6.20419C20.0189 6.07781 19.8549 6.00825 19.6798 6.00825C19.5047 6.00825 19.3407 6.07781 19.2181 6.20419L17.0242 8.46443C16.8409 8.65332 16.7906 8.92118 16.8931 9.16339C16.9956 9.40565 17.2227 9.55615 17.4859 9.55615H18.1286V11.432C17.5153 11.0907 16.8559 10.8228 16.162 10.6406V5.58393H17.2428C17.5784 5.58393 17.868 5.39203 17.9986 5.08321C18.1293 4.77433 18.0652 4.43286 17.8315 4.19207L14.5886 0.851051C14.4321 0.689887 14.2231 0.601074 13.9999 0.601074C13.7767 0.601074 13.5676 0.689832 13.4111 0.851051L10.1683 4.19207C9.93459 4.43281 9.87049 4.77428 10.0011 5.08315C10.1317 5.39203 10.4214 5.58393 10.757 5.58393H11.8377V10.6406C11.1438 10.8228 10.4844 11.0907 9.8711 11.432V9.55615H10.5138C10.777 9.55615 11.0042 9.40565 11.1066 9.16339C11.2091 8.92112 11.1589 8.65332 10.9756 8.46443L8.78172 6.20419C8.65906 6.07781 8.4951 6.00825 8.31999 6.00825C8.14488 6.00825 7.98093 6.07781 7.85821 6.20419L5.66437 8.46443C5.48106 8.65332 5.4308 8.92118 5.53334 9.16339C5.63582 9.40565 5.86294 9.55615 6.12615 9.55615H6.76878V14.3831C5.9535 15.6892 5.48149 17.2307 5.48149 18.8806C5.48149 23.5776 9.30278 27.3989 13.9998 27.3989C18.6969 27.3989 22.5182 23.5776 22.5182 18.8806C22.5182 17.2307 22.0462 15.6892 21.2308 14.3831V9.55615H21.2309ZM18.4021 9.00928H17.4859C17.4301 9.00928 17.4061 8.97236 17.3968 8.95038C17.3875 8.92839 17.3777 8.88541 17.4166 8.84532L19.6104 6.58509C19.6345 6.56032 19.6615 6.55512 19.6798 6.55512C19.6982 6.55512 19.7251 6.56032 19.7491 6.58509L21.943 8.84532C21.9819 8.88541 21.9721 8.92839 21.9628 8.95038C21.9535 8.97236 21.9295 9.00928 21.8736 9.00928H20.9575C20.8065 9.00928 20.6841 9.13167 20.6841 9.28271V13.606C20.118 12.8901 19.4394 12.2673 18.6755 11.7638V9.28271C18.6755 9.13167 18.5531 9.00928 18.4021 9.00928ZM12.1112 5.03705H10.757C10.5885 5.03705 10.5214 4.9093 10.5048 4.87014C10.4882 4.83099 10.4433 4.69383 10.5607 4.57292L13.8036 1.23189C13.8561 1.17775 13.9258 1.14789 13.9999 1.14789C14.0739 1.14789 14.1436 1.17775 14.1962 1.23189L17.439 4.57292C17.5564 4.69383 17.5115 4.83099 17.4949 4.87014C17.4783 4.9093 17.4112 5.03705 17.2427 5.03705H15.8885C15.7375 5.03705 15.6151 5.15944 15.6151 5.31049V10.5165C15.0919 10.4156 14.5521 10.3622 13.9998 10.3622C13.4476 10.3622 12.9078 10.4156 12.3846 10.5165V5.31049C12.3846 5.1595 12.2622 5.03705 12.1112 5.03705ZM7.04222 9.00928H6.12615C6.07026 9.00928 6.04631 8.97236 6.03701 8.95038C6.02771 8.92839 6.01787 8.88541 6.05681 8.84532L8.25065 6.58514C8.27471 6.56032 8.30167 6.55512 8.32005 6.55512C8.33842 6.55512 8.36538 6.56032 8.38939 6.58509L10.5832 8.84532C10.6222 8.88541 10.6124 8.92839 10.603 8.95038C10.5937 8.97236 10.5698 9.00928 10.5139 9.00928H9.59777C9.44677 9.00928 9.32433 9.13167 9.32433 9.28271V11.7638C8.5604 12.2674 7.88184 12.8902 7.31571 13.6061V9.28277C7.31566 9.13167 7.19327 9.00928 7.04222 9.00928ZM13.9999 26.8521C9.60438 26.8521 6.02842 23.276 6.02842 18.8806C6.02842 14.4851 9.60444 10.9091 13.9999 10.9091C18.3953 10.9091 21.9714 14.4851 21.9714 18.8806C21.9714 23.276 18.3954 26.8521 13.9999 26.8521ZM13.9999 12.7519C10.6205 12.7519 7.87117 15.5012 7.87117 18.8805C7.87117 22.2599 10.6205 25.0093 13.9999 25.0093C17.3793 25.0093 20.1286 22.2599 20.1286 18.8805C20.1286 15.5012 17.3793 12.7519 13.9999 12.7519ZM13.9999 24.4624C10.9221 24.4624 8.41805 21.9583 8.41805 18.8805C8.41805 15.8027 10.9221 13.2987 13.9999 13.2987C17.0777 13.2987 19.5817 15.8027 19.5817 18.8805C19.5817 21.9583 17.0777 24.4624 13.9999 24.4624ZM15.6996 20.3068C15.6996 21.151 15.081 21.8533 14.2733 21.9846V22.4634C14.2733 22.6145 14.1509 22.7369 13.9999 22.7369C13.8489 22.7369 13.7265 22.6145 13.7265 22.4634V21.9846C13.2594 21.909 12.8423 21.6415 12.5775 21.2375C12.4947 21.1111 12.53 20.9417 12.6563 20.8589C12.7825 20.7761 12.9521 20.8114 13.0349 20.9376C13.2491 21.2645 13.6099 21.4597 13.9999 21.4597C14.6356 21.4597 15.1528 20.9425 15.1528 20.3068C15.1528 19.6712 14.6356 19.154 13.9999 19.154C13.0627 19.154 12.3002 18.3915 12.3002 17.4542C12.3002 16.6101 12.9188 15.9077 13.7265 15.7765V15.2976C13.7265 15.1466 13.8489 15.0242 13.9999 15.0242C14.1509 15.0242 14.2733 15.1466 14.2733 15.2976V15.7765C14.7404 15.8521 15.1575 16.1195 15.4223 16.5236C15.5051 16.65 15.4698 16.8194 15.3435 16.9022C15.2172 16.985 15.0477 16.9496 14.9649 16.8235C14.7507 16.4965 14.3899 16.3014 13.9999 16.3014C13.3642 16.3014 12.847 16.8185 12.847 17.4542C12.847 18.0899 13.3642 18.6071 13.9999 18.6071C14.9371 18.6071 15.6996 19.3696 15.6996 20.3068Z" fill="#E6A424"/>
</svg>
