<svg width="28" height="28" viewBox="0 0 28 28" fill="none" xmlns="http://www.w3.org/2000/svg">
<g clip-path="url(#clip0_541_249)">
<path d="M27.125 18.8125H26.6665L25.8121 1.72812C25.8003 1.49538 25.6082 1.3125 25.375 1.3125H22.75C22.5168 1.3125 22.3247 1.49538 22.3129 1.72812L21.4585 18.8125H20.5301L19.6862 7.84131C19.6788 7.74681 19.6368 7.66588 19.5799 7.59806C19.649 7.40775 19.6875 7.20606 19.6875 7C19.6875 6.53538 19.4985 6.09613 19.1804 5.77325C19.5042 5.38519 19.6875 4.89169 19.6875 4.375C19.6875 3.07475 18.5456 2.01337 17.2156 2.2085C16.7199 1.13444 15.6494 0.4375 14.4375 0.4375C13.2466 0.4375 12.1726 1.13006 11.6712 2.19144C11.0989 2.22162 10.5639 2.436 10.1273 2.807C9.71513 2.64337 9.29556 2.583 8.84581 2.65125C8.386 1.82744 7.52544 1.3125 6.5625 1.3125C5.11481 1.3125 3.9375 2.48981 3.9375 3.9375C3.9375 5.38519 5.11481 6.5625 6.5625 6.5625C6.6745 6.5625 6.78737 6.55375 6.90419 6.53581C7.364 7.36006 8.22456 7.875 9.1875 7.875C9.81269 7.875 10.4003 7.65712 10.8732 7.2555C11.9241 7.672 13.1206 7.33469 13.8197 6.4995C14.6099 6.66225 15.4464 6.49906 16.1162 6.05894C16.1945 6.12325 16.2772 6.18231 16.3634 6.23525C16.2483 6.47062 16.1875 6.7305 16.1875 7C16.1875 7.20606 16.226 7.40775 16.2951 7.59806C16.2382 7.66588 16.1962 7.74725 16.1888 7.84131L15.3449 18.8125H13.5625V17.9375H14C14.2419 17.9375 14.4375 17.7419 14.4375 17.5V15.75C14.4375 15.5081 14.2419 15.3125 14 15.3125H8.75V14.4375H11.8125C12.0544 14.4375 12.25 14.2419 12.25 14V11.375C12.25 11.1331 12.0544 10.9375 11.8125 10.9375H8.3125C8.07056 10.9375 7.875 11.1331 7.875 11.375V15.3125H7V11.375C7 11.1331 6.80444 10.9375 6.5625 10.9375H3.0625C2.82056 10.9375 2.625 11.1331 2.625 11.375V14C2.625 14.2419 2.82056 14.4375 3.0625 14.4375H6.125V15.3125H0.875C0.633063 15.3125 0.4375 15.5081 0.4375 15.75V17.5C0.4375 17.7419 0.633063 17.9375 0.875 17.9375H1.3125V27.125C1.3125 27.3669 1.50806 27.5625 1.75 27.5625H27.125C27.3669 27.5625 27.5625 27.3669 27.5625 27.125V19.25C27.5625 19.0081 27.3669 18.8125 27.125 18.8125ZM8.75 11.8125H11.375V13.5625H8.75V11.8125ZM3.5 13.5625V11.8125H6.125V13.5625H3.5ZM24.9589 2.1875L25.0027 3.0625H23.1223L23.1661 2.1875H24.9589ZM23.0786 3.9375H25.0464L25.7902 18.8125H22.3352L23.0786 3.9375ZM18.8449 8.3125L18.9796 10.0625H16.8954L17.0301 8.3125H18.8449ZM16.1914 5.04613C16.0746 5.03387 15.9574 5.07413 15.8686 5.15112C15.2994 5.64463 14.4961 5.81087 13.7764 5.58512C13.5909 5.52475 13.3857 5.59825 13.2781 5.76319C12.7995 6.49819 11.8278 6.79394 10.9931 6.34725C10.8189 6.2545 10.6011 6.28906 10.4659 6.43563C10.1281 6.79962 9.67444 7 9.1875 7C8.46125 7 7.8225 6.559 7.55956 5.87738C7.47819 5.6665 7.24894 5.55231 7.03281 5.61312C6.85256 5.66388 6.70294 5.6875 6.5625 5.6875C5.59737 5.6875 4.8125 4.90263 4.8125 3.9375C4.8125 2.97237 5.59737 2.1875 6.5625 2.1875C7.28875 2.1875 7.9275 2.62806 8.19088 3.30969C8.27181 3.52056 8.5015 3.63519 8.71719 3.57394C8.89612 3.52362 9.04575 3.5 9.1875 3.5C9.46488 3.5 9.74094 3.57219 10.0069 3.71481C10.1815 3.80756 10.3989 3.773 10.5341 3.62644C10.8684 3.26637 11.3173 3.06644 11.8243 3.06644H11.8379C11.8681 3.07081 11.8982 3.07475 11.9293 3.0765C12.1271 3.08481 12.3073 2.96975 12.3725 2.78338C12.6783 1.904 13.5083 1.3125 14.4375 1.3125C15.4026 1.3125 16.2426 1.93156 16.5274 2.85294C16.562 2.96537 16.6412 3.05944 16.7458 3.11325C16.8507 3.16663 16.9728 3.17581 17.0848 3.13819C17.2358 3.08744 17.3714 3.0625 17.5 3.0625C18.2236 3.0625 18.8125 3.65138 18.8125 4.375C18.8125 4.80463 18.5999 5.20844 18.2437 5.45431C18.1151 5.54356 18.0434 5.6945 18.0561 5.85025C18.0692 6.00644 18.1646 6.14381 18.3063 6.21031C18.6187 6.35687 18.8125 6.65963 18.8125 7C18.8125 7.15487 18.7701 7.30494 18.6935 7.4375H17.1815C17.1049 7.30494 17.0625 7.15487 17.0625 7C17.0625 6.76113 17.1592 6.53713 17.3342 6.37C17.4479 6.26106 17.4943 6.10006 17.4558 5.94737C17.4177 5.79513 17.3009 5.67481 17.1496 5.63237C16.8914 5.56019 16.6644 5.41188 16.4924 5.20406C16.4176 5.11306 16.3087 5.05619 16.1914 5.04613ZM16.828 10.9375H19.0466L19.6521 18.8125H16.2221L16.828 10.9375ZM1.3125 16.1875H13.5625V17.0625H1.3125V16.1875ZM2.1875 17.9375H12.6875V26.6875H11.8125V23.625C11.8125 23.3831 11.6169 23.1875 11.375 23.1875H8.3125C8.07056 23.1875 7.875 23.3831 7.875 23.625V26.6875H7V23.625C7 23.3831 6.80444 23.1875 6.5625 23.1875H3.5C3.25806 23.1875 3.0625 23.3831 3.0625 23.625V26.6875H2.1875V17.9375ZM10.9375 26.6875H8.75V24.0625H10.9375V26.6875ZM6.125 26.6875H3.9375V24.0625H6.125V26.6875ZM26.6875 26.6875H13.5625V19.6875H26.6875V26.6875Z" fill="#E6A424"/>
<path d="M3.5 22.3125H11.375C11.6169 22.3125 11.8125 22.1169 11.8125 21.875V19.25C11.8125 19.0081 11.6169 18.8125 11.375 18.8125H3.5C3.25806 18.8125 3.0625 19.0081 3.0625 19.25V21.875C3.0625 22.1169 3.25806 22.3125 3.5 22.3125ZM6.5625 21.4375V19.6875H8.3125V21.4375H6.5625ZM10.9375 21.4375H9.1875V19.6875H10.9375V21.4375ZM3.9375 19.6875H5.6875V21.4375H3.9375V19.6875Z" fill="#E6A424"/>
<path d="M15.75 24.9375H17.5C17.7419 24.9375 17.9375 24.7419 17.9375 24.5V21C17.9375 20.7581 17.7419 20.5625 17.5 20.5625H15.75C15.5081 20.5625 15.3125 20.7581 15.3125 21V24.5C15.3125 24.7419 15.5081 24.9375 15.75 24.9375ZM16.1875 21.4375H17.0625V24.0625H16.1875V21.4375Z" fill="#E6A424"/>
<path d="M19.25 24.9375H21C21.2419 24.9375 21.4375 24.7419 21.4375 24.5V21C21.4375 20.7581 21.2419 20.5625 21 20.5625H19.25C19.0081 20.5625 18.8125 20.7581 18.8125 21V24.5C18.8125 24.7419 19.0081 24.9375 19.25 24.9375ZM19.6875 21.4375H20.5625V24.0625H19.6875V21.4375Z" fill="#E6A424"/>
<path d="M22.75 24.9375H24.5C24.7419 24.9375 24.9375 24.7419 24.9375 24.5V21C24.9375 20.7581 24.7419 20.5625 24.5 20.5625H22.75C22.5081 20.5625 22.3125 20.7581 22.3125 21V24.5C22.3125 24.7419 22.5081 24.9375 22.75 24.9375ZM23.1875 21.4375H24.0625V24.0625H23.1875V21.4375Z" fill="#E6A424"/>
</g>
<defs>
<clipPath id="clip0_541_249">
<rect width="28" height="28" fill="white"/>
</clipPath>
</defs>
</svg>
