<svg width="28" height="28" viewBox="0 0 28 28" fill="none" xmlns="http://www.w3.org/2000/svg">
<g clip-path="url(#clip0_541_328)">
<path d="M6.74362 21.4375H7.4375C7.7856 21.4375 8.11944 21.2992 8.36558 21.0531C8.61172 20.8069 8.75 20.4731 8.75 20.125C8.75 19.7769 8.61172 19.4431 8.36558 19.1969C8.11944 18.9508 7.7856 18.8125 7.4375 18.8125H3.0625C2.7144 18.8125 2.38056 18.9508 2.13442 19.1969C1.88828 19.4431 1.75 19.7769 1.75 20.125V24.5C1.75 24.8481 1.88828 25.1819 2.13442 25.4281C2.38056 25.6742 2.7144 25.8125 3.0625 25.8125C3.4106 25.8125 3.74444 25.6742 3.99058 25.4281C4.23672 25.1819 4.375 24.8481 4.375 24.5V23.8061L7.12819 26.5593C7.44229 26.8734 7.8683 27.0499 8.3125 27.0499C8.7567 27.0499 9.18271 26.8734 9.49681 26.5593C9.81091 26.2452 9.98737 25.8192 9.98737 25.375C9.98737 24.9308 9.81091 24.5048 9.49681 24.1907L6.74362 21.4375ZM8.87819 25.9407C8.72802 26.0905 8.52459 26.1746 8.3125 26.1746C8.10041 26.1746 7.89698 26.0905 7.74681 25.9407L4.24681 22.4407C4.18563 22.3795 4.10768 22.3379 4.02283 22.321C3.93797 22.3041 3.85002 22.3128 3.77009 22.3459C3.69016 22.379 3.62184 22.4351 3.57376 22.507C3.52569 22.5789 3.50002 22.6635 3.5 22.75V24.5C3.5 24.616 3.45391 24.7273 3.37186 24.8094C3.28981 24.8914 3.17853 24.9375 3.0625 24.9375C2.94647 24.9375 2.83519 24.8914 2.75314 24.8094C2.67109 24.7273 2.625 24.616 2.625 24.5V20.125C2.625 20.009 2.67109 19.8977 2.75314 19.8156C2.83519 19.7336 2.94647 19.6875 3.0625 19.6875H7.4375C7.55353 19.6875 7.66481 19.7336 7.74686 19.8156C7.82891 19.8977 7.875 20.009 7.875 20.125C7.875 20.241 7.82891 20.3523 7.74686 20.4344C7.66481 20.5164 7.55353 20.5625 7.4375 20.5625H5.6875C5.60098 20.5625 5.51642 20.5882 5.44449 20.6363C5.37256 20.6843 5.3165 20.7527 5.28339 20.8326C5.25029 20.9125 5.24162 21.0005 5.25849 21.0853C5.27537 21.1702 5.31702 21.2481 5.37819 21.3093L8.87819 24.8093C9.02796 24.9595 9.11207 25.1629 9.11207 25.375C9.11207 25.5871 9.02796 25.7905 8.87819 25.9407Z" fill="#E6A424"/>
<path d="M21.2564 6.56232H20.5626C20.2145 6.56232 19.8806 6.7006 19.6345 6.94674C19.3883 7.19289 19.2501 7.52673 19.2501 7.87482C19.2501 8.22292 19.3883 8.55676 19.6345 8.8029C19.8806 9.04904 20.2145 9.18732 20.5626 9.18732H24.9376C25.2857 9.18732 25.6195 9.04904 25.8656 8.8029C26.1118 8.55676 26.2501 8.22292 26.2501 7.87482V3.49982C26.2505 3.32724 26.2167 3.15628 26.1506 2.99685C26.0845 2.83742 25.9875 2.69268 25.8651 2.57101C25.7459 2.44578 25.6017 2.34694 25.442 2.28085C25.2822 2.21476 25.1104 2.1829 24.9376 2.18732C24.5895 2.18732 24.2556 2.3256 24.0095 2.57174C23.7633 2.81789 23.6251 3.15173 23.6251 3.49982V4.1937L20.8719 1.44051C20.5578 1.12641 20.1318 0.949951 19.6876 0.949951C19.2434 0.949951 18.8174 1.12641 18.5033 1.44051C18.1892 1.75461 18.0127 2.18062 18.0127 2.62482C18.0127 3.06903 18.1892 3.49503 18.5033 3.80913L21.2564 6.56232ZM19.1219 2.05913C19.272 1.90936 19.4755 1.82526 19.6876 1.82526C19.8997 1.82526 20.1031 1.90936 20.2533 2.05913L23.7533 5.55913C23.8144 5.6203 23.8924 5.66195 23.9772 5.67883C24.0621 5.6957 24.15 5.68704 24.23 5.65393C24.3099 5.62083 24.3782 5.56476 24.4263 5.49283C24.4744 5.42091 24.5 5.33634 24.5001 5.24982V3.49982C24.5001 3.38379 24.5462 3.27251 24.6282 3.19046C24.7103 3.10842 24.8215 3.06232 24.9376 3.06232C25.0536 3.06232 25.1649 3.10842 25.2469 3.19046C25.329 3.27251 25.3751 3.38379 25.3751 3.49982V7.87482C25.3751 7.99085 25.329 8.10213 25.2469 8.18418C25.1649 8.26623 25.0536 8.31232 24.9376 8.31232H20.5626C20.4465 8.31232 20.3353 8.26623 20.2532 8.18418C20.1712 8.10213 20.1251 7.99085 20.1251 7.87482C20.1251 7.75879 20.1712 7.64751 20.2532 7.56546C20.3353 7.48342 20.4465 7.43732 20.5626 7.43732H22.3126C22.3991 7.4373 22.4837 7.41163 22.5556 7.36356C22.6275 7.31549 22.6836 7.24716 22.7167 7.16723C22.7498 7.0873 22.7584 6.99935 22.7416 6.9145C22.7247 6.82964 22.683 6.75169 22.6219 6.69051L19.1219 3.19051C18.9721 3.04034 18.888 2.83691 18.888 2.62482C18.888 2.41273 18.9721 2.2093 19.1219 2.05913Z" fill="#E6A424"/>
<path d="M18.375 17.0625H19.25C19.366 17.0625 19.4773 17.1086 19.5594 17.1906C19.6414 17.2727 19.6875 17.384 19.6875 17.5C19.6875 17.616 19.7336 17.7273 19.8156 17.8094C19.8977 17.8914 20.009 17.9375 20.125 17.9375C20.241 17.9375 20.3523 17.8914 20.4344 17.8094C20.5164 17.7273 20.5625 17.616 20.5625 17.5C20.5625 17.1519 20.4242 16.8181 20.1781 16.5719C19.9319 16.3258 19.5981 16.1875 19.25 16.1875V15.75C19.25 15.634 19.2039 15.5227 19.1219 15.4406C19.0398 15.3586 18.9285 15.3125 18.8125 15.3125C18.6965 15.3125 18.5852 15.3586 18.5031 15.4406C18.4211 15.5227 18.375 15.634 18.375 15.75V16.1875C18.0269 16.1875 17.6931 16.3258 17.4469 16.5719C17.2008 16.8181 17.0625 17.1519 17.0625 17.5V17.9375C17.0625 18.2856 17.2008 18.6194 17.4469 18.8656C17.6931 19.1117 18.0269 19.25 18.375 19.25H19.25C19.366 19.25 19.4773 19.2961 19.5594 19.3781C19.6414 19.4602 19.6875 19.5715 19.6875 19.6875V20.125C19.6875 20.241 19.6414 20.3523 19.5594 20.4344C19.4773 20.5164 19.366 20.5625 19.25 20.5625H18.375C18.259 20.5625 18.1477 20.5164 18.0656 20.4344C17.9836 20.3523 17.9375 20.241 17.9375 20.125C17.9375 20.009 17.8914 19.8977 17.8094 19.8156C17.7273 19.7336 17.616 19.6875 17.5 19.6875C17.384 19.6875 17.2727 19.7336 17.1906 19.8156C17.1086 19.8977 17.0625 20.009 17.0625 20.125C17.0625 20.4731 17.2008 20.8069 17.4469 21.0531C17.6931 21.2992 18.0269 21.4375 18.375 21.4375V21.875C18.375 21.991 18.4211 22.1023 18.5031 22.1844C18.5852 22.2664 18.6965 22.3125 18.8125 22.3125C18.9285 22.3125 19.0398 22.2664 19.1219 22.1844C19.2039 22.1023 19.25 21.991 19.25 21.875V21.4375C19.5981 21.4375 19.9319 21.2992 20.1781 21.0531C20.4242 20.8069 20.5625 20.4731 20.5625 20.125V19.6875C20.5625 19.3394 20.4242 19.0056 20.1781 18.7594C19.9319 18.5133 19.5981 18.375 19.25 18.375H18.375C18.259 18.375 18.1477 18.3289 18.0656 18.2469C17.9836 18.1648 17.9375 18.0535 17.9375 17.9375V17.5C17.9375 17.384 17.9836 17.2727 18.0656 17.1906C18.1477 17.1086 18.259 17.0625 18.375 17.0625Z" fill="#E6A424"/>
<path d="M8.75 2.625C7.53859 2.625 6.35439 2.98423 5.34713 3.65725C4.33988 4.33027 3.55483 5.28687 3.09124 6.40606C2.62765 7.52526 2.50636 8.75679 2.74269 9.94493C2.97903 11.1331 3.56238 12.2244 4.41897 13.081C5.27557 13.9376 6.36694 14.521 7.55507 14.7573C8.74321 14.9936 9.97474 14.8723 11.0939 14.4088C12.2131 13.9452 13.1697 13.1601 13.8428 12.1529C14.5158 11.1456 14.875 9.96141 14.875 8.75C14.8733 7.12608 14.2274 5.56917 13.0791 4.42089C11.9308 3.27261 10.3739 2.62674 8.75 2.625ZM11.7425 13.0581L11.5351 12.6989C11.4767 12.5992 11.3812 12.5267 11.2695 12.4972C11.1578 12.4676 11.039 12.4835 10.9389 12.5413C10.8389 12.599 10.7658 12.694 10.7355 12.8055C10.7052 12.917 10.7203 13.0359 10.7774 13.1364L10.9839 13.4938C10.4191 13.7619 9.81054 13.9259 9.1875 13.9777V13.5625C9.1875 13.4465 9.14141 13.3352 9.05936 13.2531C8.97731 13.1711 8.86603 13.125 8.75 13.125C8.63397 13.125 8.52269 13.1711 8.44064 13.2531C8.3586 13.3352 8.3125 13.4465 8.3125 13.5625V13.9777C7.68946 13.9259 7.0809 13.7619 6.51613 13.4938L6.72263 13.1364C6.77973 13.0359 6.79479 12.917 6.76452 12.8055C6.73425 12.694 6.66111 12.599 6.56106 12.5413C6.46101 12.4835 6.34217 12.4676 6.23048 12.4972C6.11878 12.5267 6.02331 12.5992 5.96488 12.6989L5.7575 13.0581C5.24496 12.7004 4.79961 12.255 4.44194 11.7425L4.80113 11.5351C4.90079 11.4767 4.9733 11.3812 5.00283 11.2695C5.03236 11.1578 5.01651 11.039 4.95875 10.9389C4.90098 10.8389 4.80599 10.7658 4.69449 10.7355C4.583 10.7052 4.46406 10.7203 4.36363 10.7774L4.00619 10.9839C3.73806 10.4191 3.57413 9.81054 3.52232 9.1875H3.9375C4.05353 9.1875 4.16481 9.14141 4.24686 9.05936C4.32891 8.97731 4.375 8.86603 4.375 8.75C4.375 8.63397 4.32891 8.52269 4.24686 8.44064C4.16481 8.35859 4.05353 8.3125 3.9375 8.3125H3.52232C3.57413 7.68946 3.73806 7.0809 4.00619 6.51612L4.36363 6.72262C4.46406 6.77973 4.583 6.79478 4.69449 6.76451C4.80599 6.73425 4.90098 6.6611 4.95875 6.56105C5.01651 6.461 5.03236 6.34216 5.00283 6.23047C4.9733 6.11878 4.90079 6.0233 4.80113 5.96487L4.44194 5.7575C4.79961 5.24496 5.24496 4.7996 5.7575 4.44194L5.96488 4.80112C6.00331 4.8677 6.05861 4.92297 6.1252 4.96137C6.19179 4.99977 6.26732 5.01995 6.34419 5.01987C6.42107 5.02003 6.49659 4.99964 6.56294 4.96081C6.6633 4.9028 6.73654 4.80732 6.76656 4.69535C6.79658 4.58338 6.78094 4.46407 6.72306 4.36362L6.51657 4.00619C7.0812 3.7381 7.68961 3.57418 8.3125 3.52231V3.9375C8.3125 4.05353 8.3586 4.16481 8.44064 4.24686C8.52269 4.32891 8.63397 4.375 8.75 4.375C8.86603 4.375 8.97731 4.32891 9.05936 4.24686C9.14141 4.16481 9.1875 4.05353 9.1875 3.9375V3.52231C9.81054 3.57413 10.4191 3.73805 10.9839 4.00619L10.7774 4.36362C10.7195 4.46407 10.7039 4.58338 10.7339 4.69535C10.7639 4.80732 10.8371 4.9028 10.9375 4.96081C11.0038 4.9997 11.0794 5.0201 11.1563 5.01987C11.2331 5.01995 11.3087 4.99977 11.3752 4.96137C11.4418 4.92297 11.4971 4.8677 11.5356 4.80112L11.7429 4.44194C12.2555 4.7996 12.7008 5.24496 13.0585 5.7575L12.6993 5.96487C12.6492 5.99339 12.6051 6.03155 12.5698 6.07715C12.5344 6.12275 12.5085 6.17489 12.4933 6.23057C12.4782 6.28625 12.4743 6.34438 12.4817 6.40159C12.4891 6.45881 12.5078 6.51399 12.5367 6.56396C12.5655 6.61392 12.604 6.65769 12.6498 6.69274C12.6956 6.72779 12.7479 6.75342 12.8037 6.76817C12.8595 6.78292 12.9177 6.78648 12.9748 6.77867C13.032 6.77085 13.087 6.7518 13.1368 6.72262L13.4943 6.51612C13.7622 7.08093 13.926 7.68949 13.9777 8.3125H13.5625C13.4465 8.3125 13.3352 8.35859 13.2531 8.44064C13.1711 8.52269 13.125 8.63397 13.125 8.75C13.125 8.86603 13.1711 8.97731 13.2531 9.05936C13.3352 9.14141 13.4465 9.1875 13.5625 9.1875H13.9777C13.9259 9.81054 13.762 10.4191 13.4938 10.9839L13.1364 10.7774C13.0359 10.7203 12.917 10.7052 12.8055 10.7355C12.694 10.7658 12.599 10.8389 12.5413 10.9389C12.4835 11.039 12.4676 11.1578 12.4972 11.2695C12.5267 11.3812 12.5992 11.4767 12.6989 11.5351L13.0581 11.7425C12.7004 12.255 12.255 12.7004 11.7425 13.0581Z" fill="#E6A424"/>
<path d="M25.8127 16.6249H24.9989C24.9251 16.4067 24.8374 16.1933 24.7364 15.9862L25.3139 15.4087C25.4359 15.287 25.5328 15.1424 25.5988 14.9833C25.6649 14.8241 25.6989 14.6535 25.6989 14.4812C25.6989 14.3089 25.6649 14.1382 25.5988 13.9791C25.5328 13.8199 25.4359 13.6754 25.3139 13.5537L24.0714 12.3112C23.8213 12.0731 23.4892 11.9404 23.1439 11.9404C22.7986 11.9404 22.4666 12.0731 22.2164 12.3112L21.6389 12.8887C21.4318 12.7877 21.2184 12.7001 21.0002 12.6262V11.8124C20.9991 11.4647 20.8605 11.1314 20.6146 10.8855C20.3687 10.6396 20.0355 10.501 19.6877 10.4999H17.9377C17.5899 10.501 17.2567 10.6396 17.0108 10.8855C16.7648 11.1314 16.6262 11.4647 16.6252 11.8124V12.6262C16.4069 12.7001 16.1936 12.7877 15.9864 12.8887L15.6452 12.5474C16.5624 10.884 16.8482 8.94543 16.4502 7.08809C16.0521 5.23076 14.9969 3.57955 13.4786 2.4381C11.9603 1.29664 10.081 0.741675 8.18619 0.875239C6.29138 1.0088 4.50848 1.82192 3.16532 3.16508C1.82216 4.50823 1.00905 6.29113 0.875483 8.18594C0.741919 10.0808 1.29689 11.9601 2.43834 13.4784C3.5798 14.9967 5.231 16.0519 7.08834 16.4499C8.94567 16.848 10.8843 16.5621 12.5477 15.6449L12.8889 15.9862C12.788 16.1933 12.7003 16.4067 12.6264 16.6249H11.8127C11.4649 16.626 11.1317 16.7646 10.8858 17.0105C10.6398 17.2564 10.5012 17.5897 10.5002 17.9374V19.6874C10.5012 20.0352 10.6398 20.3685 10.8858 20.6144C11.1317 20.8603 11.4649 20.9989 11.8127 20.9999H12.6264C12.7003 21.2182 12.788 21.4315 12.8889 21.6387L12.3114 22.2162C12.1894 22.3379 12.0926 22.4824 12.0266 22.6416C11.9605 22.8007 11.9265 22.9714 11.9265 23.1437C11.9265 23.316 11.9605 23.4866 12.0266 23.6458C12.0926 23.8049 12.1894 23.9495 12.3114 24.0712L13.5539 25.3137C13.8041 25.5518 14.1361 25.6845 14.4814 25.6845C14.8267 25.6845 15.1588 25.5518 15.4089 25.3137L15.9864 24.7362C16.1936 24.8371 16.4069 24.9248 16.6252 24.9987V25.8124C16.6262 26.1602 16.7648 26.4935 17.0108 26.7394C17.2567 26.9853 17.5899 27.1239 17.9377 27.1249H19.6877C20.0355 27.1239 20.3687 26.9853 20.6146 26.7394C20.8605 26.4935 20.9991 26.1602 21.0002 25.8124V24.9987C21.2184 24.9248 21.4318 24.8371 21.6389 24.7362L22.2164 25.3137C22.4666 25.5518 22.7986 25.6845 23.1439 25.6845C23.4892 25.6845 23.8213 25.5518 24.0714 25.3137L25.3139 24.0712C25.4359 23.9495 25.5328 23.8049 25.5988 23.6458C25.6649 23.4866 25.6989 23.316 25.6989 23.1437C25.6989 22.9714 25.6649 22.8007 25.5988 22.6416C25.5328 22.4824 25.4359 22.3379 25.3139 22.2162L24.7364 21.6387C24.8374 21.4315 24.9251 21.2182 24.9989 20.9999H25.8127C26.1605 20.9989 26.4937 20.8603 26.7396 20.6144C26.9855 20.3685 27.1241 20.0352 27.1252 19.6874V17.9374C27.1241 17.5897 26.9855 17.2564 26.7396 17.0105C26.4937 16.7646 26.1605 16.626 25.8127 16.6249ZM8.75018 15.7499C7.36571 15.7499 6.01234 15.3394 4.86119 14.5702C3.71005 13.8011 2.81284 12.7078 2.28303 11.4287C1.75321 10.1496 1.61459 8.74217 1.88469 7.38431C2.15478 6.02644 2.82147 4.77916 3.80044 3.80019C4.7794 2.82122 6.02668 2.15454 7.38455 1.88444C8.74242 1.61435 10.1499 1.75297 11.429 2.28278C12.708 2.8126 13.8013 3.7098 14.5705 4.86095C15.3396 6.01209 15.7502 7.36547 15.7502 8.74994C15.7478 10.6057 15.0095 12.3848 13.6972 13.697C12.385 15.0092 10.606 15.7475 8.75018 15.7499ZM26.2502 19.6874C26.2502 19.8035 26.2041 19.9148 26.122 19.9968C26.04 20.0788 25.9287 20.1249 25.8127 20.1249H24.6839C24.59 20.1252 24.4985 20.1555 24.423 20.2114C24.3474 20.2672 24.2917 20.3458 24.2639 20.4356C24.1528 20.8116 24.0032 21.1751 23.8177 21.5206C23.773 21.6032 23.7561 21.698 23.7695 21.791C23.7829 21.884 23.8259 21.9701 23.8921 22.0368L24.6927 22.8374C24.7341 22.8769 24.7671 22.9245 24.7897 22.9771C24.8122 23.0297 24.8239 23.0864 24.8239 23.1437C24.8239 23.201 24.8122 23.2576 24.7897 23.3103C24.7671 23.3629 24.7341 23.4104 24.6927 23.4499L23.4502 24.6924C23.3684 24.7726 23.2585 24.8175 23.1439 24.8175C23.0294 24.8175 22.9195 24.7726 22.8377 24.6924L22.0371 23.8918C21.9704 23.8256 21.8842 23.7827 21.7912 23.7693C21.6983 23.7559 21.6034 23.7728 21.5208 23.8174C21.1754 24.003 20.8118 24.1525 20.4358 24.2637C20.346 24.2915 20.2675 24.3472 20.2116 24.4227C20.1557 24.4983 20.1255 24.5897 20.1252 24.6837V25.8124C20.1252 25.9285 20.0791 26.0398 19.997 26.1218C19.915 26.2038 19.8037 26.2499 19.6877 26.2499H17.9377C17.8217 26.2499 17.7104 26.2038 17.6283 26.1218C17.5463 26.0398 17.5002 25.9285 17.5002 25.8124V24.6837C17.4999 24.5897 17.4696 24.4983 17.4137 24.4227C17.3579 24.3472 17.2793 24.2915 17.1896 24.2637C16.8136 24.1525 16.45 24.003 16.1046 23.8174C16.0219 23.7728 15.9271 23.7559 15.8341 23.7693C15.7412 23.7827 15.655 23.8256 15.5883 23.8918L14.7877 24.6924C14.7059 24.7726 14.5959 24.8175 14.4814 24.8175C14.3669 24.8175 14.257 24.7726 14.1752 24.6924L12.9327 23.4499C12.8912 23.4104 12.8582 23.3629 12.8357 23.3103C12.8131 23.2576 12.8015 23.201 12.8015 23.1437C12.8015 23.0864 12.8131 23.0297 12.8357 22.9771C12.8582 22.9245 12.8912 22.8769 12.9327 22.8374L13.7333 22.0368C13.7995 21.9701 13.8424 21.884 13.8558 21.791C13.8692 21.698 13.8523 21.6032 13.8077 21.5206C13.6221 21.1751 13.4726 20.8116 13.3614 20.4356C13.3337 20.3458 13.2779 20.2672 13.2024 20.2114C13.1268 20.1555 13.0354 20.1252 12.9414 20.1249H11.8127C11.6967 20.1249 11.5854 20.0788 11.5033 19.9968C11.4213 19.9148 11.3752 19.8035 11.3752 19.6874V17.9374C11.3752 17.8214 11.4213 17.7101 11.5033 17.6281C11.5854 17.546 11.6967 17.4999 11.8127 17.4999H12.9414C13.0354 17.4997 13.1268 17.4694 13.2024 17.4135C13.2779 17.3576 13.3337 17.2791 13.3614 17.1893C13.4726 16.8133 13.6221 16.4497 13.8077 16.1043C13.8523 16.0217 13.8692 15.9269 13.8558 15.8339C13.8424 15.7409 13.7995 15.6547 13.7333 15.5881L13.3046 15.1637C14.0229 14.651 14.6512 14.0227 15.1639 13.3043L15.5883 13.7331C15.655 13.7992 15.7412 13.8422 15.8341 13.8556C15.9271 13.869 16.0219 13.8521 16.1046 13.8074C16.45 13.6219 16.8136 13.4724 17.1896 13.3612C17.2793 13.3334 17.3579 13.2777 17.4137 13.2021C17.4696 13.1266 17.4999 13.0352 17.5002 12.9412V11.8124C17.5002 11.6964 17.5463 11.5851 17.6283 11.5031C17.7104 11.421 17.8217 11.3749 17.9377 11.3749H19.6877C19.8037 11.3749 19.915 11.421 19.997 11.5031C20.0791 11.5851 20.1252 11.6964 20.1252 11.8124V12.9412C20.1255 13.0352 20.1557 13.1266 20.2116 13.2021C20.2675 13.2777 20.346 13.3334 20.4358 13.3612C20.8118 13.4724 21.1754 13.6219 21.5208 13.8074C21.6034 13.8521 21.6983 13.869 21.7912 13.8556C21.8842 13.8422 21.9704 13.7992 22.0371 13.7331L22.8377 12.9324C22.9195 12.8523 23.0294 12.8074 23.1439 12.8074C23.2585 12.8074 23.3684 12.8523 23.4502 12.9324L24.6927 14.1749C24.7341 14.2144 24.7671 14.262 24.7897 14.3146C24.8122 14.3672 24.8239 14.4239 24.8239 14.4812C24.8239 14.5385 24.8122 14.5951 24.7897 14.6478C24.7671 14.7004 24.7341 14.7479 24.6927 14.7874L23.8921 15.5881C23.8259 15.6547 23.7829 15.7409 23.7695 15.8339C23.7561 15.9269 23.773 16.0217 23.8177 16.1043C24.0032 16.4497 24.1528 16.8133 24.2639 17.1893C24.2917 17.2791 24.3474 17.3576 24.423 17.4135C24.4985 17.4694 24.59 17.4997 24.6839 17.4999H25.8127C25.9287 17.4999 26.04 17.546 26.122 17.6281C26.2041 17.7101 26.2502 17.8214 26.2502 17.9374V19.6874Z" fill="#E6A424"/>
<path d="M18.8125 14C17.8607 14 16.9302 14.2822 16.1388 14.8111C15.3474 15.3399 14.7306 16.0915 14.3663 16.9708C14.0021 17.8502 13.9068 18.8178 14.0925 19.7514C14.2782 20.6849 14.7365 21.5424 15.4096 22.2155C16.0826 22.8885 16.9401 23.3468 17.8736 23.5325C18.8072 23.7182 19.7748 23.6229 20.6542 23.2587C21.5335 22.8944 22.2851 22.2776 22.8139 21.4862C23.3428 20.6948 23.625 19.7643 23.625 18.8125C23.6235 17.5366 23.116 16.3134 22.2138 15.4112C21.3116 14.509 20.0884 14.0015 18.8125 14ZM18.8125 22.75C18.0337 22.75 17.2725 22.5191 16.6249 22.0864C15.9774 21.6538 15.4727 21.0388 15.1747 20.3193C14.8767 19.5998 14.7987 18.8081 14.9507 18.0443C15.1026 17.2805 15.4776 16.5789 16.0283 16.0283C16.5789 15.4776 17.2805 15.1026 18.0443 14.9507C18.8081 14.7987 19.5998 14.8767 20.3193 15.1747C21.0388 15.4727 21.6538 15.9774 22.0864 16.6249C22.5191 17.2725 22.75 18.0337 22.75 18.8125C22.7487 19.8564 22.3335 20.8572 21.5953 21.5953C20.8572 22.3335 19.8564 22.7487 18.8125 22.75Z" fill="#E6A424"/>
<path d="M9.1875 7.99663V5.6875C9.1875 5.57147 9.14141 5.46019 9.05936 5.37814C8.97731 5.29609 8.86603 5.25 8.75 5.25C8.63397 5.25 8.52269 5.29609 8.44064 5.37814C8.35859 5.46019 8.3125 5.57147 8.3125 5.6875V7.99663C8.18165 8.07281 8.07281 8.18165 7.99662 8.3125H6.5625C6.44647 8.3125 6.33519 8.35859 6.25314 8.44064C6.17109 8.52269 6.125 8.63397 6.125 8.75C6.125 8.86603 6.17109 8.97731 6.25314 9.05936C6.33519 9.14141 6.44647 9.1875 6.5625 9.1875H7.99662C8.06333 9.30371 8.15591 9.403 8.26718 9.47766C8.37846 9.55231 8.50543 9.60033 8.63826 9.61799C8.77109 9.63565 8.9062 9.62247 9.03312 9.57948C9.16003 9.53649 9.27534 9.46484 9.37009 9.37009C9.46484 9.27534 9.53649 9.16003 9.57948 9.03312C9.62247 8.9062 9.63565 8.77109 9.61799 8.63826C9.60033 8.50543 9.55231 8.37846 9.47766 8.26718C9.403 8.15591 9.30371 8.06333 9.1875 7.99663Z" fill="#E6A424"/>
</g>
<defs>
<clipPath id="clip0_541_328">
<rect width="28" height="28" fill="white"/>
</clipPath>
</defs>
</svg>
