<svg width="28" height="28" viewBox="0 0 28 28" fill="none" xmlns="http://www.w3.org/2000/svg">
<g clip-path="url(#clip0_55_1361)">
<path fill-rule="evenodd" clip-rule="evenodd" d="M19.4187 28H5.02295C4.9273 28 4.83608 27.9578 4.7739 27.8853L0.694801 23.1265C0.643777 23.0668 0.615723 22.9911 0.615723 22.9127V3.77706C0.615723 1.6946 2.30984 0.000488281 4.39229 0.000488281H23.2371C23.6691 0.000488281 23.6689 0.656741 23.2371 0.656741H4.39229C2.67176 0.656741 1.27198 2.05653 1.27198 3.77706V22.7915L5.17405 27.3436H19.0905V21.8611C19.0905 21.4291 19.7468 21.4293 19.7468 21.8611V27.6717C19.7471 27.8528 19.5998 27.9998 19.4187 27.9998V28ZM19.4187 13.7336C19.2375 13.7336 19.0905 13.5866 19.0905 13.4054V7.59497C19.0905 7.16316 19.7468 7.16316 19.7468 7.59497V13.4054C19.7471 13.5869 19.5998 13.7336 19.4187 13.7336Z" fill="#E6A424"/>
<path fill-rule="evenodd" clip-rule="evenodd" d="M27.0558 7.92318H19.4189C19.2378 7.92318 19.0908 7.77618 19.0908 7.59505V4.14645C19.0908 1.86023 20.9508 0.000244141 23.2372 0.000244141C25.5234 0.000244141 27.3837 1.86023 27.3837 4.14645V7.59489C27.3837 7.77634 27.2367 7.92318 27.0556 7.92318H27.0558ZM19.7474 7.26693H26.7276V4.14645C26.7276 2.22215 25.162 0.656497 23.2377 0.656497C21.3132 0.656497 19.7476 2.22215 19.7476 4.14645V7.26693H19.7474Z" fill="#E6A424"/>
<path fill-rule="evenodd" clip-rule="evenodd" d="M5.02346 27.9999C4.92929 27.9999 4.83774 27.9593 4.77409 27.8852L0.694984 23.1264C0.512873 22.9137 0.66496 22.5845 0.944031 22.5845H5.02346C5.20459 22.5845 5.35159 22.7316 5.35159 22.9126V27.6717C5.35159 27.8539 5.20426 27.9999 5.02346 27.9999ZM1.65754 23.2411L4.69534 26.785V23.2411H1.65754Z" fill="#E6A424"/>
<path fill-rule="evenodd" clip-rule="evenodd" d="M13.8637 4.09473H3.61012C3.17814 4.09473 3.17814 3.43848 3.61012 3.43848H13.8637C14.2957 3.43848 14.2957 4.09473 13.8637 4.09473Z" fill="#E6A424"/>
<path fill-rule="evenodd" clip-rule="evenodd" d="M13.8637 8.33277H3.61012C3.17814 8.33277 3.17814 7.67651 3.61012 7.67651H13.8637C14.2957 7.67651 14.2957 8.33277 13.8637 8.33277Z" fill="#E6A424"/>
<path fill-rule="evenodd" clip-rule="evenodd" d="M13.8637 12.571H3.61012C3.17814 12.571 3.17814 11.9148 3.61012 11.9148H13.8637C14.2957 11.9148 14.2957 12.571 13.8637 12.571Z" fill="#E6A424"/>
<path fill-rule="evenodd" clip-rule="evenodd" d="M13.8637 16.8096H3.61012C3.17814 16.8096 3.17814 16.1533 3.61012 16.1533H13.8637C14.2957 16.1533 14.2957 16.8096 13.8637 16.8096Z" fill="#E6A424"/>
<path fill-rule="evenodd" clip-rule="evenodd" d="M13.8637 21.0479H3.61012C3.17814 21.0479 3.17814 20.3916 3.61012 20.3916H13.8637C14.2957 20.3916 14.2957 21.0479 13.8637 21.0479Z" fill="#E6A424"/>
<path fill-rule="evenodd" clip-rule="evenodd" d="M19.44 22.1897C16.9279 22.1897 14.8838 20.1456 14.8838 17.6332C14.8838 15.121 16.9279 13.0771 19.44 13.0771C21.9521 13.0771 23.9963 15.121 23.9963 17.6332C23.9963 20.1458 21.9523 22.1897 19.44 22.1897ZM19.44 13.7334C17.2896 13.7334 15.5402 15.483 15.5402 17.6332C15.5402 19.7837 17.2898 21.5333 19.44 21.5333C21.5902 21.5333 23.3398 19.7837 23.3398 17.6332C23.3398 15.4828 21.5904 13.7334 19.44 13.7334Z" fill="#E6A424"/>
<path fill-rule="evenodd" clip-rule="evenodd" d="M19.4177 17.9617H18.2773C18.0962 17.9617 17.9492 17.8145 17.9492 17.6336V15.2627C17.9492 15.0816 18.0964 14.9346 18.2773 14.9346H19.4177C20.2522 14.9346 20.9312 15.6136 20.9312 16.4482C20.9312 17.2828 20.2522 17.9615 19.4177 17.9615V17.9617ZM18.6056 17.3053H19.4177C20.5457 17.3053 20.5455 15.5907 19.4177 15.5908H18.6056V17.3053Z" fill="#E6A424"/>
<path fill-rule="evenodd" clip-rule="evenodd" d="M19.4177 20.3321H18.2773C18.0962 20.3321 17.9492 20.185 17.9492 20.004V17.6333C17.9492 17.4522 18.0964 17.3052 18.2773 17.3052H19.4177C20.2522 17.3052 20.9312 17.9839 20.9312 18.8187C20.9312 19.6532 20.2522 20.332 19.4177 20.332V20.3321ZM18.6056 19.6756H19.4177C20.5455 19.6756 20.5458 17.9613 19.4177 17.9614H18.6056V19.6756Z" fill="#E6A424"/>
<path fill-rule="evenodd" clip-rule="evenodd" d="M19.2237 20.8547C18.8097 20.8547 18.8956 20.3518 18.8956 20.0039C18.8956 19.5719 19.5518 19.572 19.5518 20.0039C19.5518 20.3523 19.6376 20.8547 19.2237 20.8547Z" fill="#E6A424"/>
<path fill-rule="evenodd" clip-rule="evenodd" d="M19.2237 15.5908C18.8097 15.5908 18.8956 15.0879 18.8956 14.7399C18.8956 14.308 19.5518 14.3081 19.5518 14.7399C19.5518 15.0884 19.6376 15.5908 19.2237 15.5908Z" fill="#E6A424"/>
</g>
<defs>
<clipPath id="clip0_55_1361">
<rect width="28" height="28" fill="white"/>
</clipPath>
</defs>
</svg>
