<svg width="28" height="28" viewBox="0 0 28 28" fill="none" xmlns="http://www.w3.org/2000/svg">
<g clip-path="url(#clip0_55_1393)">
<path d="M18.2271 2.58125L16.4607 1.14844L14.9896 2.34062L13.524 1.14844L12.0584 2.34062L10.5928 1.14844L9.12715 2.34062L7.66152 1.14844L6.1959 2.34062L4.73027 1.14844L3.26465 2.34062L1.79902 1.14844L0.0380859 2.58125V23.7945C0.0380859 25.4844 1.40527 26.8516 3.09512 26.8516H20.6881C22.3725 26.8516 23.7451 25.4789 23.7451 23.7945V19.5453H18.2271V2.58125ZM3.09512 26.2555C1.73887 26.2555 0.63418 25.1508 0.63418 23.7945V2.86563L1.79902 1.91406L3.26465 3.10625L4.73027 1.91406L6.1959 3.10625L7.66152 1.91406L9.12715 3.10625L10.5928 1.91406L12.0584 3.10625L13.524 1.91406L14.9896 3.10625L16.4607 1.91406L17.6311 2.86563V23.7945C17.6256 24.7461 18.1068 25.6812 18.8779 26.2555H3.09512ZM23.1436 20.1414V23.7945C23.1436 25.1508 22.0389 26.2555 20.6826 26.2555C19.3264 26.2555 18.2217 25.1508 18.2217 23.7945V20.1414H23.1436ZM2.58105 9.22578H3.75684C4.85605 9.23125 5.17871 7.71094 4.19434 7.25703C4.62637 6.60625 4.10684 5.66016 3.31387 5.68203H2.57559C2.41152 5.68203 2.2748 5.81328 2.2748 5.98281V8.925C2.28027 9.09453 2.41699 9.22578 2.58105 9.22578ZM2.87637 6.28359H3.31387C3.55449 6.28359 3.75137 6.48047 3.75137 6.72109C3.75137 6.96172 3.55449 7.15859 3.31387 7.15859H2.87637V6.28359ZM2.87637 7.75469H3.75684C3.99746 7.75469 4.19434 7.95156 4.19434 8.19219C4.19434 8.43281 3.99746 8.62969 3.75684 8.62969H2.87637V7.75469ZM5.38652 8.93047V5.98828C5.38652 5.82422 5.51777 5.6875 5.6873 5.6875C5.85684 5.6875 5.98809 5.81875 5.98809 5.98828V8.93047C5.98809 9.09453 5.85684 9.23125 5.6873 9.23125C5.51777 9.23125 5.38652 9.09453 5.38652 8.93047ZM6.62246 8.93047V5.98828C6.62246 5.6 7.21855 5.6 7.21855 5.98828V8.63516H8.2959C8.68418 8.63516 8.68418 9.23125 8.2959 9.23125H6.91777C6.75918 9.22578 6.62246 9.09453 6.62246 8.93047ZM9.32949 8.93047V5.98828C9.32949 5.6 9.92559 5.6 9.92559 5.98828V8.63516H11.0029C11.3912 8.63516 11.3912 9.23125 11.0029 9.23125H9.6248C9.46621 9.22578 9.32949 9.09453 9.32949 8.93047ZM16.0561 8.81016L14.7818 8.77187L15.5037 6.08672C15.542 5.94453 15.4709 5.79141 15.3342 5.73672C15.1975 5.67656 15.0389 5.73125 14.9623 5.85703L12.4959 9.99141C12.4412 10.0844 12.4412 10.1992 12.4959 10.2977C12.5506 10.3906 12.66 10.4453 12.7639 10.4453L14.1803 10.4016L13.4256 13.0648C13.3271 13.393 13.7975 13.5953 13.9725 13.2945L16.3131 9.26953C16.417 9.07266 16.2748 8.81016 16.0561 8.81016ZM14.6342 10.943L14.8529 10.1609C14.8803 10.068 14.8584 9.96953 14.8037 9.89844C14.7436 9.82187 14.6561 9.78359 14.5576 9.78359L13.2834 9.82188L14.3662 8.00625L14.1037 8.97969C14.049 9.16016 14.1967 9.35156 14.3826 9.35703L15.5365 9.39531L14.6342 10.943ZM2.58105 10.7297H11.0029C11.3967 10.7297 11.3912 11.3258 11.0029 11.3258H2.58105C2.1873 11.3258 2.19277 10.7297 2.58105 10.7297ZM11.0029 12.8406C11.3967 12.8406 11.3912 13.4367 11.0029 13.4367H2.58105C2.1873 13.4367 2.19277 12.8406 2.58105 12.8406H11.0029ZM16.0451 15.5422H2.58105C2.1873 15.5367 2.19277 14.9516 2.58105 14.9461H16.0451C16.4389 14.957 16.4334 15.5367 16.0451 15.5422ZM16.0451 17.6531H2.58105C2.1873 17.6477 2.19277 17.0625 2.58105 17.057H16.0451C16.4389 17.0625 16.4334 17.6477 16.0451 17.6531ZM16.0451 19.7641H2.58105C2.1873 19.7586 2.19277 19.1734 2.58105 19.168H16.0451C16.4389 19.1734 16.4334 19.7586 16.0451 19.7641ZM16.0451 21.875H2.58105C2.1873 21.8695 2.19277 21.2844 2.58105 21.2789H16.0451C16.4389 21.2844 16.4334 21.8695 16.0451 21.875ZM16.0451 23.9805H2.58105C2.1873 23.975 2.19277 23.3898 2.58105 23.3844H16.0451C16.4389 23.3953 16.4334 23.9805 16.0451 23.9805ZM24.7404 11.0305H23.767C24.0514 10.9102 23.9529 10.4563 23.6412 10.4617H23.2201C22.9084 10.4508 22.81 10.9102 23.0943 11.0305C21.4045 11.0305 21.4482 13.4859 23.1381 13.4367V14.6508H22.4381V14.4266C22.4381 14.0383 21.842 14.0383 21.842 14.4266V14.9516C21.842 15.1156 21.9732 15.2523 22.1428 15.2523H23.0998C22.8154 15.3727 22.9139 15.8266 23.2256 15.8211H23.6467C23.9584 15.832 24.0568 15.3727 23.7725 15.2523C25.4678 15.2633 25.4404 12.7969 23.7451 12.8461V11.632H24.4451V11.8453C24.4451 12.2336 25.0412 12.2336 25.0412 11.8453V11.3367C25.0412 11.1617 24.9045 11.0305 24.7404 11.0305ZM23.1436 12.8406C22.2139 12.9062 22.2139 11.5609 23.1436 11.6266V12.8406ZM23.8381 13.4367C24.7021 13.475 24.6037 14.7273 23.7396 14.6508V13.4367H23.8381ZM23.4443 8.61875C20.9506 8.61875 18.9217 10.6477 18.9217 13.1414C19.1678 19.1406 27.7154 19.1352 27.9615 13.1414C27.9615 10.6422 25.9381 8.61875 23.4443 8.61875ZM23.4443 17.0625C21.2787 17.0625 19.5178 15.3016 19.5178 13.1359C19.7311 7.92969 27.1521 7.92969 27.3654 13.1359C27.3654 15.3016 25.6045 17.0625 23.4443 17.0625Z" fill="#E6A424"/>
</g>
<defs>
<clipPath id="clip0_55_1393">
<rect width="28" height="28" fill="white"/>
</clipPath>
</defs>
</svg>
