<svg width="28" height="28" viewBox="0 0 28 28" fill="none" xmlns="http://www.w3.org/2000/svg">
<path d="M17.7561 11.9991C17.6255 11.9991 17.502 12.059 17.4211 12.1615L15.9554 14.0146L14.6824 9.62888C14.634 9.46137 14.4884 9.34013 14.3148 9.32285C14.1409 9.30535 13.9744 9.39525 13.8934 9.55024L12.8261 11.5939L11.8231 7.71963C11.7785 7.54605 11.63 7.41901 11.4514 7.40151C11.2744 7.38439 11.1026 7.47977 11.025 7.64099L8.75395 12.3484H5.47073C5.23459 12.3484 5.04346 12.5397 5.04346 12.7757C5.04346 13.0117 5.23453 13.203 5.47073 13.203H9.02219C9.18614 13.203 9.33555 13.1091 9.40686 12.9614L11.2882 9.06215L12.277 12.8827C12.3213 13.0538 12.4665 13.18 12.6417 13.2002C12.8253 13.2215 12.9876 13.1299 13.0693 12.9735L14.1583 10.8885L15.3662 15.0492C15.4105 15.2027 15.5373 15.3187 15.6942 15.3494C15.8497 15.38 16.0116 15.3215 16.1114 15.195L17.963 12.8537H22.5305C22.7666 12.8537 22.9578 12.6624 22.9578 12.4264C22.9578 12.1904 22.7667 11.9991 22.5305 11.9991H17.7561Z" fill="#E6A424"/>
<path d="M8.19926 2.99988H4.83046C3.6205 2.99988 2.63623 3.98415 2.63623 5.19389V17.5627C2.63623 18.7725 3.6205 19.7565 4.83046 19.7565H11.3638C11.7834 21.1803 11.7834 22.619 11.3638 24.0428H10.741C9.12086 24.0428 7.78101 25.2536 7.57107 26.8173H6.38927C6.15313 26.8173 5.962 27.0086 5.962 27.2446C5.962 27.4806 6.15307 27.6719 6.38922 27.6719H21.6111C21.8472 27.6719 22.0384 27.4806 22.0384 27.2446C22.0384 27.0086 21.8473 26.8173 21.6111 26.8173H20.4297C20.2197 25.2536 18.8799 24.0428 17.2598 24.0428H16.6483C16.2833 22.6189 16.2833 21.1804 16.6483 19.7565H23.1703C24.3799 19.7565 25.3641 18.7725 25.3641 17.5627V5.19389C25.3641 3.98415 24.3798 2.99988 23.1703 2.99988H19.8013C19.7623 2.94153 19.7184 2.88635 19.6656 2.83839V2.83817C18.8361 2.08343 16.6235 0.328125 14.0004 0.328125C11.376 0.328125 9.16428 2.08365 8.33522 2.83801C8.28233 2.88602 8.23831 2.94137 8.19926 2.99988ZM19.5684 26.8174H8.43245C8.63397 25.7263 9.59237 24.8973 10.741 24.8973H17.2598C18.4084 24.8973 19.3668 25.7263 19.5684 26.8174ZM15.7628 24.0428H12.2576C12.6347 22.6181 12.6347 21.1812 12.2576 19.7566H15.7628C15.4311 21.181 15.4311 22.6184 15.7628 24.0428ZM24.5096 5.19389V17.5627C24.5096 18.3012 23.9088 18.902 23.1703 18.902C18.4097 18.902 15.6854 18.902 11.6835 18.902H4.83046C4.09152 18.902 3.49072 18.3012 3.49072 17.5627V5.19389C3.49072 4.45517 4.09152 3.85438 4.83046 3.85438H8.13484C8.18324 3.95697 8.24985 4.05114 8.33522 4.12869C9.16466 4.88245 11.3773 6.63562 14.0004 6.63562C16.6231 6.63562 18.8357 4.88239 19.6648 4.12891C19.7504 4.05125 19.8171 3.95708 19.8654 3.85438H23.1703C23.9088 3.85438 24.5096 4.45517 24.5096 5.19389ZM14.002 1.18278C16.3006 1.18278 18.3129 2.79349 19.0906 3.49415C18.3343 4.18201 16.3263 5.77992 14.002 5.77992C11.6736 5.77992 9.66549 4.18201 8.90927 3.4685C9.66549 2.7807 11.6736 1.18278 14.002 1.18278Z" fill="#E6A424"/>
<path d="M15.8642 3.48177C15.8642 2.45391 15.0281 1.6178 14.0004 1.6178C12.9723 1.6178 12.1362 2.45391 12.1362 3.48177C12.1362 4.50962 12.9723 5.34574 14.0004 5.34574C15.0281 5.34574 15.8642 4.50962 15.8642 3.48177ZM14.0005 4.49124C13.4439 4.49124 12.9908 4.03832 12.9908 3.48177C12.9908 2.92521 13.4439 2.47229 14.0005 2.47229C14.557 2.47229 15.0098 2.92521 15.0098 3.48177C15.0098 4.03832 14.557 4.49124 14.0005 4.49124Z" fill="#E6A424"/>
</svg>
