<svg width="28" height="28" viewBox="0 0 28 28" fill="none" xmlns="http://www.w3.org/2000/svg">
<path d="M18.6666 22.349H6.125C2.7489 22.349 0 19.5999 0 16.224C0 12.8479 2.7489 10.099 6.125 10.099H6.58429C7.44476 7.70731 9.88028 6.01562 12.5416 6.01562C15.8228 6.01562 18.5062 8.6041 18.6593 11.849H18.6666C21.5614 11.849 23.9166 14.2042 23.9166 17.099C23.9166 19.9938 21.5614 22.349 18.6666 22.349ZM6.125 11.2656C3.39062 11.2656 1.1666 13.4897 1.1666 16.224C1.1666 18.9584 3.39062 21.1822 6.125 21.1822H18.6666C20.9199 21.1822 22.75 19.3521 22.75 17.099C22.75 14.8457 20.9199 13.0156 18.6666 13.0156H17.5V12.1406C17.5 9.40625 15.276 7.18222 12.5416 7.18222C10.2375 7.18222 8.15207 8.72073 7.57614 10.8354L7.45929 11.2656H6.125Z" fill="#E6A424"/>
</svg>
