<svg width="28" height="28" viewBox="0 0 28 28" fill="none" xmlns="http://www.w3.org/2000/svg">
<path fill-rule="evenodd" clip-rule="evenodd" d="M16.9142 17.2102C16.9787 17.3598 17.121 17.4613 17.2835 17.4734C17.2945 17.4742 17.3053 17.4746 17.3162 17.4746C17.4667 17.4746 17.6077 17.397 17.6878 17.2677L18.7478 15.5596L20.7172 15.9629C20.8771 15.9955 21.0415 15.9368 21.1444 15.8104C21.2473 15.684 21.2713 15.5109 21.2069 15.3612L19.7443 11.9654C19.789 11.9464 19.8348 11.9269 19.883 11.9062C20.6373 11.5833 21.0786 10.8188 20.9812 10.0042C20.9631 9.85283 20.9462 9.71819 20.9311 9.59733C20.8703 9.11252 20.8397 8.86917 20.8726 8.68323C20.9054 8.49729 21.0173 8.27903 21.2402 7.84427C21.2958 7.73582 21.3577 7.61513 21.4265 7.47906C21.7967 6.7468 21.6434 5.87754 21.0451 5.31612C20.934 5.21183 20.8345 5.11957 20.7452 5.03667C20.387 4.70438 20.2072 4.53759 20.1128 4.37407C20.0184 4.21056 19.9639 3.97146 19.8552 3.49513C19.8281 3.37635 19.7979 3.24401 19.7631 3.09559C19.576 2.29671 18.8998 1.72938 18.0806 1.68383C17.9285 1.67535 17.7929 1.66863 17.6713 1.66256C17.1832 1.63828 16.9383 1.62608 16.7609 1.56149C16.5835 1.49691 16.388 1.34881 15.9985 1.05372C15.9015 0.980111 15.7932 0.898189 15.6713 0.806861C15.0144 0.315221 14.1318 0.315166 13.4749 0.806861C13.353 0.898189 13.2447 0.980111 13.1477 1.05372C12.7582 1.34881 12.5627 1.49691 12.3853 1.56149C12.2079 1.62608 11.9629 1.63828 11.4749 1.66256C11.3532 1.66863 11.2177 1.67535 11.0656 1.68383C10.2464 1.72938 9.57018 2.29677 9.38309 3.09559C9.34831 3.24401 9.31812 3.3763 9.291 3.49513C9.18233 3.97146 9.12781 4.21061 9.03337 4.37407C8.93898 4.53759 8.75916 4.70438 8.40096 5.03667C8.31166 5.11957 8.21218 5.21183 8.10111 5.31612C7.50288 5.8776 7.34954 6.74685 7.71966 7.47912C7.78841 7.61507 7.85031 7.73577 7.90587 7.84416C8.12884 8.27898 8.24078 8.49724 8.27359 8.68317C8.30641 8.86906 8.27584 9.11242 8.21508 9.59717C8.19993 9.71808 8.18303 9.85278 8.16493 10.0042C8.06758 10.8188 8.50886 11.5833 9.26311 11.9062C9.40322 11.9662 9.52823 12.0189 9.64051 12.0663C9.67463 12.0806 9.70701 12.0943 9.73862 12.1076L7.94448 15.9611C7.87569 16.1089 7.89477 16.2826 7.99387 16.412C8.09302 16.5413 8.25582 16.605 8.41644 16.5768L10.3968 16.2308L11.4069 17.9689C11.4854 18.104 11.6297 18.1865 11.7851 18.1865C11.7916 18.1865 11.7983 18.1864 11.8049 18.1861C11.9678 18.1787 12.113 18.0814 12.1818 17.9337L13.9673 14.0985C14.2537 14.0125 14.4274 13.9691 14.5732 13.9691C14.762 13.9691 14.9964 14.0414 15.4633 14.1855C15.5173 14.2022 15.5745 14.2198 15.6345 14.2382L16.9142 17.2102ZM18.6246 14.6412C18.4451 14.6045 18.2617 14.6834 18.1651 14.8391L17.3863 16.0941L16.6427 14.3677C17.1531 14.2969 17.6202 14.0109 17.9188 13.5543C18.0022 13.4267 18.0758 13.3127 18.1419 13.2104C18.407 12.7999 18.54 12.5939 18.6846 12.4725C18.7495 12.418 18.8311 12.3688 18.9416 12.3139L20.0716 14.9375L18.6246 14.6412ZM11.7419 16.8045L10.9999 15.5275C10.9078 15.369 10.7268 15.2849 10.5463 15.3163L9.09128 15.5705L10.512 12.5192C10.6389 12.6453 10.77 12.8482 11.0039 13.2104C11.07 13.3128 11.1436 13.4268 11.227 13.5543C11.5962 14.1188 12.2225 14.423 12.87 14.3815L11.7419 16.8045ZM14.5729 13.0937C14.2752 13.0937 13.9773 13.1789 13.4248 13.3494C13.3098 13.3849 13.1818 13.4244 13.0377 13.4679C12.6212 13.5937 12.1977 13.4398 11.9593 13.0754C11.8769 12.9495 11.8042 12.8369 11.739 12.7358C11.1115 11.7642 11.0458 11.7091 9.98001 11.2599C9.86915 11.2132 9.74567 11.1612 9.60731 11.1019C9.20705 10.9304 8.9818 10.5403 9.03348 10.1079C9.05136 9.95849 9.06804 9.82543 9.08302 9.70605C9.22691 8.5586 9.21198 8.47405 8.68419 7.44483C8.62928 7.33775 8.56819 7.21859 8.50033 7.08433C8.30389 6.69572 8.38215 6.2521 8.69966 5.9541C8.80942 5.85113 8.90764 5.76002 8.99585 5.67815C9.84378 4.89158 9.88666 4.81726 10.1439 3.68977C10.1706 3.57241 10.2005 3.44176 10.2348 3.29514C10.3341 2.87121 10.6792 2.58163 11.114 2.55746C11.2642 2.5491 11.3981 2.54242 11.5183 2.53646C12.6734 2.47893 12.7541 2.44956 13.6759 1.75115C13.7718 1.67847 13.8786 1.59753 13.9991 1.50735C14.3477 1.24644 14.7981 1.24644 15.1468 1.50735C15.2672 1.59753 15.3741 1.67847 15.47 1.75115C16.3918 2.44956 16.4725 2.47893 17.6276 2.53646C17.7478 2.54242 17.8816 2.5491 18.0319 2.55746C18.4667 2.58163 18.8118 2.87121 18.9111 3.29514C18.9454 3.4417 18.9752 3.57235 19.002 3.68971C19.2592 4.81721 19.3021 4.89158 20.15 5.6781C20.2382 5.75996 20.3365 5.85107 20.4462 5.95405C20.7637 6.25204 20.8419 6.69567 20.6455 7.08428C20.5776 7.21859 20.5165 7.33786 20.4615 7.44494C19.9338 8.47405 19.9189 8.5586 20.0629 9.70616C20.0778 9.82554 20.0945 9.95849 20.1123 10.1079C20.164 10.5403 19.9388 10.9304 19.5385 11.1018C19.4001 11.1611 19.2767 11.2131 19.1658 11.2599C18.1001 11.709 18.0343 11.7642 17.4069 12.7357C17.3417 12.8369 17.269 12.9494 17.1866 13.0754C16.9483 13.4398 16.5251 13.5939 16.1081 13.4679C15.9641 13.4244 15.8361 13.3849 15.7211 13.3494C15.1684 13.1789 14.8706 13.0937 14.5729 13.0937ZM18.9149 7.41153C18.9149 5.01731 16.9671 3.0695 14.5729 3.0695C12.1787 3.0695 10.2309 5.01731 10.2309 7.41153C10.2309 9.80574 12.1787 11.7536 14.5729 11.7536C16.967 11.7536 18.9149 9.8058 18.9149 7.41153ZM14.5728 10.8786C12.6611 10.8786 11.1059 9.32329 11.1059 7.41153C11.1059 5.49981 12.6611 3.9445 14.5728 3.9445C16.4845 3.9445 18.0399 5.49981 18.0399 7.41153C18.0399 9.32329 16.4845 10.8786 14.5728 10.8786ZM16.9757 6.37996L13.9882 9.0912C13.9046 9.16705 13.7993 9.20473 13.6942 9.20473C13.582 9.20473 13.47 9.1618 13.3848 9.0766L12.1548 7.84656C11.9839 7.67572 11.9839 7.39873 12.1548 7.22788C12.3257 7.05704 12.6026 7.05704 12.7735 7.22788L13.7088 8.1632L16.3877 5.73207C16.5666 5.56976 16.8433 5.5831 17.0057 5.76204C17.168 5.94087 17.1546 6.21759 16.9757 6.37996ZM25.2813 20.7144C25.858 20.1379 26.1509 19.4105 26.1283 18.6109L25.9152 11.0895C25.8942 10.3468 25.1558 9.68133 24.3596 9.68133C24.352 9.68133 24.3444 9.68138 24.3368 9.68149C23.9483 9.68773 22.6818 9.89696 22.691 12.328L22.7066 16.4136C22.707 16.507 22.7011 16.5978 22.6889 16.6862C22.6581 16.6493 22.6251 16.6133 22.5899 16.5781C22.0499 16.0381 21.1656 16.0313 20.5766 16.5625C20.5619 16.5757 20.5481 16.5898 20.5355 16.6049C19.8764 17.3841 19.0667 18.0666 18.4159 18.6149C18.1877 18.8073 17.9723 18.9889 17.7953 19.1483C17.0532 19.8172 16.9542 20.7387 16.9552 21.5519L16.9587 24.4616L16.5814 24.4584C16.3259 24.456 16.0852 24.5539 15.9026 24.7334C15.7199 24.9129 15.6181 25.1523 15.6159 25.4074L15.6061 26.5456C15.6039 26.8007 15.7016 27.0418 15.8811 27.2245C16.0606 27.4071 16.3 27.5089 16.5551 27.5111L22.4677 27.5619C22.4705 27.5619 22.4733 27.562 22.4761 27.562C22.7281 27.562 22.9659 27.4644 23.1466 27.2869C23.3292 27.1073 23.431 26.868 23.4332 26.6129L23.443 25.4747C23.4452 25.2196 23.3475 24.9785 23.168 24.7958C22.9885 24.6131 22.749 24.5114 22.4939 24.5092L22.0075 24.505V23.9883L25.2813 20.7144ZM22.568 25.4672L22.5582 26.6054C22.558 26.6328 22.5445 26.6518 22.5331 26.6629C22.5219 26.6741 22.5043 26.6871 22.4752 26.687L16.5626 26.6362C16.5352 26.636 16.5161 26.6225 16.505 26.6112C16.4939 26.5998 16.4808 26.5806 16.481 26.5532L16.4908 25.415C16.491 25.3876 16.5046 25.3685 16.5159 25.3574C16.527 25.3465 16.5461 25.3334 16.573 25.3334H16.5738H16.5738L22.4864 25.3842C22.5311 25.3846 22.5684 25.4226 22.568 25.4672ZM17.8337 24.4692L17.8302 21.5509C17.8291 20.6598 17.9887 20.1521 18.3812 19.7984C18.5472 19.6486 18.7477 19.4797 18.9798 19.2841C19.6487 18.7203 20.4797 18.02 21.1819 17.1955C21.4275 16.9895 21.7628 16.9886 21.9711 17.1969C22.1928 17.4185 22.1931 17.6822 21.973 17.9807C21.6251 18.3717 21.2594 18.7259 20.8723 19.1004C20.6866 19.2802 20.4944 19.4662 20.3006 19.66C20.1297 19.8309 20.1297 20.1079 20.3006 20.2787C20.3861 20.3641 20.4979 20.4069 20.6099 20.4069C20.7219 20.4069 20.8339 20.3641 20.9193 20.2787C21.108 20.0899 21.2975 19.9065 21.4808 19.7292C21.8852 19.3379 22.2671 18.9683 22.6412 18.5462C22.6432 18.544 22.9342 18.188 22.9342 18.188C23.3723 17.6486 23.5841 17.0672 23.5816 16.4104L23.566 12.3247C23.5619 11.2418 23.8626 10.5643 24.3508 10.5564C24.3538 10.5564 24.3567 10.5564 24.3596 10.5564C24.6845 10.5564 25.0329 10.8405 25.0406 11.1144L25.2536 18.6357C25.2695 19.1966 25.0706 19.6878 24.6626 20.0957L21.2606 23.4977C21.1786 23.5798 21.1325 23.6911 21.1325 23.8071V24.4975L17.8337 24.4692ZM16.9117 25.86C16.9838 25.6785 17.1895 25.5898 17.371 25.662C17.5525 25.7341 17.6412 25.9398 17.569 26.1213C17.4969 26.3028 17.2912 26.3915 17.1097 26.3193C16.9282 26.2471 16.8395 26.0415 16.9117 25.86ZM12.0975 24.7335C11.9149 24.5539 11.6736 24.4565 11.4186 24.4585L11.0414 24.4617L11.0449 21.552C11.0459 20.7388 10.9468 19.8172 10.2048 19.1484C10.0279 18.9889 9.81234 18.8074 9.58418 18.6151C8.93351 18.0667 8.12369 17.3842 7.46466 16.605C7.45197 16.5899 7.43824 16.5758 7.42358 16.5626C6.83433 16.0314 5.94998 16.0383 5.41026 16.5782C5.37499 16.6134 5.34201 16.6494 5.31117 16.6863C5.29898 16.5979 5.29312 16.5072 5.29351 16.4138L5.30909 12.328C5.31828 9.89702 4.05177 9.68784 3.66333 9.68155C3.65567 9.68144 3.64818 9.68138 3.64047 9.68138C2.84427 9.68138 2.10583 10.3469 2.08488 11.0896L1.87182 18.611C1.84923 19.4106 2.14209 20.1379 2.71871 20.7145L5.99258 23.9884V24.5051L5.50613 24.5093C5.25101 24.5115 5.01159 24.6133 4.83211 24.7959C4.65257 24.9786 4.5549 25.2197 4.55709 25.4748L4.56687 26.613C4.56906 26.8681 4.67084 27.1074 4.85349 27.287C5.03412 27.4646 5.27191 27.5621 5.52396 27.5621C5.52675 27.5621 5.52959 27.5621 5.53233 27.562L11.4449 27.5112C11.7 27.509 11.9395 27.4072 12.1189 27.2246C12.2985 27.0419 12.3962 26.8008 12.394 26.5457L12.3842 25.4075C12.382 25.1524 12.2802 24.913 12.0975 24.7335ZM6.86758 23.8071C6.86758 23.691 6.82148 23.5798 6.73944 23.4977L3.33739 20.0957C2.92942 19.6878 2.73058 19.1966 2.74644 18.6357L2.9595 11.1143C2.96732 10.8379 3.32416 10.5517 3.64927 10.5564C4.13741 10.5643 4.43814 11.2418 4.43404 12.3246L4.41845 16.4104C4.41599 17.0672 4.62774 17.6486 5.06661 18.1889L5.34748 18.5328C5.3494 18.5351 5.35694 18.544 5.35891 18.5462C5.73303 18.9683 6.11491 19.3379 6.51927 19.7292C6.70259 19.9066 6.89202 20.0899 7.0808 20.2787C7.16623 20.3641 7.27817 20.4069 7.39017 20.4069C7.50212 20.4069 7.61412 20.3641 7.69948 20.2787C7.87038 20.1079 7.87038 19.8309 7.69954 19.66C7.50573 19.4662 7.31355 19.2802 7.12778 19.1004C6.74076 18.7259 6.37501 18.3717 6.02714 17.9807C5.80708 17.6823 5.8073 17.4186 6.029 17.1969C6.23741 16.9886 6.57259 16.9895 6.81825 17.1955C7.52044 18.0201 8.35136 18.7204 9.02041 19.2842C9.25244 19.4798 9.45287 19.6487 9.61901 19.7985C10.0114 20.1521 10.171 20.6598 10.1699 21.551L10.1664 24.4693L6.86763 24.4976L6.86758 23.8071ZM11.495 26.6112C11.4839 26.6225 11.4648 26.636 11.4374 26.6363L5.52484 26.6871C5.49689 26.6871 5.47813 26.6742 5.46687 26.663C5.45555 26.6519 5.44204 26.6329 5.44182 26.6054L5.43203 25.4673C5.43176 25.4398 5.44494 25.4206 5.45604 25.4093C5.46714 25.398 5.48617 25.3845 5.51357 25.3842L11.4261 25.3334H11.4269C11.4539 25.3334 11.473 25.3465 11.4841 25.3575C11.4955 25.3686 11.509 25.3876 11.5092 25.4151L11.519 26.5532C11.5192 26.5807 11.5061 26.5999 11.495 26.6112ZM11.0884 25.86C11.1605 26.0415 11.0719 26.2471 10.8904 26.3193C10.7089 26.3915 10.5032 26.3028 10.4311 26.1213C10.3589 25.9398 10.4475 25.7342 10.629 25.662C10.8105 25.5898 11.0162 25.6785 11.0884 25.86Z" fill="#E6A424"/>
</svg>
