<svg width="28" height="28" viewBox="0 0 28 28" fill="none" xmlns="http://www.w3.org/2000/svg">
<g clip-path="url(#clip0_55_1393)">
<path d="M2.90639 3.95842C2.82917 3.87999 2.72368 3.83521 2.61343 3.83521C2.50263 3.83521 2.39708 3.87999 2.31992 3.95842L0.144888 6.17348C0.0293875 6.29138 -0.00484685 6.46759 0.059411 6.62028C0.123669 6.77296 0.272802 6.87255 0.438395 6.87255H1.25001V13.0486C1.25001 13.2755 1.43393 13.4594 1.66083 13.4594H3.56351C3.79047 13.4594 3.97493 13.2755 3.97493 13.0486V6.87255H4.786C4.95165 6.87255 5.10078 6.77291 5.16498 6.62028C5.22924 6.46759 5.19566 6.29138 5.07951 6.17348L2.90639 3.95842Z" fill="#E6A424"/>
<path d="M12.9016 2.89275L12.6557 4.17768L13.8016 3.54642C13.8635 3.51224 13.9319 3.49513 14.0002 3.49513C14.0686 3.49513 14.137 3.51224 14.1989 3.54642L15.3447 4.17768L15.0989 2.89275C15.0724 2.75482 15.1189 2.61214 15.2215 2.51611L16.1758 1.62017L14.8779 1.45747C14.7382 1.43981 14.6168 1.35198 14.5573 1.22467L14.0002 0.039917L13.4432 1.22467C13.3837 1.35198 13.2623 1.43981 13.1226 1.45747L11.8247 1.62017L12.779 2.51611C12.8815 2.61214 12.9281 2.75482 12.9016 2.89275Z" fill="#E6A424"/>
<path d="M16.2839 20.7725C16.2839 20.7714 16.2845 20.7707 16.2845 20.7701C16.2945 20.3729 16.2026 20.0758 16.0104 19.8866C15.6821 19.5636 14.9895 19.4651 14.0087 19.6025C13.9733 19.6078 13.9374 19.6078 13.902 19.6037C13.1728 19.5158 12.541 19.2429 12.0164 18.792C11.7128 19.3413 11.5708 20.1047 11.5844 21.1061C11.6864 21.8888 12.0223 22.5708 12.4968 23.0294C12.5781 23.0648 12.643 23.1231 12.686 23.195C13.0456 23.478 13.4681 23.6406 13.9197 23.6406C15.1764 23.6407 16.2149 22.3811 16.2839 20.7725Z" fill="#E6A424"/>
<path d="M20.6305 14.0636H20.2704C19.8932 14.0636 19.5861 14.3695 19.5861 14.7462V16.5327V16.5333V18.5085C19.5861 20.9063 18.0518 23.0347 15.769 23.8045C15.7395 23.8145 15.7089 23.8205 15.6794 23.824C15.67 23.831 15.6611 23.8387 15.6517 23.8458V24.2319C15.6517 25.1431 14.9108 25.884 14.0001 25.884C13.0894 25.884 12.3485 25.1431 12.3485 24.2319V23.9601C12.2543 23.8953 12.1635 23.8252 12.0756 23.7497C9.88006 22.9351 8.4141 20.8462 8.4141 18.5085V14.7462C8.4141 14.3695 8.10758 14.0636 7.73155 14.0636H7.37143C6.99359 14.0636 6.68652 14.3695 6.68652 14.7462V18.5085C6.68652 21.1503 8.1306 23.5988 10.4553 24.8991C10.585 24.9716 10.6658 25.1089 10.6658 25.2574V27.96H17.3346V25.2574C17.3346 25.1089 17.4153 24.9716 17.545 24.8991C19.8697 23.5987 21.3138 21.1503 21.3138 18.5085V14.7462C21.3137 14.3695 21.0072 14.0636 20.6305 14.0636Z" fill="#E6A424"/>
<path d="M17.0323 20.0846C17.3789 19.5147 17.4367 18.8521 17.182 18.1778C17.0117 17.7276 16.6934 17.282 16.2454 16.9277C16.2242 16.9141 16.2042 16.8988 16.1859 16.8818C15.5959 16.4379 14.7937 16.1491 13.8134 16.1974C12.6735 16.2534 11.7092 16.6725 11.1681 17.3474C10.729 17.8956 10.5757 18.5864 10.7125 19.4015C10.7508 19.5607 10.7933 19.7075 10.8386 19.8424C10.9606 19.0201 11.2288 18.3753 11.6473 17.8884C11.7251 17.7983 11.8383 17.7458 11.9573 17.7458H11.9591C12.0776 17.7458 12.1902 17.7971 12.2686 17.8861C12.713 18.3942 13.2635 18.6871 13.9502 18.7808C14.2585 18.7396 14.5432 18.7189 14.8055 18.7189C15.6053 18.7189 16.1924 18.9116 16.5873 19.3001C16.8018 19.5117 16.9504 19.7741 17.0323 20.0846Z" fill="#E6A424"/>
<path d="M13.1807 24.3574C13.2414 24.7552 13.585 25.0618 14 25.0618C14.4326 25.0618 14.7886 24.7282 14.8258 24.3049C14.5387 24.4075 14.2346 24.4629 13.9198 24.4629C13.6652 24.4629 13.4182 24.4257 13.1807 24.3574Z" fill="#E6A424"/>
<path d="M20.7754 9.08356C20.5815 9.08356 20.4135 8.94738 20.3734 8.75702C20.209 7.97427 19.9019 7.23331 19.4604 6.55552C19.3543 6.39282 19.3773 6.17768 19.5147 6.04036L20.219 5.33598C19.8011 4.79195 19.316 4.30682 18.772 3.88775L18.0659 4.59267C17.9286 4.72945 17.714 4.75181 17.5513 4.64632C17.1063 4.35631 16.6324 4.12586 16.1391 3.9543L16.3165 4.88323C16.3466 5.03941 16.2835 5.19916 16.1544 5.29289C16.0825 5.34473 15.9982 5.37131 15.9127 5.37131C15.845 5.37131 15.7766 5.3548 15.7147 5.32062L13.9999 4.37578L12.2853 5.32062C12.1462 5.39723 11.9746 5.38663 11.8456 5.29289C11.7165 5.19916 11.6534 5.03941 11.6835 4.88323L11.8609 3.9543C11.3675 4.1258 10.8936 4.35631 10.4486 4.64632C10.2859 4.75241 10.0708 4.72999 9.93348 4.59207L9.2291 3.8877C8.68447 4.30616 8.19939 4.7919 7.78087 5.33593L8.48524 6.04031C8.62256 6.17763 8.64498 6.39277 8.53949 6.55546C8.098 7.23331 7.79093 7.97422 7.62648 8.75696C7.5864 8.94733 7.4184 9.0835 7.22448 9.0835H6.22774C6.18355 9.423 6.16113 9.76605 6.16113 10.1068C6.16113 10.4475 6.18355 10.7905 6.22774 11.13H7.22448C7.4184 11.13 7.5864 11.2662 7.62648 11.456C7.77091 12.1385 8.02259 12.7869 8.3733 13.3852C8.88255 13.6268 9.23621 14.1461 9.23621 14.7462V16.3188L9.93348 15.6214C10.0708 15.4835 10.2859 15.4617 10.4486 15.5679C10.7504 15.7647 11.0669 15.9345 11.3917 16.076C12.0448 15.6681 12.8665 15.4211 13.773 15.3763C14.8835 15.3215 15.8118 15.6269 16.5239 16.1137C16.8823 15.9622 17.2271 15.7795 17.5507 15.5679C17.7134 15.4618 17.9285 15.4836 18.0658 15.621L18.7637 16.3177V14.7463C18.7637 14.1456 19.118 13.6264 19.6284 13.3853C19.9779 12.7852 20.2297 12.1375 20.3735 11.4561C20.4136 11.2657 20.5816 11.1301 20.7755 11.1301H21.7722C21.8164 10.7906 21.8388 10.4482 21.8388 10.1069C21.8388 9.76616 21.8164 9.42316 21.7722 9.08361L20.7754 9.08356ZM13.9999 14.814C11.4047 14.814 9.29276 12.7021 9.29276 10.1068C9.29276 7.51156 11.4047 5.39964 13.9999 5.39964C16.5952 5.39964 18.7071 7.51156 18.7071 10.1068C18.7071 12.702 16.5952 14.814 13.9999 14.814Z" fill="#E6A424"/>
<path d="M27.8552 6.17348L25.6803 3.95842C25.6031 3.87999 25.4976 3.83521 25.3868 3.83521C25.2766 3.83521 25.171 3.87999 25.0938 3.95842L22.9188 6.17348C22.8033 6.29138 22.7691 6.46759 22.8333 6.62028C22.8976 6.77296 23.0467 6.87255 23.2123 6.87255H24.0252V13.0486C24.0252 13.2755 24.2097 13.4594 24.4366 13.4594H26.3393C26.5662 13.4594 26.7501 13.2755 26.7501 13.0486V6.87255H27.5617C27.7273 6.87255 27.8764 6.77291 27.9407 6.62028C28.0049 6.46759 27.9707 6.29133 27.8552 6.17348Z" fill="#E6A424"/>
<path d="M14.0002 6.2218C11.8582 6.2218 10.1152 7.96475 10.1152 10.1067C10.1152 12.2487 11.8582 13.9917 14.0002 13.9917C16.1422 13.9917 17.8851 12.2487 17.8851 10.1067C17.8851 7.96475 16.1422 6.2218 14.0002 6.2218ZM13.4167 9.69588H14.5837C15.4119 9.69588 15.8457 10.336 15.8457 10.9691C15.8457 11.6015 15.4119 12.2422 14.5837 12.2422H14.411V12.8016C14.411 13.0285 14.2271 13.213 14.0002 13.213C13.7733 13.213 13.5894 13.0285 13.5894 12.8016V12.2422H12.5662C12.3393 12.2422 12.1548 12.0583 12.1548 11.8314C12.1548 11.6039 12.3393 11.42 12.5662 11.42H14.5838C15.0023 11.42 15.0235 11.0446 15.0235 10.9691C15.0235 10.8936 15.0023 10.5176 14.5838 10.5176H13.4167C12.5891 10.5176 12.1564 9.8775 12.1564 9.24443C12.1564 8.61197 12.5891 7.97125 13.4167 7.97125H13.5894V7.41366C13.5894 7.18676 13.7733 7.00225 14.0002 7.00225C14.2271 7.00225 14.411 7.18676 14.411 7.41366V7.97125H15.4342C15.6611 7.97125 15.8457 8.15517 15.8457 8.38267C15.8457 8.60962 15.6611 8.79348 15.4342 8.79348H13.4167C12.9993 8.79348 12.9781 9.16951 12.9781 9.24438C12.9781 9.31985 12.9993 9.69588 13.4167 9.69588Z" fill="#E6A424"/>
</g>
<defs>
<clipPath id="clip0_55_1393">
<rect width="28" height="28" fill="white"/>
</clipPath>
</defs>
</svg>
