<svg width="20" height="28" viewBox="0 0 20 28" fill="none" xmlns="http://www.w3.org/2000/svg">
<path d="M19.547 21.1815C19.5525 26.2579 15.2811 27.1358 10.0054 27.1442C4.73545 27.1526 0.461074 26.2859 0.452652 21.2124C0.449863 19.6894 0.834097 17.9197 1.51282 16.1919C1.6811 15.7656 1.86621 15.3422 2.06812 14.927C3.03292 12.9357 4.37916 11.093 5.96384 9.87016C6.03953 9.8898 6.11527 9.89822 6.19659 9.89822H6.38171L11.1468 9.8898H11.7499L13.5869 9.88701H13.7664C13.8478 9.88701 13.9263 9.8758 14.002 9.85901C17.2724 12.372 19.5414 17.4933 19.547 21.1815Z" fill="#E6A424"/>
<path d="M15.4606 19.6117C15.4606 22.558 13.0736 24.9421 10.133 24.9421C7.2235 24.9421 4.86198 22.6201 4.80265 19.7247C4.7998 19.688 4.7998 19.6484 4.7998 19.6117C4.7998 19.3208 4.82239 19.0383 4.86762 18.7586C5.11054 17.2502 5.98909 15.9536 7.22066 15.1486L7.88445 14.7785C8.56805 14.4621 9.33077 14.2842 10.133 14.2842C11.8589 14.2842 13.3956 15.1062 14.3673 16.383C14.6696 16.7785 14.9181 17.2162 15.1018 17.6852C15.3335 18.2812 15.4606 18.9309 15.4606 19.6117Z" fill="white"/>
<path d="M14.9503 5.09653L12.872 7.90407L12.5214 7.90681L6.89246 7.91523L4.9965 5.32933C4.77496 5.02642 4.82822 4.60018 5.11708 4.36175L6.8784 2.91455L13.1328 3.00987L13.4133 3.0155L14.8185 4.11778C15.1186 4.35332 15.1775 4.78804 14.9503 5.09653Z" fill="white"/>
<path d="M8.12505 5.85471L6.55765 2.16002C6.38757 1.75916 6.61546 1.29667 7.03846 1.19331C9.13305 0.681492 11.2285 0.748703 13.3248 1.39494C13.7491 1.5257 13.9467 2.01565 13.7375 2.40721L12.1449 5.38905" fill="white"/>
<path d="M14.7577 8.89351C14.7582 9.16771 14.6477 9.41577 14.4672 9.59394C14.2896 9.77501 14.0418 9.88625 13.7677 9.88669L6.19631 9.89833C5.64801 9.89915 5.204 9.45657 5.20313 8.90822C5.20269 8.63407 5.31316 8.38606 5.49368 8.20783C5.67131 8.02676 5.91904 7.91553 6.19319 7.91509L13.7646 7.90344C14.3129 7.90262 14.7569 8.34526 14.7577 8.89351Z" fill="white"/>
<path d="M5.97202 16.7486C6.18316 16.4438 5.7216 16.1238 5.51078 16.4295C5.03309 17.1199 4.72361 17.8884 4.59061 18.7138C4.0363 22.1423 6.73326 25.2225 10.133 25.2225C13.2253 25.2225 15.741 22.7054 15.741 19.6116C15.741 18.3737 15.3436 17.1988 14.5907 16.213C12.9639 14.0758 10.128 13.4289 7.74794 14.5335L7.08414 14.9035C6.75859 15.0851 7.03541 15.5744 7.35719 15.3935L8.00223 15.0331C10.0831 14.0697 12.6546 14.5956 14.1446 16.5531C14.8248 17.4439 15.18 18.4991 15.18 19.6116C15.18 22.3962 12.9159 24.6616 10.133 24.6616C7.05663 24.6616 4.6488 21.8661 5.14437 18.8032C5.26398 18.0609 5.54239 17.3697 5.97202 16.7486Z" fill="#E6A424"/>
<path d="M9.16982 20.8517C9.16982 20.4809 8.60889 20.4804 8.60889 20.8517C8.60889 21.5948 9.14466 22.2142 9.85002 22.3463V22.6362C9.85002 23.0071 10.4109 23.0076 10.4109 22.6362V22.3463C11.1163 22.2142 11.6521 21.5948 11.6521 20.8517C11.6521 20.014 10.9695 19.3325 10.1305 19.3325C9.60075 19.3325 9.16976 18.9026 9.16976 18.3743C9.16976 17.8446 9.60075 17.4136 10.1305 17.4136C10.6602 17.4136 11.0912 17.8446 11.0912 18.3743C11.0912 18.7451 11.6521 18.7456 11.6521 18.3743C11.6521 17.6311 11.1163 17.0118 10.4109 16.8796V16.5898C10.4109 16.219 9.85002 16.2185 9.85002 16.5898V16.8796C9.14466 17.0118 8.60889 17.6311 8.60889 18.3743C8.60889 19.212 9.29144 19.8935 10.1305 19.8935C10.6602 19.8935 11.0912 20.3234 11.0912 20.8517C11.0912 22.1232 9.16982 22.1216 9.16982 20.8517Z" fill="#E6A424"/>
<path d="M14.5017 9.9292C14.8615 9.66993 15.039 9.29073 15.0383 8.89304C15.0372 8.19227 14.4668 7.62298 13.7662 7.62298C13.7655 7.62298 13.765 7.62298 13.7643 7.62298L13.4274 7.62352L15.1746 5.26206C15.4972 4.83014 15.4158 4.22716 14.9895 3.89624L13.7706 2.94009L13.9846 2.53939C14.2771 1.99219 13.9998 1.30969 13.4072 1.12692C11.2717 0.468594 9.1064 0.399032 6.97168 0.920969C6.38056 1.0654 6.06157 1.70989 6.29924 2.26962L6.53779 2.83186L4.94004 4.14578C4.5348 4.47872 4.46032 5.07115 4.77034 5.49443L6.33872 7.63446L6.19276 7.63468C5.4786 7.63583 4.9215 8.2188 4.92259 8.90868C4.92325 9.29942 5.09387 9.6713 5.44508 9.92981C4.12853 11.0364 2.92251 12.6006 1.94201 14.5484C1.8719 14.6859 1.92801 14.8541 2.06544 14.9242L2.06823 14.927C2.20566 14.9943 2.37115 14.9382 2.44126 14.8008C3.44975 12.8019 4.69088 11.227 6.03882 10.1636C6.30717 10.1966 5.87421 10.1697 9.62987 10.1735C9.33303 10.713 9.10444 11.2853 8.96405 11.8888C8.87973 12.2518 9.426 12.3791 9.51049 12.0159C9.66263 11.3614 9.9219 10.7438 10.2725 10.1726L11.2692 10.171C11.2751 10.1799 11.2773 10.1902 11.2844 10.1985C12.033 11.0839 12.3448 12.3376 12.0981 13.4705C12.0186 13.8356 12.5672 13.9538 12.6462 13.5899C12.8996 12.4259 12.6358 11.1532 11.9617 10.1699C13.9831 10.1573 13.6901 10.1836 13.9376 10.1504C17.0819 12.6225 19.2612 17.5917 19.2666 21.1815C19.2728 26.1313 14.9768 26.8548 10.0055 26.8638H9.93262C4.41301 26.8638 0.741678 25.8934 0.733256 21.2124C0.730467 19.8129 1.0558 18.203 1.67284 16.5538C1.72895 16.4079 1.656 16.2509 1.51299 16.192H1.5102C1.36435 16.1387 1.20165 16.2116 1.14839 16.3574C0.506139 18.0682 0.169537 19.7455 0.172381 21.2124C0.180803 26.6562 4.8562 27.4247 9.92983 27.4247H10.0084C15.3338 27.4154 19.8336 26.5076 19.8276 21.1815C19.8221 17.5553 17.6575 12.5854 14.5017 9.9292ZM5.22294 5.16291C5.08873 4.97966 5.12089 4.72334 5.29633 4.57913L6.76633 3.37031L7.86686 5.96436C8.01172 6.30566 8.52852 6.08768 8.38316 5.74523L6.81565 2.05054C6.71514 1.81352 6.8448 1.52948 7.1049 1.46577C9.13982 0.968657 11.2045 1.03505 13.2422 1.66297C13.496 1.74128 13.6169 2.03774 13.4901 2.27514L11.8975 5.25687C11.7229 5.5839 12.2171 5.84875 12.3922 5.52117L13.5023 3.44272L14.6447 4.33659C14.827 4.48244 14.8634 4.74051 14.7232 4.92841L12.7302 7.62462L7.03369 7.63337L5.22294 5.16291ZM6.19375 8.19561L13.7651 8.18396H13.7662C14.1579 8.18396 14.4768 8.50224 14.4774 8.89392C14.4779 9.27607 14.1678 9.60573 13.7673 9.60633L6.19594 9.61792C6.1955 9.61792 6.19522 9.61792 6.19484 9.61792C5.80536 9.61792 5.48423 9.30445 5.48369 8.90786C5.48308 8.52199 5.79661 8.19616 6.19375 8.19561Z" fill="#E6A424"/>
</svg>
