<svg width="28" height="28" viewBox="0 0 28 28" fill="none" xmlns="http://www.w3.org/2000/svg">
<g clip-path="url(#clip0_55_1361)">
<path fill-rule="evenodd" clip-rule="evenodd" d="M19.4187 27.9998H5.02295C4.9273 27.9998 4.83608 27.9576 4.7739 27.8851L0.694801 23.1263C0.643777 23.0665 0.615723 22.9909 0.615723 22.9125V3.77681C0.615723 1.69436 2.30984 0.000244141 4.39229 0.000244141H23.2371C23.6691 0.000244141 23.6689 0.656497 23.2371 0.656497H4.39229C2.67176 0.656497 1.27198 2.05628 1.27198 3.77681V22.7912L5.17405 27.3433H19.0905V21.8608C19.0905 21.4289 19.7468 21.429 19.7468 21.8608V27.6715C19.7471 27.8526 19.5998 27.9996 19.4187 27.9996V27.9998ZM19.4187 13.7333C19.2375 13.7333 19.0905 13.5863 19.0905 13.4052V7.59473C19.0905 7.16291 19.7468 7.16291 19.7468 7.59473V13.4052C19.7471 13.5866 19.5998 13.7333 19.4187 13.7333Z" fill="#E6A424"/>
<path fill-rule="evenodd" clip-rule="evenodd" d="M27.0558 7.92306H19.4189C19.2378 7.92306 19.0908 7.77606 19.0908 7.59493V4.14633C19.0908 1.86011 20.9508 0.00012207 23.2372 0.00012207C25.5234 0.00012207 27.3837 1.86011 27.3837 4.14633V7.59477C27.3837 7.77622 27.2367 7.92306 27.0556 7.92306H27.0558ZM19.7474 7.26681H26.7276V4.14633C26.7276 2.22203 25.162 0.656375 23.2377 0.656375C21.3132 0.656375 19.7476 2.22203 19.7476 4.14633V7.26681H19.7474Z" fill="#E6A424"/>
<path fill-rule="evenodd" clip-rule="evenodd" d="M5.02346 27.9997C4.92929 27.9997 4.83774 27.9592 4.77409 27.8851L0.694984 23.1263C0.512873 22.9136 0.66496 22.5844 0.944031 22.5844H5.02346C5.20459 22.5844 5.35159 22.7315 5.35159 22.9125V27.6716C5.35159 27.8537 5.20426 27.9997 5.02346 27.9997ZM1.65754 23.2409L4.69534 26.7849V23.2409H1.65754Z" fill="#E6A424"/>
<path fill-rule="evenodd" clip-rule="evenodd" d="M13.8637 4.09461H3.61012C3.17814 4.09461 3.17814 3.43835 3.61012 3.43835H13.8637C14.2957 3.43835 14.2957 4.09461 13.8637 4.09461Z" fill="#E6A424"/>
<path fill-rule="evenodd" clip-rule="evenodd" d="M13.8637 8.33277H3.61012C3.17814 8.33277 3.17814 7.67651 3.61012 7.67651H13.8637C14.2957 7.67651 14.2957 8.33277 13.8637 8.33277Z" fill="#E6A424"/>
<path fill-rule="evenodd" clip-rule="evenodd" d="M13.8637 12.5709H3.61012C3.17814 12.5709 3.17814 11.9147 3.61012 11.9147H13.8637C14.2957 11.9147 14.2957 12.5709 13.8637 12.5709Z" fill="#E6A424"/>
<path fill-rule="evenodd" clip-rule="evenodd" d="M13.8637 16.8093H3.61012C3.17814 16.8093 3.17814 16.1531 3.61012 16.1531H13.8637C14.2957 16.1531 14.2957 16.8093 13.8637 16.8093Z" fill="#E6A424"/>
<path fill-rule="evenodd" clip-rule="evenodd" d="M13.8637 21.0477H3.61012C3.17814 21.0477 3.17814 20.3915 3.61012 20.3915H13.8637C14.2957 20.3915 14.2957 21.0477 13.8637 21.0477Z" fill="#E6A424"/>
<path fill-rule="evenodd" clip-rule="evenodd" d="M19.44 22.1895C16.9279 22.1895 14.8838 20.1454 14.8838 17.6329C14.8838 15.1208 16.9279 13.0769 19.44 13.0769C21.9521 13.0769 23.9963 15.1208 23.9963 17.6329C23.9963 20.1456 21.9523 22.1895 19.44 22.1895ZM19.44 13.7332C17.2896 13.7332 15.5402 15.4827 15.5402 17.6329C15.5402 19.7835 17.2898 21.533 19.44 21.533C21.5902 21.533 23.3398 19.7835 23.3398 17.6329C23.3398 15.4826 21.5904 13.7332 19.44 13.7332Z" fill="#E6A424"/>
<path fill-rule="evenodd" clip-rule="evenodd" d="M19.4177 17.9616H18.2773C18.0962 17.9616 17.9492 17.8144 17.9492 17.6335V15.2626C17.9492 15.0814 18.0964 14.9344 18.2773 14.9344H19.4177C20.2522 14.9344 20.9312 15.6135 20.9312 16.4481C20.9312 17.2827 20.2522 17.9614 19.4177 17.9614V17.9616ZM18.6056 17.3052H19.4177C20.5457 17.3052 20.5455 15.5905 19.4177 15.5907H18.6056V17.3052Z" fill="#E6A424"/>
<path fill-rule="evenodd" clip-rule="evenodd" d="M19.4177 20.332H18.2773C18.0962 20.332 17.9492 20.1849 17.9492 20.0039V17.6332C17.9492 17.4521 18.0964 17.3051 18.2773 17.3051H19.4177C20.2522 17.3051 20.9312 17.9838 20.9312 18.8185C20.9312 19.6531 20.2522 20.3319 19.4177 20.3319V20.332ZM18.6056 19.6754H19.4177C20.5455 19.6754 20.5458 17.9611 19.4177 17.9613H18.6056V19.6754Z" fill="#E6A424"/>
<path fill-rule="evenodd" clip-rule="evenodd" d="M19.2237 20.8547C18.8097 20.8547 18.8956 20.3518 18.8956 20.0039C18.8956 19.5719 19.5518 19.572 19.5518 20.0039C19.5518 20.3523 19.6376 20.8547 19.2237 20.8547Z" fill="#E6A424"/>
<path fill-rule="evenodd" clip-rule="evenodd" d="M19.2237 15.5908C18.8097 15.5908 18.8956 15.0879 18.8956 14.7399C18.8956 14.308 19.5518 14.3081 19.5518 14.7399C19.5518 15.0884 19.6376 15.5908 19.2237 15.5908Z" fill="#E6A424"/>
</g>
<defs>
<clipPath id="clip0_55_1361">
<rect width="28" height="28" fill="white"/>
</clipPath>
</defs>
</svg>
