<svg width="28" height="28" viewBox="0 0 28 28" fill="none" xmlns="http://www.w3.org/2000/svg">
<g clip-path="url(#clip0_55_1406)">
<path d="M15.9572 10.1887C15.9662 8.95876 14.9426 7.96023 13.7142 7.9935C12.9052 7.9935 12.2471 7.33538 12.2471 6.52644C12.2471 5.81647 12.8247 5.23883 13.5347 5.23883H14.0134C14.7234 5.23883 15.301 5.81647 15.301 6.52644C15.301 6.70765 15.4479 6.85457 15.6291 6.85457C15.8103 6.85457 15.9572 6.70765 15.9572 6.52644C15.9572 5.48436 15.1329 4.63142 14.1022 4.58482V3.89343C14.1022 3.71223 13.9553 3.56531 13.774 3.56531C13.5928 3.56531 13.4459 3.71223 13.4459 3.89343V4.58482C10.7392 4.85645 11.1459 8.65757 13.7741 8.64974C14.6202 8.64935 15.3078 9.34262 15.301 10.1887C15.301 10.8591 14.7556 11.4044 14.0852 11.4044H13.4628C12.7925 11.4044 12.2471 10.8591 12.2471 10.1887C12.2471 10.0075 12.1002 9.86062 11.9189 9.86062C11.7377 9.86062 11.5908 10.0075 11.5908 10.1887C11.5908 11.2153 12.4215 12.0511 13.4459 12.0602V12.7499C13.4459 12.9311 13.5928 13.078 13.774 13.078C13.9553 13.078 14.1022 12.9311 14.1022 12.7499V12.0602C15.1266 12.0511 15.9572 11.2152 15.9572 10.1887Z" fill="#E6A424"/>
<path d="M27.4926 13.2351L22.2867 7.91293C22.1629 7.78638 22.0125 7.69605 21.848 7.64654C21.5856 3.55547 17.8773 0.142947 13.7742 0.218769C4.93468 0.359202 2.60575 12.2411 10.5811 15.7682H7.02054L5.34531 14.0555C5.14957 13.8554 4.88756 13.7452 4.60761 13.7452C4.32771 13.7452 4.0657 13.8554 3.86997 14.0555L0.507812 17.4928C-0.13281 18.1323 0.339285 19.257 1.24552 19.2463C1.24551 19.2463 1.43162 19.2463 1.43162 19.2463V23.9101C1.43162 24.4791 1.89455 24.942 2.46353 24.942H4.84999C4.81348 25.0448 4.79256 25.155 4.79256 25.2701V26.7968C4.79256 27.3396 5.23417 27.7812 5.77693 27.7812H20.0138C20.5566 27.7812 20.9982 27.3396 20.9982 26.7968V25.2701C20.9982 25.1532 20.9766 25.0414 20.939 24.9372C21.4642 24.8896 21.8771 24.4474 21.8771 23.9101V22.77H24.7359C25.3049 22.77 25.7678 22.3071 25.7678 21.7381V14.9886H26.7549C27.6608 14.9992 28.1335 13.8752 27.4926 13.2351ZM6.32765 8.32159C6.32765 4.21549 9.66818 0.874958 13.7743 0.874958C17.5333 0.805751 20.932 3.92173 21.1918 7.66702C21.0501 7.7192 20.9202 7.80155 20.8113 7.91293L15.6054 13.2351C14.9647 13.8747 15.4369 14.9993 16.3431 14.9886C16.3431 14.9886 17.0932 14.9886 17.0932 14.9886C12.2496 17.4757 6.26183 13.7724 6.32765 8.32159ZM7.78365 19.2636H17.3301V21.4466H7.78365V19.2636ZM17.3301 15.7682H16.9693C17.0908 15.7161 17.2113 15.6616 17.3301 15.6035V15.7682ZM17.3301 16.4244V18.6073H8.92369C9.08368 18.2195 9.00132 17.7931 8.70746 17.4928L7.66243 16.4244H17.3301ZM2.08787 23.9101V18.9181C2.08787 18.7369 1.94096 18.59 1.75975 18.59H1.24551C1.01399 18.59 0.92192 18.414 0.899222 18.3601C0.876525 18.3061 0.815055 18.1172 0.976928 17.9517L4.33909 14.5144C4.47937 14.365 4.73597 14.3646 4.87619 14.5144L8.23835 17.9517C8.47208 18.1918 8.30399 18.5891 7.96983 18.59C7.96947 18.5899 7.4559 18.5902 7.45553 18.59C7.26761 18.5894 7.11846 18.7484 7.1274 18.9355C7.12425 20.1532 7.12967 22.7068 7.1274 23.9101C7.1274 24.1173 6.95891 24.2857 6.75175 24.2857C6.10069 24.2849 3.17198 24.2863 2.46353 24.2857C2.25637 24.2857 2.08787 24.1173 2.08787 23.9101ZM20.342 26.7968C20.342 26.9778 20.1948 27.125 20.0138 27.125H5.77693C5.59599 27.125 5.44881 26.9778 5.44881 26.7968V25.2701C5.44881 25.0892 5.59599 24.942 5.77693 24.942H20.0138C20.1948 24.942 20.342 25.0892 20.342 25.2701V26.7968ZM21.2209 23.9101C21.2209 24.1173 21.0524 24.2857 20.8452 24.2857H7.71182C7.75762 24.1692 7.78365 24.0427 7.78365 23.9101V22.1028H17.3301V22.4419C17.3301 22.6231 17.4771 22.77 17.6583 22.77C18.1119 22.77 20.7103 22.7701 21.2209 22.77V23.9101ZM27.1012 14.1024C27.0785 14.1563 26.9864 14.3324 26.7549 14.3324H25.4397C25.2585 14.3324 25.1116 14.4793 25.1116 14.6605V21.7381C25.1116 21.9453 24.9431 22.1138 24.7359 22.1138H18.3621C18.1549 22.1138 17.9864 21.9453 17.9864 21.7381C17.9888 19.6781 17.9847 16.7105 17.9864 14.6605C17.9864 14.4793 17.8395 14.3324 17.6583 14.3324H16.3431C16.1116 14.3324 16.0196 14.1563 15.9969 14.1024C15.9741 14.0484 15.9126 13.8595 16.0745 13.694L21.2804 8.37179C21.3517 8.29895 21.4471 8.25884 21.549 8.25884C21.6509 8.25884 21.7463 8.29895 21.8176 8.37179L27.0234 13.694C27.1853 13.8595 27.1239 14.0485 27.1012 14.1024Z" fill="#E6A424"/>
</g>
<defs>
<clipPath id="clip0_55_1406">
<rect width="28" height="28" fill="white"/>
</clipPath>
</defs>
</svg>
