<svg width="26" height="28" viewBox="0 0 26 28" fill="none" xmlns="http://www.w3.org/2000/svg">
<path fill-rule="evenodd" clip-rule="evenodd" d="M15.9142 17.2102C15.9787 17.3598 16.121 17.4613 16.2835 17.4734C16.2945 17.4742 16.3053 17.4746 16.3162 17.4746C16.4667 17.4746 16.6077 17.397 16.6878 17.2677L17.7478 15.5596L19.7172 15.9629C19.8771 15.9955 20.0415 15.9368 20.1444 15.8104C20.2473 15.684 20.2713 15.5109 20.2069 15.3612L18.7443 11.9654C18.789 11.9464 18.8348 11.9269 18.883 11.9062C19.6373 11.5833 20.0786 10.8188 19.9812 10.0042C19.9631 9.85283 19.9462 9.71819 19.9311 9.59733C19.8703 9.11252 19.8397 8.86917 19.8726 8.68323C19.9054 8.49729 20.0173 8.27903 20.2402 7.84427C20.2958 7.73582 20.3577 7.61513 20.4265 7.47906C20.7967 6.7468 20.6434 5.87754 20.0451 5.31612C19.934 5.21183 19.8345 5.11957 19.7452 5.03667C19.387 4.70438 19.2072 4.53759 19.1128 4.37407C19.0184 4.21056 18.9639 3.97146 18.8552 3.49513C18.8281 3.37635 18.7979 3.24401 18.7631 3.09559C18.576 2.29671 17.8998 1.72938 17.0806 1.68383C16.9285 1.67535 16.7929 1.66863 16.6713 1.66256C16.1832 1.63828 15.9383 1.62608 15.7609 1.56149C15.5835 1.49691 15.388 1.34881 14.9985 1.05372C14.9015 0.980111 14.7932 0.898189 14.6713 0.806861C14.0144 0.315221 13.1318 0.315166 12.4749 0.806861C12.353 0.898189 12.2447 0.980111 12.1477 1.05372C11.7582 1.34881 11.5627 1.49691 11.3853 1.56149C11.2079 1.62608 10.9629 1.63828 10.4749 1.66256C10.3532 1.66863 10.2177 1.67535 10.0656 1.68383C9.24639 1.72938 8.57018 2.29677 8.38309 3.09559C8.34831 3.24401 8.31812 3.3763 8.291 3.49513C8.18233 3.97146 8.12781 4.21061 8.03337 4.37407C7.93898 4.53759 7.75916 4.70438 7.40096 5.03667C7.31166 5.11957 7.21218 5.21183 7.10111 5.31612C6.50288 5.8776 6.34954 6.74685 6.71966 7.47912C6.78841 7.61507 6.85031 7.73577 6.90587 7.84416C7.12884 8.27898 7.24078 8.49724 7.27359 8.68317C7.30641 8.86906 7.27584 9.11242 7.21508 9.59717C7.19993 9.71808 7.18303 9.85278 7.16493 10.0042C7.06758 10.8188 7.50886 11.5833 8.26311 11.9062C8.40322 11.9662 8.52823 12.0189 8.64051 12.0663C8.67463 12.0806 8.70701 12.0943 8.73862 12.1076L6.94448 15.9611C6.87569 16.1089 6.89477 16.2826 6.99387 16.412C7.09302 16.5413 7.25582 16.605 7.41644 16.5768L9.39684 16.2308L10.4069 17.9689C10.4854 18.104 10.6297 18.1865 10.7851 18.1865C10.7916 18.1865 10.7983 18.1864 10.8049 18.1861C10.9678 18.1787 11.113 18.0814 11.1818 17.9337L12.9673 14.0985C13.2537 14.0125 13.4274 13.9691 13.5732 13.9691C13.762 13.9691 13.9964 14.0414 14.4633 14.1855C14.5173 14.2022 14.5745 14.2198 14.6345 14.2382L15.9142 17.2102ZM17.6246 14.6412C17.4451 14.6045 17.2617 14.6834 17.1651 14.8391L16.3863 16.0941L15.6427 14.3677C16.1531 14.2969 16.6202 14.0109 16.9188 13.5543C17.0022 13.4267 17.0758 13.3127 17.1419 13.2104C17.407 12.7999 17.54 12.5939 17.6846 12.4725C17.7495 12.418 17.8311 12.3688 17.9416 12.3139L19.0716 14.9375L17.6246 14.6412ZM10.7419 16.8045L9.99987 15.5275C9.90778 15.369 9.72676 15.2849 9.5463 15.3163L8.09128 15.5705L9.51195 12.5192C9.63888 12.6453 9.77002 12.8482 10.0039 13.2104C10.07 13.3128 10.1436 13.4268 10.227 13.5543C10.5962 14.1188 11.2225 14.423 11.87 14.3815L10.7419 16.8045ZM13.5729 13.0937C13.2752 13.0937 12.9773 13.1789 12.4248 13.3494C12.3098 13.3849 12.1818 13.4244 12.0377 13.4679C11.6212 13.5937 11.1977 13.4398 10.9593 13.0754C10.8769 12.9495 10.8042 12.8369 10.739 12.7358C10.1115 11.7642 10.0458 11.7091 8.98001 11.2599C8.86915 11.2132 8.74567 11.1612 8.60731 11.1019C8.20705 10.9304 7.9818 10.5403 8.03348 10.1079C8.05136 9.95849 8.06804 9.82543 8.08302 9.70605C8.22691 8.5586 8.21198 8.47405 7.68419 7.44483C7.62928 7.33775 7.56819 7.21859 7.50033 7.08433C7.30389 6.69572 7.38215 6.2521 7.69966 5.9541C7.80942 5.85113 7.90764 5.76002 7.99585 5.67815C8.84378 4.89158 8.88666 4.81726 9.14391 3.68977C9.17065 3.57241 9.20045 3.44176 9.2348 3.29514C9.33405 2.87121 9.67919 2.58163 10.114 2.55746C10.2642 2.5491 10.3981 2.54242 10.5183 2.53646C11.6734 2.47893 11.7541 2.44956 12.6759 1.75115C12.7718 1.67847 12.8786 1.59753 12.9991 1.50735C13.3477 1.24644 13.7981 1.24644 14.1468 1.50735C14.2672 1.59753 14.3741 1.67847 14.47 1.75115C15.3918 2.44956 15.4725 2.47893 16.6276 2.53646C16.7478 2.54242 16.8816 2.5491 17.0319 2.55746C17.4667 2.58163 17.8118 2.87121 17.9111 3.29514C17.9454 3.4417 17.9752 3.57235 18.002 3.68971C18.2592 4.81721 18.3021 4.89158 19.15 5.6781C19.2382 5.75996 19.3365 5.85107 19.4462 5.95405C19.7637 6.25204 19.8419 6.69567 19.6455 7.08428C19.5776 7.21859 19.5165 7.33786 19.4615 7.44494C18.9338 8.47405 18.9189 8.5586 19.0629 9.70616C19.0778 9.82554 19.0945 9.95849 19.1123 10.1079C19.164 10.5403 18.9388 10.9304 18.5385 11.1018C18.4001 11.1611 18.2767 11.2131 18.1658 11.2599C17.1001 11.709 17.0343 11.7642 16.4069 12.7357C16.3417 12.8369 16.269 12.9494 16.1866 13.0754C15.9483 13.4398 15.5251 13.5939 15.1081 13.4679C14.9641 13.4244 14.8361 13.3849 14.7211 13.3494C14.1684 13.1789 13.8706 13.0937 13.5729 13.0937ZM17.9149 7.41153C17.9149 5.01731 15.9671 3.0695 13.5729 3.0695C11.1787 3.0695 9.23091 5.01731 9.23091 7.41153C9.23091 9.80574 11.1787 11.7536 13.5729 11.7536C15.967 11.7536 17.9149 9.8058 17.9149 7.41153ZM13.5728 10.8786C11.6611 10.8786 10.1059 9.32329 10.1059 7.41153C10.1059 5.49981 11.6611 3.9445 13.5728 3.9445C15.4845 3.9445 17.0399 5.49981 17.0399 7.41153C17.0399 9.32329 15.4845 10.8786 13.5728 10.8786ZM15.9757 6.37996L12.9882 9.0912C12.9046 9.16705 12.7993 9.20473 12.6942 9.20473C12.582 9.20473 12.47 9.1618 12.3848 9.0766L11.1548 7.84656C10.9839 7.67572 10.9839 7.39873 11.1548 7.22788C11.3257 7.05704 11.6026 7.05704 11.7735 7.22788L12.7088 8.1632L15.3877 5.73207C15.5666 5.56976 15.8433 5.5831 16.0057 5.76204C16.168 5.94087 16.1546 6.21759 15.9757 6.37996ZM24.2813 20.7144C24.858 20.1379 25.1509 19.4105 25.1283 18.6109L24.9152 11.0895C24.8942 10.3468 24.1558 9.68133 23.3596 9.68133C23.352 9.68133 23.3444 9.68138 23.3368 9.68149C22.9483 9.68773 21.6818 9.89696 21.691 12.328L21.7066 16.4136C21.707 16.507 21.7011 16.5978 21.6889 16.6862C21.6581 16.6493 21.6251 16.6133 21.5899 16.5781C21.0499 16.0381 20.1656 16.0313 19.5766 16.5625C19.5619 16.5757 19.5481 16.5898 19.5355 16.6049C18.8764 17.3841 18.0667 18.0666 17.4159 18.6149C17.1877 18.8073 16.9723 18.9889 16.7953 19.1483C16.0532 19.8172 15.9542 20.7387 15.9552 21.5519L15.9587 24.4616L15.5814 24.4584C15.3259 24.456 15.0852 24.5539 14.9026 24.7334C14.7199 24.9129 14.6181 25.1523 14.6159 25.4074L14.6061 26.5456C14.6039 26.8007 14.7016 27.0418 14.8811 27.2245C15.0606 27.4071 15.3 27.5089 15.5551 27.5111L21.4677 27.5619C21.4705 27.5619 21.4733 27.562 21.4761 27.562C21.7281 27.562 21.9659 27.4644 22.1466 27.2869C22.3292 27.1073 22.431 26.868 22.4332 26.6129L22.443 25.4747C22.4452 25.2196 22.3475 24.9785 22.168 24.7958C21.9885 24.6131 21.749 24.5114 21.4939 24.5092L21.0075 24.505V23.9883L24.2813 20.7144ZM21.568 25.4672L21.5582 26.6054C21.558 26.6328 21.5445 26.6518 21.5331 26.6629C21.5219 26.6741 21.5043 26.6871 21.4752 26.687L15.5626 26.6362C15.5352 26.636 15.5161 26.6225 15.505 26.6112C15.4939 26.5998 15.4808 26.5806 15.481 26.5532L15.4908 25.415C15.491 25.3876 15.5046 25.3685 15.5159 25.3574C15.527 25.3465 15.5461 25.3334 15.573 25.3334H15.5738H15.5738L21.4864 25.3842C21.5311 25.3846 21.5684 25.4226 21.568 25.4672ZM16.8337 24.4692L16.8302 21.5509C16.8291 20.6598 16.9887 20.1521 17.3812 19.7984C17.5472 19.6486 17.7477 19.4797 17.9798 19.2841C18.6487 18.7203 19.4797 18.02 20.1819 17.1955C20.4275 16.9895 20.7628 16.9886 20.9711 17.1969C21.1928 17.4185 21.1931 17.6822 20.973 17.9807C20.6251 18.3717 20.2594 18.7259 19.8723 19.1004C19.6866 19.2802 19.4944 19.4662 19.3006 19.66C19.1297 19.8309 19.1297 20.1079 19.3006 20.2787C19.3861 20.3641 19.4979 20.4069 19.6099 20.4069C19.7219 20.4069 19.8339 20.3641 19.9193 20.2787C20.108 20.0899 20.2975 19.9065 20.4808 19.7292C20.8852 19.3379 21.2671 18.9683 21.6412 18.5462C21.6432 18.544 21.9342 18.188 21.9342 18.188C22.3723 17.6486 22.5841 17.0672 22.5816 16.4104L22.566 12.3247C22.5619 11.2418 22.8626 10.5643 23.3508 10.5564C23.3538 10.5564 23.3567 10.5564 23.3596 10.5564C23.6845 10.5564 24.0329 10.8405 24.0406 11.1144L24.2536 18.6357C24.2695 19.1966 24.0706 19.6878 23.6626 20.0957L20.2606 23.4977C20.1786 23.5798 20.1325 23.6911 20.1325 23.8071V24.4975L16.8337 24.4692ZM15.9117 25.86C15.9838 25.6785 16.1895 25.5898 16.371 25.662C16.5525 25.7341 16.6412 25.9398 16.569 26.1213C16.4969 26.3028 16.2912 26.3915 16.1097 26.3193C15.9282 26.2471 15.8395 26.0415 15.9117 25.86ZM11.0975 24.7335C10.9149 24.5539 10.6736 24.4565 10.4186 24.4585L10.0414 24.4617L10.0449 21.552C10.0459 20.7388 9.94683 19.8172 9.20477 19.1484C9.02791 18.9889 8.81234 18.8074 8.58418 18.6151C7.93351 18.0667 7.12369 17.3842 6.46466 16.605C6.45197 16.5899 6.43824 16.5758 6.42358 16.5626C5.83433 16.0314 4.94998 16.0383 4.41026 16.5782C4.37499 16.6134 4.34201 16.6494 4.31117 16.6863C4.29898 16.5979 4.29312 16.5072 4.29351 16.4138L4.30909 12.328C4.31828 9.89702 3.05177 9.68784 2.66333 9.68155C2.65567 9.68144 2.64818 9.68138 2.64047 9.68138C1.84427 9.68138 1.10583 10.3469 1.08488 11.0896L0.87182 18.611C0.849234 19.4106 1.14209 20.1379 1.71871 20.7145L4.99258 23.9884V24.5051L4.50613 24.5093C4.25101 24.5115 4.01159 24.6133 3.83211 24.7959C3.65257 24.9786 3.5549 25.2197 3.55709 25.4748L3.56687 26.613C3.56906 26.8681 3.67084 27.1074 3.85349 27.287C4.03412 27.4646 4.27191 27.5621 4.52396 27.5621C4.52675 27.5621 4.52959 27.5621 4.53233 27.562L10.4449 27.5112C10.7 27.509 10.9395 27.4072 11.1189 27.2246C11.2985 27.0419 11.3962 26.8008 11.394 26.5457L11.3842 25.4075C11.382 25.1524 11.2802 24.913 11.0975 24.7335ZM5.86758 23.8071C5.86758 23.691 5.82148 23.5798 5.73944 23.4977L2.33739 20.0957C1.92942 19.6878 1.73058 19.1966 1.74644 18.6357L1.9595 11.1143C1.96732 10.8379 2.32416 10.5517 2.64927 10.5564C3.13741 10.5643 3.43814 11.2418 3.43404 12.3246L3.41845 16.4104C3.41599 17.0672 3.62774 17.6486 4.06661 18.1889L4.34748 18.5328C4.3494 18.5351 4.35694 18.544 4.35891 18.5462C4.73303 18.9683 5.11491 19.3379 5.51927 19.7292C5.70259 19.9066 5.89202 20.0899 6.0808 20.2787C6.16623 20.3641 6.27817 20.4069 6.39017 20.4069C6.50212 20.4069 6.61412 20.3641 6.69948 20.2787C6.87038 20.1079 6.87038 19.8309 6.69954 19.66C6.50573 19.4662 6.31355 19.2802 6.12778 19.1004C5.74076 18.7259 5.37501 18.3717 5.02714 17.9807C4.80708 17.6823 4.8073 17.4186 5.029 17.1969C5.23741 16.9886 5.57259 16.9895 5.81825 17.1955C6.52044 18.0201 7.35136 18.7204 8.02041 19.2842C8.25244 19.4798 8.45287 19.6487 8.61901 19.7985C9.0114 20.1521 9.17103 20.6598 9.16994 21.551L9.16644 24.4693L5.86763 24.4976L5.86758 23.8071ZM10.495 26.6112C10.4839 26.6225 10.4648 26.636 10.4374 26.6363L4.52484 26.6871C4.49689 26.6871 4.47813 26.6742 4.46687 26.663C4.45555 26.6519 4.44204 26.6329 4.44182 26.6054L4.43203 25.4673C4.43176 25.4398 4.44494 25.4206 4.45604 25.4093C4.46714 25.398 4.48617 25.3845 4.51357 25.3842L10.4261 25.3334H10.4269C10.4539 25.3334 10.473 25.3465 10.4841 25.3575C10.4955 25.3686 10.509 25.3876 10.5092 25.4151L10.519 26.5532C10.5192 26.5807 10.5061 26.5999 10.495 26.6112ZM10.0884 25.86C10.1605 26.0415 10.0719 26.2471 9.89039 26.3193C9.70888 26.3915 9.5032 26.3028 9.43107 26.1213C9.35888 25.9398 9.44753 25.7342 9.62904 25.662C9.81055 25.5898 10.0162 25.6785 10.0884 25.86Z" fill="#E6A424"/>
</svg>
