<svg width="24" height="28" viewBox="0 0 24 28" fill="none" xmlns="http://www.w3.org/2000/svg">
<path d="M15.7561 11.9991C15.6255 11.9991 15.502 12.059 15.4211 12.1615L13.9554 14.0146L12.6824 9.62888C12.634 9.46137 12.4884 9.34013 12.3148 9.32285C12.1409 9.30535 11.9744 9.39525 11.8934 9.55024L10.8261 11.5939L9.82312 7.71963C9.7785 7.54605 9.62997 7.41901 9.45136 7.40151C9.27444 7.38439 9.10256 7.47977 9.02496 7.64099L6.75395 12.3484H3.47073C3.23459 12.3484 3.04346 12.5397 3.04346 12.7757C3.04346 13.0117 3.23453 13.203 3.47073 13.203H7.02219C7.18614 13.203 7.33555 13.1091 7.40686 12.9614L9.28817 9.06215L10.277 12.8827C10.3213 13.0538 10.4665 13.18 10.6417 13.2002C10.8253 13.2215 10.9876 13.1299 11.0693 12.9735L12.1583 10.8885L13.3662 15.0492C13.4105 15.2027 13.5373 15.3187 13.6942 15.3494C13.8497 15.38 14.0116 15.3215 14.1114 15.195L15.963 12.8537H20.5305C20.7666 12.8537 20.9578 12.6624 20.9578 12.4264C20.9578 12.1904 20.7667 11.9991 20.5305 11.9991H15.7561Z" fill="#E6A424"/>
<path d="M6.19926 2.99988H2.83046C1.6205 2.99988 0.63623 3.98415 0.63623 5.19389V17.5627C0.63623 18.7725 1.6205 19.7565 2.83046 19.7565H9.36381C9.78343 21.1803 9.78343 22.619 9.36381 24.0428H8.74097C7.12086 24.0428 5.78101 25.2536 5.57107 26.8173H4.38927C4.15313 26.8173 3.962 27.0086 3.962 27.2446C3.962 27.4806 4.15307 27.6719 4.38922 27.6719H19.6111C19.8472 27.6719 20.0384 27.4806 20.0384 27.2446C20.0384 27.0086 19.8473 26.8173 19.6111 26.8173H18.4297C18.2197 25.2536 16.8799 24.0428 15.2598 24.0428H14.6483C14.2833 22.6189 14.2833 21.1804 14.6483 19.7565H21.1703C22.3799 19.7565 23.3641 18.7725 23.3641 17.5627V5.19389C23.3641 3.98415 22.3798 2.99988 21.1703 2.99988H17.8013C17.7623 2.94153 17.7184 2.88635 17.6656 2.83839V2.83817C16.8361 2.08343 14.6235 0.328125 12.0004 0.328125C9.376 0.328125 7.16428 2.08365 6.33522 2.83801C6.28233 2.88602 6.23831 2.94137 6.19926 2.99988ZM17.5684 26.8174H6.43245C6.63397 25.7263 7.59237 24.8973 8.74097 24.8973H15.2598C16.4084 24.8973 17.3668 25.7263 17.5684 26.8174ZM13.7628 24.0428H10.2576C10.6347 22.6181 10.6347 21.1812 10.2576 19.7566H13.7628C13.4311 21.181 13.4311 22.6184 13.7628 24.0428ZM22.5096 5.19389V17.5627C22.5096 18.3012 21.9088 18.902 21.1703 18.902C16.4097 18.902 13.6854 18.902 9.68351 18.902H2.83046C2.09152 18.902 1.49072 18.3012 1.49072 17.5627V5.19389C1.49072 4.45517 2.09152 3.85438 2.83046 3.85438H6.13484C6.18324 3.95697 6.24985 4.05114 6.33522 4.12869C7.16466 4.88245 9.37726 6.63562 12.0004 6.63562C14.6231 6.63562 16.8357 4.88239 17.6648 4.12891C17.7504 4.05125 17.8171 3.95708 17.8654 3.85438H21.1703C21.9088 3.85438 22.5096 4.45517 22.5096 5.19389ZM12.002 1.18278C14.3006 1.18278 16.3129 2.79349 17.0906 3.49415C16.3343 4.18201 14.3263 5.77992 12.002 5.77992C9.67356 5.77992 7.66549 4.18201 6.90927 3.4685C7.66549 2.7807 9.67356 1.18278 12.002 1.18278Z" fill="#E6A424"/>
<path d="M13.8642 3.48177C13.8642 2.45391 13.0281 1.6178 12.0004 1.6178C10.9723 1.6178 10.1362 2.45391 10.1362 3.48177C10.1362 4.50962 10.9723 5.34574 12.0004 5.34574C13.0281 5.34574 13.8642 4.50962 13.8642 3.48177ZM12.0005 4.49124C11.4439 4.49124 10.9908 4.03832 10.9908 3.48177C10.9908 2.92521 11.4439 2.47229 12.0005 2.47229C12.557 2.47229 13.0098 2.92521 13.0098 3.48177C13.0098 4.03832 12.557 4.49124 12.0005 4.49124Z" fill="#E6A424"/>
</svg>
