<svg width="28" height="22" viewBox="0 0 28 22" fill="none" xmlns="http://www.w3.org/2000/svg">
<path d="M26.5939 10.4286C26.0386 9.66881 25.3454 9.02968 24.5535 8.54748C24.5746 8.30773 24.5856 8.06534 24.5856 7.82208C24.5886 6.21218 24.1102 4.64114 23.2166 3.32649C22.5589 2.35753 21.6999 1.55491 20.7033 0.978137C19.589 0.336578 18.3362 0 17.0626 0C15.7889 0 14.5361 0.336578 13.4218 0.978137C12.3984 1.57006 11.5203 2.3999 10.8562 3.40289C10.7447 3.57063 10.6408 3.74276 10.5429 3.9184C9.34134 3.66287 8.10168 3.67184 6.9037 3.94472C5.70572 4.2176 4.57597 4.74836 3.5872 5.5028C2.59842 6.25725 1.77255 7.21867 1.16274 8.32515C0.552939 9.43163 0.172725 10.6587 0.046584 11.9272C-0.0795576 13.1958 0.0511698 14.4777 0.430348 15.6905C0.809526 16.9034 1.42875 18.0202 2.24815 18.9691C3.06754 19.9179 4.06895 20.6779 5.18789 21.1999C6.30683 21.7219 7.5185 21.9945 8.74487 22H21.058C22.8985 21.9979 24.6631 21.2367 25.9645 19.8833C27.2659 18.53 27.998 16.695 28 14.7811C28.0039 13.209 27.5097 11.6794 26.5939 10.4286ZM21.058 18.2913H8.74487C7.36067 18.2913 6.03316 17.7195 5.05438 16.7017C4.0756 15.6838 3.52572 14.3033 3.52572 12.8639C3.52572 11.4245 4.0756 10.044 5.05438 9.02618C6.03316 8.00835 7.36067 7.43654 8.74487 7.43654C9.4607 7.43486 10.169 7.58799 10.8249 7.88619C11.058 7.9923 11.3101 8.0453 11.5645 8.04162C11.8189 8.03794 12.0695 7.97766 12.2996 7.86484C12.5297 7.75202 12.7339 7.58928 12.8985 7.38755C13.0631 7.18582 13.1842 6.94979 13.2538 6.69532C13.3709 6.27034 13.5534 5.86788 13.7943 5.50358C14.1438 4.97376 14.6062 4.53497 15.1455 4.22139C15.7303 3.88501 16.3876 3.70855 17.0558 3.70855C17.7241 3.70855 18.3814 3.88501 18.9661 4.22139C19.4926 4.52586 19.9463 4.94969 20.2937 5.46143C20.6441 5.97996 20.8745 6.57573 20.9668 7.20219C21.0591 7.82865 21.0108 8.46881 20.8258 9.07266C20.7533 9.30756 20.7266 9.55515 20.7473 9.80091C20.768 10.0467 20.8357 10.2857 20.9464 10.5039C21.057 10.7221 21.2085 10.9151 21.3918 11.0717C21.5751 11.2283 21.7867 11.3453 22.014 11.4157C22.7886 11.6591 23.4534 12.1835 23.8875 12.8935C24.3217 13.6035 24.4964 14.452 24.3798 15.2846C24.2632 16.1173 23.8631 16.8787 23.2522 17.4305C22.6414 17.9823 21.8604 18.2877 21.0513 18.2913H21.058Z" fill="#E6A424"/>
</svg>
