<svg width="28" height="28" viewBox="0 0 28 28" fill="none" xmlns="http://www.w3.org/2000/svg">
<path d="M14.6093 20.475H13.391C12.9592 20.475 12.608 20.1237 12.608 19.692C12.608 19.2164 12.3001 18.9194 12.012 18.8C11.724 18.6807 11.2962 18.6729 10.9599 19.0093C10.8121 19.1571 10.6154 19.2386 10.4062 19.2386C10.197 19.2386 10.0004 19.1571 9.85256 19.0092L8.99102 18.1477C8.68575 17.8424 8.68575 17.3457 8.99102 17.0404C9.3268 16.7046 9.31876 16.2769 9.19938 15.9886C9.07988 15.7004 8.78315 15.3922 8.30835 15.3922C7.87659 15.3922 7.52539 15.041 7.52539 14.6093V13.391C7.52539 12.9592 7.87665 12.608 8.30835 12.608C8.78315 12.608 9.07988 12.2999 9.19938 12.0116C9.31881 11.7233 9.3268 11.2956 8.99102 10.9599C8.84314 10.8121 8.76171 10.6154 8.76171 10.4062C8.76171 10.197 8.8432 10.0004 8.99107 9.85256L9.85256 8.99102C10.0004 8.8432 10.197 8.76171 10.4062 8.76171C10.6154 8.76171 10.8121 8.84314 10.9599 8.99102C11.2956 9.3268 11.7233 9.31865 12.0116 9.19938C12.2999 9.07994 12.608 8.7832 12.608 8.30841C12.608 7.87659 12.9592 7.52539 13.391 7.52539H14.6093C15.041 7.52539 15.3922 7.87665 15.3922 8.30841C15.3922 8.7832 15.7004 9.07988 15.9886 9.19938C16.277 9.31876 16.7047 9.32674 17.0404 8.99102C17.3457 8.6858 17.8424 8.68575 18.1477 8.99102L19.0093 9.85256C19.1571 10.0004 19.2386 10.197 19.2386 10.4062C19.2386 10.6154 19.1571 10.8121 19.0093 10.9599C18.6735 11.2957 18.6815 11.7233 18.8009 12.0116C18.9204 12.2999 19.2171 12.608 19.6919 12.608C20.1236 12.608 20.4748 12.9592 20.4748 13.391V14.6093C20.4748 15.041 20.1236 15.3922 19.6919 15.3922C19.2171 15.3922 18.9204 15.7004 18.8009 15.9886C18.6815 16.2769 18.6735 16.7047 19.0093 17.0404C19.3145 17.3457 19.3145 17.8424 19.0093 18.1477L18.1477 19.0093C17.8423 19.3146 17.3457 19.3145 17.0404 19.0093C16.7046 18.6735 16.277 18.6816 15.9886 18.8009C15.7004 18.9204 15.3922 19.2171 15.3922 19.6919C15.3923 20.1237 15.041 20.475 14.6093 20.475ZM11.6315 17.9565C11.8561 17.9565 12.0841 18.0011 12.305 18.0927C12.9642 18.3657 13.3736 18.9785 13.3736 19.6919C13.3736 19.7015 13.3814 19.7093 13.391 19.7093H14.6093C14.6189 19.7093 14.6266 19.7015 14.6266 19.6919C14.6266 18.9792 15.0362 18.3667 15.6956 18.0936C16.3551 17.8203 17.0778 17.9639 17.5818 18.4678C17.5885 18.4746 17.5995 18.4747 17.6063 18.4678L18.4679 17.6063C18.4746 17.5995 18.4746 17.5885 18.4679 17.5818C17.9639 17.0777 17.8205 16.355 18.0936 15.6956C18.3667 15.0362 18.9791 14.6266 19.6919 14.6266C19.7015 14.6266 19.7093 14.6187 19.7093 14.6092V13.3909C19.7093 13.3813 19.7015 13.3736 19.6919 13.3736C18.9792 13.3736 18.3668 12.964 18.0936 12.3045C17.8205 11.6451 17.9639 10.9224 18.4679 10.4184C18.4694 10.4169 18.473 10.4133 18.473 10.4061C18.473 10.3989 18.4695 10.3954 18.4679 10.3939L17.6063 9.53231C17.5995 9.52542 17.5885 9.52553 17.5818 9.53231C17.0777 10.0363 16.355 10.1797 15.6956 9.90654C15.0362 9.63343 14.6266 9.02104 14.6266 8.30824C14.6266 8.29862 14.6188 8.29085 14.6093 8.29085H13.391C13.3814 8.29085 13.3736 8.29867 13.3736 8.30824C13.3736 9.02098 12.964 9.63337 12.3046 9.90654C11.6451 10.1798 10.9225 10.0362 10.4185 9.53231C10.417 9.53078 10.4134 9.52717 10.4062 9.52717C10.399 9.52717 10.3955 9.53067 10.3939 9.53226L9.53237 10.3939C9.53078 10.3954 9.52723 10.3989 9.52723 10.4061C9.52723 10.4133 9.53078 10.4169 9.53237 10.4184C10.0363 10.9224 10.1798 11.6452 9.90659 12.3045C9.63348 12.964 9.02104 13.3736 8.30824 13.3736C8.29867 13.3736 8.29091 13.3814 8.29091 13.3909V14.6092C8.29091 14.6188 8.29873 14.6266 8.30824 14.6266C9.02098 14.6266 9.63343 15.0362 9.90659 15.6956C10.1798 16.3551 10.0364 17.0778 9.53237 17.5818C9.52559 17.5885 9.52559 17.5995 9.53237 17.6063L10.3939 18.4678C10.3954 18.4694 10.399 18.473 10.4062 18.473C10.4134 18.473 10.4169 18.4694 10.4185 18.4678C10.7539 18.1325 11.186 17.9565 11.6315 17.9565ZM14.0002 17.36C12.1475 17.36 10.6403 15.8527 10.6403 14.0001C10.6403 12.1475 12.1475 10.6402 14.0002 10.6402C15.8528 10.6402 17.3601 12.1475 17.3601 14.0001C17.3601 15.8528 15.8528 17.36 14.0002 17.36ZM14.0002 11.4059C12.5697 11.4059 11.4059 12.5696 11.4059 14.0001C11.4059 15.4306 12.5697 16.5944 14.0002 16.5944C15.4307 16.5944 16.5944 15.4306 16.5944 14.0001C16.5944 12.5697 15.4306 11.4059 14.0002 11.4059Z" fill="#E6A424"/>
<path d="M24.7046 26.7218C24.6588 26.7218 24.6125 26.7136 24.5679 26.6965C24.4197 26.6398 24.3219 26.4976 24.3219 26.339V25.1634H14C7.84444 25.1634 2.83654 20.1555 2.83654 14C2.83654 11.3605 3.77547 8.79895 5.48041 6.78711C5.55315 6.7013 5.6599 6.65175 5.77244 6.65175H9.13392C9.30104 6.65175 9.44881 6.76009 9.49901 6.9195C9.54927 7.07886 9.49032 7.25239 9.35344 7.3482C7.1824 8.8678 5.88625 11.3545 5.88625 14C5.88625 18.474 9.52614 22.1138 14.0001 22.1138H24.322V20.9383C24.322 20.7796 24.4198 20.6374 24.568 20.5807C24.7163 20.524 24.8839 20.5647 24.9898 20.6828L27.4102 23.3831C27.5405 23.5285 27.5405 23.7487 27.4102 23.8941L24.9898 26.5945C24.9157 26.6771 24.8113 26.7218 24.7046 26.7218ZM5.95176 7.41743C4.43533 9.26997 3.60217 11.6004 3.60217 14C3.60217 19.7334 8.26663 24.3978 14 24.3978H24.7047C24.9161 24.3978 25.0875 24.5692 25.0875 24.7806V25.3383L26.6109 23.6386L25.0875 21.9389V22.4966C25.0875 22.7081 24.9161 22.8794 24.7047 22.8794H14C9.1039 22.8794 5.12057 18.8961 5.12057 14C5.12057 11.4793 6.19561 9.0906 8.04165 7.41743H5.95176ZM3.29537 26.7218C3.18862 26.7218 3.08428 26.6771 3.01018 26.5945L0.589928 23.8941C0.459607 23.7487 0.459607 23.5285 0.589928 23.3831L3.01018 20.6828C3.11605 20.5647 3.28372 20.524 3.43204 20.5807C3.58024 20.6374 3.67808 20.7796 3.67808 20.9383V22.1138H5.09038C5.195 22.1138 5.29508 22.1566 5.36732 22.2324C6.20726 23.1127 7.1725 23.8574 8.23617 24.4456C8.38891 24.5301 8.4652 24.7072 8.42156 24.8763C8.37797 25.0453 8.22551 25.1634 8.05094 25.1634H3.67808V26.339C3.67808 26.4976 3.58024 26.6398 3.43204 26.6965C3.38747 26.7136 3.3412 26.7218 3.29537 26.7218ZM1.38902 23.6386L2.9124 25.3383V24.7806C2.9124 24.5692 3.08379 24.3978 3.29521 24.3978H6.71646C6.07585 23.9486 5.47751 23.4408 4.92796 22.8794H3.29526C3.08384 22.8794 2.91245 22.7081 2.91245 22.4966V21.9389L1.38902 23.6386ZM22.2276 21.3482H18.8661C18.699 21.3482 18.5512 21.2399 18.501 21.0805C18.4508 20.9211 18.5097 20.7476 18.6466 20.6518C20.8176 19.1322 22.1137 16.6455 22.1137 13.9999C22.1137 9.52597 18.4739 5.88618 14 5.88618H3.67808V7.06169C3.67808 7.22034 3.58024 7.36253 3.43204 7.41924C3.28372 7.47595 3.11605 7.43526 3.01018 7.31719L0.589928 4.61689C0.459607 4.47147 0.459607 4.2513 0.589928 4.10589L3.01018 1.40553C3.11605 1.28746 3.28372 1.24677 3.43204 1.30348C3.58024 1.36019 3.67808 1.50238 3.67808 1.66103V2.83659H14C20.1555 2.83659 25.1634 7.84449 25.1634 14C25.1634 16.6395 24.2245 19.201 22.5196 21.2129C22.4469 21.2987 22.3401 21.3482 22.2276 21.3482ZM19.9584 20.5826H22.0483C23.5647 18.73 24.3978 16.3996 24.3978 14C24.3978 8.26662 19.7334 3.60222 14 3.60222H3.29526C3.08384 3.60222 2.91245 3.43082 2.91245 3.2194V2.6617L1.38908 4.36139L2.91245 6.06107V5.50343C2.91245 5.292 3.08384 5.12061 3.29526 5.12061H14C18.8961 5.12061 22.8794 9.10389 22.8794 14C22.8794 16.5207 21.8044 18.9095 19.9584 20.5826ZM24.7046 7.44456C24.6588 7.44456 24.6125 7.43636 24.5679 7.41929C24.4197 7.36258 24.3219 7.2204 24.3219 7.06175V5.88624H22.9096C22.805 5.88624 22.7049 5.84342 22.6327 5.76762C21.7931 4.88754 20.828 4.14291 19.7639 3.55436C19.6111 3.46987 19.5348 3.29279 19.5785 3.12375C19.6221 2.95472 19.7745 2.83659 19.9491 2.83659H24.3219V1.66103C24.3219 1.50238 24.4197 1.36019 24.5679 1.30348C24.7162 1.24677 24.8839 1.28746 24.9898 1.40553L27.4101 4.10589C27.5404 4.2513 27.5404 4.47147 27.4101 4.61689L24.9898 7.31725C24.9157 7.39988 24.8113 7.44456 24.7046 7.44456ZM23.0721 5.12061H24.7047C24.9161 5.12061 25.0875 5.292 25.0875 5.50343V6.06107L26.6109 4.36139L25.0875 2.6617V3.2194C25.0875 3.43082 24.9161 3.60222 24.7047 3.60222H21.2835C21.9244 4.05158 22.5227 4.5593 23.0721 5.12061Z" fill="#E6A424"/>
</svg>
