<svg width="28" height="28" viewBox="0 0 28 28" fill="none" xmlns="http://www.w3.org/2000/svg">
<g clip-path="url(#clip0_56_1462)">
<path d="M9.44727 13.9236C9.7493 13.9236 9.99414 13.6787 9.99414 13.3767C9.99414 13.0747 9.7493 12.8298 9.44727 12.8298C9.14523 12.8298 8.90039 13.0747 8.90039 13.3767C8.90039 13.6787 9.14523 13.9236 9.44727 13.9236Z" fill="#E6A424"/>
<path d="M13.5849 8.55872C11.9203 8.55872 10.3891 9.39604 9.48898 10.7986C9.32552 11.0532 9.39952 11.3922 9.6542 11.5556C9.90888 11.7191 10.2478 11.6451 10.4113 11.3904C11.1089 10.3035 12.2953 9.65454 13.5849 9.65454C15.6625 9.65454 17.3528 11.3448 17.3528 13.4224C17.3528 15.5 15.6625 17.1903 13.5849 17.1903C12.2602 17.1903 11.0568 16.5142 10.3659 15.3818C10.2082 15.1235 9.87103 15.0418 9.61274 15.1994C9.3544 15.3571 9.27275 15.6942 9.43036 15.9526C10.3219 17.4138 11.8751 18.2861 13.5849 18.2861C16.2668 18.2861 18.4487 16.1043 18.4487 13.4223C18.4487 10.7404 16.2667 8.55872 13.5849 8.55872Z" fill="#E6A424"/>
<path d="M26.1603 18.6858L26.8826 17.0012C27.0019 16.7231 26.8731 16.401 26.5951 16.2817L24.0242 15.1788C24.2077 14.0998 24.2216 13.0099 24.0656 11.9278L26.6619 10.8897C26.9428 10.7775 27.0795 10.4587 26.9673 10.1777L25.5185 6.55033C25.4646 6.41537 25.3593 6.3073 25.2257 6.24999C25.0921 6.19273 24.9412 6.19082 24.8063 6.24474L22.2096 7.28276C21.5764 6.39054 20.8149 5.61004 19.9381 4.95499L21.041 2.3844C21.1603 2.10632 21.0316 1.78416 20.7535 1.66483L17.1645 0.124554C17.0309 0.067241 16.8801 0.065327 16.7451 0.119249C16.6101 0.173171 16.5021 0.278499 16.4448 0.412046L15.3418 2.98301C14.2621 2.7997 13.1718 2.78587 12.0898 2.94162L11.0517 0.344671C10.9394 0.0636863 10.6204 -0.0729777 10.3396 0.039241L6.7122 1.48912C6.57723 1.54304 6.46928 1.64837 6.41197 1.78197C6.35471 1.91551 6.3528 2.0664 6.40677 2.20131L7.4448 4.79809C6.55454 5.43012 5.7742 6.19137 5.11746 7.06861L2.54638 5.96556C2.41284 5.9083 2.26201 5.90639 2.12698 5.96031C1.99202 6.01423 1.88401 6.11956 1.82675 6.25316L0.287023 9.84389C0.16775 10.122 0.296539 10.4441 0.574625 10.5634L3.14537 11.6658C2.9619 12.7451 2.94823 13.8351 3.10447 14.9174L0.507796 15.9554C0.226867 16.0677 0.0900934 16.3865 0.202312 16.6675L1.65109 20.2943C1.70502 20.4293 1.81034 20.5373 1.94395 20.5946C2.07749 20.6519 2.22837 20.6538 2.36334 20.5998L4.96002 19.5618C5.59324 20.4541 6.35476 21.2347 7.23157 21.89L6.12869 24.4607C6.00941 24.7389 6.13809 25.061 6.41618 25.1803L10.0058 26.7206C10.1393 26.7778 10.2902 26.7797 10.4252 26.7258C10.5601 26.6719 10.6681 26.5665 10.7254 26.433L11.8279 23.8619C12.9086 24.0451 13.9987 24.059 15.0798 23.9034L16.1179 26.5004C16.2036 26.7147 16.4093 26.8451 16.6269 26.8451C16.6946 26.8451 16.7634 26.8325 16.8301 26.8058L18.392 26.1815C19.3829 27.2963 20.8266 28 22.4319 28C25.4122 28 27.8367 25.5754 27.8367 22.5952C27.8367 21.0591 27.1926 19.6707 26.1603 18.6858ZM16.9321 25.5849L15.9339 23.0876C15.8368 22.8446 15.5815 22.7041 15.3241 22.7524C14.0926 22.9834 12.8437 22.9676 11.6121 22.7052C11.3561 22.6507 11.0975 22.7847 10.9944 23.0252L9.93423 25.4974L7.35183 24.3893L8.41249 21.9169C8.51574 21.6762 8.43426 21.3962 8.21808 21.2485C7.1806 20.5396 6.30844 19.6456 5.62584 18.5915C5.48359 18.3717 5.20567 18.2834 4.96253 18.3806L2.46545 19.3788L1.42321 16.7696L3.92057 15.7713C4.16366 15.6741 4.30409 15.4185 4.25569 15.1612C4.02377 13.928 4.03946 12.6795 4.30234 11.4505C4.35709 11.1945 4.2231 10.9355 3.98248 10.8323L1.51016 9.77208L2.61797 7.1887L5.09023 8.24931C5.33047 8.3524 5.61041 8.27124 5.75829 8.05544C6.46988 7.01671 7.36375 6.14477 8.41506 5.46375C8.6348 5.3214 8.72317 5.04358 8.62599 4.80044L7.62773 2.30336L10.2375 1.26025L11.2357 3.7575C11.3329 4.00053 11.5883 4.14102 11.8456 4.09268C13.0784 3.8614 14.3272 3.87732 15.5572 4.13987C15.8133 4.19462 16.072 4.06052 16.1752 3.82006L17.2358 1.3478L19.8178 2.45588L18.7571 4.92825C18.6538 5.16893 18.7353 5.44904 18.9516 5.5968C19.989 6.30534 20.8611 7.19909 21.5437 8.25314C21.686 8.47293 21.9639 8.5613 22.207 8.46412L24.7041 7.46591L25.7463 10.0756L23.2495 11.0739C23.0065 11.171 22.8661 11.4265 22.9144 11.6837C23.1459 12.917 23.13 14.1653 22.8672 15.394C22.8125 15.65 22.9465 15.909 23.187 16.0122L25.6594 17.0729L25.2644 17.9941C24.4402 17.4848 23.4698 17.1904 22.4318 17.1904C19.4515 17.1904 17.0269 19.615 17.0269 22.5952C17.0269 23.5654 17.2841 24.4766 17.7335 25.2646L16.9321 25.5849ZM22.4319 26.9041C20.0559 26.9041 18.1229 24.9712 18.1229 22.5952C18.1229 20.2192 20.0559 18.2862 22.4319 18.2862C24.8079 18.2862 26.7408 20.2192 26.7408 22.5952C26.7408 24.9712 24.8079 26.9041 22.4319 26.9041Z" fill="#E6A424"/>
<path d="M25.1906 20.6587C24.9623 20.46 24.6162 20.4842 24.4176 20.7125L22.0485 23.4362L20.7086 22.2357C20.4831 22.0337 20.1367 22.0528 19.9348 22.2781C19.7328 22.5035 19.7518 22.8499 19.9772 23.0519L21.7313 24.6235C21.8321 24.7138 21.9624 24.7633 22.0969 24.7633C22.1082 24.7633 22.1196 24.763 22.131 24.7623C22.2774 24.7532 22.4141 24.6857 22.5103 24.575L25.2444 21.4318C25.4431 21.2035 25.419 20.8573 25.1906 20.6587Z" fill="#E6A424"/>
</g>
<defs>
<clipPath id="clip0_56_1462">
<rect width="28" height="28" fill="white"/>
</clipPath>
</defs>
</svg>
