<svg width="28" height="28" viewBox="0 0 28 28" fill="none" xmlns="http://www.w3.org/2000/svg">
<g clip-path="url(#clip0_56_1469)">
<path d="M27.7243 13.8164L23.2629 3.13812L18.9581 4.93673C19.0121 4.42901 19.0121 3.71065 18.7367 3.19213C18.1209 2.04167 16.6842 1.60417 15.5337 2.21991C14.3833 2.83565 13.9458 4.27238 14.5615 5.42284C14.7776 5.82793 15.1016 6.15741 15.5013 6.37886L10.8995 8.2963C10.7969 7.97222 10.6402 7.66435 10.4404 7.38889C10.4998 7.35648 10.5484 7.31867 10.597 7.27006C10.7104 7.15664 10.7807 7.0054 10.7807 6.84336L10.7591 5.06096H11.1263C11.2128 5.06096 11.2938 5.02315 11.3532 4.96373C11.418 4.90432 11.4504 4.8179 11.4504 4.73148L11.3856 0L10.7375 0.0108025L10.7969 4.41281L2.13869 4.47762L2.07927 0L1.43113 0.0108025L1.49054 4.8125C1.49594 4.99074 1.63637 5.12577 1.81461 5.13117H2.1927C2.1927 5.14738 2.2143 6.91358 2.2143 6.91358C2.21971 7.10802 2.31693 7.28626 2.47356 7.39969L2.23591 7.77778C2.14409 7.92361 2.01986 8.28549 2.01986 8.28549H2.01446L1.06924 11.8125L1.3177 12.5795L0.966619 12.7361C0.642545 12.8819 0.383286 13.1466 0.259057 13.4815C0.134829 13.8164 0.145632 14.1836 0.291465 14.5077L5.09316 25.2346L9.59239 23.2199C9.75443 23.1497 9.86785 22.9985 9.88406 22.8202C9.90026 22.642 9.81924 22.4691 9.67341 22.3719C9.09548 21.9668 8.69579 21.5293 8.57696 21.1728C8.27449 20.2762 8.7552 19.2986 9.65721 18.9961C10.5538 18.6937 11.5314 19.1744 11.8339 20.0764C11.9797 20.5031 11.9473 20.973 11.7475 21.3781C11.6611 21.5509 11.6935 21.7562 11.8285 21.8912C11.9581 22.0316 12.1634 22.0748 12.3362 21.9938L16.0739 20.3194C16.2521 20.2438 16.4033 20.1142 16.5114 19.9522L17.0785 19.7199C17.1433 20.2546 17.3432 20.7623 17.6618 21.1998C17.6024 21.2323 17.5538 21.2755 17.5052 21.3241C17.3864 21.4375 17.3216 21.5941 17.3216 21.7562L17.3486 23.5332H16.9813C16.8949 23.5332 16.8138 23.571 16.7544 23.6304C16.6896 23.6898 16.6572 23.7762 16.6626 23.8627L16.722 27.9406H17.3702L17.3108 24.1867L25.9689 24.1165L26.0283 27.946H26.6765L26.6171 23.7924C26.6117 23.6142 26.4713 23.4738 26.293 23.4684H25.9149C25.9149 23.4576 25.9203 23.4414 25.9203 23.4306L25.8933 21.6914C25.8933 21.4969 25.7961 21.3133 25.6341 21.2052C25.7583 21.0054 25.8555 20.8542 25.8717 20.8218C25.9635 20.6813 26.0338 20.5247 26.077 20.3573L26.0878 20.3194H26.0932L27.0384 16.787L26.6927 15.696L27.006 15.5664C27.6865 15.2855 28.0106 14.5131 27.7297 13.8326C27.7297 13.8272 27.7243 13.8218 27.7243 13.8164ZM5.09856 10.8889L5.04455 10.9807C4.67727 11.6289 4.01292 11.9151 4.00751 11.9151L3.76986 12.0123C3.76986 12.0123 4.14255 14.2647 4.24517 14.9182C4.30458 15.3071 4.23437 15.7068 4.03992 16.0471C3.89949 16.2469 3.67264 16.3657 3.42958 16.3657C3.26214 16.3603 3.19193 16.2739 3.16492 16.2253L2.11168 12.936L1.91184 12.3148L1.7444 11.7963L2.65721 8.39892C2.68421 8.3017 2.72742 8.20988 2.78143 8.12346C2.78143 8.12346 2.94887 7.85339 3.13792 7.56173L9.70582 7.50772C9.98668 7.80478 10.1919 8.16667 10.3054 8.56096L5.09856 10.8889ZM10.0137 6.86497H10.0029V6.85417L2.99748 6.90818C2.94887 6.91358 2.90566 6.89738 2.86785 6.87037V6.80556L2.84625 5.17438C2.88406 5.15278 2.92727 5.13657 2.97048 5.13657L9.98668 5.08256C10.0353 5.07716 10.0785 5.09336 10.1163 5.12037L10.1433 6.82716C10.1055 6.84877 10.0569 6.86497 10.0137 6.86497ZM15.8092 19.7253L12.4983 21.2106C12.8169 19.9414 12.05 18.6559 10.7807 18.3372C9.51137 18.0185 8.22588 18.7855 7.90721 20.0548C7.79378 20.4923 7.81538 20.9568 7.95582 21.3835C8.13946 21.9182 8.63097 22.3935 9.07927 22.7392L5.41184 24.3812L0.874798 14.2431C0.799181 14.0756 0.79378 13.8866 0.863996 13.7137C0.928811 13.5409 1.05844 13.4059 1.22588 13.3302L1.51214 13.2006L2.57079 16.5008C2.73282 16.8086 3.04609 17.0085 3.39717 17.0139C3.39717 17.0139 4.23977 17.0301 4.58545 16.3873V16.3765C4.85551 15.9012 4.95813 15.3503 4.87171 14.8102C4.79069 14.2917 4.56924 12.936 4.47742 12.3904C4.90952 12.1528 5.2768 11.8071 5.54687 11.3966L11.0291 8.93904C11.0291 8.93904 11.1804 8.85262 11.2992 8.87963C11.3694 8.90664 11.4342 8.98765 11.4666 9.05787L13.1626 12.936C13.2328 13.1142 13.4111 13.2222 13.6001 13.2114C13.7892 13.2006 13.9512 13.071 14.0106 12.8927C14.1564 12.4012 14.5129 12.0069 14.9882 11.8125C15.8308 11.4344 16.8246 11.8071 17.2027 12.6497C17.5538 13.4275 17.2675 14.3403 16.533 14.7778C16.0631 15.0424 15.2421 14.9776 14.9126 14.9398C14.7398 14.9182 14.5669 14.9938 14.4589 15.1343C14.4589 15.1397 14.3023 15.3179 14.4049 15.6258L16.0091 19.2014C16.0685 19.3364 16.0469 19.4985 15.955 19.6119C15.9226 19.6605 15.8686 19.7037 15.8092 19.7253ZM25.2452 21.7832L25.2722 23.4144C25.2344 23.4414 25.1912 23.4576 25.1425 23.4522L18.1263 23.5062C18.0777 23.5116 18.0345 23.4954 17.9967 23.4684L17.9697 21.7886L25.2452 21.7832ZM25.4504 20.1898C25.4234 20.287 25.3802 20.3789 25.3262 20.4653V20.4761C25.3262 20.4761 25.1642 20.7407 24.9751 21.0324L24.9103 21.135H18.4558L18.4018 21.081C17.9859 20.6381 17.7375 20.0602 17.705 19.4498L22.3825 17.5C22.2799 17.6836 22.1827 17.8781 22.0908 18.0725L22.6796 18.348C22.7984 18.0941 22.928 17.8457 23.0631 17.608C23.1981 17.3704 23.3817 17.1651 23.5924 16.9923C23.749 16.8627 23.9165 16.76 24.1001 16.6736L24.3378 16.5764L24.3 16.3225C24.2946 16.3171 24.2783 16.1983 24.2459 16.0201C24.1487 15.4367 23.9435 14.1728 23.8625 13.6759C23.803 13.287 23.8733 12.8873 24.0677 12.5471C24.2081 12.3472 24.435 12.223 24.678 12.223C24.8455 12.2284 24.9157 12.3148 24.9427 12.3688L25.8933 15.3287L26.0932 15.9498L26.3632 16.7978L25.4504 20.1898ZM27.1302 14.5941C27.06 14.7616 26.925 14.8966 26.7575 14.9668L26.4929 15.0802L25.5314 12.088C25.3694 11.7801 25.0561 11.5856 24.7104 11.5748C23.8787 11.5964 23.5168 12.2068 23.5168 12.2068C23.2467 12.6821 23.1441 13.233 23.2305 13.7731C23.3115 14.2971 23.533 15.6474 23.6248 16.1929C23.5006 16.2631 23.3817 16.3441 23.2683 16.4306L16.6788 19.1852C16.6626 19.0988 15.1611 15.7176 15.1611 15.7176C15.6958 15.7554 16.3115 15.7284 16.7706 15.4853L16.9759 15.3611C17.2243 15.1937 17.4404 14.983 17.6078 14.7346L17.678 14.6265C17.8023 14.4213 17.8941 14.1998 17.9535 13.9676C17.9589 13.9568 17.9589 13.946 17.9589 13.9352H17.9643C18.0237 13.7245 18.0507 13.5085 18.0507 13.287C18.0507 13.0494 18.0129 12.8063 17.9427 12.5795C17.5538 11.3318 16.2251 10.6404 14.9774 11.0293C14.3779 11.2184 13.8756 11.6397 13.5839 12.2014L13.2004 11.3426C13.0762 11.0347 12.2498 9.21991 12.0662 8.79861C12.0229 8.71759 11.9743 8.63657 11.9149 8.56636L16.1873 6.80556C16.3655 6.72994 16.4736 6.5517 16.4628 6.36265C16.4574 6.17361 16.3277 6.01157 16.1495 5.95756C15.2421 5.6821 14.729 4.72608 15.0044 3.81327C15.0314 3.72685 15.0638 3.64583 15.1017 3.56481C15.3123 3.12191 15.7012 2.78704 16.1765 2.65741C16.9543 2.43596 17.7807 2.78164 18.1642 3.4946C18.418 3.96991 18.3316 4.78549 18.283 5.11497C18.2614 5.29321 18.3316 5.46605 18.472 5.57407C18.6125 5.6821 18.7961 5.7091 18.9581 5.63889L22.9118 3.98611L27.1248 14.0648C27.2004 14.2323 27.2004 14.4267 27.1302 14.5941Z" fill="#E6A424"/>
<path d="M7.42555 25.3807L6.84961 25.678L7.59767 27.1274L8.17361 26.8302L7.42555 25.3807Z" fill="#E6A424"/>
<path d="M2.92237 25.4067L2.17432 26.8562L2.75026 27.1534L3.49832 25.704L2.92237 25.4067Z" fill="#E6A424"/>
<path d="M4.85724 26.3351L4.81738 27.9658L5.46534 27.9817L5.50519 26.351L4.85724 26.3351Z" fill="#E6A424"/>
<path d="M21.1292 0.914795L20.5532 1.21204L21.3013 2.6615L21.8772 2.36426L21.1292 0.914795Z" fill="#E6A424"/>
<path d="M25.978 0.936649L25.23 2.38611L25.8059 2.68335L26.554 1.23389L25.978 0.936649Z" fill="#E6A424"/>
<path d="M23.2254 0.0701215L23.1855 1.70081L23.8335 1.71664L23.8734 0.0859572L23.2254 0.0701215Z" fill="#E6A424"/>
</g>
<defs>
<clipPath id="clip0_56_1469">
<rect width="28" height="28" fill="white"/>
</clipPath>
</defs>
</svg>
