<svg width="28" height="28" viewBox="0 0 28 28" fill="none" xmlns="http://www.w3.org/2000/svg">
<g clip-path="url(#clip0_55_1333)">
<path fill-rule="evenodd" clip-rule="evenodd" d="M14.0044 0.00622559C21.7363 0.00622559 28.0047 6.27265 28.0047 14.0042C28.0047 21.7358 21.7363 28.0045 14.0044 28.0045C6.27251 28.0045 0.00439453 21.7357 0.00439453 14.0042C0.00439453 6.2727 6.27289 0.00622559 14.0044 0.00622559ZM19.4662 8.5039C19.5364 8.43366 19.5759 8.33841 19.5758 8.2391C19.5758 8.13978 19.5364 8.04454 19.4661 7.97433C19.3959 7.90412 19.3006 7.86468 19.2013 7.8647C19.102 7.86471 19.0068 7.90418 18.9366 7.97441L15.614 11.2971C15.5438 11.3673 15.5045 11.4625 15.5045 11.5618C15.5045 11.661 15.5438 11.7562 15.614 11.8265C15.6843 11.8965 15.7795 11.9359 15.8788 11.9359C15.978 11.9359 16.0732 11.8965 16.1436 11.8265L19.4662 8.5039ZM19.6128 11.4119C19.6129 11.3008 19.58 11.1921 19.5183 11.0997C19.4566 11.0072 19.3689 10.9351 19.2662 10.8926C19.1635 10.85 19.0506 10.8388 18.9415 10.8604C18.8325 10.882 18.7324 10.9355 18.6537 11.014C18.5751 11.0925 18.5215 11.1926 18.4998 11.3016C18.478 11.4106 18.489 11.5236 18.5315 11.6263C18.574 11.729 18.6459 11.8168 18.7383 11.8787C18.8307 11.9405 18.9393 11.9735 19.0504 11.9736H19.0525C19.1262 11.9735 19.1992 11.959 19.2672 11.9307C19.3353 11.9024 19.3971 11.861 19.4491 11.8089C19.5011 11.7567 19.5424 11.6948 19.5705 11.6267C19.5986 11.5586 19.6129 11.4856 19.6128 11.4119ZM15.4663 8.38905C15.4663 8.46281 15.4808 8.53586 15.509 8.60401C15.5372 8.67217 15.5786 8.73409 15.6307 8.78626C15.6829 8.83842 15.7448 8.8798 15.8129 8.90802C15.8811 8.93624 15.9541 8.95076 16.0279 8.95075H16.0297C16.1407 8.95039 16.249 8.91716 16.3411 8.85526C16.4332 8.79336 16.5049 8.70556 16.5471 8.60294C16.5893 8.50033 16.6002 8.3875 16.5784 8.27871C16.5565 8.16992 16.5029 8.07004 16.4244 7.99169C16.3458 7.91334 16.2458 7.86003 16.1369 7.83848C16.028 7.81694 15.9153 7.82813 15.8128 7.87065C15.7103 7.91316 15.6227 7.9851 15.561 8.07736C15.4994 8.16963 15.4665 8.27809 15.4664 8.38905H15.4663ZM6.9111 22.9469L9.52057 22.248L8.04696 16.7479L5.43765 17.4472L6.9111 22.9469ZM22.194 17.8094C22.3676 17.7092 22.4942 17.5441 22.5462 17.3505C22.5981 17.1569 22.5709 16.9506 22.4708 16.777C22.3706 16.6034 22.2055 16.4768 22.0119 16.4249C21.8183 16.3729 21.612 16.4001 21.4384 16.5002L17.3163 18.8802C17.2593 18.913 17.1948 18.9303 17.1291 18.9302H12.5914C12.5419 18.9308 12.4927 18.9215 12.4468 18.903C12.4008 18.8845 12.359 18.857 12.3238 18.8222C12.2886 18.7874 12.2606 18.7459 12.2415 18.7002C12.2224 18.6545 12.2126 18.6055 12.2126 18.5559C12.2126 18.5064 12.2224 18.4574 12.2415 18.4116C12.2606 18.3659 12.2886 18.3245 12.3238 18.2897C12.359 18.2549 12.4008 18.2274 12.4468 18.2088C12.4927 18.1903 12.5419 18.1811 12.5914 18.1817H15.7506C15.9499 18.18 16.1404 18.0996 16.2807 17.9581C16.4211 17.8166 16.4998 17.6253 16.4998 17.426C16.4998 17.2267 16.4211 17.0355 16.2807 16.894C16.1404 16.7524 15.9499 16.6721 15.7506 16.6704H11.0734C10.9025 16.6685 10.7332 16.7039 10.5775 16.7743L9.01247 17.459L10.0194 21.2169L10.5863 20.9685C10.6337 20.9478 10.6849 20.9369 10.7366 20.9368H16.1568C16.5634 20.942 16.9636 20.8349 17.3133 20.6273L22.1941 17.8094H22.194ZM22.1269 8.68251L21.1329 7.95319L20.9979 6.72688C20.9763 6.53161 20.8803 6.35218 20.7298 6.22589C20.5793 6.09959 20.3859 6.03615 20.1899 6.04876L18.959 6.12904L18.0676 5.27591C17.9258 5.13959 17.7368 5.06345 17.5401 5.06345C17.3434 5.06345 17.1544 5.13959 17.0126 5.27591L16.1212 6.12904L14.8903 6.04876C14.6943 6.03608 14.5009 6.09949 14.3504 6.2258C14.1999 6.35211 14.1039 6.53159 14.0824 6.72688L13.9476 7.95319L12.953 8.68289C12.7943 8.799 12.6867 8.97197 12.6526 9.16562C12.6185 9.35926 12.6605 9.5586 12.77 9.72195L13.4548 10.7478L13.1622 11.9461C13.1158 12.137 13.1448 12.3384 13.243 12.5085C13.3413 12.6786 13.5014 12.8042 13.6899 12.8594L14.8737 13.2047L15.4199 14.3113C15.4826 14.4391 15.5798 14.5468 15.7006 14.6221C15.8213 14.6974 15.9608 14.7374 16.1031 14.7374C16.2092 14.7369 16.314 14.7147 16.4111 14.6721L17.5403 14.1758L18.6696 14.6721C18.8494 14.7513 19.053 14.758 19.2377 14.6907C19.4223 14.6235 19.5739 14.4875 19.6607 14.3112L20.207 13.2048L21.3911 12.8595C21.5796 12.8043 21.7395 12.6786 21.8377 12.5085C21.936 12.3384 21.9649 12.137 21.9186 11.9462L21.6254 10.7479L22.3107 9.72168C22.4202 9.55828 22.4622 9.35885 22.428 9.16516C22.3937 8.97147 22.2859 8.79855 22.127 8.68262L22.1269 8.68251Z" fill="#E6A424"/>
</g>
<defs>
<clipPath id="clip0_55_1333">
<rect width="28" height="28" fill="white"/>
</clipPath>
</defs>
</svg>
