<svg width="17" height="12" viewBox="0 0 17 12" fill="none" xmlns="http://www.w3.org/2000/svg">
<path d="M15.7876 3.96875C15.9126 3.875 16.1001 3.96875 16.1001 4.125V10.5C16.1001 11.3438 15.4126 12 14.6001 12H1.6001C0.756348 12 0.100098 11.3438 0.100098 10.5V4.125C0.100098 3.96875 0.256348 3.875 0.381348 3.96875C1.1001 4.53125 2.00635 5.21875 5.19385 7.53125C5.8501 8 6.9751 9.03125 8.1001 9.03125C9.19385 9.03125 10.3501 8 10.9751 7.53125C14.1626 5.21875 15.0688 4.53125 15.7876 3.96875ZM8.1001 8C7.3501 8.03125 6.31885 7.09375 5.7876 6.71875C1.63135 3.71875 1.31885 3.4375 0.381348 2.6875C0.193848 2.5625 0.100098 2.34375 0.100098 2.09375V1.5C0.100098 0.6875 0.756348 0 1.6001 0H14.6001C15.4126 0 16.1001 0.6875 16.1001 1.5V2.09375C16.1001 2.34375 15.9751 2.5625 15.7876 2.6875C14.8501 3.4375 14.5376 3.71875 10.3813 6.71875C9.8501 7.09375 8.81885 8.03125 8.1001 8Z" fill="#E6A424"/>
</svg>
