<svg width="17" height="17" viewBox="0 0 17 17" fill="none" xmlns="http://www.w3.org/2000/svg">
<path d="M0.693848 1.78125C0.350098 1.875 0.100098 2.15625 0.100098 2.5C0.100098 10.5312 6.6001 17 14.6001 17C14.9751 17 15.2563 16.7812 15.3501 16.4375L16.1001 13.1875C16.1626 12.8438 16.0063 12.4688 15.6626 12.3125L12.1626 10.8125C11.8501 10.6875 11.5063 10.7812 11.2876 11.0312L9.7251 12.9375C7.2876 11.7812 5.31885 9.78125 4.19385 7.40625L6.1001 5.84375C6.3501 5.625 6.44385 5.28125 6.31885 4.96875L4.81885 1.46875C4.6626 1.125 4.2876 0.9375 3.94385 1.03125L0.693848 1.78125Z" fill="#E6A424"/>
</svg>
