<svg width="48" height="48" viewBox="0 0 48 48" fill="none" xmlns="http://www.w3.org/2000/svg">
<path fill-rule="evenodd" clip-rule="evenodd" d="M1.21741 28.1281H1.21289C1.21289 17.3428 9.78513 8.60744 20.3447 8.60744C30.9041 8.60744 39.4764 17.3428 39.4764 28.1281H39.4718C39.4748 28.1557 39.4764 28.1836 39.4764 28.2119V30.7008C39.4764 31.0123 39.2846 31.2917 38.9939 31.4035C38.9939 31.4035 36.3139 32.435 36.3139 32.4349C35.9364 33.8653 35.365 35.2364 34.6218 36.516L35.7862 39.1446C35.9122 39.4292 35.8503 39.7619 35.6302 39.9819L32.1146 43.4975C31.8946 43.7176 31.5619 43.7795 31.2773 43.6535L28.6503 42.4898C27.3735 43.2361 25.9989 43.8042 24.5676 44.1813L23.5362 46.8612C23.4244 47.1519 23.145 47.3437 22.8335 47.3437H17.8607C17.5493 47.3437 17.2699 47.1519 17.158 46.8612C17.158 46.8612 16.1267 44.1815 16.1268 44.1815C14.6921 43.804 13.3205 43.2325 12.0405 42.4891L9.41195 43.6535C9.12743 43.7795 8.79463 43.7176 8.57458 43.4975L5.0591 39.9819C4.83877 39.7616 4.77684 39.4283 4.90343 39.1436C4.90343 39.1436 6.07134 36.517 6.07143 36.517C5.32536 35.2406 4.75698 33.8663 4.37647 32.4354L1.69534 31.4035C1.40461 31.2917 1.21289 31.0123 1.21289 30.7008V28.2119C1.21289 28.1836 1.2144 28.1557 1.21741 28.1281ZM37.9586 27.4589C37.8599 24.6982 37.153 22.0954 35.9708 19.7868L33.0692 21.5003C33.9723 23.3015 34.519 25.3198 34.6136 27.4589H37.9586ZM35.2292 18.476C33.8404 16.2437 31.9842 14.3447 29.8011 12.9232L28.1178 15.9003C29.7971 17.0137 31.233 18.4776 32.3256 20.1906L35.2292 18.476ZM28.5047 12.1563C26.2742 10.9632 23.7624 10.244 21.0976 10.1294V13.5748C23.1491 13.6836 25.0867 14.2343 26.8203 15.1356L28.5047 12.1563ZM19.5917 10.1294C16.9268 10.244 14.4151 10.9632 12.1845 12.1563L13.8689 15.1356C15.6025 14.2343 17.5402 13.6836 19.5917 13.5748V10.1294ZM10.8882 12.9232C8.70512 14.3447 6.84884 16.2437 5.46014 18.476L8.36357 20.1906C9.45618 18.4776 10.8921 17.0137 12.5714 15.9003L10.8882 12.9232ZM4.7184 19.7868C3.53618 22.0954 2.82936 24.6982 2.73063 27.4589H6.07557C6.17035 25.3198 6.71689 23.3015 7.62014 21.5003L4.7184 19.7868ZM7.58315 27.4589H17.6422C17.6997 27.2214 17.7887 26.9877 17.9109 26.7636C18.2876 26.0728 18.9061 25.6057 19.5989 25.4104L25.3135 18.0866C25.5451 17.7897 25.9604 17.7096 26.2857 17.899C26.6112 18.0883 26.7467 18.4889 26.6031 18.837L23.0458 27.4589H33.1061C32.7655 20.556 27.1847 15.0608 20.3447 15.0608C13.5046 15.0608 7.92376 20.556 7.58315 27.4589ZM17.6868 28.9648H12.4226C12.8024 32.9991 16.2027 36.1601 20.3356 36.1601C24.4684 36.1601 27.8687 32.9991 28.2486 28.9648H22.9856C22.9294 29.1455 22.8541 29.3231 22.7591 29.495C22.0125 30.8606 20.3212 31.3505 18.9794 30.5927C18.9779 30.5918 18.9764 30.591 18.9749 30.59C18.3316 30.2207 17.8887 29.6298 17.6868 28.9648ZM10.9111 28.9648H2.71877V30.1838L5.28103 31.17C5.51209 31.2589 5.68461 31.4557 5.74258 31.6964C6.11454 33.2413 6.72451 34.7195 7.55896 36.0689C7.68988 36.2806 7.70767 36.5433 7.60658 36.7707L6.4896 39.2828L9.27425 42.0675L11.7867 40.9545C12.013 40.8543 12.2741 40.8717 12.485 41.0009C13.8393 41.8307 15.3127 42.4461 16.8625 42.8133C17.1043 42.8706 17.3023 43.0436 17.3916 43.2755L18.3777 45.8378H22.3165L23.3027 43.2755C23.3919 43.0438 23.5896 42.8709 23.8312 42.8135C25.3754 42.4465 26.8529 41.8366 28.2016 41.0025C28.413 40.8719 28.6753 40.8539 28.9025 40.9545C28.9025 40.9545 31.415 42.0675 31.4151 42.0675L34.2002 39.2823L33.0872 36.7698C32.987 36.5435 33.0044 36.2825 33.1336 36.0715C33.9635 34.7172 34.5789 33.2437 34.9462 31.6985C35.0036 31.4569 35.1765 31.2592 35.4082 31.17L37.9705 30.1838V28.9648H29.7601C29.3759 33.8312 25.3 37.666 20.3356 37.666C15.3711 37.666 11.2952 33.8312 10.9111 28.9648ZM21.4173 25.5278C21.5101 25.5675 21.6017 25.6127 21.6918 25.6636C21.6933 25.6645 21.6948 25.6653 21.6963 25.6662C21.8239 25.7395 21.9438 25.8215 22.0554 25.9111L23.107 23.3623L21.4173 25.5278ZM20.9489 26.9735L20.9473 26.9726C20.3368 26.6306 19.5717 26.8636 19.2328 27.4847C18.8864 28.1198 19.0997 28.9237 19.7239 29.2837C20.3343 29.6256 21.0995 29.3927 21.4383 28.7716C21.4391 28.77 21.44 28.7685 21.4408 28.767C21.7923 28.1331 21.5702 27.3319 20.9489 26.9735ZM35.1519 7.37026L31.1485 2.28988L27.145 7.37026H28.581C28.9985 7.37026 29.3368 7.70871 29.3368 8.12612V9.01769C29.3368 9.43482 28.9982 9.77355 28.581 9.77355C28.1638 9.77355 27.825 9.43482 27.825 9.01769L27.8251 8.88207H26.7596C25.647 8.88207 25.0357 7.60508 25.7162 6.74089L25.7164 6.74071L30.109 1.16649C30.6405 0.486494 31.6565 0.486494 32.188 1.16649L36.5808 6.74089C37.2614 7.60508 36.6501 8.88207 35.5373 8.88207H34.4719V12.3254C34.4719 12.7426 34.1332 13.0812 33.7159 13.0812C33.2988 13.0812 32.9601 12.7426 32.9601 12.3254V8.12612C32.9601 7.70871 33.2985 7.37026 33.7159 7.37026H35.1519ZM45.0728 13.1568L41.0695 8.07652L37.066 13.1568H38.5019C38.9194 13.1568 39.2578 13.4952 39.2578 13.9128V18.3515C39.2578 18.7688 38.9191 19.1074 38.5019 19.1074C38.0847 19.1074 37.746 18.7688 37.746 18.3515V14.6686H36.6806C35.5678 14.6686 34.9566 13.3917 35.6372 12.5274L35.6374 12.5272L40.0299 6.95313C40.5614 6.27304 41.5774 6.27304 42.109 6.95313L46.5017 12.5274C47.1823 13.3917 46.571 14.6686 45.4583 14.6686H44.3928V26.0365C44.3928 26.4537 44.0541 26.7925 43.6369 26.7925C43.2198 26.7925 42.881 26.4537 42.881 26.0365V13.9128C42.881 13.4952 43.2195 13.1568 43.6369 13.1568H45.0728Z" fill="#E6A424"/>
</svg>
