<svg width="50" height="50" viewBox="0 0 50 50" fill="none" xmlns="http://www.w3.org/2000/svg">
<g clip-path="url(#clip0_543_602)">
<path d="M44.5934 44.1869C44.4267 44.4043 44.1453 44.4995 43.8806 44.429L37.5186 42.7253L35.8125 49.0874C35.7415 49.352 35.5181 49.5479 35.2464 49.5835C35.2169 49.5875 35.1873 49.5894 35.1579 49.5894C34.9182 49.5894 34.6934 49.462 34.5714 49.2505L30.8302 42.7692C30.6432 42.4452 30.7542 42.0308 31.0783 41.8438C31.4023 41.6566 31.8167 41.7677 32.0037 42.0919L34.9274 47.1569L36.3854 41.7203C36.4823 41.3591 36.8539 41.145 37.215 41.2413L42.6516 42.6972L38.842 36.0988C38.6549 35.7748 38.7659 35.3605 39.09 35.1734C39.4139 34.9861 39.8283 35.0971 40.0154 35.4214L44.6426 43.4358C44.7796 43.673 44.7601 43.9695 44.5934 44.1869ZM18.5629 41.8439C18.2391 41.6566 17.8245 41.7677 17.6374 42.0917L14.7115 47.1569L13.2557 41.7205C13.1589 41.3592 12.7876 41.1447 12.4261 41.2413L6.9865 42.6973L10.7962 36.0987C10.9833 35.7747 10.8723 35.3604 10.5482 35.1733C10.2241 34.9862 9.80985 35.0971 9.62274 35.4213L4.99556 43.4357C4.85857 43.673 4.87796 43.9694 5.04471 44.1869C5.21147 44.4042 5.49271 44.4997 5.75738 44.429L12.1219 42.7253L13.8255 49.0872C13.8963 49.3518 14.1197 49.5477 14.3914 49.5835C14.4211 49.5875 14.4507 49.5894 14.4801 49.5894C14.7197 49.5894 14.9445 49.462 15.0665 49.2507L18.8105 42.7694C18.9978 42.4453 18.8869 42.031 18.5629 41.8439ZM25.0387 43.84C24.9679 43.864 24.8942 43.8761 24.8204 43.8761C24.7468 43.8761 24.6731 43.864 24.6023 43.84C15.1536 40.6264 9.42564 35.0326 7.0915 26.7386C7.07473 26.6789 7.06619 26.6172 7.06619 26.5551V7.25945C7.06619 6.97868 7.23934 6.727 7.50159 6.62676L24.5784 0.0933744C24.7343 0.0336539 24.9066 0.0336539 25.0626 0.0933744L42.1367 6.62676C42.3988 6.7271 42.572 6.97878 42.572 7.25945V26.5551C42.572 26.6171 42.5634 26.6789 42.5467 26.7386C40.2126 35.0321 34.4858 40.626 25.0387 43.84ZM41.217 26.461V7.72558L24.8204 1.45134L8.42115 7.72558V26.461C10.6233 34.181 15.9898 39.4238 24.8204 42.4823C33.6495 39.4234 39.0149 34.1805 41.217 26.461ZM39.2366 9.5551V26.0779C39.2366 26.1443 39.2269 26.2103 39.2077 26.2739C38.1427 29.7969 36.391 32.6731 33.8527 35.0669C31.5645 37.2248 28.6876 38.9339 25.0578 40.292C24.9813 40.3206 24.9008 40.3349 24.8203 40.3349C24.74 40.3349 24.6596 40.3206 24.583 40.292C20.9524 38.9343 18.0751 37.2251 15.7869 35.0668C13.2495 32.6735 11.4982 29.7973 10.433 26.2739C10.4138 26.2103 10.404 26.1443 10.404 26.0779V9.5551C10.404 9.27434 10.5772 9.02275 10.8393 8.92241L24.5781 3.66449C24.734 3.60477 24.9064 3.60477 25.0623 3.66449L38.8011 8.92241C39.0636 9.02275 39.2366 9.27434 39.2366 9.5551ZM37.8818 10.0212L24.8205 5.02255L11.7593 10.0212V25.977C13.6488 32.1294 17.8049 36.2533 24.8205 38.9332C31.8365 36.252 35.9927 32.1282 37.8819 25.977V10.0212H37.8818ZM23.054 9.64837H26.5868C26.8954 9.64837 27.1651 9.857 27.2425 10.1558L27.8766 12.6009C28.1749 12.7064 28.4717 12.8297 28.7642 12.9696L30.9449 11.689C31.211 11.5326 31.5491 11.576 31.7673 11.7944L34.2633 14.2931C34.4813 14.5113 34.5243 14.8493 34.368 15.1153L33.0882 17.2921C33.2261 17.5798 33.3497 17.8776 33.4579 18.1831L35.9015 18.8173C36.2002 18.8949 36.4087 19.1645 36.4087 19.4731V23.0032C36.4087 23.3116 36.2005 23.581 35.9021 23.6587L33.4578 24.2955C33.3499 24.5993 33.2264 24.8965 33.088 25.1844L34.3681 27.364C34.5242 27.6302 34.481 27.968 34.2629 28.1863L31.7669 30.6822C31.5488 30.9003 31.211 30.9437 30.9448 30.7873L28.7652 29.5074C28.4773 29.6456 28.1803 29.7691 27.8767 29.8769L27.2424 32.3207C27.1649 32.6194 26.8953 32.8281 26.5867 32.8281H23.0539C22.7453 32.8281 22.4757 32.6194 22.3982 32.3207L21.7639 29.8769C21.4606 29.7692 21.1629 29.6456 20.8735 29.5071L18.6961 30.7872C18.4302 30.9436 18.0922 30.9004 17.874 30.6824L15.3752 28.1865C15.1568 27.9683 15.1135 27.63 15.27 27.3638L16.5501 25.1865C16.4109 24.8955 16.2877 24.5978 16.1812 24.2954L13.736 23.6589C13.4375 23.5813 13.2291 23.3118 13.2291 23.0034V19.4732C13.2291 19.1645 13.4378 18.8949 13.7366 18.8174L16.183 18.1831C16.2899 17.8816 16.4129 17.5844 16.5509 17.294L15.27 15.1153C15.1135 14.8492 15.1568 14.5111 15.375 14.2929L17.8738 11.7942C18.0919 11.576 18.43 11.5328 18.6962 11.6892L20.8746 12.97C21.1689 12.8297 21.4661 12.7064 21.7641 12.601L22.3982 10.1559C22.4757 9.857 22.7454 9.64837 23.054 9.64837ZM23.5782 11.0034L22.983 13.2991C22.9237 13.5276 22.7498 13.7088 22.5238 13.7773C22.0697 13.915 21.6123 14.1043 21.1643 14.3402C20.9568 14.4493 20.7075 14.4435 20.5054 14.3247L18.4613 13.1229L16.7038 14.8804L17.9056 16.9246C18.0244 17.1268 18.0303 17.376 17.9211 17.5834C17.6911 18.0204 17.5015 18.4788 17.3573 18.9461C17.2881 19.1706 17.1075 19.3432 16.8799 19.4021L14.5842 19.9974V22.4795L16.8805 23.0771C17.1088 23.1365 17.2897 23.3104 17.3582 23.5362C17.4993 24.0016 17.6882 24.4581 17.9195 24.8928C18.0301 25.1008 18.0248 25.3513 17.9055 25.5545L16.7039 27.5984L18.461 29.3535L20.5053 28.1515C20.7085 28.0323 20.959 28.027 21.1669 28.1376C21.5987 28.3673 22.0563 28.5575 22.5268 28.7026C22.7513 28.7718 22.9238 28.9524 22.9828 29.1798L23.5779 31.4728H26.0625L26.6576 29.1798C26.7167 28.9524 26.8891 28.7718 27.1136 28.7026C27.5856 28.5569 28.0419 28.3671 28.4693 28.1383C28.6773 28.0269 28.9285 28.0317 29.132 28.1513L31.1791 29.3534L32.9343 27.5984L31.7321 25.5514C31.6126 25.3478 31.6076 25.0967 31.719 24.8885C31.9478 24.4613 32.1377 24.0051 32.2834 23.5329C32.3525 23.3087 32.5328 23.1362 32.76 23.077L35.0538 22.4795V19.9971L32.7607 19.402C32.5332 19.343 32.3527 19.1704 32.2835 18.946C32.1365 18.4695 31.9467 18.0124 31.7191 17.5876C31.6076 17.3794 31.6127 17.1281 31.7324 16.9245L32.9344 14.88L31.179 13.1227L29.1322 14.3247C28.9295 14.4438 28.6798 14.4492 28.4722 14.3393C28.0287 14.1045 27.5727 13.9155 27.1169 13.7772C26.8909 13.7087 26.717 13.5275 26.6577 13.299L26.0625 11.0033L23.5782 11.0034ZM24.8204 15.3013C28.0948 15.3013 30.7587 17.9651 30.7587 21.2395C30.7587 24.5138 28.0948 27.1778 24.8204 27.1778C21.5461 27.1778 18.8822 24.5138 18.8822 21.2395C18.8822 17.9651 21.5461 15.3013 24.8204 15.3013ZM20.2372 21.2395C20.2372 23.7666 22.2933 25.8227 24.8204 25.8227C27.3476 25.8227 29.4037 23.7666 29.4037 21.2395C29.4037 18.7123 27.3476 16.6563 24.8204 16.6563C22.2933 16.6563 20.2372 18.7123 20.2372 21.2395Z" fill="#E6A424"/>
</g>
<defs>
<clipPath id="clip0_543_602">
<rect width="49.6378" height="49.6378" fill="white"/>
</clipPath>
</defs>
</svg>
