<svg width="48" height="48" viewBox="0 0 48 48" fill="none" xmlns="http://www.w3.org/2000/svg">
<path d="M24.026 23.759H23.3457V13.8255C23.3457 13.6514 23.2766 13.4845 23.1535 13.3615C23.0304 13.2384 22.8635 13.1692 22.6895 13.1692H20.4254C20.2514 13.1692 20.0844 13.2384 19.9614 13.3615C19.8383 13.4845 19.7692 13.6514 19.7692 13.8255V23.759H18.9131V18.0641C18.9131 17.8901 18.844 17.7232 18.7209 17.6001C18.5978 17.477 18.4309 17.4079 18.2569 17.4079H15.9899C15.8159 17.4079 15.6489 17.477 15.5259 17.6001C15.4028 17.7232 15.3337 17.8901 15.3337 18.0641V23.759H14.4778V16.2517C14.4778 16.0777 14.4087 15.9108 14.2856 15.7877C14.1625 15.6646 13.9956 15.5955 13.8216 15.5955H11.5546C11.3805 15.5955 11.2136 15.6646 11.0906 15.7877C10.9675 15.9108 10.8983 16.0777 10.8983 16.2517V23.759H10.0425V20.0732C10.0425 19.8991 9.97336 19.7322 9.85029 19.6091C9.72722 19.4861 9.5603 19.4169 9.38625 19.4169H7.11928C6.94523 19.4169 6.77831 19.4861 6.65524 19.6091C6.53217 19.7322 6.46303 19.8991 6.46303 20.0732V23.759H5.78259C5.60855 23.759 5.44163 23.8281 5.31856 23.9512C5.19548 24.0742 5.12634 24.2412 5.12634 24.4152C5.12634 24.5893 5.19548 24.7562 5.31856 24.8793C5.44163 25.0023 5.60855 25.0715 5.78259 25.0715H7.06697C7.08441 25.0728 7.10184 25.0741 7.11956 25.0741C7.13728 25.0741 7.15481 25.0728 7.17216 25.0715H9.33347C9.35091 25.0728 9.36834 25.0741 9.38606 25.0741C9.40378 25.0741 9.42131 25.0728 9.43866 25.0715H11.502C11.5193 25.0728 11.5368 25.0741 11.5546 25.0741C11.5724 25.0741 11.5898 25.0728 11.6072 25.0715H13.7688C13.7862 25.0728 13.8037 25.0741 13.8214 25.0741C13.8391 25.0741 13.8566 25.0728 13.874 25.0715H15.9375C15.9548 25.0728 15.9723 25.0741 15.9901 25.0741C16.0079 25.0741 16.0253 25.0728 16.0427 25.0715H18.2043C18.2217 25.0728 18.2392 25.0741 18.2569 25.0741C18.2746 25.0741 18.2921 25.0728 18.3095 25.0715H24.0262C24.2002 25.0715 24.3671 25.0023 24.4902 24.8793C24.6133 24.7562 24.6824 24.5893 24.6824 24.4152C24.6824 24.2412 24.6133 24.0742 24.4902 23.9512C24.3671 23.8281 24.2002 23.759 24.0262 23.759H24.026ZM8.72963 23.759H7.77572V20.7296H8.72963V23.759ZM13.1649 23.759H12.2109V16.9082H13.1649V23.759ZM17.6003 23.759H16.6463V18.7206H17.6003V23.759ZM22.0328 23.759H21.0817V14.4819H22.0328V23.759ZM5.12616 10.7907C5.12616 10.6167 5.1953 10.4497 5.31837 10.3267C5.44144 10.2036 5.60836 10.1345 5.78241 10.1345H13.4518C13.6259 10.1345 13.7928 10.2036 13.9159 10.3267C14.0389 10.4497 14.1081 10.6167 14.1081 10.7907C14.1081 10.9648 14.0389 11.1317 13.9159 11.2548C13.7928 11.3778 13.6259 11.447 13.4518 11.447H5.78259C5.6964 11.447 5.61104 11.43 5.5314 11.3971C5.45176 11.3641 5.37939 11.3158 5.31843 11.2548C5.25748 11.1939 5.20912 11.1215 5.17613 11.0419C5.14314 10.9623 5.12616 10.8769 5.12616 10.7907ZM5.12616 13.3179C5.12616 13.1439 5.1953 12.977 5.31837 12.8539C5.44144 12.7308 5.60836 12.6617 5.78241 12.6617H16.9997C17.1737 12.6617 17.3407 12.7308 17.4637 12.8539C17.5868 12.977 17.6559 13.1439 17.6559 13.3179C17.6559 13.492 17.5868 13.6589 17.4637 13.782C17.3407 13.905 17.1737 13.9742 16.9997 13.9742H5.78259C5.6964 13.9742 5.61104 13.9573 5.5314 13.9243C5.45176 13.8913 5.37939 13.843 5.31843 13.782C5.25748 13.7211 5.20912 13.6487 5.17613 13.5691C5.14314 13.4895 5.12616 13.4041 5.12616 13.3179ZM35.6793 13.1745C36.1073 13.175 36.5258 13.0486 36.8819 12.8112C37.238 12.5739 37.5157 12.2362 37.6798 11.841C37.844 11.4457 37.8872 11.0107 37.8041 10.5908C37.7209 10.171 37.5151 9.78532 37.2126 9.48251C36.9102 9.1797 36.5247 8.97339 36.105 8.8897C35.6853 8.80601 35.2502 8.84869 34.8548 9.01235C34.4593 9.176 34.1213 9.45327 33.8835 9.80908C33.6457 10.1649 33.5187 10.5832 33.5187 11.0112C33.5193 11.5842 33.747 12.1336 34.1519 12.5391C34.5568 12.9446 35.1059 13.1731 35.6789 13.1745H35.6793ZM35.6793 10.1609C35.8476 10.1604 36.0123 10.2098 36.1525 10.3029C36.2927 10.396 36.4021 10.5287 36.4669 10.684C36.5317 10.8394 36.5489 11.0104 36.5164 11.1756C36.4839 11.3407 36.4031 11.4925 36.2843 11.6117C36.1654 11.7309 36.0139 11.8122 35.8489 11.8452C35.6838 11.8782 35.5127 11.8615 35.3571 11.7972C35.2016 11.7329 35.0686 11.6239 34.9751 11.484C34.8815 11.3441 34.8316 11.1795 34.8316 11.0112C34.8318 10.7863 34.9211 10.5706 35.0799 10.4113C35.2386 10.252 35.454 10.1619 35.6789 10.1609H35.6793ZM47.6744 26.9071L43.1625 19.0934C44.2903 18.049 45.1871 16.78 45.7949 15.3681C46.4028 13.9562 46.7084 12.4327 46.692 10.8957C46.6756 9.35858 46.3377 7.84194 45.6998 6.44335C45.062 5.04475 44.1385 3.79516 42.9886 2.77499C41.8388 1.75481 40.4881 0.98665 39.0235 0.51992C37.5589 0.0531907 36.0128 -0.101767 34.4847 0.0650181C32.9566 0.231803 31.4804 0.716636 30.1509 1.48832C28.8215 2.26001 27.6683 3.30145 26.7656 4.54565H2.34122C1.72015 4.54672 1.12486 4.7941 0.685945 5.23352C0.247035 5.67294 0.000346662 6.26852 0 6.88959L0 30.4664C0.000396295 31.0874 0.247106 31.683 0.686012 32.1223C1.12492 32.5617 1.72018 32.8091 2.34122 32.8102H15.9443V36.5944H13.6859C12.4726 36.5944 11.4854 37.4475 11.4854 38.497V39.5633C11.4854 39.7374 11.5545 39.9043 11.6776 40.0274C11.8007 40.1504 11.9676 40.2196 12.1417 40.2196H29.2745C29.4485 40.2196 29.6154 40.1504 29.7385 40.0274C29.8616 39.9043 29.9307 39.7374 29.9307 39.5633V38.4972C29.9307 37.4481 28.9436 36.5946 27.7303 36.5946H25.4719V32.8103H39.075C39.696 32.8093 40.2913 32.562 40.7302 32.1226C41.1691 31.6832 41.4159 31.0876 41.4162 30.4666V25.824L43.45 29.3475C43.6651 29.7181 43.9738 30.0256 44.3451 30.2393C44.7165 30.453 45.1375 30.5653 45.566 30.5649C45.9934 30.5634 46.4129 30.4498 46.7826 30.2353C47.1523 30.0208 47.4593 29.713 47.6727 29.3427C47.8862 28.9724 47.9987 28.5525 47.999 28.1251C47.9993 27.6977 47.8873 27.2777 47.6744 26.9071ZM30.8303 2.61075C31.9337 1.97106 33.1523 1.55521 34.4165 1.38702C35.6807 1.21882 36.9656 1.30158 38.1978 1.63054C39.43 1.95951 40.5852 2.52823 41.5973 3.30416C42.6095 4.08009 43.4587 5.048 44.0963 6.15249C44.734 7.25698 45.1475 8.47637 45.3134 9.74087C45.4793 11.0054 45.3941 12.2902 45.0629 13.5218C44.7316 14.7533 44.1608 15.9075 43.383 16.9182C42.6051 17.9289 41.6357 18.7763 40.53 19.4119C39.7419 19.8679 38.8937 20.2113 38.0103 20.432H38.0083C35.739 20.9925 33.3437 20.7149 31.2627 19.6503C29.1818 18.5857 27.5551 16.8056 26.6818 14.6374C25.8086 12.4692 25.7474 10.0586 26.5096 7.84887C27.2718 5.63915 28.8061 3.77887 30.8303 2.61009V2.61075ZM26.1416 16.5187C26.8616 17.7738 27.8233 18.8736 28.9713 19.7545C30.1192 20.6353 31.4304 21.2797 32.8291 21.6502C33.7642 21.9017 34.7283 22.0294 35.6967 22.0301C36.2963 22.0295 36.8947 21.9791 37.4859 21.8796V26.4138H3.93038V8.47584H24.9679C24.3152 11.2082 24.7353 14.0869 26.1416 16.5187ZM27.7305 37.9073C28.2536 37.9073 28.618 38.2182 28.618 38.4972V38.9065H12.7983V38.4972C12.7983 38.2182 13.1628 37.9073 13.6859 37.9073H27.7305ZM17.2575 36.5948V32.8103H24.1588V36.5946L17.2575 36.5948ZM40.1036 30.4667C40.1036 30.7397 39.9954 31.0016 39.8026 31.1949C39.6098 31.3882 39.3482 31.4972 39.0752 31.4979H2.34122C2.06822 31.4972 1.80666 31.3882 1.61389 31.1949C1.42112 31.0015 1.31287 30.7397 1.31288 30.4667V6.88959C1.31287 6.61659 1.42112 6.35473 1.61389 6.16141C1.80666 5.9681 2.06822 5.85911 2.34122 5.85834H25.9508C25.728 6.28017 25.5327 6.71595 25.3661 7.16297H3.27394C3.09989 7.16297 2.93297 7.23211 2.8099 7.35518C2.68683 7.47825 2.61769 7.64517 2.61769 7.81922V27.0702C2.61769 27.2443 2.68683 27.4112 2.8099 27.5343C2.93297 27.6573 3.09989 27.7265 3.27394 27.7265H38.1424C38.3164 27.7265 38.4833 27.6573 38.6064 27.5343C38.7295 27.4112 38.7986 27.2443 38.7986 27.0702V21.5755C38.8455 21.5615 38.8932 21.5489 38.9402 21.5342L40.1034 23.5498L40.1036 30.4667ZM46.6474 28.418C46.6097 28.561 46.5439 28.6952 46.4539 28.8125C46.3638 28.9299 46.2513 29.0282 46.1229 29.1017C45.8645 29.2504 45.5577 29.2906 45.2697 29.2135C44.9817 29.1364 44.736 28.9482 44.5865 28.6903L40.1837 21.0626C40.8696 20.7537 41.5226 20.3765 42.1328 19.9367L46.5369 27.5625C46.6108 27.6907 46.6586 27.8323 46.6776 27.9791C46.6965 28.1258 46.6863 28.2749 46.6474 28.4177V28.418ZM35.6802 15.0638C37.716 15.0638 39.6951 13.9152 41.9075 11.4496C42.0156 11.3292 42.0754 11.173 42.0754 11.0112C42.0754 10.8494 42.0156 10.6933 41.9075 10.5728C39.695 8.10722 37.7161 6.95869 35.6801 6.95869C33.6442 6.95869 31.6654 8.10712 29.453 10.5728C29.3449 10.6933 29.2851 10.8494 29.2851 11.0112C29.2851 11.173 29.3449 11.3292 29.453 11.4496C31.6655 13.9154 33.6443 15.0638 35.6802 15.0638ZM35.6802 8.27147C37.1797 8.27147 38.7685 9.16884 40.5253 11.0112C38.7685 12.8536 37.1797 13.7511 35.6802 13.7511C34.1808 13.7511 32.5919 12.8536 30.8353 11.0112C32.5919 9.16893 34.1813 8.27147 35.6802 8.27147ZM28.1188 15.3758C28.982 16.8715 30.2694 18.0776 31.8182 18.8415C33.3669 19.6055 35.1074 19.893 36.8195 19.6677C38.5316 19.4424 40.1385 18.7145 41.4369 17.5759C42.7353 16.4374 43.6669 14.9393 44.1139 13.2713C44.5609 11.6033 44.5031 9.84013 43.948 8.20489C43.3929 6.56966 42.3653 5.13577 40.9952 4.08457C39.6251 3.03338 37.9741 2.41209 36.2509 2.29928C34.5277 2.18648 32.8097 2.58723 31.3143 3.45084C29.3118 4.61087 27.8509 6.51754 27.2519 8.75291C26.6529 10.9883 26.9647 13.3699 28.1188 15.3758ZM31.9705 4.58794C33.2407 3.85486 34.6998 3.51488 36.1632 3.61098C37.6266 3.70707 39.0287 4.23493 40.1921 5.12781C41.3555 6.0207 42.2281 7.2385 42.6995 8.62725C43.1708 10.016 43.2198 11.5133 42.8402 12.9299C42.4607 14.3465 41.6696 15.6188 40.567 16.5858C39.4644 17.5528 38.0999 18.1712 36.6459 18.3628C35.1919 18.5543 33.7137 18.3104 32.3983 17.662C31.0829 17.0135 29.9893 15.9895 29.2558 14.7196C28.2755 13.0154 28.0107 10.992 28.5195 9.09289C29.0284 7.19379 30.2693 5.57384 31.9703 4.58803L31.9705 4.58794Z" fill="#E6A424"/>
</svg>
