<svg width="48" height="48" viewBox="0 0 48 48" fill="none" xmlns="http://www.w3.org/2000/svg">
<path d="M21.6508 46.5H35.1043C37.4548 46.5 39.3681 44.5874 39.3681 42.2362V28.7827C39.3681 28.3687 39.0321 28.0327 38.6181 28.0327H31.8508C31.5163 28.0327 31.2223 28.254 31.1301 28.5757C31.0371 28.8967 31.1691 29.2409 31.4526 29.4187C32.0766 29.8094 32.4493 30.4822 32.4493 31.2179C32.4493 31.8614 32.1606 32.4629 31.6558 32.868C31.1413 33.2812 30.4918 33.4274 29.8296 33.2819C29.0008 33.0989 28.3378 32.3812 28.2178 31.5367C28.0956 30.6817 28.4691 29.8702 29.1913 29.4179C29.4748 29.2402 29.6068 28.8967 29.5138 28.5749C29.4216 28.2532 29.1276 28.0319 28.7931 28.0319H22.4001V23.2994C23.0691 23.6347 23.8408 23.7577 24.6261 23.6317C26.0751 23.3977 27.2548 22.2779 27.5623 20.8454C27.7971 19.7497 27.5338 18.6292 26.8408 17.7719C26.1493 16.9169 25.1241 16.4264 24.0283 16.4264C23.4531 16.4264 22.8973 16.5614 22.4001 16.8112V11.8147C22.4001 11.4007 22.0641 11.0647 21.6501 11.0647H8.19734C5.84684 11.0647 3.93359 12.9772 3.93359 15.3284V42.2362C3.93359 44.5867 5.84609 46.5 8.19734 46.5H21.6508ZM26.7336 31.7497C26.9436 33.2227 28.0581 34.4279 29.5071 34.7482C30.6096 34.9912 31.7331 34.7324 32.5963 34.0379C33.4566 33.3472 33.9501 32.3189 33.9501 31.2187C33.9501 30.6187 33.8053 30.0434 33.5376 29.5334H37.8688V42.237C37.8688 43.761 36.6291 45.0007 35.1051 45.0007H22.4008V38.9512C22.4008 38.8664 22.3866 38.784 22.3603 38.7075C22.2808 38.4765 22.0918 38.2935 21.8458 38.2267C21.7978 38.214 21.7498 38.2162 21.7018 38.2124C21.4206 38.1922 21.1468 38.3242 21.0021 38.5739C20.5468 39.357 19.6686 39.7627 18.7633 39.6045C18.5601 39.5692 18.3658 39.5032 18.1866 39.4109C18.0066 39.3187 17.8416 39.201 17.6953 39.0622C17.4036 38.7847 17.1906 38.4247 17.0983 38.0227C16.9843 37.5224 17.0368 37.0304 17.2446 36.5969C17.3136 36.4522 17.4006 36.3142 17.5041 36.1844C17.9098 35.6759 18.5128 35.385 19.1593 35.385C19.9266 35.385 20.6158 35.7832 21.0036 36.4499C21.1746 36.7432 21.5211 36.8849 21.8473 36.7972C22.1751 36.7087 22.4023 36.4117 22.4023 36.0727V29.5327H27.1161C26.7673 30.1987 26.6241 30.9712 26.7351 31.7489L26.7336 31.7497ZM5.43359 15.3292C5.43359 13.8052 6.67334 12.5654 8.19734 12.5654H20.9008V18.4357C20.9008 18.7649 21.1161 19.0559 21.4311 19.1527C21.7468 19.2494 22.0873 19.1294 22.2718 18.8564C22.6663 18.2744 23.3233 17.9272 24.0291 17.9272C24.6703 17.9272 25.2703 18.2144 25.6753 18.7154C26.0886 19.2262 26.2378 19.8719 26.0968 20.5319C25.9213 21.3517 25.2186 22.0177 24.3883 22.1519C23.5521 22.2862 22.7398 21.9419 22.2726 21.2512C22.0873 20.9782 21.7468 20.8582 21.4311 20.9549C21.1161 21.0517 20.9008 21.3427 20.9008 21.6719V28.0327H16.0791C16.1661 27.8677 16.2343 27.6937 16.2943 27.5159C16.2943 27.5144 16.2943 27.5137 16.2958 27.5122C16.3513 27.3472 16.3941 27.1784 16.4256 27.0052C16.4301 26.9812 16.4346 26.9579 16.4383 26.9339C16.4646 26.7712 16.4818 26.6062 16.4856 26.4382C16.4856 26.4202 16.4886 26.4029 16.4886 26.3849C16.4886 26.3722 16.4908 26.3594 16.4908 26.3467C16.4908 26.1862 16.4773 26.0272 16.4563 25.8704C16.4541 25.8524 16.4556 25.8344 16.4526 25.8157C16.4473 25.7782 16.4346 25.7429 16.4278 25.7054C16.4091 25.6027 16.3873 25.5014 16.3603 25.4009C16.3423 25.3327 16.3243 25.2652 16.3026 25.1992C16.2718 25.1077 16.2351 25.0192 16.1976 24.9314C16.1458 24.8084 16.0866 24.6907 16.0221 24.5752C15.9891 24.5174 15.9583 24.4589 15.9223 24.4027C15.8691 24.3187 15.8113 24.2399 15.7513 24.1612C15.7221 24.1229 15.6928 24.0862 15.6621 24.0494C15.3433 23.6617 14.9473 23.3437 14.4943 23.1172C14.4598 23.0999 14.4253 23.0827 14.3901 23.0669C14.2933 23.0219 14.1958 22.9799 14.0946 22.9439C14.0263 22.9192 13.9566 22.9012 13.8868 22.8809C13.8171 22.8614 13.7511 22.8337 13.6806 22.8179C13.5493 22.7894 13.4181 22.7684 13.2868 22.7534C13.2846 22.7534 13.2823 22.7527 13.2801 22.7527C13.2066 22.7444 13.1338 22.7437 13.0611 22.7399C12.9943 22.7362 12.9283 22.7294 12.8608 22.7294C12.8256 22.7294 12.7903 22.7339 12.7551 22.7347C12.5196 22.7414 12.2833 22.7654 12.0478 22.8179C11.9766 22.8337 11.9106 22.8607 11.8416 22.8809C11.7718 22.9012 11.7013 22.9199 11.6323 22.9447C11.5318 22.9807 11.4351 23.0227 11.3383 23.0669C11.3023 23.0834 11.2663 23.1007 11.2311 23.1187C10.7781 23.3452 10.3828 23.6632 10.0648 24.0502C10.0348 24.0869 10.0056 24.1237 9.97709 24.1612C9.91709 24.2407 9.85859 24.3202 9.80534 24.4042C9.77009 24.4589 9.73934 24.5167 9.70784 24.5737C9.64259 24.6899 9.58334 24.8084 9.53084 24.9314C9.49334 25.0199 9.45584 25.1092 9.42509 25.2007C9.40334 25.2659 9.38609 25.3327 9.36809 25.3994C9.34034 25.5022 9.31709 25.6064 9.29834 25.7122C9.29234 25.7474 9.28034 25.7804 9.27509 25.8164C9.27284 25.8337 9.27434 25.8509 9.27209 25.8674C9.25109 26.0257 9.23684 26.1847 9.23684 26.3467C9.23684 26.3602 9.23909 26.3729 9.23909 26.3857C9.23909 26.4022 9.24134 26.4179 9.24209 26.4337C9.24584 26.6032 9.26309 26.7697 9.29009 26.9339C9.29384 26.9572 9.29834 26.9804 9.30284 27.0029C9.33434 27.1762 9.37709 27.3464 9.43334 27.5114C9.43334 27.5122 9.43334 27.5137 9.43409 27.5144C9.49409 27.6922 9.56309 27.8662 9.65009 28.0312H5.43359V15.3292ZM5.43359 42.2362V29.5327H11.3361C11.6706 29.5327 11.9646 29.3114 12.0568 28.9897C12.1498 28.6679 12.0178 28.3244 11.7343 28.1467C11.5896 28.0559 11.4621 27.9472 11.3458 27.8287C11.3316 27.8144 11.3158 27.8009 11.3023 27.7859C11.1936 27.6689 11.1006 27.5399 11.0218 27.4027C11.0106 27.3832 10.9993 27.3629 10.9888 27.3427C10.9146 27.2032 10.8553 27.0562 10.8133 26.9032C10.8081 26.8829 10.8051 26.8627 10.7998 26.8424C10.7623 26.6834 10.7383 26.5199 10.7376 26.3519C10.7376 26.3489 10.7376 26.3459 10.7376 26.3429C10.7376 26.1967 10.7563 26.0534 10.7856 25.9132C10.7908 25.8877 10.7961 25.8629 10.8028 25.8382C10.8726 25.5554 11.0001 25.2907 11.1778 25.0597C11.1898 25.0439 11.2026 25.0282 11.2153 25.0124C11.3091 24.8984 11.4126 24.7912 11.5303 24.6959C11.6548 24.5962 11.7876 24.5137 11.9256 24.4447C11.9353 24.4402 11.9443 24.4357 11.9541 24.4312C12.0913 24.3659 12.2346 24.3149 12.3816 24.2812C12.5833 24.2377 12.7821 24.2294 12.9778 24.2399C13.0993 24.2467 13.2208 24.2542 13.3438 24.2812C13.4923 24.3149 13.6356 24.3659 13.7736 24.4319C13.7826 24.4364 13.7923 24.4409 13.8013 24.4454C13.9393 24.5137 14.0728 24.5962 14.1966 24.6967C14.3143 24.7912 14.4178 24.8984 14.5108 25.0124C14.5236 25.0282 14.5371 25.0447 14.5491 25.0604C14.7268 25.2914 14.8543 25.5554 14.9241 25.8382C14.9301 25.8637 14.9361 25.8884 14.9413 25.9139C14.9706 26.0534 14.9893 26.1959 14.9893 26.3414V26.3527C14.9893 26.5207 14.9653 26.6842 14.9271 26.8432C14.9226 26.8634 14.9196 26.8837 14.9136 26.9039C14.8723 27.0577 14.8123 27.2047 14.7381 27.3442C14.7276 27.3644 14.7163 27.3839 14.7051 27.4034C14.6263 27.5407 14.5333 27.6697 14.4246 27.7867C14.4111 27.8017 14.3953 27.8152 14.3811 27.8294C14.2648 27.9479 14.1373 28.0567 13.9926 28.1467C13.7091 28.3244 13.5771 28.6679 13.6701 28.9897C13.7623 29.3114 14.0563 29.5327 14.3908 29.5327H20.8986V34.3327C20.3713 34.0439 19.7736 33.8842 19.1556 33.8842C18.0501 33.8842 17.0188 34.3815 16.3273 35.2485C16.2403 35.3572 16.1608 35.4704 16.0881 35.5867C15.5781 36.4019 15.4116 37.3897 15.6328 38.3557C15.9493 39.7425 17.1028 40.8375 18.5031 41.0812C19.3513 41.2275 20.1883 41.0819 20.8978 40.6949V44.9992H8.19734C6.67334 44.9992 5.43359 43.7602 5.43359 42.2362Z" fill="#E6A424"/>
<path d="M37.2196 1.77969C37.0748 1.74069 36.9361 1.70769 36.7936 1.67994C36.4981 1.62219 36.1981 1.57494 35.8733 1.54119L35.7526 1.53144C35.6431 1.52244 35.5321 1.51419 35.4518 1.51194C35.1713 1.49244 34.8878 1.49394 34.5848 1.50594C34.4468 1.51194 34.3201 1.51869 34.2106 1.53294C29.7023 1.92519 26.0506 5.75394 25.8983 10.2367C25.8826 10.5427 25.8863 10.8607 25.9081 11.1764C26.0783 13.8854 27.4538 16.3612 29.6806 17.9699C30.0938 18.2677 30.4021 18.7049 30.5731 19.2337C30.6556 19.4887 30.7013 19.7467 30.7133 20.0137L30.7171 20.1179C30.7171 20.1254 30.7133 20.1314 30.7133 20.1382V23.8807C30.7133 24.6914 31.3358 25.3507 32.1008 25.3507H32.5966C32.7406 26.4307 33.4636 27.2309 34.3658 27.2309H35.5883C36.4913 27.2309 37.2143 26.4307 37.3576 25.3507H37.8451C38.6101 25.3507 39.2326 24.6914 39.2326 23.8807V20.1382C39.2326 20.1382 39.2318 20.1344 39.2318 20.1329C39.2438 19.8232 39.3016 19.5179 39.4043 19.2247C39.5911 18.6884 39.9173 18.2347 40.3396 17.9189C42.5296 16.3229 43.8811 13.8652 44.0446 11.1922C44.0611 10.9964 44.0663 10.7947 44.0663 10.5877C44.0663 6.42219 41.2471 2.79894 37.2203 1.78044L37.2196 1.77969ZM35.5876 25.7302H34.3688C34.3186 25.7182 34.1941 25.5884 34.1206 25.3499H35.8321C35.7593 25.5877 35.6356 25.7182 35.5876 25.7302ZM37.7303 23.8499H32.2126V20.8874H37.7318L37.7303 23.8499ZM42.5483 11.0834C42.4103 13.3252 41.2838 15.3742 39.4486 16.7114C38.7781 17.2124 38.2733 17.9107 37.9883 18.7282C37.9133 18.9404 37.8548 19.1579 37.8121 19.3844H32.1511C32.1151 19.1759 32.0648 18.9704 32.0003 18.7709C31.7311 17.9362 31.2323 17.2387 30.5588 16.7527C28.6966 15.4079 27.5476 13.3409 27.4051 11.0767C27.3871 10.8149 27.3841 10.5577 27.3968 10.2997C27.5243 6.54894 30.5746 3.35394 34.3688 3.02319C34.4656 3.01119 34.5541 3.00819 34.6486 3.00369C34.7551 2.99919 34.8646 3.00069 34.9793 2.99994C35.1046 3.00144 35.2231 2.99994 35.3731 3.00969C35.4563 3.01269 35.5448 3.02019 35.6311 3.02694L35.7406 3.03519C35.9971 3.06219 36.2536 3.10269 36.5071 3.15219C36.6166 3.17319 36.7216 3.19869 36.8416 3.23019C40.2121 4.08294 42.5656 7.10769 42.5656 10.5862C42.5656 10.7504 42.5618 10.9109 42.5476 11.0827L42.5483 11.0834Z" fill="#E6A424"/>
<path d="M35.3646 4.07014C34.9566 4.05139 34.5989 4.36114 34.5741 4.77364C34.5494 5.18614 34.8636 5.54089 35.2761 5.56789C35.4636 5.57989 39.8601 5.91814 39.9404 10.7354C39.9471 11.1449 40.2816 11.4726 40.6904 11.4726H40.7031C41.1171 11.4659 41.4471 11.1246 41.4404 10.7099C41.3579 5.72839 37.4301 4.18864 35.3646 4.07014Z" fill="#E6A424"/>
</svg>
