<svg width="48" height="46" viewBox="0 0 48 46" fill="none" xmlns="http://www.w3.org/2000/svg">
<path d="M31.5035 40.2489C30.3501 40.8097 29.133 41.2588 27.868 41.583V43.6346C27.868 44.6126 27.0654 45.4126 26.0874 45.4126H20.1427C19.162 45.4126 18.3622 44.6126 18.3622 43.6346V41.583C16.5737 41.1259 14.8862 40.419 13.3369 39.4995L11.8859 40.9505C11.1922 41.6441 10.0601 41.6441 9.36919 40.9505L5.16506 36.7463C4.4715 36.0553 4.4715 34.9206 5.16506 34.2295L6.61612 32.7785C5.69662 31.2292 4.98975 29.5417 4.53262 27.7531H2.481C1.50309 27.7531 0.703125 26.9505 0.703125 25.9725V20.0275C0.703125 19.0469 1.50309 18.247 2.481 18.247H4.53262C4.98975 16.4585 5.69662 14.7709 6.61612 13.2216L5.16506 11.7705C4.4715 11.0769 4.4715 9.94473 5.16506 9.25379L9.36919 5.04957C10.0601 4.35592 11.1922 4.35592 11.8859 5.04957L13.3369 6.50063C14.8862 5.58104 16.5737 4.87417 18.3622 4.41704V2.36542C18.3622 1.38742 19.162 0.587542 20.1427 0.587542H26.0874C27.0654 0.587542 27.868 1.38742 27.868 2.36542V4.41704C29.6565 4.87417 31.344 5.58104 32.8933 6.50063L34.3443 5.04957C35.0352 4.35592 36.17 4.35592 36.8609 5.04957L41.0651 9.25379C41.7587 9.94473 41.7587 11.0769 41.0651 11.7705L39.6142 13.2216C40.5336 14.7709 41.2405 16.4585 41.6976 18.247H43.7492C44.7271 18.247 45.527 19.0469 45.527 20.0275V25.9725C45.527 26.7645 45.0035 27.4395 44.286 27.6681" stroke="#E6A424" stroke-miterlimit="10" stroke-linecap="round" stroke-linejoin="round"/>
<path d="M14.3334 12.8255C11.4793 15.2891 9.6748 18.9326 9.6748 22.9987C9.6748 30.4239 15.6914 36.4407 23.1138 36.4407C25.362 36.4407 27.4774 35.8905 29.3375 34.9152M36.3002 25.619C36.4676 24.7712 36.5554 23.8969 36.5554 22.9987C36.5554 15.5761 30.5388 9.55936 23.1138 9.55936C20.8336 9.55936 18.6864 10.1281 16.8049 11.1301" stroke="#E6A424" stroke-miterlimit="10" stroke-linecap="round" stroke-linejoin="round"/>
<path d="M20.3288 36.1509V27.5936C17.5225 26.5544 15.5107 23.8464 15.5107 20.6919C15.5107 18.1724 16.7917 15.9374 18.7371 14.6114C20.778 13.2161 20.382 15.4192 20.382 15.7887V20.2081C20.382 21.7548 21.5938 23.0305 23.1139 23.1342C24.6339 23.0305 25.8457 21.7548 25.8457 20.2081V15.7887C25.8457 15.4192 25.4525 13.2161 27.4934 14.6114C29.4387 15.9374 30.7196 18.1724 30.7196 20.6919C30.7196 23.8464 28.7078 26.5544 25.9015 27.5936V36.1509" stroke="#E6A424" stroke-miterlimit="10" stroke-linecap="round" stroke-linejoin="round"/>
<path d="M42.5374 42.3138C41.2777 42.9862 39.8374 43.3689 38.3093 43.3689C33.3452 43.3689 29.3218 39.3453 29.3218 34.381C29.3218 29.4167 33.3452 25.3932 38.3093 25.3932C43.2736 25.3932 47.297 29.4167 47.297 34.381C47.297 36.6745 46.4359 38.766 45.0222 40.3552" stroke="#E6A424" stroke-miterlimit="10" stroke-linecap="round" stroke-linejoin="round"/>
<path d="M37.2866 34.2852L40.1885 30.8251C40.7918 30.1049 41.8707 30.0092 42.5936 30.6125C43.3138 31.2158 43.4094 32.2947 42.8035 33.0176L38.8013 37.7932C38.4984 38.1573 38.1077 38.3593 37.6374 38.3991C37.167 38.439 36.7498 38.3061 36.3883 38.0005L34.1374 36.0897C33.4199 35.4811 33.3322 34.4021 33.9381 33.6846C34.5466 32.967 35.6283 32.8794 36.3432 33.4853L37.2866 34.2852Z" stroke="#E6A424" stroke-miterlimit="10" stroke-linecap="round" stroke-linejoin="round"/>
</svg>
