<svg width="48" height="48" viewBox="0 0 48 48" fill="none" xmlns="http://www.w3.org/2000/svg">
<path d="M24.0489 23.8828C20.9673 23.8828 18.4604 26.3897 18.4604 29.4713C18.4604 32.5528 20.9673 35.0597 24.0489 35.0597C27.1304 35.0597 29.6373 32.5528 29.6373 29.4713C29.6373 26.3897 27.1304 23.8828 24.0489 23.8828ZM24.0489 33.5616C21.7942 33.5616 19.9595 31.7269 19.9595 29.4722C19.9595 27.2175 21.7942 25.3828 24.0489 25.3828C26.3036 25.3828 28.1382 27.2175 28.1382 29.4722C28.1382 31.7269 26.3036 33.5616 24.0489 33.5616ZM26.4048 27.7378C26.6973 28.0303 26.6973 28.5047 26.4048 28.7972L24.0001 31.2019C23.8539 31.3481 23.6617 31.4213 23.4704 31.4213C23.2792 31.4213 23.087 31.3481 22.9407 31.2019L21.6948 29.9578C21.4023 29.6653 21.4014 29.191 21.6939 28.8985C21.9864 28.606 22.4607 28.605 22.7532 28.8975L23.4695 29.6119L25.3454 27.736C25.6379 27.4435 26.1123 27.4435 26.4048 27.736V27.7378ZM47.2351 42.2906C47.2276 42.2522 47.2173 42.2147 47.2042 42.1772C47.1873 42.1313 47.1667 42.0863 47.1414 42.0441L45.6929 39.5381L44.2398 37.0163C44.0326 36.6581 43.5751 36.5344 43.2161 36.7416C42.8579 36.9488 42.7342 37.4063 42.9414 37.7653L44.3954 40.2881L44.4507 40.3838L37.7739 36.5288V21.9816C37.7739 21.975 37.7729 21.9685 37.7729 21.9619C37.7729 21.9356 37.7711 21.9085 37.7673 21.8822C37.7673 21.8766 37.7645 21.871 37.7636 21.8644C37.7598 21.8381 37.7542 21.811 37.7476 21.7856C37.7457 21.78 37.7439 21.7744 37.742 21.7688C37.7345 21.7435 37.7261 21.7181 37.7157 21.6928C37.7129 21.6853 37.7082 21.6778 37.7045 21.6713C37.6942 21.6497 37.6848 21.6272 37.6726 21.6066C37.6661 21.5944 37.6576 21.5841 37.6501 21.5728C37.6398 21.5569 37.6304 21.541 37.6192 21.526C37.6051 21.5081 37.5901 21.4913 37.5742 21.4744C37.5676 21.4669 37.562 21.4594 37.5545 21.4528C37.5339 21.4322 37.5123 21.4135 37.4889 21.3956C37.4861 21.3938 37.4832 21.391 37.4804 21.3881C37.4542 21.3685 37.427 21.3497 37.3989 21.3338L37.3576 21.3094L30.9132 17.5894L24.8007 14.0588V6.34689L26.312 8.96627C26.5192 9.32439 26.9767 9.44721 27.3357 9.24096C27.6939 9.03377 27.8167 8.57627 27.6104 8.21721L24.7079 3.18846C24.6845 3.14627 24.6573 3.10596 24.6264 3.06939C24.5982 3.03658 24.5682 3.00564 24.5354 2.97846C24.4061 2.86877 24.2382 2.80221 24.0554 2.80127H24.0545C24.0545 2.80127 24.0536 2.80127 24.0526 2.80127C24.0517 2.80127 24.0526 2.80127 24.0517 2.80127C24.0517 2.80127 24.0507 2.80127 24.0498 2.80127C23.8642 2.80127 23.6945 2.87064 23.5632 2.98314C23.5332 3.00939 23.5051 3.03752 23.4798 3.06752C23.4489 3.10502 23.4207 3.14533 23.3973 3.18846L21.9517 5.69721L20.4957 8.21627C20.2886 8.57439 20.4114 9.03283 20.7695 9.24002C21.1286 9.44721 21.5861 9.32439 21.7932 8.96627L23.2501 6.44627L23.3054 6.35064V14.0578L17.1929 17.5885L10.7101 21.33L10.7064 21.3319C10.6923 21.3403 10.6792 21.3497 10.6661 21.3591C10.6529 21.3685 10.6379 21.3769 10.6257 21.3863C10.6117 21.3966 10.5995 21.4088 10.5864 21.421C10.5751 21.4313 10.5629 21.4406 10.5517 21.4519C10.5386 21.465 10.5273 21.4791 10.5151 21.4931C10.5057 21.5035 10.4954 21.5138 10.487 21.525C10.4748 21.541 10.4654 21.5569 10.4542 21.5738C10.4467 21.585 10.4392 21.5944 10.4326 21.6056C10.4223 21.6235 10.4139 21.6431 10.4045 21.6619C10.3998 21.6722 10.3932 21.6825 10.3886 21.6928C10.3801 21.7135 10.3736 21.7341 10.367 21.7547C10.3642 21.765 10.3595 21.7744 10.3567 21.7847C10.3501 21.8081 10.3464 21.8325 10.3426 21.8569C10.3417 21.8653 10.3389 21.8728 10.3379 21.8813C10.3342 21.9075 10.3332 21.9338 10.3323 21.961C10.3323 21.9675 10.3314 21.9741 10.3314 21.9806V36.2944L3.55043 40.2103L5.06449 37.59C5.27168 37.2319 5.14887 36.7735 4.79074 36.5663C4.43168 36.3591 3.97418 36.4819 3.76699 36.84L2.31012 39.36L0.863555 41.8697C0.838242 41.9119 0.817617 41.956 0.800742 42.0019C0.78668 42.0394 0.776367 42.0778 0.768867 42.1172C0.736055 42.2878 0.762305 42.4697 0.856055 42.6319C0.949805 42.7941 1.09512 42.9085 1.26012 42.9656C1.29762 42.9788 1.33605 42.9891 1.37543 42.9956C1.41855 43.0031 1.46168 43.0069 1.50574 43.0069H1.51887H7.3248C7.73918 43.0069 8.07387 42.6713 8.07387 42.2578C8.07387 41.8444 7.73824 41.5088 7.3248 41.5088H4.30137L10.8779 37.71L17.1929 41.3578L23.6795 45.1022C23.7957 45.1688 23.9251 45.2025 24.0545 45.2025C24.1839 45.2025 24.3132 45.1688 24.4295 45.1022L30.9161 41.3578L37.0286 37.8272L43.7082 41.6841H40.6848C40.2704 41.6841 39.9357 42.0197 39.9357 42.4331C39.9357 42.8466 40.2714 43.1822 40.6848 43.1822H46.4907C46.4907 43.1822 46.5001 43.1822 46.5039 43.1822C46.547 43.1822 46.5901 43.1785 46.6323 43.171C46.6736 43.1635 46.7148 43.1531 46.7542 43.1391C46.9136 43.0828 47.0551 42.9722 47.1479 42.8156C47.2407 42.6591 47.1479 42.8156 47.1479 42.8147C47.1489 42.8128 47.1498 42.811 47.1517 42.8091C47.1517 42.8072 47.1536 42.8063 47.1545 42.8044C47.2454 42.6441 47.2698 42.4631 47.237 42.2953L47.2351 42.2906ZM30.4782 34.8563L31.0886 35.4685C30.7679 35.8444 30.4201 36.1931 30.047 36.511L29.4376 35.8997C29.1807 35.6419 28.7748 35.6063 28.4767 35.8153C27.5523 36.4641 26.5192 36.8925 25.4073 37.0885C25.0492 37.1513 24.7876 37.4625 24.7876 37.8263V38.6878C24.542 38.7066 24.2954 38.7169 24.0489 38.7169C23.8032 38.7169 23.5576 38.7075 23.3129 38.6878V37.8263C23.3129 37.4625 23.0514 37.1513 22.6932 37.0885C21.5823 36.8925 20.5482 36.4641 19.6201 35.8144C19.322 35.6063 18.917 35.6419 18.6601 35.8988L18.0507 36.5091C17.6767 36.1894 17.3279 35.8416 17.0082 35.4666L17.6186 34.8553C17.8754 34.5985 17.9101 34.1944 17.702 33.8972C17.0542 32.97 16.6267 31.9369 16.4307 30.8269C16.3679 30.4688 16.0567 30.2072 15.6929 30.2072H14.8304C14.8098 29.9588 14.8004 29.7122 14.8004 29.4713C14.8004 29.2303 14.8107 28.9819 14.8304 28.7325H15.6929C16.0567 28.7325 16.3679 28.471 16.4307 28.1128C16.6267 27.001 17.0551 25.9678 17.7039 25.0435C17.9129 24.7453 17.8773 24.3394 17.6195 24.0825L17.0082 23.4731C17.3261 23.1 17.6748 22.7522 18.0498 22.4316L18.6592 23.041C18.9161 23.2978 19.3211 23.3335 19.6192 23.1253C20.5473 22.4756 21.5814 22.0472 22.6923 21.8513C23.0504 21.7885 23.312 21.4772 23.312 21.1135V20.2519C23.8014 20.2135 24.2954 20.2135 24.7867 20.2519V21.1135C24.7867 21.4772 25.0482 21.7885 25.4064 21.8513C26.5182 22.0472 27.5514 22.4756 28.4757 23.1244C28.7739 23.3335 29.1789 23.2978 29.4357 23.041L30.0451 22.4316C30.4201 22.7503 30.7679 23.0991 31.0876 23.4741L30.4782 24.0835C30.2214 24.3403 30.1857 24.7444 30.3939 25.0425C31.0351 25.9594 31.4757 27.0216 31.6679 28.1128C31.7307 28.471 32.042 28.7325 32.4057 28.7325H33.2673C33.287 28.9781 33.2964 29.2247 33.2964 29.4713C33.2964 29.7178 33.287 29.9625 33.2673 30.2072H32.4057C32.042 30.2072 31.7307 30.4688 31.6679 30.8269C31.472 31.9388 31.0436 32.9719 30.3948 33.8963C30.1857 34.1935 30.2214 34.5985 30.4773 34.8563H30.4782ZM24.0489 15.3544L30.1614 18.885L35.2839 21.8419L32.8117 23.3278C32.7873 23.2435 32.7489 23.1619 32.6936 23.0869C32.057 22.2244 31.2967 21.4641 30.4342 20.8275C30.1361 20.6072 29.7217 20.6381 29.4592 20.9006L28.8076 21.5522C28.022 21.0769 27.1782 20.7272 26.2876 20.5069V19.5835C26.2876 19.2122 26.0148 18.8963 25.6473 18.8419C24.5936 18.6863 23.5014 18.6872 22.4542 18.8419C22.0867 18.8963 21.8148 19.2122 21.8148 19.5835V20.5069C20.9242 20.7272 20.0795 21.0769 19.2929 21.5522L18.6404 20.8997C18.3779 20.6372 17.9626 20.6063 17.6645 20.8275C16.7992 21.4688 16.0389 22.2291 15.4061 23.0869C15.3517 23.161 15.3123 23.2425 15.2879 23.3269L12.8167 21.841L17.9382 18.885L24.0507 15.3544H24.0489ZM11.8248 36.5278V23.2781L15.7014 25.5169C15.4398 26.0663 15.2345 26.6391 15.0873 27.2335H14.1639C13.7926 27.2335 13.4767 27.5063 13.4223 27.8738C13.3426 28.4119 13.3023 28.9491 13.3023 29.4713C13.3023 29.9935 13.3426 30.5288 13.4223 31.066C13.4767 31.4335 13.7917 31.7063 14.1639 31.7063H15.0873C15.3076 32.596 15.6573 33.4397 16.1307 34.2263L15.4773 34.8816C15.2157 35.1441 15.1848 35.5585 15.4061 35.8566C16.0436 36.7172 16.8039 37.4766 17.6645 38.115C17.9636 38.3363 18.3789 38.3053 18.6414 38.0419L19.2939 37.3875C20.0814 37.8628 20.9251 38.2125 21.8157 38.4328V39.3563C21.8157 39.7275 22.0876 40.0435 22.4551 40.0978C22.7345 40.1391 23.0167 40.1691 23.3017 40.1888V43.1531L17.9392 40.0575L11.8267 36.5269L11.8248 36.5278ZM30.1614 40.0585L24.7989 43.1541V40.1897C25.0829 40.17 25.367 40.141 25.6473 40.0988C26.0148 40.0444 26.2876 39.7294 26.2876 39.3572V38.4338C27.1782 38.2135 28.022 37.8638 28.8067 37.3885L29.4582 38.0419C29.7207 38.3044 30.1351 38.3353 30.4342 38.116C31.292 37.4822 32.0523 36.7228 32.6936 35.8575C32.9148 35.5594 32.8839 35.145 32.6223 34.8825L31.9698 34.2281C32.4451 33.4425 32.7948 32.5988 33.0151 31.7072H33.9386C34.3098 31.7072 34.6257 31.4344 34.6801 31.0669C34.7579 30.541 34.7973 30.0047 34.7973 29.4722C34.7973 28.9397 34.7579 28.4006 34.6801 27.8747C34.6257 27.5072 34.3107 27.2344 33.9386 27.2344H33.0142C32.867 26.6456 32.6589 26.07 32.3973 25.5178L36.2748 23.2781V36.5278L30.1623 40.0585H30.1614Z" fill="#E6A424"/>
</svg>
