<svg width="48" height="48" viewBox="0 0 48 48" fill="none" xmlns="http://www.w3.org/2000/svg">
<path d="M45.75 21.7499H44.19C43.515 11.7974 35.94 3.53994 26.34 2.38494L26.16 3.88494C35.0325 4.93494 42 12.5549 42.675 21.7499H39.75C39.7193 20.9386 39.624 20.1311 39.465 19.3349L37.965 19.6349C38.1131 20.3318 38.2084 21.0388 38.25 21.7499H36.75C36.6477 21.7493 36.5464 21.7696 36.4522 21.8096C36.3581 21.8496 36.2731 21.9084 36.2025 21.9824C36.132 22.0573 36.0776 22.1459 36.0428 22.2426C36.0079 22.3394 35.9934 22.4423 36 22.5449V23.2274H27.675C27.5067 22.4293 27.0828 21.7079 26.4675 21.1724L27.6525 19.1024C27.7056 19.0101 27.7384 18.9075 27.7488 18.8014C27.7591 18.6954 27.7468 18.5883 27.7125 18.4874L24.7125 9.48744C24.6632 9.33739 24.5677 9.20674 24.4398 9.11412C24.3119 9.02149 24.1579 8.97163 24 8.97163C23.8421 8.97163 23.6881 9.02149 23.5602 9.11412C23.4323 9.20674 23.3368 9.33739 23.2875 9.48744L20.2875 18.4874C20.2532 18.5883 20.2409 18.6954 20.2512 18.8014C20.2616 18.9075 20.2944 19.0101 20.3475 19.1024L21.5325 21.1724C20.913 21.7137 20.4887 22.4437 20.325 23.2499H12C12 23.0249 12 22.8074 12 22.5824C12.0066 22.4798 11.9921 22.3769 11.9572 22.2801C11.9224 22.1834 11.868 22.0948 11.7975 22.0199C11.7303 21.9391 11.6468 21.8732 11.5525 21.8267C11.4581 21.7802 11.3551 21.754 11.25 21.7499H9.75C9.7818 21.0321 9.86704 20.3176 10.005 19.6124L8.505 19.3124C8.36817 20.1179 8.29544 20.933 8.2875 21.7499H5.2875C6 12.5624 12.96 4.93494 21.84 3.87744L21.66 2.37744C12.0375 3.53244 4.5 11.8049 3.8025 21.7499H2.25C2.05109 21.7499 1.86032 21.829 1.71967 21.9696C1.57902 22.1103 1.5 22.301 1.5 22.4999V27.7499C1.5 27.9489 1.57902 28.1396 1.71967 28.2803C1.86032 28.4209 2.05109 28.4999 2.25 28.4999H3.915C4.51939 28.5065 5.10772 28.6955 5.60289 29.0421C6.09805 29.3887 6.47697 29.8768 6.69 30.4424C6.93074 30.9914 7.00153 31.5998 6.89325 32.1893C6.78497 32.7788 6.50258 33.3224 6.0825 33.7499L4.905 34.9274C4.83549 34.9975 4.78049 35.0806 4.74317 35.172C4.70585 35.2634 4.68693 35.3612 4.6875 35.4599C4.69026 35.6585 4.76795 35.8487 4.905 35.9924L11.25 42.3524C11.3197 42.4227 11.4027 42.4785 11.4941 42.5166C11.5855 42.5547 11.6835 42.5743 11.7825 42.5743C11.8815 42.5743 11.9795 42.5547 12.0709 42.5166C12.1623 42.4785 12.2453 42.4227 12.315 42.3524L13.5 41.1749C13.9332 40.7509 14.4846 40.468 15.0818 40.3636C15.6789 40.2592 16.2936 40.3381 16.845 40.5899C17.3989 40.807 17.8758 41.1839 18.215 41.6727C18.5542 42.1615 18.7404 42.7401 18.75 43.3349V44.9999C18.75 45.1989 18.829 45.3896 18.9697 45.5303C19.1103 45.6709 19.3011 45.7499 19.5 45.7499H28.5C28.6989 45.7499 28.8897 45.6709 29.0303 45.5303C29.171 45.3896 29.25 45.1989 29.25 44.9999V43.3349C29.2694 42.7356 29.4616 42.1546 29.8034 41.6619C30.1452 41.1691 30.622 40.7856 31.1766 40.5575C31.7312 40.3293 32.3399 40.2662 32.9294 40.3757C33.519 40.4853 34.0644 40.7628 34.5 41.1749L35.6775 42.3524C35.7472 42.4227 35.8302 42.4785 35.9216 42.5166C36.013 42.5547 36.111 42.5743 36.21 42.5743C36.309 42.5743 36.407 42.5547 36.4984 42.5166C36.5898 42.4785 36.6728 42.4227 36.7425 42.3524L43.095 35.9999C43.232 35.8562 43.3097 35.666 43.3125 35.4674C43.3131 35.3687 43.2942 35.2709 43.2568 35.1795C43.2195 35.0881 43.1645 35.005 43.095 34.9349L41.9175 33.7499C41.505 33.3139 41.2274 32.7678 41.1181 32.1776C41.0089 31.5873 41.0726 30.9781 41.3017 30.4233C41.5308 29.8684 41.9154 29.3917 42.4092 29.0504C42.903 28.7092 43.485 28.518 44.085 28.4999H45.75C45.9489 28.4999 46.1397 28.4209 46.2803 28.2803C46.421 28.1396 46.5 27.9489 46.5 27.7499V22.4999C46.5006 22.4012 46.4817 22.3034 46.4443 22.212C46.407 22.1206 46.352 22.0375 46.2825 21.9674C46.2124 21.8979 46.1293 21.8429 46.0379 21.8056C45.9466 21.7683 45.8487 21.7494 45.75 21.7499ZM24 21.7499C24.445 21.7499 24.88 21.8819 25.25 22.1291C25.62 22.3764 25.9084 22.7278 26.0787 23.1389C26.249 23.55 26.2936 24.0024 26.2068 24.4389C26.12 24.8754 25.9057 25.2763 25.591 25.5909C25.2763 25.9056 24.8754 26.1199 24.439 26.2067C24.0025 26.2935 23.5501 26.249 23.139 26.0787C22.7278 25.9084 22.3764 25.62 22.1292 25.25C21.882 24.88 21.75 24.445 21.75 23.9999C21.75 23.4032 21.9871 22.8309 22.409 22.409C22.831 21.987 23.4033 21.7499 24 21.7499ZM25.1625 20.4524C25.0276 20.4021 24.8898 20.3595 24.75 20.3249V14.3549L26.1825 18.6524L25.1625 20.4524ZM21.8175 18.6674L23.25 14.3549V20.3099C23.1102 20.3445 22.9724 20.3871 22.8375 20.4374L21.8175 18.6674ZM45 26.9999H44.085C43.2013 27.0082 42.3396 27.2764 41.6073 27.7713C40.8751 28.2661 40.3048 28.9656 39.9675 29.7824V29.8649C39.6152 30.6852 39.5148 31.5916 39.679 32.469C39.8433 33.3465 40.2648 34.1552 40.89 34.7924L41.5425 35.4374L36.2325 40.7399L35.5875 40.0874C34.9573 39.469 34.159 39.0497 33.2921 38.8816C32.4253 38.7136 31.5282 38.8043 30.7125 39.1424L30.6075 39.1874C29.7719 39.515 29.0534 40.0849 28.5442 40.824C28.035 41.563 27.7584 42.4375 27.75 43.3349V44.2499H20.25V43.3349C20.2462 42.4511 19.9796 41.5884 19.4841 40.8566C18.9886 40.1247 18.2867 39.5567 17.4675 39.2249H17.3775C16.5573 38.8726 15.6508 38.7722 14.7734 38.9365C13.896 39.1008 13.0872 39.5223 12.45 40.1474L11.805 40.7999L6.495 35.4599L7.1475 34.8149C7.76957 34.1885 8.1915 33.3914 8.35975 32.5248C8.528 31.6582 8.43498 30.7611 8.0925 29.9474L8.0475 29.8349C7.71739 29.0059 7.14825 28.2937 6.41242 27.7889C5.67659 27.2841 4.80729 27.0095 3.915 26.9999H3V23.2499H10.5C10.4852 26.2844 11.4978 29.2346 13.373 31.6204C15.2481 34.0062 17.8755 35.6872 20.8275 36.3899L21.1725 34.9349C18.8012 34.3663 16.6607 33.0856 15.0385 31.2649C13.4163 29.4443 12.39 27.1709 12.0975 24.7499H20.3475C20.5196 25.5977 20.9795 26.3598 21.6493 26.9072C22.3191 27.4547 23.1575 27.7537 24.0225 27.7537C24.8875 27.7537 25.7259 27.4547 26.3957 26.9072C27.0655 26.3598 27.5254 25.5977 27.6975 24.7499H35.9475C35.6579 27.1735 34.6329 29.4503 33.0105 31.2739C31.388 33.0974 29.246 34.3803 26.8725 34.9499L27.2175 36.4049C30.1637 35.6929 32.7827 34.0059 34.6493 31.6179C36.516 29.2298 37.5205 26.2809 37.5 23.2499H45V26.9999Z" fill="#E6A424"/>
<path d="M22.5902 35.1826L22.4102 36.6826C23.4662 36.8126 24.5341 36.8126 25.5902 36.6826L25.4102 35.1826C24.4735 35.2952 23.5268 35.2952 22.5902 35.1826Z" fill="#E6A424"/>
<path d="M24.75 2.25H23.25V3.75H24.75V2.25Z" fill="#E6A424"/>
<path d="M16.1701 10.5975C16.624 10.2849 17.0974 10.0019 17.5876 9.74997L16.9126 8.40747C16.3655 8.68008 15.8369 8.98824 15.3301 9.32997L16.1701 10.5975Z" fill="#E6A424"/>
<path d="M31.0876 8.42993L30.4126 9.74993C30.9021 9.99455 31.3756 10.2701 31.8301 10.5749L32.6701 9.32993C32.1627 8.9959 31.6341 8.69527 31.0876 8.42993Z" fill="#E6A424"/>
<path d="M9 17.7675L10.44 18.2025C10.5839 17.7215 10.7593 17.2505 10.965 16.7925L9.6 16.1775C9.36613 16.6941 9.16572 17.2252 9 17.7675Z" fill="#E6A424"/>
<path d="M14.7376 11.6776L13.7626 10.5376C12.4081 11.6913 11.2614 13.0688 10.3726 14.6101L11.6626 15.3601C12.4721 13.9676 13.5118 12.7225 14.7376 11.6776Z" fill="#E6A424"/>
<path d="M34.2377 10.5376L33.2627 11.6776C34.4884 12.7225 35.5282 13.9676 36.3377 15.3601L37.6277 14.6101C36.7388 13.0688 35.5922 11.6913 34.2377 10.5376Z" fill="#E6A424"/>
<path d="M39.0002 17.7675C38.8344 17.2252 38.634 16.6941 38.4002 16.1775L37.0352 16.7925C37.2408 17.2505 37.4162 17.7215 37.5602 18.2025L39.0002 17.7675Z" fill="#E6A424"/>
<path d="M19.0123 9.14241C22.2304 7.95003 25.7692 7.95003 28.9873 9.14241L29.5123 7.73991C25.9559 6.4197 22.0437 6.4197 18.4873 7.73991L19.0123 9.14241Z" fill="#E6A424"/>
<path d="M23.25 41.25H24.75V42.75H23.25V41.25Z" fill="#E6A424"/>
<path d="M10.2104 36.7241L11.2711 35.6635L12.3318 36.7241L11.2711 37.7848L10.2104 36.7241Z" fill="#E6A424"/>
<path d="M35.6621 36.7275L36.7228 35.6669L37.7834 36.7275L36.7228 37.7882L35.6621 36.7275Z" fill="#E6A424"/>
<path d="M23.25 23.2351H24.75V24.7351H23.25V23.2351Z" fill="#E6A424"/>
</svg>
