<svg width="14" height="17" viewBox="0 0 14 17" fill="none" xmlns="http://www.w3.org/2000/svg">
<path d="M0 14.6992V6.19922H14V14.6992C14 15.543 13.3125 16.1992 12.5 16.1992H1.5C0.65625 16.1992 0 15.543 0 14.6992ZM10 8.57422V9.82422C10 10.043 10.1562 10.1992 10.375 10.1992H11.625C11.8125 10.1992 12 10.043 12 9.82422V8.57422C12 8.38672 11.8125 8.19922 11.625 8.19922H10.375C10.1562 8.19922 10 8.38672 10 8.57422ZM10 12.5742V13.8242C10 14.043 10.1562 14.1992 10.375 14.1992H11.625C11.8125 14.1992 12 14.043 12 13.8242V12.5742C12 12.3867 11.8125 12.1992 11.625 12.1992H10.375C10.1562 12.1992 10 12.3867 10 12.5742ZM6 8.57422V9.82422C6 10.043 6.15625 10.1992 6.375 10.1992H7.625C7.8125 10.1992 8 10.043 8 9.82422V8.57422C8 8.38672 7.8125 8.19922 7.625 8.19922H6.375C6.15625 8.19922 6 8.38672 6 8.57422ZM6 12.5742V13.8242C6 14.043 6.15625 14.1992 6.375 14.1992H7.625C7.8125 14.1992 8 14.043 8 13.8242V12.5742C8 12.3867 7.8125 12.1992 7.625 12.1992H6.375C6.15625 12.1992 6 12.3867 6 12.5742ZM2 8.57422V9.82422C2 10.043 2.15625 10.1992 2.375 10.1992H3.625C3.8125 10.1992 4 10.043 4 9.82422V8.57422C4 8.38672 3.8125 8.19922 3.625 8.19922H2.375C2.15625 8.19922 2 8.38672 2 8.57422ZM2 12.5742V13.8242C2 14.043 2.15625 14.1992 2.375 14.1992H3.625C3.8125 14.1992 4 14.043 4 13.8242V12.5742C4 12.3867 3.8125 12.1992 3.625 12.1992H2.375C2.15625 12.1992 2 12.3867 2 12.5742ZM12.5 2.19922C13.3125 2.19922 14 2.88672 14 3.69922V5.19922H0V3.69922C0 2.88672 0.65625 2.19922 1.5 2.19922H3V0.699219C3 0.449219 3.21875 0.199219 3.5 0.199219H4.5C4.75 0.199219 5 0.449219 5 0.699219V2.19922H9V0.699219C9 0.449219 9.21875 0.199219 9.5 0.199219H10.5C10.75 0.199219 11 0.449219 11 0.699219V2.19922H12.5Z" fill="#05988C"/>
</svg>
