<svg width="17" height="17" viewBox="0 0 17 17" fill="none" xmlns="http://www.w3.org/2000/svg">
<path d="M8.25977 9.19922C5.75977 9.19922 3.75977 7.19922 3.75977 4.69922C3.75977 2.23047 5.75977 0.199219 8.25977 0.199219C10.7285 0.199219 12.7598 2.23047 12.7598 4.69922C12.7598 7.19922 10.7285 9.19922 8.25977 9.19922ZM12.2598 10.1992C14.4473 10.1992 16.2598 12.0117 16.2598 14.1992V14.6992C16.2598 15.543 15.5723 16.1992 14.7598 16.1992H1.75977C0.916016 16.1992 0.259766 15.543 0.259766 14.6992V14.1992C0.259766 12.0117 2.04102 10.1992 4.25977 10.1992H5.97852C6.66602 10.543 7.44727 10.6992 8.25977 10.6992C9.07227 10.6992 9.82227 10.543 10.5098 10.1992H12.2598Z" fill="#05988C"/>
</svg>
